<svg viewBox="0 0 2000 1000"
	xmlns="http://www.w3.org/2000/svg" id="svg_865858182_226202625355199948518" tabindex="-1" class="quorum-chart" style="user-select: none;" role="application">

	<rect width="100.0%" height="100.0%" x="0.0%" y="0.0%" id="svg_865858182_226202625355199948518_951988316" tabindex="-1" class="quorum-chart-information-list selection-box226202625355199948518" fill="rgb(255.0,255.0,255.0)" role="graphics-object" aria-hidden="true" />

	<g tabindex="-1"><text x="166.0" y="977.0" font-size="37px" font-family="Arial" text-anchor="left" id="svg_865858182_226202625355199948518_399373008" tabindex="-1" class="quorum-chart-text" fill="rgb(0.0,0.0,0.0)" aria-label="Life Span" aria-hidden="true">Life Span</text>
<g id="svg_865858182_226202625355199948518_594651850_legend" tabindex="-1" class="quorum-chart-legendentry" fill="rgb(240.0,94.0,93.0)" fill-opacity="1.0" aria-label="Minimum Life Span1 points, 1 of 2 series." aria-hidden="true"><rect width="266.0" height="58.0" x="330.0" y="942.0" rx="10.0" ry="10.0" id="svg_865858182_226202625355199948518-594651850" tabindex="-1" class="quorum-chart-selection-outline" fill="rgb(0.0,0.0,0.0)" fill-opacity="0.0" aria-hidden="true" />
<rect width="25.0" height="25.0" x="336.0" y="954.0" id="svg_865858182_226202625355199948518_391506011" tabindex="-1" class="quorum-chart-rect" fill="rgb(46.0,46.0,46.0)" aria-hidden="true" />
<text x="373.0" y="973.0" font-size="25px" font-family="Arial" text-anchor="left" id="svg_865858182_226202625355199948518_1936550492" tabindex="-1" class="quorum-chart-text" fill="rgb(0.0,0.0,0.0)" fill-opacity="1.0" aria-label="Minimum Life Span" aria-hidden="true">Minimum Life Span</text>
</g>
<g id="svg_865858182_226202625355199948518_2069500590_legend" tabindex="-1" class="quorum-chart-legendentry" fill="rgb(240.0,94.0,93.0)" fill-opacity="1.0" aria-label="Maximum Life Span1 points, 2 of 2 series." aria-hidden="true"><rect width="273.0" height="58.0" x="596.0" y="942.0" rx="10.0" ry="10.0" id="svg_865858182_226202625355199948518-2069500590" tabindex="-1" class="quorum-chart-selection-outline" fill="rgb(0.0,0.0,0.0)" fill-opacity="0.0" aria-hidden="true" />
<rect width="25.0" height="25.0" x="602.0" y="954.0" id="svg_865858182_226202625355199948518_1532139270" tabindex="-1" class="quorum-chart-rect" fill="rgb(239.0,201.0,31.0)" aria-hidden="true" />
<text x="639.0" y="973.0" font-size="25px" font-family="Arial" text-anchor="left" id="svg_865858182_226202625355199948518_1677568775" tabindex="-1" class="quorum-chart-text" fill="rgb(0.0,0.0,0.0)" fill-opacity="1.0" aria-label="Maximum Life Span" aria-hidden="true">Maximum Life Span</text>
</g>
</g>

	<g tabindex="-1"><rect width="0.0" height="0.0" x="154.0" y="942.0" id="svg_865858182_226202625355199948518_870322840" tabindex="-1" aria-hidden="true" />
<rect width="0.0" height="0.0" x="154.0" y="942.0" id="svg_865858182_226202625355199948518_837246227" tabindex="-1" aria-hidden="true" />
<rect width="0.0" height="0.0" x="154.0" y="942.0" id="svg_865858182_226202625355199948518_173738886" tabindex="-1" aria-hidden="true" />
<rect width="0.0" height="0.0" x="154.0" y="942.0" id="svg_865858182_226202625355199948518_1262237002" tabindex="-1" aria-hidden="true" />
<rect width="0.0" height="0.0" x="154.0" y="942.0" id="svg_865858182_226202625355199948518_2029754983" tabindex="-1" aria-hidden="true" />
<rect width="0.0" height="0.0" x="154.0" y="942.0" id="svg_865858182_226202625355199948518_1946111918" tabindex="-1" aria-hidden="true" />
<text x="473.0" y="865.0" font-size="27px" font-family="Arial" text-anchor="left" transform="rotate(0.0, 473.0, 871)" id="svg_865858182_226202625355199948518_338887787" tabindex="-1" class="quorum-chart-text" fill="rgb(0.0,0.0,0.0)" fill-opacity="1.0" aria-label=", 1 of 2 labels." aria-hidden="true">Minimum Life Span</text>
<text x="1339.0" y="865.0" font-size="27px" font-family="Arial" text-anchor="left" transform="rotate(0.0, 1339.0, 871)" id="svg_865858182_226202625355199948518_1061448687" tabindex="-1" class="quorum-chart-text" fill="rgb(0.0,0.0,0.0)" fill-opacity="1.0" aria-label=", 2 of 2 labels." aria-hidden="true">Maximum Life Span</text>
</g>

	<line x1="0.0" y1="0.0" x2="0.0" y2="0.0" id="svg_865858182_226202625355199948518_1411543296" tabindex="-1" stroke-width="0.0" stroke-dasharray="20 20" transform=" translate(154.0 837.0)   " aria-hidden="true" />

	<line x1="0.0" y1="0.0" x2="0.0" y2="0.0" id="svg_865858182_226202625355199948518_1800967368" tabindex="-1" stroke-width="0.0" stroke-dasharray="20 20" transform=" translate(154.0 837.0)   " aria-hidden="true" />

	<rect width="0.0" height="0.0" x="0.0" y="837.0" id="svg_865858182_226202625355199948518_1533330615" tabindex="-1" aria-hidden="true" />

	<rect width="0.0" height="0.0" x="0.0" y="837.0" id="svg_865858182_226202625355199948518_1197721383" tabindex="-1" aria-hidden="true" />

	<rect width="0.0" height="0.0" x="0.0" y="837.0" id="svg_865858182_226202625355199948518_1917082298" tabindex="-1" aria-hidden="true" />

	<rect width="0.0" height="0.0" x="0.0" y="837.0" id="svg_865858182_226202625355199948518_1639765351" tabindex="-1" aria-hidden="true" />

	<rect width="0.0" height="0.0" x="0.0" y="837.0" id="svg_865858182_226202625355199948518_478209179" tabindex="-1" aria-hidden="true" />

	<rect width="0.0" height="0.0" x="0.0" y="837.0" id="svg_865858182_226202625355199948518_1166230227" tabindex="-1" aria-hidden="true" />

	<rect width="0.0" height="0.0" x="0.0" y="837.0" id="svg_865858182_226202625355199948518_365056339" tabindex="-1" aria-hidden="true" />

	<rect width="0.0" height="0.0" x="0.0" y="837.0" id="svg_865858182_226202625355199948518_307411297" tabindex="-1" aria-hidden="true" />

	<rect width="0.0" height="0.0" x="0.0" y="837.0" id="svg_865858182_226202625355199948518_166536076" tabindex="-1" aria-hidden="true" />

	<rect width="0.0" height="0.0" x="0.0" y="837.0" id="svg_865858182_226202625355199948518_1445424568" tabindex="-1" aria-hidden="true" />

	<rect width="0.0" height="0.0" x="0.0" y="837.0" id="svg_865858182_226202625355199948518_1374217958" tabindex="-1" aria-hidden="true" />

	<rect width="0.0" height="0.0" x="0.0" y="837.0" id="svg_865858182_226202625355199948518_1459016715" tabindex="-1" aria-hidden="true" />

	<rect width="0.0" height="0.0" x="0.0" y="837.0" id="svg_865858182_226202625355199948518_912747546" tabindex="-1" aria-hidden="true" />

	<rect width="0.0" height="0.0" x="0.0" y="837.0" id="svg_865858182_226202625355199948518_1530957251" tabindex="-1" aria-hidden="true" />

	<rect width="0.0" height="0.0" x="0.0" y="837.0" id="svg_865858182_226202625355199948518_1292472219" tabindex="-1" aria-hidden="true" />

	<rect width="0.0" height="0.0" x="0.0" y="837.0" id="svg_865858182_226202625355199948518_767511741" tabindex="-1" aria-hidden="true" />

	<rect width="0.0" height="0.0" x="0.0" y="837.0" id="svg_865858182_226202625355199948518_548795052" tabindex="-1" aria-hidden="true" />

	<rect width="0.0" height="0.0" x="0.0" y="837.0" id="svg_865858182_226202625355199948518_2143571436" tabindex="-1" aria-hidden="true" />

	<rect width="0.0" height="0.0" x="0.0" y="837.0" id="svg_865858182_226202625355199948518_2117099736" tabindex="-1" aria-hidden="true" />

	<rect width="0.0" height="0.0" x="0.0" y="837.0" id="svg_865858182_226202625355199948518_691863815" tabindex="-1" aria-hidden="true" />

	<rect width="0.0" height="0.0" x="0.0" y="837.0" id="svg_865858182_226202625355199948518_647149086" tabindex="-1" aria-hidden="true" />

	<rect width="0.0" height="0.0" x="0.0" y="837.0" id="svg_865858182_226202625355199948518_2070160397" tabindex="-1" aria-hidden="true" />

	<rect width="0.0" height="0.0" x="0.0" y="837.0" id="svg_865858182_226202625355199948518_103787801" tabindex="-1" aria-hidden="true" />

	<rect width="0.0" height="0.0" x="0.0" y="837.0" id="svg_865858182_226202625355199948518_1205580258" tabindex="-1" aria-hidden="true" />

	<line x1="0.0" y1="0.0" x2="0.0" y2="0.0" id="svg_865858182_226202625355199948518_1959451969" tabindex="-1" stroke="rgb(227.0,221.0,221.0)" stroke-width="0.0" stroke-dasharray="20 20" transform=" translate(154.0 837.0)   " aria-hidden="true" />

	<line x1="0.0" y1="0.0" x2="1740.0" y2="0.0" id="svg_865858182_226202625355199948518_777313177" tabindex="-1" stroke="rgb(227.0,221.0,221.0)" stroke-width="2.0" stroke-dasharray="20 20" transform=" translate(154.0 738.0)   " aria-hidden="true" />

	<line x1="0.0" y1="0.0" x2="1740.0" y2="0.0" id="svg_865858182_226202625355199948518_1441328175" tabindex="-1" stroke="rgb(227.0,221.0,221.0)" stroke-width="2.0" stroke-dasharray="20 20" transform=" translate(154.0 639.0)   " aria-hidden="true" />

	<line x1="0.0" y1="0.0" x2="1740.0" y2="0.0" id="svg_865858182_226202625355199948518_1327895505" tabindex="-1" stroke="rgb(227.0,221.0,221.0)" stroke-width="2.0" stroke-dasharray="20 20" transform=" translate(154.0 541.0)   " aria-hidden="true" />

	<line x1="0.0" y1="0.0" x2="1740.0" y2="0.0" id="svg_865858182_226202625355199948518_1831141281" tabindex="-1" stroke="rgb(227.0,221.0,221.0)" stroke-width="2.0" stroke-dasharray="20 20" transform=" translate(154.0 442.0)   " aria-hidden="true" />

	<line x1="0.0" y1="0.0" x2="1740.0" y2="0.0" id="svg_865858182_226202625355199948518_1705277839" tabindex="-1" stroke="rgb(227.0,221.0,221.0)" stroke-width="2.0" stroke-dasharray="20 20" transform=" translate(154.0 344.0)   " aria-hidden="true" />

	<line x1="0.0" y1="0.0" x2="1740.0" y2="0.0" id="svg_865858182_226202625355199948518_2000648320" tabindex="-1" stroke="rgb(227.0,221.0,221.0)" stroke-width="2.0" stroke-dasharray="20 20" transform=" translate(154.0 245.0)   " aria-hidden="true" />

	<line x1="0.0" y1="0.0" x2="1740.0" y2="0.0" id="svg_865858182_226202625355199948518_142099757" tabindex="-1" stroke="rgb(227.0,221.0,221.0)" stroke-width="2.0" stroke-dasharray="20 20" transform=" translate(154.0 146.0)   " aria-hidden="true" />

	<text x="127.0" y="846.0" font-size="27px" font-family="Arial" text-anchor="left" id="svg_865858182_226202625355199948518_1114335860" tabindex="-1" class="quorum-chart-text" fill="rgb(0.0,0.0,0.0)" fill-opacity="1.0" aria-label=" label. " aria-hidden="true">6</text>

	<text x="127.0" y="748.0" font-size="27px" font-family="Arial" text-anchor="left" id="svg_865858182_226202625355199948518_80026551" tabindex="-1" class="quorum-chart-text" fill="rgb(0.0,0.0,0.0)" fill-opacity="1.0" aria-label=" label. " aria-hidden="true">8</text>

	<text x="112.0" y="650.0" font-size="27px" font-family="Arial" text-anchor="left" id="svg_865858182_226202625355199948518_137533655" tabindex="-1" class="quorum-chart-text" fill="rgb(0.0,0.0,0.0)" fill-opacity="1.0" aria-label=" label. " aria-hidden="true">10</text>

	<text x="112.0" y="551.0" font-size="27px" font-family="Arial" text-anchor="left" id="svg_865858182_226202625355199948518_1118430673" tabindex="-1" class="quorum-chart-text" fill="rgb(0.0,0.0,0.0)" fill-opacity="1.0" aria-label=" label. " aria-hidden="true">12</text>

	<text x="112.0" y="453.0" font-size="27px" font-family="Arial" text-anchor="left" id="svg_865858182_226202625355199948518_1527254842" tabindex="-1" class="quorum-chart-text" fill="rgb(0.0,0.0,0.0)" fill-opacity="1.0" aria-label=" label. " aria-hidden="true">14</text>

	<text x="112.0" y="354.0" font-size="27px" font-family="Arial" text-anchor="left" id="svg_865858182_226202625355199948518_2000469839" tabindex="-1" class="quorum-chart-text" fill="rgb(0.0,0.0,0.0)" fill-opacity="1.0" aria-label=" label. " aria-hidden="true">16</text>

	<text x="112.0" y="256.0" font-size="27px" font-family="Arial" text-anchor="left" id="svg_865858182_226202625355199948518_1800693087" tabindex="-1" class="quorum-chart-text" fill="rgb(0.0,0.0,0.0)" fill-opacity="1.0" aria-label=" label. " aria-hidden="true">18</text>

	<text x="112.0" y="157.0" font-size="27px" font-family="Arial" text-anchor="left" id="svg_865858182_226202625355199948518_1717473929" tabindex="-1" class="quorum-chart-text" fill="rgb(0.0,0.0,0.0)" fill-opacity="1.0" aria-label=" label. " aria-hidden="true">20</text>

	<rect width="1740.0" height="3.0" x="154.0" y="837.0" id="svg_865858182_226202625355199948518_2138005960" tabindex="-1" fill="rgb(153.0,153.0,153.0)" aria-hidden="true" />

	<text x="889.0" y="914.0" font-size="37px" font-family="Arial" text-anchor="left" id="svg_865858182_226202625355199948518-2100572327" tabindex="-1" class="quorum-chart-text" fill="rgb(0.0,0.0,0.0)" fill-opacity="1.0" aria-hidden="true">Type of extrema</text>

	<text x="85.0" y="526.0" font-size="37px" font-family="Arial" text-anchor="left" transform="rotate(270.0, 85.0, 526)" id="svg_865858182_226202625355199948518_1868578441" tabindex="-1" class="quorum-chart-text" fill="rgb(0.0,0.0,0.0)" aria-hidden="true">Age</text>

	<text x="719.0" y="57.0" font-weight="bold" font-size="20px" font-family="Arial" text-anchor="left" id="svg_865858182_226202625355199948518_659996839" tabindex="-1" class="quorum-chart-text" fill="rgb(0.0,0.0,0.0)" fill-opacity="1.0" aria-hidden="true">Minimum and Maximum Life Expectancy for Various Cat Breeds</text>

	<text x="904.0" y="109.0" font-size="25px" font-family="Arial" text-anchor="left" id="svg_865858182_226202625355199948518_890160158" tabindex="-1" fill="rgb(32.0,32.0,32.0)" aria-hidden="true">How long do cats live</text>

	<g tabindex="-1"><g width="1740.0" height="690.0" x="154.0" y="147.0" id="svg_865858182_226202625355199948518_647973805" tabindex="0" class="quorum-chart-area quorum-chart-information-list selection-box226202625355199948518" role="graphics-object" aria-label="Minimum and Maximum Life Expectancy for Various Cat Breeds , Violin Plot with 2 plots. To navigate the chart, use Enter to move into the list of plots or use the arrow keys to navigate the chart information." aria-hidden="false"><rect width="1740.0" height="690.0" x="154.0" y="147.0" id="svg_865858182_226202625355199948518_647973805_boundingbox" tabindex="-1" class="selection-box226202625355199948518" fill="rgb(0.0,0.0,0.0)" fill-opacity="0.0" stroke="rgb(0.0,0.0,0.0)" stroke-opacity="0.0" aria-hidden="true" /><g id="svg_865858182_226202625355199948518_594651850_66724371" tabindex="-1" class="quorum-chart-plot-list selection-box226202625355199948518" fill="rgb(46.0,46.0,46.0)" fill-opacity="1.0" role="graphics-object" aria-label="Minimum Life Span plot,  12, data ranges from  8 to  15, 1 of 2 plots. To navigate the list of plots, use the arrow keys to move between plots in list order, use Page Up or Page Down to move between plots by median value order, use Shift + Enter to return to the plot group list." aria-hidden="false"><rect width="870.0" height="591.0" x="154.0" y="246.0" tabindex="-1" class="selection-box226202625355199948518" fill="rgb(0.0,0.0,0.0)" fill-opacity="0.0" aria-hidden="true" /><polygon tabindex="-1" fill="rgb(46.0,46.0,46.0)" fill-opacity="1.0" stroke="rgb(0.0,0.0,0.0)" stroke-opacity="1.0" stroke-width="0.0" aria-hidden="true" points="572.0,247.0 572.0,248.0 571.0,249.0 571.0,250.0 571.0,251.0 571.0,252.0 571.0,253.0 571.0,254.0 570.0,255.0 570.0,256.0 570.0,257.0 570.0,258.0 570.0,259.0 570.0,260.0 570.0,261.0 570.0,262.0 570.0,263.0 570.0,264.0 569.0,265.0 569.0,266.0 569.0,267.0 569.0,268.0 569.0,269.0 569.0,270.0 569.0,271.0 569.0,272.0 569.0,273.0 569.0,274.0 569.0,275.0 569.0,276.0 569.0,277.0 569.0,278.0 569.0,279.0 570.0,280.0 570.0,281.0 570.0,282.0 570.0,283.0 570.0,284.0 570.0,285.0 570.0,286.0 570.0,287.0 570.0,288.0 570.0,289.0 570.0,290.0 570.0,291.0 571.0,292.0 571.0,293.0 571.0,294.0 571.0,295.0 571.0,296.0 571.0,297.0 571.0,298.0 571.0,299.0 572.0,300.0 572.0,301.0 572.0,302.0 572.0,303.0 572.0,304.0 572.0,305.0 572.0,306.0 572.0,307.0 572.0,308.0 572.0,309.0 573.0,310.0 573.0,311.0 573.0,312.0 573.0,313.0 573.0,314.0 573.0,315.0 573.0,316.0 573.0,317.0 573.0,318.0 573.0,319.0 573.0,320.0 573.0,321.0 573.0,322.0 572.0,323.0 572.0,324.0 572.0,325.0 572.0,326.0 572.0,327.0 572.0,328.0 571.0,329.0 571.0,330.0 571.0,331.0 571.0,332.0 570.0,333.0 570.0,334.0 569.0,335.0 569.0,336.0 569.0,337.0 568.0,338.0 568.0,339.0 567.0,340.0 566.0,341.0 566.0,342.0 565.0,343.0 564.0,344.0 564.0,345.0 563.0,346.0 562.0,347.0 561.0,348.0 561.0,349.0 560.0,350.0 559.0,351.0 558.0,352.0 557.0,353.0 556.0,354.0 555.0,355.0 554.0,356.0 552.0,357.0 551.0,358.0 550.0,359.0 549.0,360.0 548.0,361.0 546.0,362.0 545.0,363.0 544.0,364.0 542.0,365.0 541.0,366.0 540.0,367.0 538.0,368.0 537.0,369.0 535.0,370.0 534.0,371.0 532.0,372.0 531.0,373.0 529.0,374.0 527.0,375.0 526.0,376.0 524.0,377.0 523.0,378.0 521.0,379.0 519.0,380.0 518.0,381.0 516.0,382.0 514.0,383.0 512.0,384.0 511.0,385.0 509.0,386.0 507.0,387.0 505.0,388.0 504.0,389.0 502.0,390.0 500.0,391.0 498.0,392.0 497.0,393.0 495.0,394.0 493.0,395.0 491.0,396.0 490.0,397.0 488.0,398.0 486.0,399.0 484.0,400.0 483.0,401.0 481.0,402.0 479.0,403.0 478.0,404.0 476.0,405.0 474.0,406.0 473.0,407.0 471.0,408.0 469.0,409.0 468.0,410.0 466.0,411.0 465.0,412.0 463.0,413.0 462.0,414.0 460.0,415.0 459.0,416.0 458.0,417.0 456.0,418.0 455.0,419.0 454.0,420.0 453.0,421.0 452.0,422.0 450.0,423.0 449.0,424.0 448.0,425.0 447.0,426.0 446.0,427.0 446.0,428.0 445.0,429.0 444.0,430.0 443.0,431.0 442.0,432.0 442.0,433.0 441.0,434.0 441.0,435.0 440.0,436.0 440.0,437.0 439.0,438.0 439.0,439.0 439.0,440.0 438.0,441.0 438.0,442.0 438.0,443.0 438.0,444.0 438.0,445.0 438.0,446.0 437.0,447.0 437.0,448.0 437.0,449.0 437.0,450.0 437.0,451.0 437.0,452.0 437.0,453.0 437.0,454.0 437.0,455.0 437.0,456.0 437.0,457.0 437.0,458.0 437.0,459.0 437.0,460.0 436.0,461.0 436.0,462.0 436.0,463.0 435.0,464.0 435.0,465.0 434.0,466.0 434.0,467.0 433.0,468.0 432.0,469.0 431.0,470.0 430.0,471.0 429.0,472.0 428.0,473.0 427.0,474.0 425.0,475.0 424.0,476.0 422.0,477.0 420.0,478.0 418.0,479.0 416.0,480.0 413.0,481.0 411.0,482.0 408.0,483.0 406.0,484.0 403.0,485.0 399.0,486.0 396.0,487.0 393.0,488.0 389.0,489.0 385.0,490.0 381.0,491.0 377.0,492.0 373.0,493.0 369.0,494.0 364.0,495.0 359.0,496.0 355.0,497.0 350.0,498.0 344.0,499.0 339.0,500.0 334.0,501.0 329.0,502.0 323.0,503.0 317.0,504.0 312.0,505.0 306.0,506.0 300.0,507.0 294.0,508.0 289.0,509.0 283.0,510.0 277.0,511.0 271.0,512.0 265.0,513.0 259.0,514.0 253.0,515.0 247.0,516.0 242.0,517.0 236.0,518.0 231.0,519.0 225.0,520.0 220.0,521.0 215.0,522.0 210.0,523.0 205.0,524.0 200.0,525.0 196.0,526.0 191.0,527.0 187.0,528.0 183.0,529.0 179.0,530.0 176.0,531.0 173.0,532.0 170.0,533.0 167.0,534.0 164.0,535.0 162.0,536.0 160.0,537.0 159.0,538.0 157.0,539.0 156.0,540.0 155.0,541.0 155.0,542.0 154.0,543.0 155.0,544.0 155.0,545.0 155.0,546.0 156.0,547.0 157.0,548.0 159.0,549.0 161.0,550.0 162.0,551.0 165.0,552.0 167.0,553.0 170.0,554.0 173.0,555.0 176.0,556.0 179.0,557.0 183.0,558.0 186.0,559.0 190.0,560.0 194.0,561.0 199.0,562.0 203.0,563.0 208.0,564.0 212.0,565.0 217.0,566.0 222.0,567.0 227.0,568.0 232.0,569.0 237.0,570.0 242.0,571.0 247.0,572.0 252.0,573.0 257.0,574.0 262.0,575.0 267.0,576.0 272.0,577.0 277.0,578.0 282.0,579.0 287.0,580.0 292.0,581.0 297.0,582.0 302.0,583.0 306.0,584.0 311.0,585.0 315.0,586.0 319.0,587.0 324.0,588.0 328.0,589.0 331.0,590.0 335.0,591.0 339.0,592.0 342.0,593.0 346.0,594.0 349.0,595.0 352.0,596.0 355.0,597.0 358.0,598.0 360.0,599.0 363.0,600.0 365.0,601.0 367.0,602.0 369.0,603.0 371.0,604.0 373.0,605.0 375.0,606.0 376.0,607.0 378.0,608.0 379.0,609.0 380.0,610.0 381.0,611.0 382.0,612.0 383.0,613.0 384.0,614.0 385.0,615.0 386.0,616.0 386.0,617.0 387.0,618.0 387.0,619.0 388.0,620.0 388.0,621.0 389.0,622.0 389.0,623.0 390.0,624.0 390.0,625.0 390.0,626.0 391.0,627.0 391.0,628.0 392.0,629.0 392.0,630.0 392.0,631.0 393.0,632.0 393.0,633.0 394.0,634.0 395.0,635.0 395.0,636.0 396.0,637.0 397.0,638.0 398.0,639.0 398.0,640.0 399.0,641.0 400.0,642.0 401.0,643.0 403.0,644.0 404.0,645.0 405.0,646.0 406.0,647.0 408.0,648.0 409.0,649.0 411.0,650.0 412.0,651.0 414.0,652.0 416.0,653.0 418.0,654.0 420.0,655.0 422.0,656.0 424.0,657.0 426.0,658.0 428.0,659.0 430.0,660.0 432.0,661.0 434.0,662.0 437.0,663.0 439.0,664.0 441.0,665.0 444.0,666.0 446.0,667.0 449.0,668.0 451.0,669.0 454.0,670.0 456.0,671.0 459.0,672.0 461.0,673.0 464.0,674.0 466.0,675.0 469.0,676.0 471.0,677.0 474.0,678.0 476.0,679.0 479.0,680.0 481.0,681.0 484.0,682.0 486.0,683.0 489.0,684.0 491.0,685.0 493.0,686.0 496.0,687.0 498.0,688.0 500.0,689.0 503.0,690.0 505.0,691.0 507.0,692.0 509.0,693.0 511.0,694.0 513.0,695.0 515.0,696.0 517.0,697.0 519.0,698.0 521.0,699.0 522.0,700.0 524.0,701.0 526.0,702.0 528.0,703.0 529.0,704.0 531.0,705.0 532.0,706.0 534.0,707.0 535.0,708.0 537.0,709.0 538.0,710.0 539.0,711.0 541.0,712.0 542.0,713.0 543.0,714.0 544.0,715.0 546.0,716.0 547.0,717.0 548.0,718.0 549.0,719.0 550.0,720.0 551.0,721.0 552.0,722.0 553.0,723.0 554.0,724.0 554.0,725.0 555.0,726.0 556.0,727.0 557.0,728.0 558.0,729.0 558.0,730.0 559.0,731.0 560.0,732.0 561.0,733.0 561.0,734.0 562.0,735.0 563.0,736.0 563.0,737.0 564.0,738.0 565.0,739.0 613.0,739.0 614.0,738.0 615.0,737.0 615.0,736.0 616.0,735.0 617.0,734.0 617.0,733.0 618.0,732.0 619.0,731.0 620.0,730.0 620.0,729.0 621.0,728.0 622.0,727.0 623.0,726.0 624.0,725.0 624.0,724.0 625.0,723.0 626.0,722.0 627.0,721.0 628.0,720.0 629.0,719.0 630.0,718.0 631.0,717.0 632.0,716.0 634.0,715.0 635.0,714.0 636.0,713.0 637.0,712.0 639.0,711.0 640.0,710.0 641.0,709.0 643.0,708.0 644.0,707.0 646.0,706.0 647.0,705.0 649.0,704.0 650.0,703.0 652.0,702.0 654.0,701.0 656.0,700.0 657.0,699.0 659.0,698.0 661.0,697.0 663.0,696.0 665.0,695.0 667.0,694.0 669.0,693.0 671.0,692.0 673.0,691.0 675.0,690.0 678.0,689.0 680.0,688.0 682.0,687.0 685.0,686.0 687.0,685.0 689.0,684.0 692.0,683.0 694.0,682.0 697.0,681.0 699.0,680.0 702.0,679.0 704.0,678.0 707.0,677.0 709.0,676.0 712.0,675.0 714.0,674.0 717.0,673.0 719.0,672.0 722.0,671.0 724.0,670.0 727.0,669.0 729.0,668.0 732.0,667.0 734.0,666.0 737.0,665.0 739.0,664.0 741.0,663.0 744.0,662.0 746.0,661.0 748.0,660.0 750.0,659.0 752.0,658.0 754.0,657.0 756.0,656.0 758.0,655.0 760.0,654.0 762.0,653.0 764.0,652.0 766.0,651.0 767.0,650.0 769.0,649.0 770.0,648.0 772.0,647.0 773.0,646.0 774.0,645.0 775.0,644.0 777.0,643.0 778.0,642.0 779.0,641.0 780.0,640.0 780.0,639.0 781.0,638.0 782.0,637.0 783.0,636.0 783.0,635.0 784.0,634.0 785.0,633.0 785.0,632.0 786.0,631.0 786.0,630.0 786.0,629.0 787.0,628.0 787.0,627.0 788.0,626.0 788.0,625.0 788.0,624.0 789.0,623.0 789.0,622.0 790.0,621.0 790.0,620.0 791.0,619.0 791.0,618.0 792.0,617.0 792.0,616.0 793.0,615.0 794.0,614.0 795.0,613.0 796.0,612.0 797.0,611.0 798.0,610.0 799.0,609.0 800.0,608.0 802.0,607.0 803.0,606.0 805.0,605.0 807.0,604.0 809.0,603.0 811.0,602.0 813.0,601.0 815.0,600.0 818.0,599.0 820.0,598.0 823.0,597.0 826.0,596.0 829.0,595.0 832.0,594.0 836.0,593.0 839.0,592.0 843.0,591.0 847.0,590.0 850.0,589.0 854.0,588.0 859.0,587.0 863.0,586.0 867.0,585.0 872.0,584.0 876.0,583.0 881.0,582.0 886.0,581.0 891.0,580.0 896.0,579.0 901.0,578.0 906.0,577.0 911.0,576.0 916.0,575.0 921.0,574.0 926.0,573.0 931.0,572.0 936.0,571.0 941.0,570.0 946.0,569.0 951.0,568.0 956.0,567.0 961.0,566.0 966.0,565.0 970.0,564.0 975.0,563.0 979.0,562.0 984.0,561.0 988.0,560.0 992.0,559.0 995.0,558.0 999.0,557.0 1002.0,556.0 1005.0,555.0 1008.0,554.0 1011.0,553.0 1013.0,552.0 1016.0,551.0 1017.0,550.0 1019.0,549.0 1021.0,548.0 1022.0,547.0 1023.0,546.0 1023.0,545.0 1023.0,544.0 1024.0,543.0 1023.0,542.0 1023.0,541.0 1022.0,540.0 1021.0,539.0 1019.0,538.0 1018.0,537.0 1016.0,536.0 1014.0,535.0 1011.0,534.0 1008.0,533.0 1005.0,532.0 1002.0,531.0 999.0,530.0 995.0,529.0 991.0,528.0 987.0,527.0 982.0,526.0 978.0,525.0 973.0,524.0 968.0,523.0 963.0,522.0 958.0,521.0 953.0,520.0 947.0,519.0 942.0,518.0 936.0,517.0 931.0,516.0 925.0,515.0 919.0,514.0 913.0,513.0 907.0,512.0 901.0,511.0 895.0,510.0 889.0,509.0 884.0,508.0 878.0,507.0 872.0,506.0 866.0,505.0 861.0,504.0 855.0,503.0 849.0,502.0 844.0,501.0 839.0,500.0 834.0,499.0 828.0,498.0 823.0,497.0 819.0,496.0 814.0,495.0 809.0,494.0 805.0,493.0 801.0,492.0 797.0,491.0 793.0,490.0 789.0,489.0 785.0,488.0 782.0,487.0 779.0,486.0 775.0,485.0 772.0,484.0 770.0,483.0 767.0,482.0 765.0,481.0 762.0,480.0 760.0,479.0 758.0,478.0 756.0,477.0 754.0,476.0 753.0,475.0 751.0,474.0 750.0,473.0 749.0,472.0 748.0,471.0 747.0,470.0 746.0,469.0 745.0,468.0 744.0,467.0 744.0,466.0 743.0,465.0 743.0,464.0 742.0,463.0 742.0,462.0 742.0,461.0 741.0,460.0 741.0,459.0 741.0,458.0 741.0,457.0 741.0,456.0 741.0,455.0 741.0,454.0 741.0,453.0 741.0,452.0 741.0,451.0 741.0,450.0 741.0,449.0 741.0,448.0 741.0,447.0 740.0,446.0 740.0,445.0 740.0,444.0 740.0,443.0 740.0,442.0 740.0,441.0 739.0,440.0 739.0,439.0 739.0,438.0 738.0,437.0 738.0,436.0 737.0,435.0 737.0,434.0 736.0,433.0 736.0,432.0 735.0,431.0 734.0,430.0 733.0,429.0 732.0,428.0 732.0,427.0 731.0,426.0 730.0,425.0 729.0,424.0 728.0,423.0 726.0,422.0 725.0,421.0 724.0,420.0 723.0,419.0 722.0,418.0 720.0,417.0 719.0,416.0 718.0,415.0 716.0,414.0 715.0,413.0 713.0,412.0 712.0,411.0 710.0,410.0 709.0,409.0 707.0,408.0 705.0,407.0 704.0,406.0 702.0,405.0 700.0,404.0 699.0,403.0 697.0,402.0 695.0,401.0 694.0,400.0 692.0,399.0 690.0,398.0 688.0,397.0 687.0,396.0 685.0,395.0 683.0,394.0 681.0,393.0 680.0,392.0 678.0,391.0 676.0,390.0 674.0,389.0 673.0,388.0 671.0,387.0 669.0,386.0 667.0,385.0 666.0,384.0 664.0,383.0 662.0,382.0 660.0,381.0 659.0,380.0 657.0,379.0 655.0,378.0 654.0,377.0 652.0,376.0 651.0,375.0 649.0,374.0 647.0,373.0 646.0,372.0 644.0,371.0 643.0,370.0 641.0,369.0 640.0,368.0 638.0,367.0 637.0,366.0 636.0,365.0 634.0,364.0 633.0,363.0 632.0,362.0 630.0,361.0 629.0,360.0 628.0,359.0 627.0,358.0 626.0,357.0 624.0,356.0 623.0,355.0 622.0,354.0 621.0,353.0 620.0,352.0 619.0,351.0 618.0,350.0 617.0,349.0 617.0,348.0 616.0,347.0 615.0,346.0 614.0,345.0 614.0,344.0 613.0,343.0 612.0,342.0 612.0,341.0 611.0,340.0 610.0,339.0 610.0,338.0 609.0,337.0 609.0,336.0 609.0,335.0 608.0,334.0 608.0,333.0 607.0,332.0 607.0,331.0 607.0,330.0 607.0,329.0 606.0,328.0 606.0,327.0 606.0,326.0 606.0,325.0 606.0,324.0 606.0,323.0 605.0,322.0 605.0,321.0 605.0,320.0 605.0,319.0 605.0,318.0 605.0,317.0 605.0,316.0 605.0,315.0 605.0,314.0 605.0,313.0 605.0,312.0 605.0,311.0 605.0,310.0 606.0,309.0 606.0,308.0 606.0,307.0 606.0,306.0 606.0,305.0 606.0,304.0 606.0,303.0 606.0,302.0 606.0,301.0 606.0,300.0 607.0,299.0 607.0,298.0 607.0,297.0 607.0,296.0 607.0,295.0 607.0,294.0 607.0,293.0 607.0,292.0 608.0,291.0 608.0,290.0 608.0,289.0 608.0,288.0 608.0,287.0 608.0,286.0 608.0,285.0 608.0,284.0 608.0,283.0 608.0,282.0 608.0,281.0 608.0,280.0 609.0,279.0 609.0,278.0 609.0,277.0 609.0,276.0 609.0,275.0 609.0,274.0 609.0,273.0 609.0,272.0 609.0,271.0 609.0,270.0 609.0,269.0 609.0,268.0 609.0,267.0 609.0,266.0 609.0,265.0 608.0,264.0 608.0,263.0 608.0,262.0 608.0,261.0 608.0,260.0 608.0,259.0 608.0,258.0 608.0,257.0 608.0,256.0 608.0,255.0 607.0,254.0 607.0,253.0 607.0,252.0 607.0,251.0 607.0,250.0 607.0,249.0 606.0,248.0 606.0,247.0 " /><g id="svg_865858182_226202625355199948518_594651850_66724371_1493042329" tabindex="-1" class="quorum-chart-plotitem-list selection-box226202625355199948518" fill="rgb(0.0,0.0,0.0)" fill-opacity="1.0" role="graphics-symbol" aria-label="Minimum 8 To navigate the list of plot summary items, use the arrow keys to move between plot summary items in list order, use Shift + Enter to return to the plots list." aria-hidden="false"><rect width="6.0" height="6.0" x="586.0" y="733.0" id="svg_865858182_226202625355199948518_594651850_66724371_1493042329_item" tabindex="-1" class="selection-box226202625355199948518" fill="rgb(0.0,0.0,0.0)" fill-opacity="1.0" stroke="rgb(0.0,0.0,0.0)" stroke-opacity="1.0" stroke-width="0.0" aria-hidden="true" /></g><g id="svg_865858182_226202625355199948518_594651850_66724371_1751403001" tabindex="-1" class="quorum-chart-plotitem-list selection-box226202625355199948518" fill="rgb(191.25,191.25,191.25)" fill-opacity="1.0" role="graphics-symbol" aria-label="Interquartile range 2" aria-hidden="false"><rect width="18.0" height="105.0" x="580.0" y="486.0" id="svg_865858182_226202625355199948518_594651850_66724371_1751403001_item" tabindex="-1" class="selection-box226202625355199948518" fill="rgb(191.25,191.25,191.25)" fill-opacity="1.0" stroke="rgb(0.0,0.0,0.0)" stroke-opacity="1.0" stroke-width="2.0" aria-hidden="true" /></g><g id="svg_865858182_226202625355199948518_594651850_66724371_1717433286" tabindex="-1" class="quorum-chart-plotitem-list selection-box226202625355199948518" fill="rgb(0.0,0.0,0.0)" fill-opacity="1.0" role="graphics-symbol" aria-label="1st Quartile 11" aria-hidden="false"><rect width="18.0" height="6.0" x="580.0" y="585.0" id="svg_865858182_226202625355199948518_594651850_66724371_1717433286_item" tabindex="-1" class="selection-box226202625355199948518" fill="rgb(0.0,0.0,0.0)" fill-opacity="1.0" stroke="rgb(0.0,0.0,0.0)" stroke-opacity="1.0" stroke-width="0.0" aria-hidden="true" /></g><g id="svg_865858182_226202625355199948518_594651850_66724371_1756819670" tabindex="-1" class="quorum-chart-plotitem-list selection-box226202625355199948518" fill="rgb(0.0,0.0,0.0)" fill-opacity="1.0" role="graphics-symbol" aria-label="Median 12" aria-hidden="false"><circle cx="588.5" cy="535.5" r="6.5" id="svg_865858182_226202625355199948518_594651850_66724371_1756819670_item" tabindex="-1" class="selection-box226202625355199948518" fill="rgb(0.0,0.0,0.0)" fill-opacity="1.0" stroke="rgb(153.0,153.0,153.0)" stroke-opacity="1.0" stroke-width="1.0" aria-hidden="true" /></g><g id="svg_865858182_226202625355199948518_594651850_66724371_1078262677" tabindex="-1" class="quorum-chart-plotitem-list selection-box226202625355199948518" fill="rgb(0.0,0.0,0.0)" fill-opacity="1.0" role="graphics-symbol" aria-label="3rd Quartile 13" aria-hidden="false"><rect width="18.0" height="6.0" x="580.0" y="486.0" id="svg_865858182_226202625355199948518_594651850_66724371_1078262677_item" tabindex="-1" class="selection-box226202625355199948518" fill="rgb(0.0,0.0,0.0)" fill-opacity="1.0" stroke="rgb(0.0,0.0,0.0)" stroke-opacity="1.0" stroke-width="0.0" aria-hidden="true" /></g><g id="svg_865858182_226202625355199948518_594651850_66724371_178604517" tabindex="-1" class="quorum-chart-plotitem-list selection-box226202625355199948518" fill="rgb(0.0,0.0,0.0)" fill-opacity="1.0" role="graphics-symbol" aria-label="Maximum 15 End of list order." aria-hidden="false"><rect width="6.0" height="6.0" x="586.0" y="394.0" id="svg_865858182_226202625355199948518_594651850_66724371_178604517_item" tabindex="-1" class="selection-box226202625355199948518" fill="rgb(0.0,0.0,0.0)" fill-opacity="1.0" stroke="rgb(0.0,0.0,0.0)" stroke-opacity="1.0" stroke-width="0.0" aria-hidden="true" /></g></g><g id="svg_865858182_226202625355199948518_2069500590_2072130509" tabindex="-1" class="quorum-chart-plot-list selection-box226202625355199948518" fill="rgb(239.0,201.0,31.0)" fill-opacity="1.0" role="graphics-object" aria-label="Maximum Life Span plot,  15, data ranges from  14 to  17, 2 of 2 plots. End of list order. End of value order." aria-hidden="false"><rect width="870.0" height="690.0" x="1024.0" y="147.0" tabindex="-1" class="selection-box226202625355199948518" fill="rgb(0.0,0.0,0.0)" fill-opacity="0.0" aria-hidden="true" /><polygon tabindex="-1" fill="rgb(239.0,201.0,31.0)" fill-opacity="1.0" stroke="rgb(0.0,0.0,0.0)" stroke-opacity="1.0" stroke-width="0.0" aria-hidden="true" points="1418.0,148.0 1418.0,149.0 1418.0,150.0 1417.0,151.0 1417.0,152.0 1417.0,153.0 1417.0,154.0 1417.0,155.0 1417.0,156.0 1417.0,157.0 1417.0,158.0 1417.0,159.0 1417.0,160.0 1417.0,161.0 1417.0,162.0 1417.0,163.0 1417.0,164.0 1417.0,165.0 1417.0,166.0 1417.0,167.0 1417.0,168.0 1418.0,169.0 1418.0,170.0 1418.0,171.0 1418.0,172.0 1418.0,173.0 1418.0,174.0 1419.0,175.0 1419.0,176.0 1419.0,177.0 1419.0,178.0 1419.0,179.0 1419.0,180.0 1419.0,181.0 1420.0,182.0 1420.0,183.0 1420.0,184.0 1420.0,185.0 1420.0,186.0 1420.0,187.0 1420.0,188.0 1420.0,189.0 1420.0,190.0 1420.0,191.0 1420.0,192.0 1420.0,193.0 1420.0,194.0 1420.0,195.0 1420.0,196.0 1420.0,197.0 1420.0,198.0 1420.0,199.0 1420.0,200.0 1420.0,201.0 1420.0,202.0 1419.0,203.0 1419.0,204.0 1419.0,205.0 1419.0,206.0 1419.0,207.0 1418.0,208.0 1418.0,209.0 1418.0,210.0 1417.0,211.0 1417.0,212.0 1417.0,213.0 1416.0,214.0 1416.0,215.0 1416.0,216.0 1415.0,217.0 1415.0,218.0 1414.0,219.0 1414.0,220.0 1413.0,221.0 1413.0,222.0 1412.0,223.0 1412.0,224.0 1411.0,225.0 1411.0,226.0 1410.0,227.0 1410.0,228.0 1409.0,229.0 1408.0,230.0 1408.0,231.0 1407.0,232.0 1407.0,233.0 1406.0,234.0 1405.0,235.0 1405.0,236.0 1404.0,237.0 1403.0,238.0 1403.0,239.0 1402.0,240.0 1401.0,241.0 1401.0,242.0 1400.0,243.0 1399.0,244.0 1399.0,245.0 1398.0,246.0 1397.0,247.0 1396.0,248.0 1396.0,249.0 1395.0,250.0 1394.0,251.0 1393.0,252.0 1392.0,253.0 1392.0,254.0 1391.0,255.0 1390.0,256.0 1389.0,257.0 1388.0,258.0 1387.0,259.0 1386.0,260.0 1385.0,261.0 1384.0,262.0 1383.0,263.0 1382.0,264.0 1381.0,265.0 1380.0,266.0 1379.0,267.0 1378.0,268.0 1377.0,269.0 1376.0,270.0 1375.0,271.0 1373.0,272.0 1372.0,273.0 1371.0,274.0 1369.0,275.0 1368.0,276.0 1367.0,277.0 1365.0,278.0 1364.0,279.0 1362.0,280.0 1360.0,281.0 1359.0,282.0 1357.0,283.0 1355.0,284.0 1353.0,285.0 1352.0,286.0 1350.0,287.0 1348.0,288.0 1346.0,289.0 1344.0,290.0 1341.0,291.0 1339.0,292.0 1337.0,293.0 1335.0,294.0 1332.0,295.0 1330.0,296.0 1327.0,297.0 1325.0,298.0 1322.0,299.0 1320.0,300.0 1317.0,301.0 1314.0,302.0 1311.0,303.0 1308.0,304.0 1306.0,305.0 1303.0,306.0 1299.0,307.0 1296.0,308.0 1293.0,309.0 1290.0,310.0 1287.0,311.0 1283.0,312.0 1280.0,313.0 1277.0,314.0 1273.0,315.0 1270.0,316.0 1266.0,317.0 1262.0,318.0 1259.0,319.0 1255.0,320.0 1251.0,321.0 1248.0,322.0 1244.0,323.0 1240.0,324.0 1236.0,325.0 1232.0,326.0 1228.0,327.0 1224.0,328.0 1220.0,329.0 1216.0,330.0 1212.0,331.0 1208.0,332.0 1204.0,333.0 1200.0,334.0 1196.0,335.0 1192.0,336.0 1188.0,337.0 1183.0,338.0 1179.0,339.0 1175.0,340.0 1171.0,341.0 1167.0,342.0 1163.0,343.0 1158.0,344.0 1154.0,345.0 1150.0,346.0 1146.0,347.0 1142.0,348.0 1138.0,349.0 1134.0,350.0 1130.0,351.0 1126.0,352.0 1121.0,353.0 1118.0,354.0 1114.0,355.0 1110.0,356.0 1106.0,357.0 1102.0,358.0 1098.0,359.0 1094.0,360.0 1091.0,361.0 1087.0,362.0 1084.0,363.0 1080.0,364.0 1077.0,365.0 1073.0,366.0 1070.0,367.0 1067.0,368.0 1064.0,369.0 1061.0,370.0 1058.0,371.0 1055.0,372.0 1052.0,373.0 1050.0,374.0 1047.0,375.0 1045.0,376.0 1042.0,377.0 1040.0,378.0 1038.0,379.0 1036.0,380.0 1035.0,381.0 1033.0,382.0 1031.0,383.0 1030.0,384.0 1029.0,385.0 1028.0,386.0 1027.0,387.0 1026.0,388.0 1025.0,389.0 1025.0,390.0 1025.0,391.0 1025.0,392.0 1024.0,393.0 1025.0,394.0 1025.0,395.0 1025.0,396.0 1026.0,397.0 1027.0,398.0 1028.0,399.0 1029.0,400.0 1030.0,401.0 1031.0,402.0 1033.0,403.0 1035.0,404.0 1037.0,405.0 1038.0,406.0 1041.0,407.0 1043.0,408.0 1045.0,409.0 1048.0,410.0 1050.0,411.0 1053.0,412.0 1056.0,413.0 1059.0,414.0 1062.0,415.0 1066.0,416.0 1069.0,417.0 1072.0,418.0 1076.0,419.0 1080.0,420.0 1083.0,421.0 1087.0,422.0 1091.0,423.0 1095.0,424.0 1099.0,425.0 1103.0,426.0 1108.0,427.0 1112.0,428.0 1116.0,429.0 1121.0,430.0 1125.0,431.0 1130.0,432.0 1134.0,433.0 1139.0,434.0 1144.0,435.0 1148.0,436.0 1153.0,437.0 1158.0,438.0 1163.0,439.0 1168.0,440.0 1172.0,441.0 1177.0,442.0 1182.0,443.0 1187.0,444.0 1192.0,445.0 1197.0,446.0 1202.0,447.0 1207.0,448.0 1212.0,449.0 1217.0,450.0 1222.0,451.0 1226.0,452.0 1231.0,453.0 1236.0,454.0 1241.0,455.0 1246.0,456.0 1251.0,457.0 1255.0,458.0 1260.0,459.0 1265.0,460.0 1270.0,461.0 1274.0,462.0 1279.0,463.0 1283.0,464.0 1288.0,465.0 1292.0,466.0 1297.0,467.0 1301.0,468.0 1305.0,469.0 1310.0,470.0 1314.0,471.0 1318.0,472.0 1322.0,473.0 1326.0,474.0 1330.0,475.0 1333.0,476.0 1337.0,477.0 1341.0,478.0 1344.0,479.0 1348.0,480.0 1351.0,481.0 1355.0,482.0 1358.0,483.0 1361.0,484.0 1364.0,485.0 1367.0,486.0 1370.0,487.0 1372.0,488.0 1375.0,489.0 1378.0,490.0 1380.0,491.0 1382.0,492.0 1385.0,493.0 1387.0,494.0 1389.0,495.0 1391.0,496.0 1393.0,497.0 1395.0,498.0 1396.0,499.0 1398.0,500.0 1400.0,501.0 1401.0,502.0 1403.0,503.0 1404.0,504.0 1405.0,505.0 1406.0,506.0 1407.0,507.0 1408.0,508.0 1409.0,509.0 1410.0,510.0 1411.0,511.0 1412.0,512.0 1412.0,513.0 1413.0,514.0 1414.0,515.0 1414.0,516.0 1415.0,517.0 1415.0,518.0 1416.0,519.0 1416.0,520.0 1416.0,521.0 1417.0,522.0 1417.0,523.0 1417.0,524.0 1417.0,525.0 1418.0,526.0 1418.0,527.0 1418.0,528.0 1418.0,529.0 1418.0,530.0 1418.0,531.0 1419.0,532.0 1419.0,533.0 1419.0,534.0 1419.0,535.0 1419.0,536.0 1419.0,537.0 1420.0,538.0 1420.0,539.0 1420.0,540.0 1420.0,541.0 1420.0,542.0 1498.0,542.0 1498.0,541.0 1498.0,540.0 1498.0,539.0 1498.0,538.0 1499.0,537.0 1499.0,536.0 1499.0,535.0 1499.0,534.0 1499.0,533.0 1499.0,532.0 1500.0,531.0 1500.0,530.0 1500.0,529.0 1500.0,528.0 1500.0,527.0 1500.0,526.0 1501.0,525.0 1501.0,524.0 1501.0,523.0 1501.0,522.0 1502.0,521.0 1502.0,520.0 1502.0,519.0 1503.0,518.0 1503.0,517.0 1504.0,516.0 1504.0,515.0 1505.0,514.0 1506.0,513.0 1506.0,512.0 1507.0,511.0 1508.0,510.0 1509.0,509.0 1510.0,508.0 1511.0,507.0 1512.0,506.0 1513.0,505.0 1514.0,504.0 1515.0,503.0 1517.0,502.0 1518.0,501.0 1520.0,500.0 1522.0,499.0 1523.0,498.0 1525.0,497.0 1527.0,496.0 1529.0,495.0 1531.0,494.0 1533.0,493.0 1536.0,492.0 1538.0,491.0 1540.0,490.0 1543.0,489.0 1546.0,488.0 1548.0,487.0 1551.0,486.0 1554.0,485.0 1557.0,484.0 1560.0,483.0 1563.0,482.0 1567.0,481.0 1570.0,480.0 1574.0,479.0 1577.0,478.0 1581.0,477.0 1585.0,476.0 1588.0,475.0 1592.0,474.0 1596.0,473.0 1600.0,472.0 1604.0,471.0 1608.0,470.0 1613.0,469.0 1617.0,468.0 1621.0,467.0 1626.0,466.0 1630.0,465.0 1635.0,464.0 1639.0,463.0 1644.0,462.0 1648.0,461.0 1653.0,460.0 1658.0,459.0 1663.0,458.0 1667.0,457.0 1672.0,456.0 1677.0,455.0 1682.0,454.0 1687.0,453.0 1692.0,452.0 1696.0,451.0 1701.0,450.0 1706.0,449.0 1711.0,448.0 1716.0,447.0 1721.0,446.0 1726.0,445.0 1731.0,444.0 1736.0,443.0 1741.0,442.0 1746.0,441.0 1750.0,440.0 1755.0,439.0 1760.0,438.0 1765.0,437.0 1770.0,436.0 1774.0,435.0 1779.0,434.0 1784.0,433.0 1788.0,432.0 1793.0,431.0 1797.0,430.0 1802.0,429.0 1806.0,428.0 1810.0,427.0 1815.0,426.0 1819.0,425.0 1823.0,424.0 1827.0,423.0 1831.0,422.0 1835.0,421.0 1838.0,420.0 1842.0,419.0 1846.0,418.0 1849.0,417.0 1852.0,416.0 1856.0,415.0 1859.0,414.0 1862.0,413.0 1865.0,412.0 1868.0,411.0 1870.0,410.0 1873.0,409.0 1875.0,408.0 1877.0,407.0 1880.0,406.0 1881.0,405.0 1883.0,404.0 1885.0,403.0 1887.0,402.0 1888.0,401.0 1889.0,400.0 1890.0,399.0 1891.0,398.0 1892.0,397.0 1893.0,396.0 1893.0,395.0 1893.0,394.0 1894.0,393.0 1893.0,392.0 1893.0,391.0 1893.0,390.0 1893.0,389.0 1892.0,388.0 1891.0,387.0 1890.0,386.0 1889.0,385.0 1888.0,384.0 1887.0,383.0 1885.0,382.0 1883.0,381.0 1882.0,380.0 1880.0,379.0 1878.0,378.0 1876.0,377.0 1873.0,376.0 1871.0,375.0 1868.0,374.0 1866.0,373.0 1863.0,372.0 1860.0,371.0 1857.0,370.0 1854.0,369.0 1851.0,368.0 1848.0,367.0 1845.0,366.0 1841.0,365.0 1838.0,364.0 1834.0,363.0 1831.0,362.0 1827.0,361.0 1824.0,360.0 1820.0,359.0 1816.0,358.0 1812.0,357.0 1808.0,356.0 1804.0,355.0 1800.0,354.0 1797.0,353.0 1792.0,352.0 1788.0,351.0 1784.0,350.0 1780.0,349.0 1776.0,348.0 1772.0,347.0 1768.0,346.0 1764.0,345.0 1760.0,344.0 1755.0,343.0 1751.0,342.0 1747.0,341.0 1743.0,340.0 1739.0,339.0 1735.0,338.0 1730.0,337.0 1726.0,336.0 1722.0,335.0 1718.0,334.0 1714.0,333.0 1710.0,332.0 1706.0,331.0 1702.0,330.0 1698.0,329.0 1694.0,328.0 1690.0,327.0 1686.0,326.0 1682.0,325.0 1678.0,324.0 1674.0,323.0 1670.0,322.0 1667.0,321.0 1663.0,320.0 1659.0,319.0 1656.0,318.0 1652.0,317.0 1648.0,316.0 1645.0,315.0 1641.0,314.0 1638.0,313.0 1635.0,312.0 1631.0,311.0 1628.0,310.0 1625.0,309.0 1622.0,308.0 1619.0,307.0 1615.0,306.0 1612.0,305.0 1610.0,304.0 1607.0,303.0 1604.0,302.0 1601.0,301.0 1598.0,300.0 1596.0,299.0 1593.0,298.0 1591.0,297.0 1588.0,296.0 1586.0,295.0 1583.0,294.0 1581.0,293.0 1579.0,292.0 1577.0,291.0 1574.0,290.0 1572.0,289.0 1570.0,288.0 1568.0,287.0 1566.0,286.0 1565.0,285.0 1563.0,284.0 1561.0,283.0 1559.0,282.0 1558.0,281.0 1556.0,280.0 1554.0,279.0 1553.0,278.0 1551.0,277.0 1550.0,276.0 1549.0,275.0 1547.0,274.0 1546.0,273.0 1545.0,272.0 1543.0,271.0 1542.0,270.0 1541.0,269.0 1540.0,268.0 1539.0,267.0 1538.0,266.0 1537.0,265.0 1536.0,264.0 1535.0,263.0 1534.0,262.0 1533.0,261.0 1532.0,260.0 1531.0,259.0 1530.0,258.0 1529.0,257.0 1528.0,256.0 1527.0,255.0 1526.0,254.0 1526.0,253.0 1525.0,252.0 1524.0,251.0 1523.0,250.0 1522.0,249.0 1522.0,248.0 1521.0,247.0 1520.0,246.0 1519.0,245.0 1519.0,244.0 1518.0,243.0 1517.0,242.0 1517.0,241.0 1516.0,240.0 1515.0,239.0 1515.0,238.0 1514.0,237.0 1513.0,236.0 1513.0,235.0 1512.0,234.0 1511.0,233.0 1511.0,232.0 1510.0,231.0 1510.0,230.0 1509.0,229.0 1508.0,228.0 1508.0,227.0 1507.0,226.0 1507.0,225.0 1506.0,224.0 1506.0,223.0 1505.0,222.0 1505.0,221.0 1504.0,220.0 1504.0,219.0 1503.0,218.0 1503.0,217.0 1502.0,216.0 1502.0,215.0 1502.0,214.0 1501.0,213.0 1501.0,212.0 1501.0,211.0 1500.0,210.0 1500.0,209.0 1500.0,208.0 1499.0,207.0 1499.0,206.0 1499.0,205.0 1499.0,204.0 1499.0,203.0 1498.0,202.0 1498.0,201.0 1498.0,200.0 1498.0,199.0 1498.0,198.0 1498.0,197.0 1498.0,196.0 1498.0,195.0 1498.0,194.0 1498.0,193.0 1498.0,192.0 1498.0,191.0 1498.0,190.0 1498.0,189.0 1498.0,188.0 1498.0,187.0 1498.0,186.0 1498.0,185.0 1498.0,184.0 1498.0,183.0 1498.0,182.0 1499.0,181.0 1499.0,180.0 1499.0,179.0 1499.0,178.0 1499.0,177.0 1499.0,176.0 1499.0,175.0 1500.0,174.0 1500.0,173.0 1500.0,172.0 1500.0,171.0 1500.0,170.0 1500.0,169.0 1501.0,168.0 1501.0,167.0 1501.0,166.0 1501.0,165.0 1501.0,164.0 1501.0,163.0 1501.0,162.0 1501.0,161.0 1501.0,160.0 1501.0,159.0 1501.0,158.0 1501.0,157.0 1501.0,156.0 1501.0,155.0 1501.0,154.0 1501.0,153.0 1501.0,152.0 1501.0,151.0 1500.0,150.0 1500.0,149.0 1500.0,148.0 " /><g id="svg_865858182_226202625355199948518_2069500590_2072130509_1260440107" tabindex="-1" class="quorum-chart-plotitem-list selection-box226202625355199948518" fill="rgb(0.0,0.0,0.0)" fill-opacity="1.0" role="graphics-symbol" aria-label="Minimum 14 To navigate the list of plot summary items, use the arrow keys to move between plot summary items in list order, use Shift + Enter to return to the plots list." aria-hidden="false"><rect width="6.0" height="6.0" x="1456.0" y="437.0" id="svg_865858182_226202625355199948518_2069500590_2072130509_1260440107_item" tabindex="-1" class="selection-box226202625355199948518" fill="rgb(0.0,0.0,0.0)" fill-opacity="1.0" stroke="rgb(0.0,0.0,0.0)" stroke-opacity="1.0" stroke-width="0.0" aria-hidden="true" /></g><g id="svg_865858182_226202625355199948518_2069500590_2072130509_482307698" tabindex="-1" class="quorum-chart-plotitem-list selection-box226202625355199948518" fill="rgb(191.25,191.25,191.25)" fill-opacity="1.0" role="graphics-symbol" aria-label="Interquartile range 1" aria-hidden="false"><rect width="18.0" height="55.0" x="1450.0" y="339.0" id="svg_865858182_226202625355199948518_2069500590_2072130509_482307698_item" tabindex="-1" class="selection-box226202625355199948518" fill="rgb(191.25,191.25,191.25)" fill-opacity="1.0" stroke="rgb(0.0,0.0,0.0)" stroke-opacity="1.0" stroke-width="2.0" aria-hidden="true" /></g><g id="svg_865858182_226202625355199948518_2069500590_2072130509_1793899405" tabindex="-1" class="quorum-chart-plotitem-list selection-box226202625355199948518" fill="rgb(0.0,0.0,0.0)" fill-opacity="1.0" role="graphics-symbol" aria-label="1st Quartile 15" aria-hidden="false"><rect width="18.0" height="6.0" x="1450.0" y="388.0" id="svg_865858182_226202625355199948518_2069500590_2072130509_1793899405_item" tabindex="-1" class="selection-box226202625355199948518" fill="rgb(0.0,0.0,0.0)" fill-opacity="1.0" stroke="rgb(0.0,0.0,0.0)" stroke-opacity="1.0" stroke-width="0.0" aria-hidden="true" /></g><g id="svg_865858182_226202625355199948518_2069500590_2072130509_1765702" tabindex="-1" class="quorum-chart-plotitem-list selection-box226202625355199948518" fill="rgb(0.0,0.0,0.0)" fill-opacity="1.0" role="graphics-symbol" aria-label="Median 15" aria-hidden="false"><circle cx="1458.5" cy="387.5" r="6.5" id="svg_865858182_226202625355199948518_2069500590_2072130509_1765702_item" tabindex="-1" class="selection-box226202625355199948518" fill="rgb(0.0,0.0,0.0)" fill-opacity="1.0" stroke="rgb(153.0,153.0,153.0)" stroke-opacity="1.0" stroke-width="1.0" aria-hidden="true" /></g><g id="svg_865858182_226202625355199948518_2069500590_2072130509_1302725372" tabindex="-1" class="quorum-chart-plotitem-list selection-box226202625355199948518" fill="rgb(0.0,0.0,0.0)" fill-opacity="1.0" role="graphics-symbol" aria-label="3rd Quartile 16" aria-hidden="false"><rect width="18.0" height="6.0" x="1450.0" y="339.0" id="svg_865858182_226202625355199948518_2069500590_2072130509_1302725372_item" tabindex="-1" class="selection-box226202625355199948518" fill="rgb(0.0,0.0,0.0)" fill-opacity="1.0" stroke="rgb(0.0,0.0,0.0)" stroke-opacity="1.0" stroke-width="0.0" aria-hidden="true" /></g><g id="svg_865858182_226202625355199948518_2069500590_2072130509_713898436" tabindex="-1" class="quorum-chart-plotitem-list selection-box226202625355199948518" fill="rgb(0.0,0.0,0.0)" fill-opacity="1.0" role="graphics-symbol" aria-label="Maximum 17 End of list order." aria-hidden="false"><rect width="6.0" height="6.0" x="1456.0" y="295.0" id="svg_865858182_226202625355199948518_2069500590_2072130509_713898436_item" tabindex="-1" class="selection-box226202625355199948518" fill="rgb(0.0,0.0,0.0)" fill-opacity="1.0" stroke="rgb(0.0,0.0,0.0)" stroke-opacity="1.0" stroke-width="0.0" aria-hidden="true" /></g></g></g><rect width="1740.0" height="105.0" x="154.0" y="837.0" id="svg_865858182_226202625355199948518_573487274" tabindex="-1" class="quorum-chart-information-list selection-box226202625355199948518" fill="rgb(0.0,0.0,0.0)" fill-opacity="0.0" role="graphics-object" aria-label="X axis shows Type of extrema and ranges from Minimum Life Span to Maximum Life Span" aria-hidden="false" /><rect width="154.0" height="690.0" x="0.0" y="147.0" id="svg_865858182_226202625355199948518_154988899" tabindex="-1" class="quorum-chart-information-list selection-box226202625355199948518" fill="rgb(0.0,0.0,0.0)" fill-opacity="0.0" role="graphics-object" aria-label="Y axis shows Age and ranges from 6 to 20" aria-hidden="false" /><rect width="1740.0" height="58.0" x="154.0" y="942.0" id="svg_865858182_226202625355199948518_603658030" tabindex="-1" class="quorum-chart-information-list selection-box226202625355199948518" fill="rgb(0.0,0.0,0.0)" fill-opacity="0.0" role="graphics-object" aria-label="Legend shows Life Span and has values Minimum Life Span, and Maximum Life Span" aria-hidden="false" /></g>
	<g id="svg_865858182_226202625355199948518_594651850_66724371_998242313" tabindex="-1" class="quorum-chart-plotitem-list selection-box226202625355199948518" fill="rgb(0.0,0.0,0.0)" fill-opacity="1.0" role="graphics-symbol" aria-label="Unnamed" aria-hidden="false"><rect width="6.0" height="148.0" x="586.0" y="591.0" id="svg_865858182_226202625355199948518_594651850_66724371_998242313_item" tabindex="-1" class="selection-box226202625355199948518" fill="rgb(0.0,0.0,0.0)" fill-opacity="1.0" stroke="rgb(0.0,0.0,0.0)" stroke-opacity="1.0" stroke-width="0.0" aria-hidden="true" />
</g>

	<g id="svg_865858182_226202625355199948518_594651850_66724371_464872674" tabindex="-1" class="quorum-chart-plotitem-list selection-box226202625355199948518" fill="rgb(0.0,0.0,0.0)" fill-opacity="1.0" role="graphics-symbol" aria-label="Unnamed" aria-hidden="false"><rect width="6.0" height="92.0" x="586.0" y="400.0" id="svg_865858182_226202625355199948518_594651850_66724371_464872674_item" tabindex="-1" class="selection-box226202625355199948518" fill="rgb(0.0,0.0,0.0)" fill-opacity="1.0" stroke="rgb(0.0,0.0,0.0)" stroke-opacity="1.0" stroke-width="0.0" aria-hidden="true" />
</g>

	<g id="svg_865858182_226202625355199948518_2069500590_2072130509_263833514" tabindex="-1" class="quorum-chart-plotitem-list selection-box226202625355199948518" fill="rgb(0.0,0.0,0.0)" fill-opacity="1.0" role="graphics-symbol" aria-label="Unnamed" aria-hidden="false"><rect width="6.0" height="49.0" x="1456.0" y="394.0" id="svg_865858182_226202625355199948518_2069500590_2072130509_263833514_item" tabindex="-1" class="selection-box226202625355199948518" fill="rgb(0.0,0.0,0.0)" fill-opacity="1.0" stroke="rgb(0.0,0.0,0.0)" stroke-opacity="1.0" stroke-width="0.0" aria-hidden="true" />
</g>

	<g id="svg_865858182_226202625355199948518_2069500590_2072130509_1278839936" tabindex="-1" class="quorum-chart-plotitem-list selection-box226202625355199948518" fill="rgb(0.0,0.0,0.0)" fill-opacity="1.0" role="graphics-symbol" aria-label="Unnamed" aria-hidden="false"><rect width="6.0" height="44.0" x="1456.0" y="301.0" id="svg_865858182_226202625355199948518_2069500590_2072130509_1278839936_item" tabindex="-1" class="selection-box226202625355199948518" fill="rgb(0.0,0.0,0.0)" fill-opacity="1.0" stroke="rgb(0.0,0.0,0.0)" stroke-opacity="1.0" stroke-width="0.0" aria-hidden="true" />
</g>

	<script href= "https://quorumlanguage.com/script/quorumCharts.js"  type="text/javascript"></script>
	<script  type="text/javascript">document.getElementById('svg_865858182_226202625355199948518_594651850_66724371_1493042329').addEventListener('focus', (event) => {
gainFocus('svg_865858182_226202625355199948518_594651850_66724371_1493042329_item'); });
document.getElementById('svg_865858182_226202625355199948518_594651850_66724371_1493042329').addEventListener('blur', (event) => {
loseFocus('svg_865858182_226202625355199948518_594651850_66724371_1493042329_item'); });
document.getElementById('svg_865858182_226202625355199948518_594651850_66724371_998242313').addEventListener('focus', (event) => {
gainFocus('svg_865858182_226202625355199948518_594651850_66724371_998242313_item'); });
document.getElementById('svg_865858182_226202625355199948518_594651850_66724371_998242313').addEventListener('blur', (event) => {
loseFocus('svg_865858182_226202625355199948518_594651850_66724371_998242313_item'); });
document.getElementById('svg_865858182_226202625355199948518_594651850_66724371_1751403001').addEventListener('focus', (event) => {
gainFocus('svg_865858182_226202625355199948518_594651850_66724371_1751403001_item'); });
document.getElementById('svg_865858182_226202625355199948518_594651850_66724371_1751403001').addEventListener('blur', (event) => {
loseFocus('svg_865858182_226202625355199948518_594651850_66724371_1751403001_item'); });
document.getElementById('svg_865858182_226202625355199948518_594651850_66724371_57624756').addEventListener('focus', (event) => {
gainFocus('svg_865858182_226202625355199948518_594651850_66724371_57624756_item'); });
document.getElementById('svg_865858182_226202625355199948518_594651850_66724371_57624756').addEventListener('blur', (event) => {
loseFocus('svg_865858182_226202625355199948518_594651850_66724371_57624756_item'); });
document.getElementById('svg_865858182_226202625355199948518_594651850_66724371_1543518287').addEventListener('focus', (event) => {
gainFocus('svg_865858182_226202625355199948518_594651850_66724371_1543518287_item'); });
document.getElementById('svg_865858182_226202625355199948518_594651850_66724371_1543518287').addEventListener('blur', (event) => {
loseFocus('svg_865858182_226202625355199948518_594651850_66724371_1543518287_item'); });
document.getElementById('svg_865858182_226202625355199948518_594651850_66724371_1717433286').addEventListener('focus', (event) => {
gainFocus('svg_865858182_226202625355199948518_594651850_66724371_1717433286_item'); });
document.getElementById('svg_865858182_226202625355199948518_594651850_66724371_1717433286').addEventListener('blur', (event) => {
loseFocus('svg_865858182_226202625355199948518_594651850_66724371_1717433286_item'); });
document.getElementById('svg_865858182_226202625355199948518_594651850_66724371_1756819670').addEventListener('focus', (event) => {
gainFocus('svg_865858182_226202625355199948518_594651850_66724371_1756819670_item'); });
document.getElementById('svg_865858182_226202625355199948518_594651850_66724371_1756819670').addEventListener('blur', (event) => {
loseFocus('svg_865858182_226202625355199948518_594651850_66724371_1756819670_item'); });
document.getElementById('svg_865858182_226202625355199948518_594651850_66724371_1078262677').addEventListener('focus', (event) => {
gainFocus('svg_865858182_226202625355199948518_594651850_66724371_1078262677_item'); });
document.getElementById('svg_865858182_226202625355199948518_594651850_66724371_1078262677').addEventListener('blur', (event) => {
loseFocus('svg_865858182_226202625355199948518_594651850_66724371_1078262677_item'); });
document.getElementById('svg_865858182_226202625355199948518_594651850_66724371_464872674').addEventListener('focus', (event) => {
gainFocus('svg_865858182_226202625355199948518_594651850_66724371_464872674_item'); });
document.getElementById('svg_865858182_226202625355199948518_594651850_66724371_464872674').addEventListener('blur', (event) => {
loseFocus('svg_865858182_226202625355199948518_594651850_66724371_464872674_item'); });
document.getElementById('svg_865858182_226202625355199948518_594651850_66724371_178604517').addEventListener('focus', (event) => {
gainFocus('svg_865858182_226202625355199948518_594651850_66724371_178604517_item'); });
document.getElementById('svg_865858182_226202625355199948518_594651850_66724371_178604517').addEventListener('blur', (event) => {
loseFocus('svg_865858182_226202625355199948518_594651850_66724371_178604517_item'); });
document.getElementById('svg_865858182_226202625355199948518_2069500590_2072130509_1260440107').addEventListener('focus', (event) => {
gainFocus('svg_865858182_226202625355199948518_2069500590_2072130509_1260440107_item'); });
document.getElementById('svg_865858182_226202625355199948518_2069500590_2072130509_1260440107').addEventListener('blur', (event) => {
loseFocus('svg_865858182_226202625355199948518_2069500590_2072130509_1260440107_item'); });
document.getElementById('svg_865858182_226202625355199948518_2069500590_2072130509_263833514').addEventListener('focus', (event) => {
gainFocus('svg_865858182_226202625355199948518_2069500590_2072130509_263833514_item'); });
document.getElementById('svg_865858182_226202625355199948518_2069500590_2072130509_263833514').addEventListener('blur', (event) => {
loseFocus('svg_865858182_226202625355199948518_2069500590_2072130509_263833514_item'); });
document.getElementById('svg_865858182_226202625355199948518_2069500590_2072130509_482307698').addEventListener('focus', (event) => {
gainFocus('svg_865858182_226202625355199948518_2069500590_2072130509_482307698_item'); });
document.getElementById('svg_865858182_226202625355199948518_2069500590_2072130509_482307698').addEventListener('blur', (event) => {
loseFocus('svg_865858182_226202625355199948518_2069500590_2072130509_482307698_item'); });
document.getElementById('svg_865858182_226202625355199948518_2069500590_2072130509_632475595').addEventListener('focus', (event) => {
gainFocus('svg_865858182_226202625355199948518_2069500590_2072130509_632475595_item'); });
document.getElementById('svg_865858182_226202625355199948518_2069500590_2072130509_632475595').addEventListener('blur', (event) => {
loseFocus('svg_865858182_226202625355199948518_2069500590_2072130509_632475595_item'); });
document.getElementById('svg_865858182_226202625355199948518_2069500590_2072130509_1920305914').addEventListener('focus', (event) => {
gainFocus('svg_865858182_226202625355199948518_2069500590_2072130509_1920305914_item'); });
document.getElementById('svg_865858182_226202625355199948518_2069500590_2072130509_1920305914').addEventListener('blur', (event) => {
loseFocus('svg_865858182_226202625355199948518_2069500590_2072130509_1920305914_item'); });
document.getElementById('svg_865858182_226202625355199948518_2069500590_2072130509_1793899405').addEventListener('focus', (event) => {
gainFocus('svg_865858182_226202625355199948518_2069500590_2072130509_1793899405_item'); });
document.getElementById('svg_865858182_226202625355199948518_2069500590_2072130509_1793899405').addEventListener('blur', (event) => {
loseFocus('svg_865858182_226202625355199948518_2069500590_2072130509_1793899405_item'); });
document.getElementById('svg_865858182_226202625355199948518_2069500590_2072130509_1765702').addEventListener('focus', (event) => {
gainFocus('svg_865858182_226202625355199948518_2069500590_2072130509_1765702_item'); });
document.getElementById('svg_865858182_226202625355199948518_2069500590_2072130509_1765702').addEventListener('blur', (event) => {
loseFocus('svg_865858182_226202625355199948518_2069500590_2072130509_1765702_item'); });
document.getElementById('svg_865858182_226202625355199948518_2069500590_2072130509_1302725372').addEventListener('focus', (event) => {
gainFocus('svg_865858182_226202625355199948518_2069500590_2072130509_1302725372_item'); });
document.getElementById('svg_865858182_226202625355199948518_2069500590_2072130509_1302725372').addEventListener('blur', (event) => {
loseFocus('svg_865858182_226202625355199948518_2069500590_2072130509_1302725372_item'); });
document.getElementById('svg_865858182_226202625355199948518_2069500590_2072130509_1278839936').addEventListener('focus', (event) => {
gainFocus('svg_865858182_226202625355199948518_2069500590_2072130509_1278839936_item'); });
document.getElementById('svg_865858182_226202625355199948518_2069500590_2072130509_1278839936').addEventListener('blur', (event) => {
loseFocus('svg_865858182_226202625355199948518_2069500590_2072130509_1278839936_item'); });
document.getElementById('svg_865858182_226202625355199948518_2069500590_2072130509_713898436').addEventListener('focus', (event) => {
gainFocus('svg_865858182_226202625355199948518_2069500590_2072130509_713898436_item'); });
document.getElementById('svg_865858182_226202625355199948518_2069500590_2072130509_713898436').addEventListener('blur', (event) => {
loseFocus('svg_865858182_226202625355199948518_2069500590_2072130509_713898436_item'); });
</script>
	<script  type="text/javascript">
if (typeof quorum_chart_value_order == 'undefined' || quorum_chart_value_order == null)
	var quorum_chart_value_order = {};

quorum_chart_value_order.svg_865858182_226202625355199948518 = {
	svg_865858182_226202625355199948518_594651850_66724371: 12.0,
	svg_865858182_226202625355199948518_2069500590_2072130509: 15.0
};
</script>
	<style type= "text/css" >.selection-box226202625355199948518:focus {
 outline: 5px solid rgb(240.0,94.0,93.0);
 outline-offset: 5px;
 animation: blink-animation 1s steps(5, start) infinite;
 animation-delay: 1s;
 border-radius: 5px;
 z-index: 10;
}
g.selection-box226202625355199948518:focus > rect {
 outline: 5px solid rgb(240.0,94.0,93.0);
 outline-offset: 5px;
 animation: blink-animation 1s steps(5, start) infinite;
 animation-delay: 1s;
 border-radius: 5px;
 z-index: 10;
}

circle.selection-box226202625355199948518:focus {
  border-radius: 50%;
}

g.selection-box226202625355199948518:focus > circle{
  border-radius: 50%;
}

@keyframes blink-animation {
  0%, 49% {
    outline-color: rgb(240.0,94.0,93.0); /* Change to desired color at 50% of the animation */
  }
  50%, 100% {
    outline-color: transparent;
  }
}
.dot-container226202625355199948518:has(>g:focus) > g:not(:focus) {
 opacity: 0.15;
}
.dot-series226202625355199948518:focus {
 outline: none;
}
.quorum-chart-wedge:focus-within{
 outline: none;
 transform: translateX(calc(var(--unit-x) * 25)) translateY(calc(var(--unit-y) * 25));
}
.quorum-chart-wedge:focus-within > * {
 outline: none;
 visibility: visible;
}
.crust {
 visibility: hidden;
</style>
</svg>
