<svg width="21" height="20" viewBox="0 0 21 20" fill="none" xmlns="http://www.w3.org/2000/svg">
<path d="M10.45 16C10.8 16 11.096 15.879 11.338 15.637C11.5793 15.3957 11.7 15.1 11.7 14.75C11.7 14.4 11.5793 14.1043 11.338 13.863C11.096 13.621 10.8 13.5 10.45 13.5C10.1 13.5 9.804 13.621 9.562 13.863C9.32067 14.1043 9.2 14.4 9.2 14.75C9.2 15.1 9.32067 15.3957 9.562 15.637C9.804 15.879 10.1 16 10.45 16ZM10.6 5.7C11.0667 5.7 11.4417 5.829 11.725 6.087C12.0083 6.34567 12.15 6.68333 12.15 7.1C12.15 7.38333 12.0543 7.67067 11.863 7.962C11.671 8.254 11.4 8.55833 11.05 8.875C10.55 9.30833 10.1833 9.725 9.95 10.125C9.71667 10.525 9.6 10.925 9.6 11.325C9.6 11.5583 9.68767 11.754 9.863 11.912C10.0377 12.0707 10.2417 12.15 10.475 12.15C10.7083 12.15 10.9167 12.0667 11.1 11.9C11.2833 11.7333 11.4 11.525 11.45 11.275C11.5 10.9917 11.6127 10.7293 11.788 10.488C11.9627 10.246 12.25 9.93333 12.65 9.55C13.1667 9.06667 13.5293 8.625 13.738 8.225C13.946 7.825 14.05 7.38333 14.05 6.9C14.05 6.05 13.7293 5.354 13.088 4.812C12.446 4.27067 11.6167 4 10.6 4C9.9 4 9.27933 4.13333 8.738 4.4C8.196 4.66667 7.775 5.075 7.475 5.625C7.35833 5.84167 7.31667 6.054 7.35 6.262C7.38333 6.47067 7.5 6.64167 7.7 6.775C7.91667 6.90833 8.15433 6.95 8.413 6.9C8.671 6.85 8.88333 6.70833 9.05 6.475C9.23333 6.225 9.45433 6.03333 9.713 5.9C9.971 5.76667 10.2667 5.7 10.6 5.7ZM10.5 20C9.13333 20 7.84167 19.7373 6.625 19.212C5.40833 18.6873 4.346 17.975 3.438 17.075C2.52933 16.175 1.81267 15.1167 1.288 13.9C0.762667 12.6833 0.5 11.3833 0.5 10C0.5 8.61667 0.762667 7.31667 1.288 6.1C1.81267 4.88333 2.52933 3.825 3.438 2.925C4.346 2.025 5.40833 1.31233 6.625 0.787C7.84167 0.262333 9.13333 0 10.5 0C11.9 0 13.2083 0.262333 14.425 0.787C15.6417 1.31233 16.7 2.025 17.6 2.925C18.5 3.825 19.2083 4.88333 19.725 6.1C20.2417 7.31667 20.5 8.61667 20.5 10C20.5 11.3833 20.2417 12.6833 19.725 13.9C19.2083 15.1167 18.5 16.175 17.6 17.075C16.7 17.975 15.6417 18.6873 14.425 19.212C13.2083 19.7373 11.9 20 10.5 20Z" fill="rgba(0,0,0,1)" />
</svg>