<svg width="48" height="46" viewBox="0 0 48 46" fill="none" xmlns="http://www.w3.org/2000/svg">
<path d="M28.5796 3.07138C38.4558 5.15206 45.578 12.8333 46.7454 22.5734C47.7547 30.9937 43.0348 40.8651 36.42 43.995C35.0651 41.4463 33.201 39.3751 30.2536 38.2306C33.4287 35.7973 35.9077 33.0433 35.2581 28.8298C34.66 24.9508 32.3497 22.1816 28.9615 20.1525C29.2619 19.0038 29.5714 17.8206 29.8877 16.6112C30.9059 17.2915 31.9025 17.9573 32.8096 18.5634C33.0901 18.4013 33.193 18.3788 33.2205 18.3207C34.2837 16.0706 32.2749 11.8552 29.8759 11.2785C28.6468 10.983 27.4991 11.2279 27.0346 12.4216C26.3636 14.146 25.9252 15.9658 25.4682 17.7652C25.3053 18.4063 25.3774 19.1069 25.3372 19.8783C24.8799 19.8987 24.4706 19.917 24.0383 19.9362C24.0383 18.4639 24.173 17.0638 24.013 15.6981C23.5355 11.6229 21.4808 8.44525 18.1815 6.0471C17.9244 5.86021 17.6426 5.69935 17.3544 5.5644C16.2844 5.06328 15.8541 5.27559 16.0454 6.43046C16.3964 8.54935 16.8027 10.6794 17.4409 12.7254C18.2454 15.3045 19.3055 17.8041 20.2745 20.3894C17.0104 22.1413 14.4965 24.6925 14.0178 28.6242C13.5319 32.6149 15.9019 35.3867 18.7048 38.0678C15.5831 39.1359 13.5293 41.294 11.9256 43.918C4.4064 39.4254 -0.928616 28.7456 2.90131 17.7412C6.55858 7.23277 17.6315 0.889371 28.5796 3.07138Z" fill="#0695D0"/>
<path d="M27.1204 30.1943C26.1437 30.2008 25.974 29.3978 25.5927 28.7541C25.3856 28.4046 24.9482 27.9741 24.6168 27.9758C24.2798 27.9776 23.7686 28.4023 23.6427 28.7526C23.2453 29.8585 22.5317 30.3527 21.3852 30.2795C19.998 30.1909 18.5956 30.1968 17.2283 29.9814C15.9465 29.7795 15.6107 29.01 15.8042 27.4358C15.9428 26.3081 16.8398 26.4101 17.5332 26.4636C19.3154 26.6009 21.1238 26.7175 22.8532 27.1295C24.5277 27.5284 26.0629 27.2077 27.7406 26.9298C27.8398 27.1154 27.8398 27.2186 27.7485 27.3401C27.1542 27.5805 26.6512 27.8025 26.1481 28.0245C26.4331 28.5962 26.7171 29.1685 27.0045 29.739C27.0384 29.8064 27.0912 29.8643 27.131 29.9935C27.1247 30.105 27.1225 30.1496 27.1204 30.1943ZM18.1144 29.5503C19.3466 29.6063 20.5783 29.6898 21.811 29.7091C22.7258 29.7234 22.9533 28.9708 22.9377 28.3119C22.9306 28.0159 22.3507 27.5369 21.9796 27.4812C20.6034 27.2747 19.2079 27.162 17.8158 27.1057C16.5374 27.054 16.2589 27.3687 16.6556 28.5629C16.7925 28.9748 17.4765 29.2052 18.1144 29.5503Z" fill="#0695D0"/>
<path d="M27.2299 30.2234C27.1227 30.1496 27.1249 30.105 27.2409 30.0057C28.8024 29.7995 30.2514 29.6606 31.6971 29.4925C32.8207 29.3618 32.6041 28.4594 32.6314 27.7433C32.6634 26.9027 31.9848 27.0712 31.5151 27.0885C30.2888 27.1336 29.0649 27.2399 27.84 27.3218C27.84 27.2186 27.84 27.1154 27.8401 26.9349C29.1674 26.7172 30.4921 26.5248 31.8231 26.4598C32.4402 26.4296 33.2442 26.3065 33.3819 27.3121C33.577 28.7372 33.2048 29.7885 32.1964 29.9266C30.5925 30.1461 28.9597 30.1548 27.2299 30.2234Z" fill="#0695D0"/>
<ellipse cx="27.1199" cy="30.0931" rx="0.24" ry="0.119893" fill="#0695D0"/>
<path d="M27.0469 27.4914C27.3418 27.4986 27.8442 27.3999 28.1458 27.2754C28.4099 27.1258 28.1463 27.1124 27.5498 27.2297C26.9532 27.3469 26.7144 27.459 27.0469 27.4914Z" fill="#0695D0"/>
<path d="M27.0469 27.2516C27.3418 27.2588 27.8442 27.1601 28.1458 27.0356C28.4099 26.886 28.1463 26.8726 27.5498 26.9899C26.9532 27.1071 26.7144 27.2192 27.0469 27.2516Z" fill="#0695D0"/>
<path d="M27.2869 27.2516C27.5818 27.2588 28.0842 27.1601 28.3858 27.0356C28.6498 26.886 28.3863 26.8726 27.7897 26.9899C27.1932 27.1071 26.9543 27.2192 27.2869 27.2516Z" fill="#0695D0"/>
<path d="M27.0332 29.9819C27.3351 30.0601 27.8785 30.0949 28.2218 30.0582C28.5331 29.99 28.2652 29.914 27.6199 29.8726C26.9747 29.8313 26.6992 29.8724 27.0332 29.9819Z" fill="#0695D0"/>
<path d="M26.7939 29.8046C27.0814 29.9254 27.6141 30.0381 27.9592 30.0512C28.277 30.0286 28.0229 29.9149 27.3903 29.7809C26.7578 29.647 26.4792 29.648 26.7939 29.8046Z" fill="#0695D0"/>
<path d="M26.7898 30.129C27.0917 30.2072 27.6351 30.242 27.9784 30.2053C28.2897 30.1371 28.0218 30.0611 27.3765 30.0197C26.7313 29.9784 26.4558 30.0195 26.7898 30.129Z" fill="#0695D0"/>
<path d="M26.1034 27.7515C26.114 28.0629 26.2345 28.5934 26.3671 28.912C26.5208 29.1909 26.5177 28.9127 26.3746 28.2827C26.2314 27.6527 26.1139 27.4004 26.1034 27.7515Z" fill="#0695D0"/>
</svg>