<svg width="16" height="12" viewBox="0 0 16 16" fill="none" xmlns="http://www.w3.org/2000/svg">
<path d="M6.875 15.3L0.275 8.70002C0.175 8.60002 0.104 8.49169 0.0619998 8.37502C0.0206665 8.25835 0 8.13335 0 8.00002C0 7.86669 0.0206665 7.74169 0.0619998 7.62502C0.104 7.50835 0.175 7.40002 0.275 7.30002L6.875 0.700021C7.05833 0.516688 7.28733 0.420688 7.562 0.412022C7.83733 0.404022 8.075 0.500021 8.275 0.700021C8.475 0.883355 8.57933 1.11235 8.588 1.38702C8.596 1.66235 8.5 1.90002 8.3 2.10002L3.4 7.00002H14.575C14.8583 7.00002 15.096 7.09569 15.288 7.28702C15.4793 7.47902 15.575 7.71669 15.575 8.00002C15.575 8.28335 15.4793 8.52069 15.288 8.71202C15.096 8.90402 14.8583 9.00002 14.575 9.00002H3.4L8.3 13.9C8.48333 14.0834 8.57933 14.3167 8.588 14.6C8.596 14.8834 8.5 15.1167 8.3 15.3C8.11667 15.5 7.88333 15.6 7.6 15.6C7.31667 15.6 7.075 15.5 6.875 15.3Z" fill="black"/>
</svg>

