<svg width="7" height="12" viewBox="0 0 7 12" fill="none" xmlns="http://www.w3.org/2000/svg">
<path d="M0.700003 11.3C0.516669 11.1167 0.425003 10.8833 0.425003 10.6C0.425003 10.3167 0.516669 10.0833 0.700003 9.9L4.6 6L0.700003 2.1C0.516669 1.91667 0.425003 1.68334 0.425003 1.4C0.425003 1.11667 0.516669 0.883336 0.700003 0.700003C0.883336 0.516669 1.11667 0.425003 1.4 0.425003C1.68334 0.425003 1.91667 0.516669 2.1 0.700003L6.7 5.3C6.8 5.4 6.871 5.50834 6.913 5.625C6.95434 5.74167 6.975 5.86667 6.975 6C6.975 6.13334 6.95434 6.25834 6.913 6.375C6.871 6.49167 6.8 6.6 6.7 6.7L2.1 11.3C1.91667 11.4833 1.68334 11.575 1.4 11.575C1.11667 11.575 0.883336 11.4833 0.700003 11.3Z" fill="#202020"/>
</svg>

