<svg width="32" height="32" viewBox="0 0 32 32" fill="none" xmlns="http://www.w3.org/2000/svg">
<g clip-path="url(#clip0_1461_23430)">
<path d="M17.7344 23.0664L11.601 16.9331C11.4677 16.7997 11.3735 16.6553 11.3184 16.4997C11.2624 16.3442 11.2344 16.1775 11.2344 15.9997C11.2344 15.822 11.2624 15.6553 11.3184 15.4997C11.3735 15.3442 11.4677 15.1997 11.601 15.0664L17.7344 8.93307C17.9788 8.68863 18.2899 8.56641 18.6677 8.56641C19.0455 8.56641 19.3566 8.68863 19.601 8.93307C19.8455 9.17752 19.9677 9.48863 19.9677 9.86641C19.9677 10.2442 19.8455 10.5553 19.601 10.7997L14.401 15.9997L19.601 21.1997C19.8455 21.4442 19.9677 21.7553 19.9677 22.1331C19.9677 22.5109 19.8455 22.822 19.601 23.0664C19.3566 23.3109 19.0455 23.4331 18.6677 23.4331C18.2899 23.4331 17.9788 23.3109 17.7344 23.0664Z" fill="#202020"/>
</g>
<defs>
<clipPath id="clip0_1461_23430">
<rect width="32" height="32" fill="white"/>
</clipPath>
</defs>
</svg>
