<svg width="32" height="32" viewBox="0 0 32 32" fill="none" xmlns="http://www.w3.org/2000/svg">
<g clip-path="url(#clip0_1461_23441)">
<path d="M11.601 23.0664C11.3566 22.822 11.2344 22.5109 11.2344 22.1331C11.2344 21.7553 11.3566 21.4442 11.601 21.1997L16.801 15.9997L11.601 10.7997C11.3566 10.5553 11.2344 10.2442 11.2344 9.86641C11.2344 9.48863 11.3566 9.17752 11.601 8.93307C11.8455 8.68863 12.1566 8.56641 12.5344 8.56641C12.9122 8.56641 13.2233 8.68863 13.4677 8.93307L19.601 15.0664C19.7344 15.1997 19.829 15.3442 19.885 15.4997C19.9402 15.6553 19.9677 15.822 19.9677 15.9997C19.9677 16.1775 19.9402 16.3442 19.885 16.4997C19.829 16.6553 19.7344 16.7997 19.601 16.9331L13.4677 23.0664C13.2233 23.3109 12.9122 23.4331 12.5344 23.4331C12.1566 23.4331 11.8455 23.3109 11.601 23.0664Z" fill="#202020"/>
</g>
<defs>
<clipPath id="clip0_1461_23441">
<rect width="32" height="32" fill="white"/>
</clipPath>
</defs>
</svg>
