<svg width="139" height="155" viewBox="0 0 139 155" fill="none" xmlns="http://www.w3.org/2000/svg">
<path fill-rule="evenodd" clip-rule="evenodd" d="M113.826 1.25098C134.967 4.15237 151.099 19.4789 169.116 30.9461C187.25 42.4883 209.253 49.9297 219.795 68.6981C230.65 88.0232 232.644 112.147 226.734 133.522C221.122 153.822 203.183 167.083 188.445 182.092C174.66 196.13 161.093 209.74 143.428 218.359C123.117 228.269 101.586 238.691 79.2435 235.37C55.6625 231.865 33.4717 218.673 18.7948 199.832C4.42465 181.385 -0.224199 157.062 0.00823684 133.653C0.21997 112.328 12.1064 94.0645 20.0414 74.2798C28.4159 53.3995 30.15 28.1088 47.8743 14.307C65.9402 0.239336 91.1656 -1.85886 113.826 1.25098Z" fill="#ACD1DF"/>
</svg>
