<svg width="32" height="32" viewBox="0 0 32 32" fill="none" xmlns="http://www.w3.org/2000/svg">
<circle cx="16.5" cy="16.5" r="12.5" fill="white"/>
<path d="M15.9998 17.8667L19.8665 21.7334C20.1109 21.9779 20.4221 22.1001 20.7998 22.1001C21.1776 22.1001 21.4887 21.9779 21.7332 21.7334C21.9776 21.489 22.0998 21.1779 22.0998 20.8001C22.0998 20.4223 21.9776 20.1112 21.7332 19.8667L17.8665 16.0001L21.7332 12.1334C21.9776 11.889 22.0998 11.5779 22.0998 11.2001C22.0998 10.8223 21.9776 10.5112 21.7332 10.2667C21.4887 10.0223 21.1776 9.90008 20.7998 9.90008C20.4221 9.90008 20.1109 10.0223 19.8665 10.2667L15.9998 14.1334L12.1332 10.2667C11.8887 10.0223 11.5776 9.90008 11.1998 9.90008C10.8221 9.90008 10.5109 10.0223 10.2665 10.2667C10.0221 10.5112 9.89984 10.8223 9.89984 11.2001C9.89984 11.5779 10.0221 11.889 10.2665 12.1334L14.1332 16.0001L10.2665 19.8667C10.0221 20.1112 9.89984 20.4223 9.89984 20.8001C9.89984 21.1779 10.0221 21.489 10.2665 21.7334C10.5109 21.9779 10.8221 22.1001 11.1998 22.1001C11.5776 22.1001 11.8887 21.9779 12.1332 21.7334L15.9998 17.8667ZM15.9998 29.3334C14.1554 29.3334 12.4221 28.9834 10.7998 28.2834C9.17761 27.5834 7.7665 26.6334 6.5665 25.4334C5.3665 24.2334 4.4165 22.8223 3.7165 21.2001C3.0165 19.5779 2.6665 17.8445 2.6665 16.0001C2.6665 14.1556 3.0165 12.4223 3.7165 10.8001C4.4165 9.17786 5.3665 7.76675 6.5665 6.56675C7.7665 5.36675 9.17761 4.41675 10.7998 3.71675C12.4221 3.01675 14.1554 2.66675 15.9998 2.66675C17.8443 2.66675 19.5776 3.01675 21.1998 3.71675C22.8221 4.41675 24.2332 5.36675 25.4332 6.56675C26.6332 7.76675 27.5832 9.17786 28.2832 10.8001C28.9832 12.4223 29.3332 14.1556 29.3332 16.0001C29.3332 17.8445 28.9832 19.5779 28.2832 21.2001C27.5832 22.8223 26.6332 24.2334 25.4332 25.4334C24.2332 26.6334 22.8221 27.5834 21.1998 28.2834C19.5776 28.9834 17.8443 29.3334 15.9998 29.3334Z" fill="#940901"/>
</svg>
