<svg width="24" height="24" viewBox="0 0 24 24" fill="none" xmlns="http://www.w3.org/2000/svg">
<ellipse cx="15.5" cy="16.5" rx="15.5" ry="14.5" fill="#E14141"/>
<path d="M15.7667 18.6333L9.23333 25.1667C8.98889 25.4111 8.67778 25.5333 8.3 25.5333C7.92222 25.5333 7.61111 25.4111 7.36667 25.1667C7.12222 24.9222 7 24.6111 7 24.2333C7 23.8556 7.12222 23.5444 7.36667 23.3L13.9 16.7667L7.36667 10.2333C7.12222 9.98889 7 9.67778 7 9.3C7 8.92222 7.12222 8.61111 7.36667 8.36667C7.61111 8.12222 7.92222 8 8.3 8C8.67778 8 8.98889 8.12222 9.23333 8.36667L15.7667 14.9L22.3 8.36667C22.5444 8.12222 22.8556 8 23.2333 8C23.6111 8 23.9222 8.12222 24.1667 8.36667C24.4111 8.61111 24.5333 8.92222 24.5333 9.3C24.5333 9.67778 24.4111 9.98889 24.1667 10.2333L17.6333 16.7667L24.1667 23.3C24.4111 23.5444 24.5333 23.8556 24.5333 24.2333C24.5333 24.6111 24.4111 24.9222 24.1667 25.1667C23.9222 25.4111 23.6111 25.5333 23.2333 25.5333C22.8556 25.5333 22.5444 25.4111 22.3 25.1667L15.7667 18.6333Z" fill="white"/>
</svg>
