<svg width="32" height="32" viewBox="0 0 32 32" fill="none" xmlns="http://www.w3.org/2000/svg">
<g clip-path="url(#clip0_2003_11145)">
<path d="M15.9998 22.6665C16.3776 22.6665 16.6943 22.5387 16.9498 22.2832C17.2054 22.0276 17.3332 21.7109 17.3332 21.3332V15.9998C17.3332 15.6221 17.2054 15.3054 16.9498 15.0498C16.6943 14.7943 16.3776 14.6665 15.9998 14.6665C15.6221 14.6665 15.3054 14.7943 15.0498 15.0498C14.7943 15.3054 14.6665 15.6221 14.6665 15.9998V21.3332C14.6665 21.7109 14.7943 22.0276 15.0498 22.2832C15.3054 22.5387 15.6221 22.6665 15.9998 22.6665ZM15.9998 11.9998C16.3776 11.9998 16.6943 11.8721 16.9498 11.6165C17.2054 11.3609 17.3332 11.0443 17.3332 10.6665C17.3332 10.2887 17.2054 9.97206 16.9498 9.7165C16.6943 9.46095 16.3776 9.33317 15.9998 9.33317C15.6221 9.33317 15.3054 9.46095 15.0498 9.7165C14.7943 9.97206 14.6665 10.2887 14.6665 10.6665C14.6665 11.0443 14.7943 11.3609 15.0498 11.6165C15.3054 11.8721 15.6221 11.9998 15.9998 11.9998ZM15.9998 29.3332C14.1554 29.3332 12.4221 28.9832 10.7998 28.2832C9.17761 27.5832 7.7665 26.6332 6.5665 25.4332C5.3665 24.2332 4.4165 22.8221 3.7165 21.1998C3.0165 19.5776 2.6665 17.8443 2.6665 15.9998C2.6665 14.1554 3.0165 12.4221 3.7165 10.7998C4.4165 9.17761 5.3665 7.7665 6.5665 6.5665C7.7665 5.3665 9.17761 4.4165 10.7998 3.7165C12.4221 3.0165 14.1554 2.6665 15.9998 2.6665C17.8443 2.6665 19.5776 3.0165 21.1998 3.7165C22.8221 4.4165 24.2332 5.3665 25.4332 6.5665C26.6332 7.7665 27.5832 9.17761 28.2832 10.7998C28.9832 12.4221 29.3332 14.1554 29.3332 15.9998C29.3332 17.8443 28.9832 19.5776 28.2832 21.1998C27.5832 22.8221 26.6332 24.2332 25.4332 25.4332C24.2332 26.6332 22.8221 27.5832 21.1998 28.2832C19.5776 28.9832 17.8443 29.3332 15.9998 29.3332Z" fill="#0695D0"/>
</g>
<defs>
<clipPath id="clip0_2003_11145">
<rect width="32" height="32" fill="white"/>
</clipPath>
</defs>
</svg>
