<svg width="528" height="233" viewBox="0 0 528 233" fill="none" xmlns="http://www.w3.org/2000/svg">
<path d="M145.565 79.1332C165.112 83.2891 179.208 98.6316 181.518 118.086C183.516 134.905 174.174 154.622 161.082 160.874C158.401 155.783 154.712 151.646 148.878 149.36C155.162 144.5 160.069 138.999 158.783 130.583C157.599 122.835 153.027 117.304 146.321 113.251C146.915 110.956 147.528 108.593 148.154 106.178C150.169 107.536 152.141 108.866 153.937 110.077C154.492 109.753 154.696 109.708 154.75 109.592C156.854 105.098 152.879 96.6779 148.131 95.526C145.698 94.9358 143.427 95.4249 142.507 97.8094C141.179 101.253 140.312 104.888 139.407 108.483C139.085 109.763 139.227 111.162 139.148 112.703C138.243 112.744 137.433 112.78 136.577 112.819C136.577 109.878 136.844 107.082 136.527 104.354C135.582 96.214 131.515 89.8669 124.985 85.0768C124.477 84.7036 123.919 84.3823 123.348 84.1127C121.231 83.1118 120.379 83.5358 120.758 85.8426C121.452 90.0748 122.256 94.3294 123.52 98.416C125.112 103.568 127.21 108.56 129.128 113.724C122.668 117.223 117.692 122.319 116.745 130.172C115.783 138.143 120.474 143.68 126.021 149.035C119.843 151.168 115.778 155.479 112.604 160.72C97.7222 151.747 87.1633 130.415 94.7434 108.435C101.982 87.4451 123.897 74.7748 145.565 79.1332Z" fill="#0695D0"/>
<path d="M211.456 129.288C209.072 129.288 207.208 128.624 205.864 127.296C204.52 125.968 203.848 124.072 203.848 121.608V112.2H207.736V121.464C207.736 123.064 208.064 124.216 208.72 124.92C209.376 125.624 210.296 125.976 211.48 125.976C212.664 125.976 213.584 125.624 214.24 124.92C214.896 124.216 215.224 123.064 215.224 121.464V112.2H219.064V121.608C219.064 124.072 218.392 125.968 217.048 127.296C215.704 128.624 213.84 129.288 211.456 129.288ZM226.986 129.192C225.882 129.192 224.818 129.064 223.794 128.808C222.786 128.536 221.986 128.2 221.394 127.8L222.642 125.112C223.234 125.48 223.93 125.784 224.73 126.024C225.546 126.248 226.346 126.36 227.13 126.36C227.994 126.36 228.602 126.256 228.954 126.048C229.322 125.84 229.506 125.552 229.506 125.184C229.506 124.88 229.362 124.656 229.074 124.512C228.802 124.352 228.434 124.232 227.97 124.152C227.506 124.072 226.994 123.992 226.434 123.912C225.89 123.832 225.338 123.728 224.778 123.6C224.218 123.456 223.706 123.248 223.242 122.976C222.778 122.704 222.402 122.336 222.114 121.872C221.842 121.408 221.706 120.808 221.706 120.072C221.706 119.256 221.938 118.536 222.402 117.912C222.882 117.288 223.57 116.8 224.466 116.448C225.362 116.08 226.434 115.896 227.682 115.896C228.562 115.896 229.458 115.992 230.37 116.184C231.282 116.376 232.042 116.656 232.65 117.024L231.402 119.688C230.778 119.32 230.146 119.072 229.506 118.944C228.882 118.8 228.274 118.728 227.682 118.728C226.85 118.728 226.242 118.84 225.858 119.064C225.474 119.288 225.282 119.576 225.282 119.928C225.282 120.248 225.418 120.488 225.69 120.648C225.978 120.808 226.354 120.936 226.818 121.032C227.282 121.128 227.786 121.216 228.33 121.296C228.89 121.36 229.45 121.464 230.01 121.608C230.57 121.752 231.074 121.96 231.522 122.232C231.986 122.488 232.362 122.848 232.65 123.312C232.938 123.76 233.082 124.352 233.082 125.088C233.082 125.888 232.842 126.6 232.362 127.224C231.882 127.832 231.186 128.312 230.274 128.664C229.378 129.016 228.282 129.192 226.986 129.192ZM241.8 129.192C240.328 129.192 239.032 128.904 237.912 128.328C236.808 127.752 235.952 126.968 235.344 125.976C234.736 124.968 234.432 123.824 234.432 122.544C234.432 121.248 234.728 120.104 235.32 119.112C235.928 118.104 236.752 117.32 237.792 116.76C238.832 116.184 240.008 115.896 241.32 115.896C242.584 115.896 243.72 116.168 244.728 116.712C245.752 117.24 246.56 118.008 247.152 119.016C247.744 120.008 248.04 121.2 248.04 122.592C248.04 122.736 248.032 122.904 248.016 123.096C248 123.272 247.984 123.44 247.968 123.6H237.48V121.416H246L244.56 122.064C244.56 121.392 244.424 120.808 244.152 120.312C243.88 119.816 243.504 119.432 243.024 119.16C242.544 118.872 241.984 118.728 241.344 118.728C240.704 118.728 240.136 118.872 239.64 119.16C239.16 119.432 238.784 119.824 238.512 120.336C238.24 120.832 238.104 121.424 238.104 122.112V122.688C238.104 123.392 238.256 124.016 238.56 124.56C238.88 125.088 239.32 125.496 239.88 125.784C240.456 126.056 241.128 126.192 241.896 126.192C242.584 126.192 243.184 126.088 243.696 125.88C244.224 125.672 244.704 125.36 245.136 124.944L247.128 127.104C246.536 127.776 245.792 128.296 244.896 128.664C244 129.016 242.968 129.192 241.8 129.192ZM250.533 129V116.088H254.109V119.736L253.605 118.68C253.989 117.768 254.605 117.08 255.453 116.616C256.301 116.136 257.333 115.896 258.549 115.896V119.352C258.389 119.336 258.245 119.328 258.117 119.328C257.989 119.312 257.853 119.304 257.709 119.304C256.685 119.304 255.853 119.6 255.213 120.192C254.589 120.768 254.277 121.672 254.277 122.904V129H250.533ZM267.93 129V112.2H271.818V129H267.93ZM283.389 115.896C284.413 115.896 285.325 116.104 286.125 116.52C286.941 116.92 287.581 117.544 288.045 118.392C288.509 119.224 288.741 120.296 288.741 121.608V129H284.997V122.184C284.997 121.144 284.765 120.376 284.301 119.88C283.853 119.384 283.213 119.136 282.381 119.136C281.789 119.136 281.253 119.264 280.773 119.52C280.309 119.76 279.941 120.136 279.669 120.648C279.413 121.16 279.285 121.816 279.285 122.616V129H275.541V116.088H279.117V119.664L278.445 118.584C278.909 117.72 279.573 117.056 280.437 116.592C281.301 116.128 282.285 115.896 283.389 115.896ZM297.414 129.192C295.894 129.192 294.71 128.808 293.862 128.04C293.014 127.256 292.59 126.096 292.59 124.56V113.232H296.334V124.512C296.334 125.056 296.478 125.48 296.766 125.784C297.054 126.072 297.446 126.216 297.942 126.216C298.534 126.216 299.038 126.056 299.454 125.736L300.462 128.376C300.078 128.648 299.614 128.856 299.07 129C298.542 129.128 297.99 129.192 297.414 129.192ZM290.598 119.256V116.376H299.55V119.256H290.598ZM308.574 129.192C307.102 129.192 305.806 128.904 304.686 128.328C303.582 127.752 302.726 126.968 302.118 125.976C301.51 124.968 301.206 123.824 301.206 122.544C301.206 121.248 301.502 120.104 302.094 119.112C302.702 118.104 303.526 117.32 304.566 116.76C305.606 116.184 306.782 115.896 308.094 115.896C309.358 115.896 310.494 116.168 311.502 116.712C312.526 117.24 313.334 118.008 313.926 119.016C314.518 120.008 314.814 121.2 314.814 122.592C314.814 122.736 314.806 122.904 314.79 123.096C314.774 123.272 314.758 123.44 314.742 123.6H304.254V121.416H312.773L311.334 122.064C311.334 121.392 311.198 120.808 310.926 120.312C310.654 119.816 310.278 119.432 309.798 119.16C309.318 118.872 308.758 118.728 308.118 118.728C307.478 118.728 306.91 118.872 306.414 119.16C305.934 119.432 305.558 119.824 305.286 120.336C305.014 120.832 304.878 121.424 304.878 122.112V122.688C304.878 123.392 305.03 124.016 305.334 124.56C305.654 125.088 306.094 125.496 306.654 125.784C307.23 126.056 307.902 126.192 308.67 126.192C309.358 126.192 309.958 126.088 310.47 125.88C310.998 125.672 311.478 125.36 311.91 124.944L313.902 127.104C313.31 127.776 312.566 128.296 311.67 128.664C310.774 129.016 309.742 129.192 308.574 129.192ZM317.306 129V116.088H320.882V119.736L320.378 118.68C320.762 117.768 321.378 117.08 322.226 116.616C323.074 116.136 324.106 115.896 325.322 115.896V119.352C325.162 119.336 325.018 119.328 324.89 119.328C324.762 119.312 324.626 119.304 324.482 119.304C323.458 119.304 322.626 119.6 321.986 120.192C321.362 120.768 321.05 121.672 321.05 122.904V129H317.306ZM328.098 129V115.8C328.098 114.344 328.53 113.184 329.394 112.32C330.258 111.44 331.49 111 333.09 111C333.634 111 334.154 111.056 334.65 111.168C335.162 111.28 335.594 111.456 335.946 111.696L334.962 114.408C334.754 114.264 334.522 114.152 334.266 114.072C334.01 113.992 333.738 113.952 333.45 113.952C332.906 113.952 332.482 114.112 332.178 114.432C331.89 114.736 331.746 115.2 331.746 115.824V117.024L331.842 118.632V129H328.098ZM326.106 119.256V116.376H335.058V119.256H326.106ZM344.609 129V126.48L344.369 125.928V121.416C344.369 120.616 344.121 119.992 343.625 119.544C343.145 119.096 342.401 118.872 341.393 118.872C340.705 118.872 340.025 118.984 339.353 119.208C338.697 119.416 338.137 119.704 337.673 120.072L336.329 117.456C337.033 116.96 337.881 116.576 338.873 116.304C339.865 116.032 340.873 115.896 341.897 115.896C343.865 115.896 345.393 116.36 346.481 117.288C347.569 118.216 348.113 119.664 348.113 121.632V129H344.609ZM340.673 129.192C339.665 129.192 338.801 129.024 338.081 128.688C337.361 128.336 336.809 127.864 336.425 127.272C336.041 126.68 335.849 126.016 335.849 125.28C335.849 124.512 336.033 123.84 336.401 123.264C336.785 122.688 337.385 122.24 338.201 121.92C339.017 121.584 340.081 121.416 341.393 121.416H344.825V123.6H341.801C340.921 123.6 340.313 123.744 339.977 124.032C339.657 124.32 339.497 124.68 339.497 125.112C339.497 125.592 339.681 125.976 340.049 126.264C340.433 126.536 340.953 126.672 341.609 126.672C342.233 126.672 342.793 126.528 343.289 126.24C343.785 125.936 344.145 125.496 344.369 124.92L344.945 126.648C344.673 127.48 344.177 128.112 343.457 128.544C342.737 128.976 341.809 129.192 340.673 129.192ZM357.835 129.192C356.443 129.192 355.203 128.912 354.115 128.352C353.027 127.776 352.171 126.984 351.547 125.976C350.939 124.968 350.635 123.824 350.635 122.544C350.635 121.248 350.939 120.104 351.547 119.112C352.171 118.104 353.027 117.32 354.115 116.76C355.203 116.184 356.443 115.896 357.835 115.896C359.195 115.896 360.379 116.184 361.387 116.76C362.395 117.32 363.139 118.128 363.619 119.184L360.715 120.744C360.379 120.136 359.955 119.688 359.443 119.4C358.947 119.112 358.403 118.968 357.811 118.968C357.171 118.968 356.595 119.112 356.083 119.4C355.571 119.688 355.163 120.096 354.859 120.624C354.571 121.152 354.427 121.792 354.427 122.544C354.427 123.296 354.571 123.936 354.859 124.464C355.163 124.992 355.571 125.4 356.083 125.688C356.595 125.976 357.171 126.12 357.811 126.12C358.403 126.12 358.947 125.984 359.443 125.712C359.955 125.424 360.379 124.968 360.715 124.344L363.619 125.928C363.139 126.968 362.395 127.776 361.387 128.352C360.379 128.912 359.195 129.192 357.835 129.192ZM372.019 129.192C370.547 129.192 369.251 128.904 368.131 128.328C367.027 127.752 366.171 126.968 365.563 125.976C364.955 124.968 364.651 123.824 364.651 122.544C364.651 121.248 364.947 120.104 365.539 119.112C366.147 118.104 366.971 117.32 368.011 116.76C369.051 116.184 370.227 115.896 371.539 115.896C372.803 115.896 373.939 116.168 374.947 116.712C375.971 117.24 376.779 118.008 377.371 119.016C377.963 120.008 378.259 121.2 378.259 122.592C378.259 122.736 378.251 122.904 378.235 123.096C378.219 123.272 378.203 123.44 378.187 123.6H367.699V121.416H376.219L374.779 122.064C374.779 121.392 374.643 120.808 374.371 120.312C374.099 119.816 373.723 119.432 373.243 119.16C372.763 118.872 372.203 118.728 371.563 118.728C370.923 118.728 370.355 118.872 369.859 119.16C369.379 119.432 369.003 119.824 368.731 120.336C368.459 120.832 368.323 121.424 368.323 122.112V122.688C368.323 123.392 368.475 124.016 368.779 124.56C369.099 125.088 369.539 125.496 370.099 125.784C370.675 126.056 371.347 126.192 372.115 126.192C372.803 126.192 373.403 126.088 373.915 125.88C374.443 125.672 374.923 125.36 375.355 124.944L377.347 127.104C376.755 127.776 376.011 128.296 375.115 128.664C374.219 129.016 373.187 129.192 372.019 129.192ZM385.095 129.192C383.991 129.192 382.927 129.064 381.903 128.808C380.895 128.536 380.095 128.2 379.503 127.8L380.751 125.112C381.343 125.48 382.039 125.784 382.839 126.024C383.655 126.248 384.455 126.36 385.239 126.36C386.103 126.36 386.711 126.256 387.063 126.048C387.431 125.84 387.615 125.552 387.615 125.184C387.615 124.88 387.471 124.656 387.183 124.512C386.911 124.352 386.543 124.232 386.079 124.152C385.615 124.072 385.103 123.992 384.543 123.912C383.999 123.832 383.447 123.728 382.887 123.6C382.327 123.456 381.815 123.248 381.351 122.976C380.887 122.704 380.511 122.336 380.223 121.872C379.951 121.408 379.815 120.808 379.815 120.072C379.815 119.256 380.047 118.536 380.511 117.912C380.991 117.288 381.679 116.8 382.575 116.448C383.471 116.08 384.543 115.896 385.791 115.896C386.671 115.896 387.567 115.992 388.479 116.184C389.391 116.376 390.151 116.656 390.759 117.024L389.511 119.688C388.887 119.32 388.255 119.072 387.615 118.944C386.991 118.8 386.383 118.728 385.791 118.728C384.959 118.728 384.351 118.84 383.967 119.064C383.583 119.288 383.391 119.576 383.391 119.928C383.391 120.248 383.527 120.488 383.799 120.648C384.087 120.808 384.463 120.936 384.927 121.032C385.391 121.128 385.895 121.216 386.439 121.296C386.999 121.36 387.559 121.464 388.119 121.608C388.679 121.752 389.183 121.96 389.631 122.232C390.095 122.488 390.471 122.848 390.759 123.312C391.047 123.76 391.191 124.352 391.191 125.088C391.191 125.888 390.951 126.6 390.471 127.224C389.991 127.832 389.295 128.312 388.383 128.664C387.487 129.016 386.391 129.192 385.095 129.192Z" fill="#0695D0"/>
</svg>
