<svg width="528" height="233" viewBox="0 0 528 233" fill="none" xmlns="http://www.w3.org/2000/svg">
<path d="M145.565 79.1332C165.112 83.2891 179.208 98.6316 181.518 118.086C183.516 134.905 174.174 154.622 161.082 160.874C158.401 155.783 154.712 151.646 148.878 149.36C155.162 144.5 160.069 138.999 158.783 130.583C157.599 122.835 153.027 117.304 146.321 113.251C146.915 110.956 147.528 108.593 148.154 106.178C150.169 107.536 152.141 108.866 153.937 110.077C154.492 109.753 154.696 109.708 154.75 109.592C156.854 105.098 152.879 96.6779 148.131 95.526C145.698 94.9358 143.427 95.4249 142.507 97.8094C141.179 101.253 140.312 104.888 139.407 108.483C139.085 109.763 139.227 111.162 139.148 112.703C138.243 112.744 137.433 112.78 136.577 112.819C136.577 109.878 136.844 107.082 136.527 104.354C135.582 96.214 131.515 89.8669 124.985 85.0768C124.477 84.7036 123.919 84.3823 123.348 84.1127C121.231 83.1118 120.379 83.5358 120.758 85.8426C121.452 90.0748 122.256 94.3294 123.52 98.416C125.112 103.568 127.21 108.56 129.128 113.724C122.668 117.223 117.692 122.319 116.745 130.172C115.783 138.143 120.474 143.68 126.021 149.035C119.843 151.168 115.778 155.479 112.604 160.72C97.7222 151.747 87.1633 130.415 94.7434 108.435C101.982 87.4451 123.897 74.7748 145.565 79.1332Z" fill="#0695D0"/>
<path d="M212.152 129.288C210.824 129.288 209.592 129.072 208.456 128.64C207.336 128.208 206.36 127.6 205.528 126.816C204.712 126.032 204.072 125.112 203.608 124.056C203.16 123 202.936 121.848 202.936 120.6C202.936 119.352 203.16 118.2 203.608 117.144C204.072 116.088 204.72 115.168 205.552 114.384C206.384 113.6 207.36 112.992 208.48 112.56C209.6 112.128 210.816 111.912 212.128 111.912C213.456 111.912 214.672 112.128 215.776 112.56C216.896 112.992 217.864 113.6 218.68 114.384C219.512 115.168 220.16 116.088 220.624 117.144C221.088 118.184 221.32 119.336 221.32 120.6C221.32 121.848 221.088 123.008 220.624 124.08C220.16 125.136 219.512 126.056 218.68 126.84C217.864 127.608 216.896 128.208 215.776 128.64C214.672 129.072 213.464 129.288 212.152 129.288ZM212.128 125.976C212.88 125.976 213.568 125.848 214.192 125.592C214.832 125.336 215.392 124.968 215.872 124.488C216.352 124.008 216.72 123.44 216.976 122.784C217.248 122.128 217.384 121.4 217.384 120.6C217.384 119.8 217.248 119.072 216.976 118.416C216.72 117.76 216.352 117.192 215.872 116.712C215.408 116.232 214.856 115.864 214.216 115.608C213.576 115.352 212.88 115.224 212.128 115.224C211.376 115.224 210.68 115.352 210.04 115.608C209.416 115.864 208.864 116.232 208.384 116.712C207.904 117.192 207.528 117.76 207.256 118.416C207 119.072 206.872 119.8 206.872 120.6C206.872 121.384 207 122.112 207.256 122.784C207.528 123.44 207.896 124.008 208.36 124.488C208.84 124.968 209.4 125.336 210.04 125.592C210.68 125.848 211.376 125.976 212.128 125.976ZM229.375 129.192C227.855 129.192 226.671 128.808 225.823 128.04C224.975 127.256 224.551 126.096 224.551 124.56V113.232H228.295V124.512C228.295 125.056 228.439 125.48 228.727 125.784C229.015 126.072 229.407 126.216 229.903 126.216C230.495 126.216 230.999 126.056 231.415 125.736L232.423 128.376C232.039 128.648 231.575 128.856 231.031 129C230.503 129.128 229.951 129.192 229.375 129.192ZM222.559 119.256V116.376H231.511V119.256H222.559ZM242.373 115.896C243.397 115.896 244.309 116.104 245.109 116.52C245.925 116.92 246.565 117.544 247.029 118.392C247.493 119.224 247.725 120.296 247.725 121.608V129H243.981V122.184C243.981 121.144 243.749 120.376 243.285 119.88C242.837 119.384 242.197 119.136 241.365 119.136C240.773 119.136 240.237 119.264 239.757 119.52C239.293 119.76 238.925 120.136 238.653 120.648C238.397 121.16 238.269 121.816 238.269 122.616V129H234.525V111.192H238.269V119.664L237.429 118.584C237.893 117.72 238.557 117.056 239.421 116.592C240.285 116.128 241.269 115.896 242.373 115.896ZM257.62 129.192C256.148 129.192 254.852 128.904 253.732 128.328C252.628 127.752 251.772 126.968 251.164 125.976C250.556 124.968 250.252 123.824 250.252 122.544C250.252 121.248 250.548 120.104 251.14 119.112C251.748 118.104 252.572 117.32 253.612 116.76C254.652 116.184 255.828 115.896 257.14 115.896C258.404 115.896 259.54 116.168 260.548 116.712C261.572 117.24 262.38 118.008 262.972 119.016C263.564 120.008 263.86 121.2 263.86 122.592C263.86 122.736 263.852 122.904 263.836 123.096C263.82 123.272 263.804 123.44 263.788 123.6H253.3V121.416H261.82L260.38 122.064C260.38 121.392 260.244 120.808 259.972 120.312C259.7 119.816 259.324 119.432 258.844 119.16C258.364 118.872 257.804 118.728 257.164 118.728C256.524 118.728 255.956 118.872 255.46 119.16C254.98 119.432 254.604 119.824 254.332 120.336C254.06 120.832 253.924 121.424 253.924 122.112V122.688C253.924 123.392 254.076 124.016 254.38 124.56C254.7 125.088 255.14 125.496 255.7 125.784C256.276 126.056 256.948 126.192 257.716 126.192C258.404 126.192 259.004 126.088 259.516 125.88C260.044 125.672 260.524 125.36 260.956 124.944L262.948 127.104C262.356 127.776 261.612 128.296 260.716 128.664C259.82 129.016 258.788 129.192 257.62 129.192ZM266.353 129V116.088H269.929V119.736L269.425 118.68C269.809 117.768 270.425 117.08 271.273 116.616C272.121 116.136 273.153 115.896 274.369 115.896V119.352C274.209 119.336 274.065 119.328 273.937 119.328C273.809 119.312 273.673 119.304 273.529 119.304C272.505 119.304 271.673 119.6 271.033 120.192C270.409 120.768 270.097 121.672 270.097 122.904V129H266.353ZM291.862 129.288C290.534 129.288 289.31 129.08 288.19 128.664C287.086 128.232 286.118 127.624 285.286 126.84C284.47 126.056 283.83 125.136 283.366 124.08C282.918 123.024 282.694 121.864 282.694 120.6C282.694 119.336 282.918 118.176 283.366 117.12C283.83 116.064 284.478 115.144 285.31 114.36C286.142 113.576 287.118 112.976 288.238 112.56C289.358 112.128 290.59 111.912 291.934 111.912C293.422 111.912 294.758 112.16 295.942 112.656C297.142 113.152 298.15 113.872 298.966 114.816L296.47 117.12C295.862 116.48 295.198 116.008 294.478 115.704C293.758 115.384 292.974 115.224 292.126 115.224C291.31 115.224 290.566 115.352 289.894 115.608C289.222 115.864 288.638 116.232 288.142 116.712C287.662 117.192 287.286 117.76 287.014 118.416C286.758 119.072 286.63 119.8 286.63 120.6C286.63 121.384 286.758 122.104 287.014 122.76C287.286 123.416 287.662 123.992 288.142 124.488C288.638 124.968 289.214 125.336 289.87 125.592C290.542 125.848 291.278 125.976 292.078 125.976C292.846 125.976 293.59 125.856 294.31 125.616C295.046 125.36 295.758 124.936 296.446 124.344L298.654 127.152C297.742 127.84 296.678 128.368 295.462 128.736C294.262 129.104 293.062 129.288 291.862 129.288ZM295.102 126.648V120.336H298.654V127.152L295.102 126.648ZM302.001 129V116.088H305.577V119.736L305.073 118.68C305.457 117.768 306.073 117.08 306.921 116.616C307.769 116.136 308.801 115.896 310.017 115.896V119.352C309.857 119.336 309.713 119.328 309.585 119.328C309.457 119.312 309.321 119.304 309.177 119.304C308.153 119.304 307.321 119.6 306.681 120.192C306.057 120.768 305.745 121.672 305.745 122.904V129H302.001ZM319.32 129V126.48L319.08 125.928V121.416C319.08 120.616 318.832 119.992 318.336 119.544C317.856 119.096 317.112 118.872 316.104 118.872C315.416 118.872 314.736 118.984 314.064 119.208C313.408 119.416 312.848 119.704 312.384 120.072L311.04 117.456C311.744 116.96 312.592 116.576 313.584 116.304C314.576 116.032 315.584 115.896 316.608 115.896C318.576 115.896 320.104 116.36 321.192 117.288C322.28 118.216 322.824 119.664 322.824 121.632V129H319.32ZM315.384 129.192C314.376 129.192 313.512 129.024 312.792 128.688C312.072 128.336 311.52 127.864 311.136 127.272C310.752 126.68 310.56 126.016 310.56 125.28C310.56 124.512 310.744 123.84 311.112 123.264C311.496 122.688 312.096 122.24 312.912 121.92C313.728 121.584 314.792 121.416 316.104 121.416H319.536V123.6H316.512C315.632 123.6 315.024 123.744 314.688 124.032C314.368 124.32 314.208 124.68 314.208 125.112C314.208 125.592 314.392 125.976 314.76 126.264C315.144 126.536 315.664 126.672 316.32 126.672C316.944 126.672 317.504 126.528 318 126.24C318.496 125.936 318.856 125.496 319.08 124.92L319.656 126.648C319.384 127.48 318.888 128.112 318.168 128.544C317.448 128.976 316.52 129.192 315.384 129.192ZM333.844 129.192C332.756 129.192 331.804 128.952 330.988 128.472C330.172 127.992 329.532 127.264 329.068 126.288C328.62 125.296 328.396 124.048 328.396 122.544C328.396 121.024 328.612 119.776 329.044 118.8C329.476 117.824 330.1 117.096 330.916 116.616C331.732 116.136 332.708 115.896 333.844 115.896C335.06 115.896 336.148 116.176 337.108 116.736C338.084 117.28 338.852 118.048 339.412 119.04C339.988 120.032 340.276 121.2 340.276 122.544C340.276 123.904 339.988 125.08 339.412 126.072C338.852 127.064 338.084 127.832 337.108 128.376C336.148 128.92 335.06 129.192 333.844 129.192ZM326.212 133.656V116.088H329.788V118.728L329.716 122.568L329.956 126.384V133.656H326.212ZM333.196 126.12C333.82 126.12 334.372 125.976 334.852 125.688C335.348 125.4 335.74 124.992 336.028 124.464C336.332 123.92 336.484 123.28 336.484 122.544C336.484 121.792 336.332 121.152 336.028 120.624C335.74 120.096 335.348 119.688 334.852 119.4C334.372 119.112 333.82 118.968 333.196 118.968C332.572 118.968 332.012 119.112 331.516 119.4C331.02 119.688 330.628 120.096 330.34 120.624C330.052 121.152 329.908 121.792 329.908 122.544C329.908 123.28 330.052 123.92 330.34 124.464C330.628 124.992 331.02 125.4 331.516 125.688C332.012 125.976 332.572 126.12 333.196 126.12ZM350.631 115.896C351.655 115.896 352.567 116.104 353.367 116.52C354.183 116.92 354.823 117.544 355.287 118.392C355.751 119.224 355.983 120.296 355.983 121.608V129H352.239V122.184C352.239 121.144 352.007 120.376 351.543 119.88C351.095 119.384 350.455 119.136 349.623 119.136C349.031 119.136 348.495 119.264 348.015 119.52C347.551 119.76 347.183 120.136 346.911 120.648C346.655 121.16 346.527 121.816 346.527 122.616V129H342.783V111.192H346.527V119.664L345.687 118.584C346.151 117.72 346.815 117.056 347.679 116.592C348.543 116.128 349.527 115.896 350.631 115.896ZM359.376 129V116.088H363.12V129H359.376ZM361.248 114.288C360.56 114.288 360 114.088 359.568 113.688C359.136 113.288 358.92 112.792 358.92 112.2C358.92 111.608 359.136 111.112 359.568 110.712C360 110.312 360.56 110.112 361.248 110.112C361.936 110.112 362.496 110.304 362.928 110.688C363.36 111.056 363.576 111.536 363.576 112.128C363.576 112.752 363.36 113.272 362.928 113.688C362.512 114.088 361.952 114.288 361.248 114.288ZM372.835 129.192C371.443 129.192 370.203 128.912 369.115 128.352C368.027 127.776 367.171 126.984 366.547 125.976C365.939 124.968 365.635 123.824 365.635 122.544C365.635 121.248 365.939 120.104 366.547 119.112C367.171 118.104 368.027 117.32 369.115 116.76C370.203 116.184 371.443 115.896 372.835 115.896C374.195 115.896 375.379 116.184 376.387 116.76C377.395 117.32 378.139 118.128 378.619 119.184L375.715 120.744C375.379 120.136 374.955 119.688 374.443 119.4C373.947 119.112 373.403 118.968 372.811 118.968C372.171 118.968 371.595 119.112 371.083 119.4C370.571 119.688 370.163 120.096 369.859 120.624C369.571 121.152 369.427 121.792 369.427 122.544C369.427 123.296 369.571 123.936 369.859 124.464C370.163 124.992 370.571 125.4 371.083 125.688C371.595 125.976 372.171 126.12 372.811 126.12C373.403 126.12 373.947 125.984 374.443 125.712C374.955 125.424 375.379 124.968 375.715 124.344L378.619 125.928C378.139 126.968 377.395 127.776 376.387 128.352C375.379 128.912 374.195 129.192 372.835 129.192ZM385.119 129.192C384.015 129.192 382.951 129.064 381.927 128.808C380.919 128.536 380.119 128.2 379.527 127.8L380.775 125.112C381.367 125.48 382.063 125.784 382.863 126.024C383.679 126.248 384.479 126.36 385.263 126.36C386.127 126.36 386.735 126.256 387.087 126.048C387.455 125.84 387.639 125.552 387.639 125.184C387.639 124.88 387.495 124.656 387.207 124.512C386.935 124.352 386.567 124.232 386.103 124.152C385.639 124.072 385.127 123.992 384.567 123.912C384.023 123.832 383.471 123.728 382.911 123.6C382.351 123.456 381.839 123.248 381.375 122.976C380.911 122.704 380.535 122.336 380.247 121.872C379.975 121.408 379.839 120.808 379.839 120.072C379.839 119.256 380.071 118.536 380.535 117.912C381.015 117.288 381.703 116.8 382.599 116.448C383.495 116.08 384.567 115.896 385.815 115.896C386.695 115.896 387.591 115.992 388.503 116.184C389.415 116.376 390.175 116.656 390.783 117.024L389.535 119.688C388.911 119.32 388.279 119.072 387.639 118.944C387.015 118.8 386.407 118.728 385.815 118.728C384.983 118.728 384.375 118.84 383.991 119.064C383.607 119.288 383.415 119.576 383.415 119.928C383.415 120.248 383.551 120.488 383.823 120.648C384.111 120.808 384.487 120.936 384.951 121.032C385.415 121.128 385.919 121.216 386.463 121.296C387.023 121.36 387.583 121.464 388.143 121.608C388.703 121.752 389.207 121.96 389.655 122.232C390.119 122.488 390.495 122.848 390.783 123.312C391.071 123.76 391.215 124.352 391.215 125.088C391.215 125.888 390.975 126.6 390.495 127.224C390.015 127.832 389.319 128.312 388.407 128.664C387.511 129.016 386.415 129.192 385.119 129.192Z" fill="#0695D0"/>
</svg>
