<svg width="528" height="233" viewBox="0 0 528 233" fill="none" xmlns="http://www.w3.org/2000/svg">
<path d="M145.565 79.1332C165.112 83.2891 179.208 98.6316 181.518 118.086C183.516 134.905 174.174 154.622 161.082 160.874C158.401 155.783 154.712 151.646 148.878 149.36C155.162 144.5 160.069 138.999 158.783 130.583C157.599 122.835 153.027 117.304 146.321 113.251C146.915 110.956 147.528 108.593 148.154 106.178C150.169 107.536 152.141 108.866 153.937 110.077C154.492 109.753 154.696 109.708 154.75 109.592C156.854 105.098 152.879 96.6779 148.131 95.526C145.698 94.9358 143.427 95.4249 142.507 97.8094C141.179 101.253 140.312 104.888 139.407 108.483C139.085 109.763 139.227 111.162 139.148 112.703C138.243 112.744 137.433 112.78 136.577 112.819C136.577 109.878 136.844 107.082 136.527 104.354C135.582 96.214 131.515 89.8669 124.985 85.0768C124.477 84.7036 123.919 84.3823 123.348 84.1127C121.231 83.1118 120.379 83.5358 120.758 85.8426C121.452 90.0748 122.256 94.3294 123.52 98.416C125.112 103.568 127.21 108.56 129.128 113.724C122.668 117.223 117.692 122.319 116.745 130.172C115.783 138.143 120.474 143.68 126.021 149.035C119.843 151.168 115.778 155.479 112.604 160.72C97.7222 151.747 87.1633 130.415 94.7434 108.435C101.982 87.4451 123.897 74.7748 145.565 79.1332Z" fill="#0695D0"/>
<path d="M203.992 129V112.2H207.208L214.36 124.056H212.656L219.688 112.2H222.88L222.928 129H219.28L219.256 117.792H219.928L214.312 127.224H212.56L206.824 117.792H207.64V129H203.992ZM232.794 129.192C231.418 129.192 230.194 128.904 229.122 128.328C228.066 127.752 227.226 126.968 226.602 125.976C225.994 124.968 225.69 123.824 225.69 122.544C225.69 121.248 225.994 120.104 226.602 119.112C227.226 118.104 228.066 117.32 229.122 116.76C230.194 116.184 231.418 115.896 232.794 115.896C234.154 115.896 235.37 116.184 236.442 116.76C237.514 117.32 238.354 118.096 238.962 119.088C239.57 120.08 239.874 121.232 239.874 122.544C239.874 123.824 239.57 124.968 238.962 125.976C238.354 126.968 237.514 127.752 236.442 128.328C235.37 128.904 234.154 129.192 232.794 129.192ZM232.794 126.12C233.418 126.12 233.978 125.976 234.474 125.688C234.97 125.4 235.362 124.992 235.65 124.464C235.938 123.92 236.082 123.28 236.082 122.544C236.082 121.792 235.938 121.152 235.65 120.624C235.362 120.096 234.97 119.688 234.474 119.4C233.978 119.112 233.418 118.968 232.794 118.968C232.17 118.968 231.61 119.112 231.114 119.4C230.618 119.688 230.218 120.096 229.914 120.624C229.626 121.152 229.482 121.792 229.482 122.544C229.482 123.28 229.626 123.92 229.914 124.464C230.218 124.992 230.618 125.4 231.114 125.688C231.61 125.976 232.17 126.12 232.794 126.12ZM250.008 129.192C248.872 129.192 247.896 128.952 247.08 128.472C246.264 127.992 245.64 127.264 245.208 126.288C244.776 125.296 244.56 124.048 244.56 122.544C244.56 121.024 244.784 119.776 245.232 118.8C245.696 117.824 246.336 117.096 247.152 116.616C247.968 116.136 248.92 115.896 250.008 115.896C251.224 115.896 252.312 116.168 253.272 116.712C254.248 117.256 255.016 118.024 255.576 119.016C256.152 120.008 256.44 121.184 256.44 122.544C256.44 123.888 256.152 125.056 255.576 126.048C255.016 127.04 254.248 127.816 253.272 128.376C252.312 128.92 251.224 129.192 250.008 129.192ZM242.376 129V111.192H246.12V118.704L245.88 122.52L245.952 126.36V129H242.376ZM249.36 126.12C249.984 126.12 250.536 125.976 251.016 125.688C251.512 125.4 251.904 124.992 252.192 124.464C252.496 123.92 252.648 123.28 252.648 122.544C252.648 121.792 252.496 121.152 252.192 120.624C251.904 120.096 251.512 119.688 251.016 119.4C250.536 119.112 249.984 118.968 249.36 118.968C248.736 118.968 248.176 119.112 247.68 119.4C247.184 119.688 246.792 120.096 246.504 120.624C246.216 121.152 246.072 121.792 246.072 122.544C246.072 123.28 246.216 123.92 246.504 124.464C246.792 124.992 247.184 125.4 247.68 125.688C248.176 125.976 248.736 126.12 249.36 126.12ZM258.947 129V116.088H262.691V129H258.947ZM260.819 114.288C260.131 114.288 259.571 114.088 259.139 113.688C258.707 113.288 258.491 112.792 258.491 112.2C258.491 111.608 258.707 111.112 259.139 110.712C259.571 110.312 260.131 110.112 260.819 110.112C261.507 110.112 262.067 110.304 262.499 110.688C262.931 111.056 263.147 111.536 263.147 112.128C263.147 112.752 262.931 113.272 262.499 113.688C262.083 114.088 261.523 114.288 260.819 114.288ZM266.166 129V111.192H269.91V129H266.166ZM279.792 129.192C278.32 129.192 277.024 128.904 275.904 128.328C274.8 127.752 273.944 126.968 273.336 125.976C272.728 124.968 272.424 123.824 272.424 122.544C272.424 121.248 272.72 120.104 273.312 119.112C273.92 118.104 274.744 117.32 275.784 116.76C276.824 116.184 278 115.896 279.312 115.896C280.576 115.896 281.712 116.168 282.72 116.712C283.744 117.24 284.552 118.008 285.144 119.016C285.736 120.008 286.032 121.2 286.032 122.592C286.032 122.736 286.024 122.904 286.008 123.096C285.992 123.272 285.976 123.44 285.96 123.6H275.472V121.416H283.992L282.552 122.064C282.552 121.392 282.416 120.808 282.144 120.312C281.872 119.816 281.496 119.432 281.016 119.16C280.536 118.872 279.976 118.728 279.336 118.728C278.696 118.728 278.128 118.872 277.632 119.16C277.152 119.432 276.776 119.824 276.504 120.336C276.232 120.832 276.096 121.424 276.096 122.112V122.688C276.096 123.392 276.248 124.016 276.552 124.56C276.872 125.088 277.312 125.496 277.872 125.784C278.448 126.056 279.12 126.192 279.888 126.192C280.576 126.192 281.176 126.088 281.688 125.88C282.216 125.672 282.696 125.36 283.128 124.944L285.12 127.104C284.528 127.776 283.784 128.296 282.888 128.664C281.992 129.016 280.96 129.192 279.792 129.192Z" fill="#0695D0"/>
</svg>
