<svg width="528" height="233" viewBox="0 0 528 233" fill="none" xmlns="http://www.w3.org/2000/svg">
<path d="M145.565 79.1332C165.112 83.2891 179.208 98.6316 181.518 118.086C183.516 134.905 174.174 154.622 161.082 160.874C158.401 155.783 154.712 151.646 148.878 149.36C155.162 144.5 160.069 138.999 158.783 130.583C157.599 122.835 153.027 117.304 146.321 113.251C146.915 110.956 147.528 108.593 148.154 106.178C150.169 107.536 152.141 108.866 153.937 110.077C154.492 109.753 154.696 109.708 154.75 109.592C156.854 105.098 152.879 96.6779 148.131 95.526C145.698 94.9358 143.427 95.4249 142.507 97.8094C141.179 101.253 140.312 104.888 139.407 108.483C139.085 109.763 139.227 111.162 139.148 112.703C138.243 112.744 137.433 112.78 136.577 112.819C136.577 109.878 136.844 107.082 136.527 104.354C135.582 96.214 131.515 89.8669 124.985 85.0768C124.477 84.7036 123.919 84.3823 123.348 84.1127C121.231 83.1118 120.379 83.5358 120.758 85.8426C121.452 90.0748 122.256 94.3294 123.52 98.416C125.112 103.568 127.21 108.56 129.128 113.724C122.668 117.223 117.692 122.319 116.745 130.172C115.783 138.143 120.474 143.68 126.021 149.035C119.843 151.168 115.778 155.479 112.604 160.72C97.7222 151.747 87.1633 130.415 94.7434 108.435C101.982 87.4451 123.897 74.7748 145.565 79.1332Z" fill="#0695D0"/>
<path d="M212.032 129.288C210.736 129.288 209.528 129.08 208.408 128.664C207.304 128.232 206.344 127.624 205.528 126.84C204.712 126.056 204.072 125.136 203.608 124.08C203.16 123.024 202.936 121.864 202.936 120.6C202.936 119.336 203.16 118.176 203.608 117.12C204.072 116.064 204.712 115.144 205.528 114.36C206.36 113.576 207.328 112.976 208.432 112.56C209.536 112.128 210.744 111.912 212.056 111.912C213.512 111.912 214.824 112.168 215.992 112.68C217.176 113.176 218.168 113.912 218.968 114.888L216.472 117.192C215.896 116.536 215.256 116.048 214.552 115.728C213.848 115.392 213.08 115.224 212.248 115.224C211.464 115.224 210.744 115.352 210.088 115.608C209.432 115.864 208.864 116.232 208.384 116.712C207.904 117.192 207.528 117.76 207.256 118.416C207 119.072 206.872 119.8 206.872 120.6C206.872 121.4 207 122.128 207.256 122.784C207.528 123.44 207.904 124.008 208.384 124.488C208.864 124.968 209.432 125.336 210.088 125.592C210.744 125.848 211.464 125.976 212.248 125.976C213.08 125.976 213.848 125.816 214.552 125.496C215.256 125.16 215.896 124.656 216.472 123.984L218.968 126.288C218.168 127.264 217.176 128.008 215.992 128.52C214.824 129.032 213.504 129.288 212.032 129.288ZM229.178 115.896C230.202 115.896 231.114 116.104 231.914 116.52C232.73 116.92 233.37 117.544 233.834 118.392C234.298 119.224 234.53 120.296 234.53 121.608V129H230.786V122.184C230.786 121.144 230.554 120.376 230.09 119.88C229.642 119.384 229.002 119.136 228.17 119.136C227.578 119.136 227.042 119.264 226.562 119.52C226.098 119.76 225.73 120.136 225.458 120.648C225.202 121.16 225.074 121.816 225.074 122.616V129H221.33V111.192H225.074V119.664L224.234 118.584C224.698 117.72 225.362 117.056 226.226 116.592C227.09 116.128 228.074 115.896 229.178 115.896ZM245.843 129V126.48L245.603 125.928V121.416C245.603 120.616 245.355 119.992 244.859 119.544C244.379 119.096 243.635 118.872 242.627 118.872C241.939 118.872 241.259 118.984 240.587 119.208C239.931 119.416 239.371 119.704 238.907 120.072L237.563 117.456C238.267 116.96 239.115 116.576 240.107 116.304C241.099 116.032 242.107 115.896 243.131 115.896C245.099 115.896 246.627 116.36 247.715 117.288C248.803 118.216 249.347 119.664 249.347 121.632V129H245.843ZM241.907 129.192C240.899 129.192 240.035 129.024 239.315 128.688C238.595 128.336 238.043 127.864 237.659 127.272C237.275 126.68 237.083 126.016 237.083 125.28C237.083 124.512 237.267 123.84 237.635 123.264C238.019 122.688 238.619 122.24 239.435 121.92C240.251 121.584 241.315 121.416 242.627 121.416H246.059V123.6H243.035C242.155 123.6 241.547 123.744 241.211 124.032C240.891 124.32 240.731 124.68 240.731 125.112C240.731 125.592 240.915 125.976 241.283 126.264C241.667 126.536 242.187 126.672 242.843 126.672C243.467 126.672 244.027 126.528 244.523 126.24C245.019 125.936 245.379 125.496 245.603 124.92L246.179 126.648C245.907 127.48 245.411 128.112 244.691 128.544C243.971 128.976 243.043 129.192 241.907 129.192ZM252.736 129V116.088H256.312V119.736L255.808 118.68C256.192 117.768 256.808 117.08 257.656 116.616C258.504 116.136 259.536 115.896 260.752 115.896V119.352C260.592 119.336 260.448 119.328 260.32 119.328C260.192 119.312 260.056 119.304 259.912 119.304C258.888 119.304 258.056 119.6 257.416 120.192C256.792 120.768 256.48 121.672 256.48 122.904V129H252.736ZM268.703 129.192C267.183 129.192 265.999 128.808 265.151 128.04C264.303 127.256 263.879 126.096 263.879 124.56V113.232H267.623V124.512C267.623 125.056 267.767 125.48 268.055 125.784C268.343 126.072 268.735 126.216 269.231 126.216C269.823 126.216 270.327 126.056 270.743 125.736L271.751 128.376C271.367 128.648 270.903 128.856 270.359 129C269.831 129.128 269.279 129.192 268.703 129.192ZM261.887 119.256V116.376H270.839V119.256H261.887ZM278.197 129.192C277.093 129.192 276.029 129.064 275.005 128.808C273.997 128.536 273.197 128.2 272.605 127.8L273.853 125.112C274.445 125.48 275.141 125.784 275.941 126.024C276.757 126.248 277.557 126.36 278.341 126.36C279.205 126.36 279.813 126.256 280.165 126.048C280.533 125.84 280.717 125.552 280.717 125.184C280.717 124.88 280.573 124.656 280.285 124.512C280.013 124.352 279.645 124.232 279.181 124.152C278.717 124.072 278.205 123.992 277.645 123.912C277.101 123.832 276.549 123.728 275.989 123.6C275.429 123.456 274.917 123.248 274.453 122.976C273.989 122.704 273.613 122.336 273.325 121.872C273.053 121.408 272.917 120.808 272.917 120.072C272.917 119.256 273.149 118.536 273.613 117.912C274.093 117.288 274.781 116.8 275.677 116.448C276.573 116.08 277.645 115.896 278.893 115.896C279.773 115.896 280.669 115.992 281.581 116.184C282.493 116.376 283.253 116.656 283.861 117.024L282.613 119.688C281.989 119.32 281.357 119.072 280.717 118.944C280.093 118.8 279.485 118.728 278.893 118.728C278.061 118.728 277.453 118.84 277.069 119.064C276.685 119.288 276.493 119.576 276.493 119.928C276.493 120.248 276.629 120.488 276.901 120.648C277.189 120.808 277.565 120.936 278.029 121.032C278.493 121.128 278.997 121.216 279.541 121.296C280.101 121.36 280.661 121.464 281.221 121.608C281.781 121.752 282.285 121.96 282.733 122.232C283.197 122.488 283.573 122.848 283.861 123.312C284.149 123.76 284.293 124.352 284.293 125.088C284.293 125.888 284.053 126.6 283.573 127.224C283.093 127.832 282.397 128.312 281.485 128.664C280.589 129.016 279.493 129.192 278.197 129.192Z" fill="#0695D0"/>
</svg>
