<svg width="528" height="233" viewBox="0 0 528 233" fill="none" xmlns="http://www.w3.org/2000/svg">
<path d="M145.565 79.1332C165.112 83.2891 179.208 98.6316 181.518 118.086C183.516 134.905 174.174 154.622 161.082 160.874C158.401 155.783 154.712 151.646 148.878 149.36C155.162 144.5 160.069 138.999 158.783 130.583C157.599 122.835 153.027 117.304 146.321 113.251C146.915 110.956 147.528 108.593 148.154 106.178C150.169 107.536 152.141 108.866 153.937 110.077C154.492 109.753 154.696 109.708 154.75 109.592C156.854 105.098 152.879 96.6779 148.131 95.526C145.698 94.9358 143.427 95.4249 142.507 97.8094C141.179 101.253 140.312 104.888 139.407 108.483C139.085 109.763 139.227 111.162 139.148 112.703C138.243 112.744 137.433 112.78 136.577 112.819C136.577 109.878 136.844 107.082 136.527 104.354C135.582 96.214 131.515 89.8669 124.985 85.0768C124.477 84.7036 123.919 84.3823 123.348 84.1127C121.231 83.1118 120.379 83.5358 120.758 85.8426C121.452 90.0748 122.256 94.3294 123.52 98.416C125.112 103.568 127.21 108.56 129.128 113.724C122.668 117.223 117.692 122.319 116.745 130.172C115.783 138.143 120.474 143.68 126.021 149.035C119.843 151.168 115.778 155.479 112.604 160.72C97.7222 151.747 87.1633 130.415 94.7434 108.435C101.982 87.4451 123.897 74.7748 145.565 79.1332Z" fill="#0695D0"/>
<path d="M211.456 114.288C209.072 114.288 207.208 113.624 205.864 112.296C204.52 110.968 203.848 109.072 203.848 106.608V97.2H207.736V106.464C207.736 108.064 208.064 109.216 208.72 109.92C209.376 110.624 210.296 110.976 211.48 110.976C212.664 110.976 213.584 110.624 214.24 109.92C214.896 109.216 215.224 108.064 215.224 106.464V97.2H219.064V106.608C219.064 109.072 218.392 110.968 217.048 112.296C215.704 113.624 213.84 114.288 211.456 114.288ZM226.986 114.192C225.882 114.192 224.818 114.064 223.794 113.808C222.786 113.536 221.986 113.2 221.394 112.8L222.642 110.112C223.234 110.48 223.93 110.784 224.73 111.024C225.546 111.248 226.346 111.36 227.13 111.36C227.994 111.36 228.602 111.256 228.954 111.048C229.322 110.84 229.506 110.552 229.506 110.184C229.506 109.88 229.362 109.656 229.074 109.512C228.802 109.352 228.434 109.232 227.97 109.152C227.506 109.072 226.994 108.992 226.434 108.912C225.89 108.832 225.338 108.728 224.778 108.6C224.218 108.456 223.706 108.248 223.242 107.976C222.778 107.704 222.402 107.336 222.114 106.872C221.842 106.408 221.706 105.808 221.706 105.072C221.706 104.256 221.938 103.536 222.402 102.912C222.882 102.288 223.57 101.8 224.466 101.448C225.362 101.08 226.434 100.896 227.682 100.896C228.562 100.896 229.458 100.992 230.37 101.184C231.282 101.376 232.042 101.656 232.65 102.024L231.402 104.688C230.778 104.32 230.146 104.072 229.506 103.944C228.882 103.8 228.274 103.728 227.682 103.728C226.85 103.728 226.242 103.84 225.858 104.064C225.474 104.288 225.282 104.576 225.282 104.928C225.282 105.248 225.418 105.488 225.69 105.648C225.978 105.808 226.354 105.936 226.818 106.032C227.282 106.128 227.786 106.216 228.33 106.296C228.89 106.36 229.45 106.464 230.01 106.608C230.57 106.752 231.074 106.96 231.522 107.232C231.986 107.488 232.362 107.848 232.65 108.312C232.938 108.76 233.082 109.352 233.082 110.088C233.082 110.888 232.842 111.6 232.362 112.224C231.882 112.832 231.186 113.312 230.274 113.664C229.378 114.016 228.282 114.192 226.986 114.192ZM241.8 114.192C240.328 114.192 239.032 113.904 237.912 113.328C236.808 112.752 235.952 111.968 235.344 110.976C234.736 109.968 234.432 108.824 234.432 107.544C234.432 106.248 234.728 105.104 235.32 104.112C235.928 103.104 236.752 102.32 237.792 101.76C238.832 101.184 240.008 100.896 241.32 100.896C242.584 100.896 243.72 101.168 244.728 101.712C245.752 102.24 246.56 103.008 247.152 104.016C247.744 105.008 248.04 106.2 248.04 107.592C248.04 107.736 248.032 107.904 248.016 108.096C248 108.272 247.984 108.44 247.968 108.6H237.48V106.416H246L244.56 107.064C244.56 106.392 244.424 105.808 244.152 105.312C243.88 104.816 243.504 104.432 243.024 104.16C242.544 103.872 241.984 103.728 241.344 103.728C240.704 103.728 240.136 103.872 239.64 104.16C239.16 104.432 238.784 104.824 238.512 105.336C238.24 105.832 238.104 106.424 238.104 107.112V107.688C238.104 108.392 238.256 109.016 238.56 109.56C238.88 110.088 239.32 110.496 239.88 110.784C240.456 111.056 241.128 111.192 241.896 111.192C242.584 111.192 243.184 111.088 243.696 110.88C244.224 110.672 244.704 110.36 245.136 109.944L247.128 112.104C246.536 112.776 245.792 113.296 244.896 113.664C244 114.016 242.968 114.192 241.8 114.192ZM250.533 114V101.088H254.109V104.736L253.605 103.68C253.989 102.768 254.605 102.08 255.453 101.616C256.301 101.136 257.333 100.896 258.549 100.896V104.352C258.389 104.336 258.245 104.328 258.117 104.328C257.989 104.312 257.853 104.304 257.709 104.304C256.685 104.304 255.853 104.6 255.213 105.192C254.589 105.768 254.277 106.672 254.277 107.904V114H250.533ZM267.93 114V97.2H271.818V114H267.93ZM283.389 100.896C284.413 100.896 285.325 101.104 286.125 101.52C286.941 101.92 287.581 102.544 288.045 103.392C288.509 104.224 288.741 105.296 288.741 106.608V114H284.997V107.184C284.997 106.144 284.765 105.376 284.301 104.88C283.853 104.384 283.213 104.136 282.381 104.136C281.789 104.136 281.253 104.264 280.773 104.52C280.309 104.76 279.941 105.136 279.669 105.648C279.413 106.16 279.285 106.816 279.285 107.616V114H275.541V101.088H279.117V104.664L278.445 103.584C278.909 102.72 279.573 102.056 280.437 101.592C281.301 101.128 282.285 100.896 283.389 100.896ZM297.414 114.192C295.894 114.192 294.71 113.808 293.862 113.04C293.014 112.256 292.59 111.096 292.59 109.56V98.232H296.334V109.512C296.334 110.056 296.478 110.48 296.766 110.784C297.054 111.072 297.446 111.216 297.942 111.216C298.534 111.216 299.038 111.056 299.454 110.736L300.462 113.376C300.078 113.648 299.614 113.856 299.07 114C298.542 114.128 297.99 114.192 297.414 114.192ZM290.598 104.256V101.376H299.55V104.256H290.598ZM308.574 114.192C307.102 114.192 305.806 113.904 304.686 113.328C303.582 112.752 302.726 111.968 302.118 110.976C301.51 109.968 301.206 108.824 301.206 107.544C301.206 106.248 301.502 105.104 302.094 104.112C302.702 103.104 303.526 102.32 304.566 101.76C305.606 101.184 306.782 100.896 308.094 100.896C309.358 100.896 310.494 101.168 311.502 101.712C312.526 102.24 313.334 103.008 313.926 104.016C314.518 105.008 314.814 106.2 314.814 107.592C314.814 107.736 314.806 107.904 314.79 108.096C314.774 108.272 314.758 108.44 314.742 108.6H304.254V106.416H312.773L311.334 107.064C311.334 106.392 311.198 105.808 310.926 105.312C310.654 104.816 310.278 104.432 309.798 104.16C309.318 103.872 308.758 103.728 308.118 103.728C307.478 103.728 306.91 103.872 306.414 104.16C305.934 104.432 305.558 104.824 305.286 105.336C305.014 105.832 304.878 106.424 304.878 107.112V107.688C304.878 108.392 305.03 109.016 305.334 109.56C305.654 110.088 306.094 110.496 306.654 110.784C307.23 111.056 307.902 111.192 308.67 111.192C309.358 111.192 309.958 111.088 310.47 110.88C310.998 110.672 311.478 110.36 311.91 109.944L313.902 112.104C313.31 112.776 312.566 113.296 311.67 113.664C310.774 114.016 309.742 114.192 308.574 114.192ZM317.306 114V101.088H320.882V104.736L320.378 103.68C320.762 102.768 321.378 102.08 322.226 101.616C323.074 101.136 324.106 100.896 325.322 100.896V104.352C325.162 104.336 325.018 104.328 324.89 104.328C324.762 104.312 324.626 104.304 324.482 104.304C323.458 104.304 322.626 104.6 321.986 105.192C321.362 105.768 321.05 106.672 321.05 107.904V114H317.306ZM334.625 114V111.48L334.385 110.928V106.416C334.385 105.616 334.137 104.992 333.641 104.544C333.161 104.096 332.417 103.872 331.409 103.872C330.721 103.872 330.041 103.984 329.369 104.208C328.713 104.416 328.153 104.704 327.689 105.072L326.345 102.456C327.049 101.96 327.897 101.576 328.889 101.304C329.881 101.032 330.889 100.896 331.913 100.896C333.881 100.896 335.409 101.36 336.497 102.288C337.585 103.216 338.129 104.664 338.129 106.632V114H334.625ZM330.689 114.192C329.681 114.192 328.817 114.024 328.097 113.688C327.377 113.336 326.825 112.864 326.441 112.272C326.057 111.68 325.865 111.016 325.865 110.28C325.865 109.512 326.049 108.84 326.417 108.264C326.801 107.688 327.401 107.24 328.217 106.92C329.033 106.584 330.097 106.416 331.409 106.416H334.841V108.6H331.817C330.937 108.6 330.329 108.744 329.993 109.032C329.673 109.32 329.513 109.68 329.513 110.112C329.513 110.592 329.697 110.976 330.065 111.264C330.449 111.536 330.969 111.672 331.625 111.672C332.249 111.672 332.809 111.528 333.305 111.24C333.801 110.936 334.161 110.496 334.385 109.92L334.961 111.648C334.689 112.48 334.193 113.112 333.473 113.544C332.753 113.976 331.825 114.192 330.689 114.192ZM347.851 114.192C346.459 114.192 345.219 113.912 344.131 113.352C343.043 112.776 342.187 111.984 341.563 110.976C340.955 109.968 340.651 108.824 340.651 107.544C340.651 106.248 340.955 105.104 341.563 104.112C342.187 103.104 343.043 102.32 344.131 101.76C345.219 101.184 346.459 100.896 347.851 100.896C349.211 100.896 350.395 101.184 351.403 101.76C352.411 102.32 353.155 103.128 353.635 104.184L350.731 105.744C350.395 105.136 349.971 104.688 349.459 104.4C348.963 104.112 348.419 103.968 347.827 103.968C347.187 103.968 346.611 104.112 346.099 104.4C345.587 104.688 345.179 105.096 344.875 105.624C344.587 106.152 344.443 106.792 344.443 107.544C344.443 108.296 344.587 108.936 344.875 109.464C345.179 109.992 345.587 110.4 346.099 110.688C346.611 110.976 347.187 111.12 347.827 111.12C348.419 111.12 348.963 110.984 349.459 110.712C349.971 110.424 350.395 109.968 350.731 109.344L353.635 110.928C353.155 111.968 352.411 112.776 351.403 113.352C350.395 113.912 349.211 114.192 347.851 114.192ZM361.258 114.192C359.738 114.192 358.554 113.808 357.706 113.04C356.858 112.256 356.434 111.096 356.434 109.56V98.232H360.178V109.512C360.178 110.056 360.322 110.48 360.61 110.784C360.898 111.072 361.29 111.216 361.786 111.216C362.378 111.216 362.882 111.056 363.298 110.736L364.306 113.376C363.922 113.648 363.458 113.856 362.914 114C362.386 114.128 361.834 114.192 361.258 114.192ZM354.442 104.256V101.376H363.394V104.256H354.442ZM366.408 114V101.088H370.152V114H366.408ZM368.28 99.288C367.592 99.288 367.032 99.088 366.6 98.688C366.168 98.288 365.952 97.792 365.952 97.2C365.952 96.608 366.168 96.112 366.6 95.712C367.032 95.312 367.592 95.112 368.28 95.112C368.968 95.112 369.528 95.304 369.96 95.688C370.392 96.056 370.608 96.536 370.608 97.128C370.608 97.752 370.392 98.272 369.96 98.688C369.544 99.088 368.984 99.288 368.28 99.288ZM379.77 114.192C378.394 114.192 377.17 113.904 376.098 113.328C375.042 112.752 374.202 111.968 373.578 110.976C372.97 109.968 372.666 108.824 372.666 107.544C372.666 106.248 372.97 105.104 373.578 104.112C374.202 103.104 375.042 102.32 376.098 101.76C377.17 101.184 378.394 100.896 379.77 100.896C381.13 100.896 382.346 101.184 383.418 101.76C384.49 102.32 385.33 103.096 385.938 104.088C386.546 105.08 386.85 106.232 386.85 107.544C386.85 108.824 386.546 109.968 385.938 110.976C385.33 111.968 384.49 112.752 383.418 113.328C382.346 113.904 381.13 114.192 379.77 114.192ZM379.77 111.12C380.394 111.12 380.954 110.976 381.45 110.688C381.946 110.4 382.338 109.992 382.626 109.464C382.914 108.92 383.058 108.28 383.058 107.544C383.058 106.792 382.914 106.152 382.626 105.624C382.338 105.096 381.946 104.688 381.45 104.4C380.954 104.112 380.394 103.968 379.77 103.968C379.146 103.968 378.586 104.112 378.09 104.4C377.594 104.688 377.194 105.096 376.89 105.624C376.602 106.152 376.458 106.792 376.458 107.544C376.458 108.28 376.602 108.92 376.89 109.464C377.194 109.992 377.594 110.4 378.09 110.688C378.586 110.976 379.146 111.12 379.77 111.12ZM397.201 100.896C398.225 100.896 399.137 101.104 399.937 101.52C400.753 101.92 401.393 102.544 401.857 103.392C402.321 104.224 402.553 105.296 402.553 106.608V114H398.809V107.184C398.809 106.144 398.577 105.376 398.113 104.88C397.665 104.384 397.025 104.136 396.193 104.136C395.601 104.136 395.065 104.264 394.585 104.52C394.121 104.76 393.753 105.136 393.481 105.648C393.225 106.16 393.097 106.816 393.097 107.616V114H389.353V101.088H392.929V104.664L392.257 103.584C392.721 102.72 393.385 102.056 394.249 101.592C395.113 101.128 396.097 100.896 397.201 100.896ZM211.648 143V140.48L211.408 139.928V135.416C211.408 134.616 211.16 133.992 210.664 133.544C210.184 133.096 209.44 132.872 208.432 132.872C207.744 132.872 207.064 132.984 206.392 133.208C205.736 133.416 205.176 133.704 204.712 134.072L203.368 131.456C204.072 130.96 204.92 130.576 205.912 130.304C206.904 130.032 207.912 129.896 208.936 129.896C210.904 129.896 212.432 130.36 213.52 131.288C214.608 132.216 215.152 133.664 215.152 135.632V143H211.648ZM207.712 143.192C206.704 143.192 205.84 143.024 205.12 142.688C204.4 142.336 203.848 141.864 203.464 141.272C203.08 140.68 202.888 140.016 202.888 139.28C202.888 138.512 203.072 137.84 203.44 137.264C203.824 136.688 204.424 136.24 205.24 135.92C206.056 135.584 207.12 135.416 208.432 135.416H211.864V137.6H208.84C207.96 137.6 207.352 137.744 207.016 138.032C206.696 138.32 206.536 138.68 206.536 139.112C206.536 139.592 206.72 139.976 207.088 140.264C207.472 140.536 207.992 140.672 208.648 140.672C209.272 140.672 209.832 140.528 210.328 140.24C210.824 139.936 211.184 139.496 211.408 138.92L211.984 140.648C211.712 141.48 211.216 142.112 210.496 142.544C209.776 142.976 208.848 143.192 207.712 143.192ZM226.389 129.896C227.413 129.896 228.325 130.104 229.125 130.52C229.941 130.92 230.581 131.544 231.045 132.392C231.509 133.224 231.741 134.296 231.741 135.608V143H227.997V136.184C227.997 135.144 227.765 134.376 227.301 133.88C226.853 133.384 226.213 133.136 225.381 133.136C224.789 133.136 224.253 133.264 223.773 133.52C223.309 133.76 222.941 134.136 222.669 134.648C222.413 135.16 222.285 135.816 222.285 136.616V143H218.541V130.088H222.117V133.664L221.445 132.584C221.909 131.72 222.573 131.056 223.437 130.592C224.301 130.128 225.285 129.896 226.389 129.896ZM240.772 143.192C239.556 143.192 238.46 142.92 237.484 142.376C236.508 141.816 235.732 141.04 235.156 140.048C234.596 139.056 234.316 137.888 234.316 136.544C234.316 135.184 234.596 134.008 235.156 133.016C235.732 132.024 236.508 131.256 237.484 130.712C238.46 130.168 239.556 129.896 240.772 129.896C241.86 129.896 242.812 130.136 243.628 130.616C244.444 131.096 245.076 131.824 245.524 132.8C245.972 133.776 246.196 135.024 246.196 136.544C246.196 138.048 245.98 139.296 245.548 140.288C245.116 141.264 244.492 141.992 243.676 142.472C242.876 142.952 241.908 143.192 240.772 143.192ZM241.42 140.12C242.028 140.12 242.58 139.976 243.076 139.688C243.572 139.4 243.964 138.992 244.252 138.464C244.556 137.92 244.708 137.28 244.708 136.544C244.708 135.792 244.556 135.152 244.252 134.624C243.964 134.096 243.572 133.688 243.076 133.4C242.58 133.112 242.028 132.968 241.42 132.968C240.796 132.968 240.236 133.112 239.74 133.4C239.244 133.688 238.844 134.096 238.54 134.624C238.252 135.152 238.108 135.792 238.108 136.544C238.108 137.28 238.252 137.92 238.54 138.464C238.844 138.992 239.244 139.4 239.74 139.688C240.236 139.976 240.796 140.12 241.42 140.12ZM244.804 143V140.36L244.876 136.52L244.636 132.704V125.192H248.38V143H244.804ZM262.482 132.968H270.57V135.992H262.482V132.968ZM262.77 139.88H271.914V143H258.906V126.2H271.602V129.32H262.77V139.88ZM278.13 143L272.706 130.088H276.57L281.082 141.2H279.162L283.842 130.088H287.442L281.994 143H278.13ZM295.027 143.192C293.555 143.192 292.259 142.904 291.139 142.328C290.035 141.752 289.179 140.968 288.571 139.976C287.963 138.968 287.659 137.824 287.659 136.544C287.659 135.248 287.955 134.104 288.547 133.112C289.155 132.104 289.979 131.32 291.019 130.76C292.059 130.184 293.235 129.896 294.547 129.896C295.811 129.896 296.947 130.168 297.955 130.712C298.979 131.24 299.787 132.008 300.379 133.016C300.971 134.008 301.267 135.2 301.267 136.592C301.267 136.736 301.259 136.904 301.243 137.096C301.227 137.272 301.211 137.44 301.195 137.6H290.707V135.416H299.227L297.787 136.064C297.787 135.392 297.651 134.808 297.379 134.312C297.107 133.816 296.731 133.432 296.251 133.16C295.771 132.872 295.211 132.728 294.571 132.728C293.931 132.728 293.363 132.872 292.867 133.16C292.387 133.432 292.011 133.824 291.739 134.336C291.467 134.832 291.331 135.424 291.331 136.112V136.688C291.331 137.392 291.483 138.016 291.787 138.56C292.107 139.088 292.547 139.496 293.107 139.784C293.683 140.056 294.355 140.192 295.123 140.192C295.811 140.192 296.411 140.088 296.923 139.88C297.451 139.672 297.931 139.36 298.363 138.944L300.355 141.104C299.763 141.776 299.019 142.296 298.123 142.664C297.227 143.016 296.195 143.192 295.027 143.192ZM311.607 129.896C312.631 129.896 313.543 130.104 314.343 130.52C315.159 130.92 315.799 131.544 316.263 132.392C316.727 133.224 316.959 134.296 316.959 135.608V143H313.215V136.184C313.215 135.144 312.983 134.376 312.519 133.88C312.071 133.384 311.431 133.136 310.599 133.136C310.007 133.136 309.471 133.264 308.991 133.52C308.527 133.76 308.159 134.136 307.887 134.648C307.631 135.16 307.503 135.816 307.503 136.616V143H303.759V130.088H307.335V133.664L306.663 132.584C307.127 131.72 307.791 131.056 308.655 130.592C309.519 130.128 310.503 129.896 311.607 129.896ZM325.633 143.192C324.113 143.192 322.929 142.808 322.081 142.04C321.233 141.256 320.809 140.096 320.809 138.56V127.232H324.553V138.512C324.553 139.056 324.697 139.48 324.985 139.784C325.273 140.072 325.665 140.216 326.161 140.216C326.753 140.216 327.257 140.056 327.673 139.736L328.681 142.376C328.297 142.648 327.833 142.856 327.289 143C326.761 143.128 326.209 143.192 325.633 143.192ZM318.817 133.256V130.376H327.769V133.256H318.817ZM335.127 143.192C334.023 143.192 332.959 143.064 331.935 142.808C330.927 142.536 330.127 142.2 329.535 141.8L330.783 139.112C331.375 139.48 332.071 139.784 332.871 140.024C333.687 140.248 334.487 140.36 335.271 140.36C336.135 140.36 336.743 140.256 337.095 140.048C337.463 139.84 337.647 139.552 337.647 139.184C337.647 138.88 337.503 138.656 337.215 138.512C336.943 138.352 336.575 138.232 336.111 138.152C335.647 138.072 335.135 137.992 334.575 137.912C334.031 137.832 333.479 137.728 332.919 137.6C332.359 137.456 331.847 137.248 331.383 136.976C330.919 136.704 330.543 136.336 330.255 135.872C329.983 135.408 329.847 134.808 329.847 134.072C329.847 133.256 330.079 132.536 330.543 131.912C331.023 131.288 331.711 130.8 332.607 130.448C333.503 130.08 334.575 129.896 335.823 129.896C336.703 129.896 337.599 129.992 338.511 130.184C339.423 130.376 340.183 130.656 340.791 131.024L339.543 133.688C338.919 133.32 338.287 133.072 337.647 132.944C337.023 132.8 336.415 132.728 335.823 132.728C334.991 132.728 334.383 132.84 333.999 133.064C333.615 133.288 333.423 133.576 333.423 133.928C333.423 134.248 333.559 134.488 333.831 134.648C334.119 134.808 334.495 134.936 334.959 135.032C335.423 135.128 335.927 135.216 336.471 135.296C337.031 135.36 337.591 135.464 338.151 135.608C338.711 135.752 339.215 135.96 339.663 136.232C340.127 136.488 340.503 136.848 340.791 137.312C341.079 137.76 341.223 138.352 341.223 139.088C341.223 139.888 340.983 140.6 340.503 141.224C340.023 141.832 339.327 142.312 338.415 142.664C337.519 143.016 336.423 143.192 335.127 143.192Z" fill="#0695D0"/>
</svg>
