<svg width="528" height="233" viewBox="0 0 528 233" fill="none" xmlns="http://www.w3.org/2000/svg">
<path d="M145.565 79.1332C165.112 83.2891 179.208 98.6316 181.518 118.086C183.516 134.905 174.174 154.622 161.082 160.874C158.401 155.783 154.712 151.646 148.878 149.36C155.162 144.5 160.069 138.999 158.783 130.583C157.599 122.835 153.027 117.304 146.321 113.251C146.915 110.956 147.528 108.593 148.154 106.178C150.169 107.536 152.141 108.866 153.937 110.077C154.492 109.753 154.696 109.708 154.75 109.592C156.854 105.098 152.879 96.6779 148.131 95.526C145.698 94.9358 143.427 95.4249 142.507 97.8094C141.179 101.253 140.312 104.888 139.407 108.483C139.085 109.763 139.227 111.162 139.148 112.703C138.243 112.744 137.433 112.78 136.577 112.819C136.577 109.878 136.844 107.082 136.527 104.354C135.582 96.214 131.515 89.8669 124.985 85.0768C124.477 84.7036 123.919 84.3823 123.348 84.1127C121.231 83.1118 120.379 83.5358 120.758 85.8426C121.452 90.0748 122.256 94.3294 123.52 98.416C125.112 103.568 127.21 108.56 129.128 113.724C122.668 117.223 117.692 122.319 116.745 130.172C115.783 138.143 120.474 143.68 126.021 149.035C119.843 151.168 115.778 155.479 112.604 160.72C97.7222 151.747 87.1633 130.415 94.7434 108.435C101.982 87.4451 123.897 74.7748 145.565 79.1332Z" fill="#0695D0"/>
<path d="M202.792 129V126.48L209.272 120.36C209.784 119.896 210.16 119.48 210.4 119.112C210.64 118.744 210.8 118.408 210.88 118.104C210.976 117.8 211.024 117.52 211.024 117.264C211.024 116.592 210.792 116.08 210.328 115.728C209.88 115.36 209.216 115.176 208.336 115.176C207.632 115.176 206.976 115.312 206.368 115.584C205.776 115.856 205.272 116.28 204.856 116.856L202.024 115.032C202.664 114.072 203.56 113.312 204.712 112.752C205.864 112.192 207.192 111.912 208.696 111.912C209.944 111.912 211.032 112.12 211.96 112.536C212.904 112.936 213.632 113.504 214.144 114.24C214.672 114.976 214.936 115.856 214.936 116.88C214.936 117.424 214.864 117.968 214.72 118.512C214.592 119.04 214.32 119.6 213.904 120.192C213.504 120.784 212.912 121.448 212.128 122.184L206.752 127.248L206.008 125.832H215.488V129H202.792ZM218.148 129V112.2H225.78C227.604 112.2 229.212 112.552 230.604 113.256C231.996 113.944 233.084 114.912 233.868 116.16C234.652 117.408 235.044 118.888 235.044 120.6C235.044 122.296 234.652 123.776 233.868 125.04C233.084 126.288 231.996 127.264 230.604 127.968C229.212 128.656 227.604 129 225.78 129H218.148ZM222.036 125.808H225.588C226.708 125.808 227.676 125.6 228.492 125.184C229.324 124.752 229.964 124.144 230.412 123.36C230.876 122.576 231.108 121.656 231.108 120.6C231.108 119.528 230.876 118.608 230.412 117.84C229.964 117.056 229.324 116.456 228.492 116.04C227.676 115.608 226.708 115.392 225.588 115.392H222.036V125.808ZM252.885 129.288C251.557 129.288 250.333 129.08 249.213 128.664C248.109 128.232 247.141 127.624 246.309 126.84C245.493 126.056 244.853 125.136 244.389 124.08C243.941 123.024 243.717 121.864 243.717 120.6C243.717 119.336 243.941 118.176 244.389 117.12C244.853 116.064 245.501 115.144 246.333 114.36C247.165 113.576 248.141 112.976 249.261 112.56C250.381 112.128 251.613 111.912 252.957 111.912C254.445 111.912 255.781 112.16 256.965 112.656C258.165 113.152 259.173 113.872 259.989 114.816L257.493 117.12C256.885 116.48 256.221 116.008 255.501 115.704C254.781 115.384 253.997 115.224 253.149 115.224C252.333 115.224 251.589 115.352 250.917 115.608C250.245 115.864 249.661 116.232 249.165 116.712C248.685 117.192 248.309 117.76 248.037 118.416C247.781 119.072 247.653 119.8 247.653 120.6C247.653 121.384 247.781 122.104 248.037 122.76C248.309 123.416 248.685 123.992 249.165 124.488C249.661 124.968 250.237 125.336 250.893 125.592C251.565 125.848 252.301 125.976 253.101 125.976C253.869 125.976 254.613 125.856 255.333 125.616C256.069 125.36 256.781 124.936 257.469 124.344L259.677 127.152C258.765 127.84 257.701 128.368 256.485 128.736C255.285 129.104 254.085 129.288 252.885 129.288ZM256.125 126.648V120.336H259.677V127.152L256.125 126.648ZM263.025 129V116.088H266.601V119.736L266.097 118.68C266.481 117.768 267.097 117.08 267.945 116.616C268.793 116.136 269.825 115.896 271.041 115.896V119.352C270.881 119.336 270.737 119.328 270.609 119.328C270.481 119.312 270.345 119.304 270.201 119.304C269.177 119.304 268.345 119.6 267.705 120.192C267.081 120.768 266.769 121.672 266.769 122.904V129H263.025ZM280.343 129V126.48L280.103 125.928V121.416C280.103 120.616 279.855 119.992 279.359 119.544C278.879 119.096 278.135 118.872 277.127 118.872C276.439 118.872 275.759 118.984 275.087 119.208C274.431 119.416 273.871 119.704 273.407 120.072L272.063 117.456C272.767 116.96 273.615 116.576 274.607 116.304C275.599 116.032 276.607 115.896 277.631 115.896C279.599 115.896 281.127 116.36 282.215 117.288C283.303 118.216 283.847 119.664 283.847 121.632V129H280.343ZM276.407 129.192C275.399 129.192 274.535 129.024 273.815 128.688C273.095 128.336 272.543 127.864 272.159 127.272C271.775 126.68 271.583 126.016 271.583 125.28C271.583 124.512 271.767 123.84 272.135 123.264C272.519 122.688 273.119 122.24 273.935 121.92C274.751 121.584 275.815 121.416 277.127 121.416H280.559V123.6H277.535C276.655 123.6 276.047 123.744 275.711 124.032C275.391 124.32 275.231 124.68 275.231 125.112C275.231 125.592 275.415 125.976 275.783 126.264C276.167 126.536 276.687 126.672 277.343 126.672C277.967 126.672 278.527 126.528 279.023 126.24C279.519 125.936 279.879 125.496 280.103 124.92L280.679 126.648C280.407 127.48 279.911 128.112 279.191 128.544C278.471 128.976 277.543 129.192 276.407 129.192ZM294.868 129.192C293.78 129.192 292.828 128.952 292.012 128.472C291.196 127.992 290.556 127.264 290.092 126.288C289.644 125.296 289.42 124.048 289.42 122.544C289.42 121.024 289.636 119.776 290.068 118.8C290.5 117.824 291.124 117.096 291.94 116.616C292.756 116.136 293.732 115.896 294.868 115.896C296.084 115.896 297.172 116.176 298.132 116.736C299.108 117.28 299.876 118.048 300.436 119.04C301.012 120.032 301.3 121.2 301.3 122.544C301.3 123.904 301.012 125.08 300.436 126.072C299.876 127.064 299.108 127.832 298.132 128.376C297.172 128.92 296.084 129.192 294.868 129.192ZM287.236 133.656V116.088H290.812V118.728L290.74 122.568L290.98 126.384V133.656H287.236ZM294.22 126.12C294.844 126.12 295.396 125.976 295.876 125.688C296.372 125.4 296.764 124.992 297.052 124.464C297.356 123.92 297.508 123.28 297.508 122.544C297.508 121.792 297.356 121.152 297.052 120.624C296.764 120.096 296.372 119.688 295.876 119.4C295.396 119.112 294.844 118.968 294.22 118.968C293.596 118.968 293.036 119.112 292.54 119.4C292.044 119.688 291.652 120.096 291.364 120.624C291.076 121.152 290.932 121.792 290.932 122.544C290.932 123.28 291.076 123.92 291.364 124.464C291.652 124.992 292.044 125.4 292.54 125.688C293.036 125.976 293.596 126.12 294.22 126.12ZM311.654 115.896C312.678 115.896 313.59 116.104 314.39 116.52C315.206 116.92 315.846 117.544 316.31 118.392C316.774 119.224 317.006 120.296 317.006 121.608V129H313.262V122.184C313.262 121.144 313.03 120.376 312.566 119.88C312.118 119.384 311.478 119.136 310.646 119.136C310.054 119.136 309.518 119.264 309.038 119.52C308.574 119.76 308.206 120.136 307.934 120.648C307.678 121.16 307.55 121.816 307.55 122.616V129H303.806V111.192H307.55V119.664L306.71 118.584C307.174 117.72 307.838 117.056 308.702 116.592C309.566 116.128 310.55 115.896 311.654 115.896ZM320.4 129V116.088H324.144V129H320.4ZM322.272 114.288C321.584 114.288 321.024 114.088 320.592 113.688C320.16 113.288 319.944 112.792 319.944 112.2C319.944 111.608 320.16 111.112 320.592 110.712C321.024 110.312 321.584 110.112 322.272 110.112C322.96 110.112 323.52 110.304 323.952 110.688C324.384 111.056 324.6 111.536 324.6 112.128C324.6 112.752 324.384 113.272 323.952 113.688C323.536 114.088 322.976 114.288 322.272 114.288ZM333.859 129.192C332.467 129.192 331.227 128.912 330.139 128.352C329.051 127.776 328.195 126.984 327.571 125.976C326.963 124.968 326.659 123.824 326.659 122.544C326.659 121.248 326.963 120.104 327.571 119.112C328.195 118.104 329.051 117.32 330.139 116.76C331.227 116.184 332.467 115.896 333.859 115.896C335.219 115.896 336.403 116.184 337.411 116.76C338.419 117.32 339.163 118.128 339.643 119.184L336.739 120.744C336.403 120.136 335.979 119.688 335.467 119.4C334.971 119.112 334.427 118.968 333.835 118.968C333.195 118.968 332.619 119.112 332.107 119.4C331.595 119.688 331.187 120.096 330.883 120.624C330.595 121.152 330.451 121.792 330.451 122.544C330.451 123.296 330.595 123.936 330.883 124.464C331.187 124.992 331.595 125.4 332.107 125.688C332.619 125.976 333.195 126.12 333.835 126.12C334.427 126.12 334.971 125.984 335.467 125.712C335.979 125.424 336.403 124.968 336.739 124.344L339.643 125.928C339.163 126.968 338.419 127.776 337.411 128.352C336.403 128.912 335.219 129.192 333.859 129.192ZM346.142 129.192C345.038 129.192 343.974 129.064 342.95 128.808C341.942 128.536 341.142 128.2 340.55 127.8L341.798 125.112C342.39 125.48 343.086 125.784 343.886 126.024C344.702 126.248 345.502 126.36 346.286 126.36C347.15 126.36 347.758 126.256 348.11 126.048C348.478 125.84 348.662 125.552 348.662 125.184C348.662 124.88 348.518 124.656 348.23 124.512C347.958 124.352 347.59 124.232 347.126 124.152C346.662 124.072 346.15 123.992 345.59 123.912C345.046 123.832 344.494 123.728 343.934 123.6C343.374 123.456 342.862 123.248 342.398 122.976C341.934 122.704 341.558 122.336 341.27 121.872C340.998 121.408 340.862 120.808 340.862 120.072C340.862 119.256 341.094 118.536 341.558 117.912C342.038 117.288 342.726 116.8 343.622 116.448C344.518 116.08 345.59 115.896 346.838 115.896C347.718 115.896 348.614 115.992 349.526 116.184C350.438 116.376 351.198 116.656 351.806 117.024L350.558 119.688C349.934 119.32 349.302 119.072 348.662 118.944C348.038 118.8 347.43 118.728 346.838 118.728C346.006 118.728 345.398 118.84 345.014 119.064C344.63 119.288 344.438 119.576 344.438 119.928C344.438 120.248 344.574 120.488 344.846 120.648C345.134 120.808 345.51 120.936 345.974 121.032C346.438 121.128 346.942 121.216 347.486 121.296C348.046 121.36 348.606 121.464 349.166 121.608C349.726 121.752 350.23 121.96 350.678 122.232C351.142 122.488 351.518 122.848 351.806 123.312C352.094 123.76 352.238 124.352 352.238 125.088C352.238 125.888 351.998 126.6 351.518 127.224C351.038 127.832 350.342 128.312 349.43 128.664C348.534 129.016 347.438 129.192 346.142 129.192Z" fill="#0695D0"/>
</svg>
