<svg width="528" height="233" viewBox="0 0 528 233" fill="none" xmlns="http://www.w3.org/2000/svg">
<path d="M145.565 79.1332C165.112 83.2891 179.208 98.6316 181.518 118.086C183.516 134.905 174.174 154.622 161.082 160.874C158.401 155.783 154.712 151.646 148.878 149.36C155.162 144.5 160.069 138.999 158.783 130.583C157.599 122.835 153.027 117.304 146.321 113.251C146.915 110.956 147.528 108.593 148.154 106.178C150.169 107.536 152.141 108.866 153.937 110.077C154.492 109.753 154.696 109.708 154.75 109.592C156.854 105.098 152.879 96.6779 148.131 95.526C145.698 94.9358 143.427 95.4249 142.507 97.8094C141.179 101.253 140.312 104.888 139.407 108.483C139.085 109.763 139.227 111.162 139.148 112.703C138.243 112.744 137.433 112.78 136.577 112.819C136.577 109.878 136.844 107.082 136.527 104.354C135.582 96.214 131.515 89.8669 124.985 85.0768C124.477 84.7036 123.919 84.3823 123.348 84.1127C121.231 83.1118 120.379 83.5358 120.758 85.8426C121.452 90.0748 122.256 94.3294 123.52 98.416C125.112 103.568 127.21 108.56 129.128 113.724C122.668 117.223 117.692 122.319 116.745 130.172C115.783 138.143 120.474 143.68 126.021 149.035C119.843 151.168 115.778 155.479 112.604 160.72C97.7222 151.747 87.1633 130.415 94.7434 108.435C101.982 87.4451 123.897 74.7748 145.565 79.1332Z" fill="#0695D0"/>
<path d="M201.784 129L209.272 112.2H213.112L220.624 129H216.544L210.4 114.168H211.936L205.768 129H201.784ZM205.528 125.4L206.56 122.448H215.2L216.256 125.4H205.528ZM227.317 129.192C226.245 129.192 225.285 128.984 224.437 128.568C223.605 128.152 222.957 127.52 222.493 126.672C222.029 125.808 221.797 124.712 221.797 123.384V116.088H225.541V122.832C225.541 123.904 225.765 124.696 226.213 125.208C226.677 125.704 227.325 125.952 228.157 125.952C228.733 125.952 229.245 125.832 229.693 125.592C230.141 125.336 230.493 124.952 230.749 124.44C231.005 123.912 231.133 123.256 231.133 122.472V116.088H234.877V129H231.325V125.448L231.973 126.48C231.541 127.376 230.901 128.056 230.053 128.52C229.221 128.968 228.309 129.192 227.317 129.192ZM243.889 129.192C242.673 129.192 241.577 128.92 240.601 128.376C239.625 127.816 238.849 127.04 238.273 126.048C237.713 125.056 237.433 123.888 237.433 122.544C237.433 121.184 237.713 120.008 238.273 119.016C238.849 118.024 239.625 117.256 240.601 116.712C241.577 116.168 242.673 115.896 243.889 115.896C244.977 115.896 245.929 116.136 246.745 116.616C247.561 117.096 248.193 117.824 248.641 118.8C249.089 119.776 249.313 121.024 249.313 122.544C249.313 124.048 249.097 125.296 248.665 126.288C248.233 127.264 247.609 127.992 246.793 128.472C245.993 128.952 245.025 129.192 243.889 129.192ZM244.537 126.12C245.145 126.12 245.697 125.976 246.193 125.688C246.689 125.4 247.081 124.992 247.369 124.464C247.673 123.92 247.825 123.28 247.825 122.544C247.825 121.792 247.673 121.152 247.369 120.624C247.081 120.096 246.689 119.688 246.193 119.4C245.697 119.112 245.145 118.968 244.537 118.968C243.913 118.968 243.353 119.112 242.857 119.4C242.361 119.688 241.961 120.096 241.657 120.624C241.369 121.152 241.225 121.792 241.225 122.544C241.225 123.28 241.369 123.92 241.657 124.464C241.961 124.992 242.361 125.4 242.857 125.688C243.353 125.976 243.913 126.12 244.537 126.12ZM247.921 129V126.36L247.993 122.52L247.753 118.704V111.192H251.497V129H247.921ZM254.962 129V116.088H258.706V129H254.962ZM256.834 114.288C256.146 114.288 255.586 114.088 255.154 113.688C254.722 113.288 254.506 112.792 254.506 112.2C254.506 111.608 254.722 111.112 255.154 110.712C255.586 110.312 256.146 110.112 256.834 110.112C257.522 110.112 258.082 110.304 258.514 110.688C258.946 111.056 259.162 111.536 259.162 112.128C259.162 112.752 258.946 113.272 258.514 113.688C258.098 114.088 257.538 114.288 256.834 114.288ZM268.325 129.192C266.949 129.192 265.725 128.904 264.653 128.328C263.597 127.752 262.757 126.968 262.133 125.976C261.525 124.968 261.221 123.824 261.221 122.544C261.221 121.248 261.525 120.104 262.133 119.112C262.757 118.104 263.597 117.32 264.653 116.76C265.725 116.184 266.949 115.896 268.325 115.896C269.685 115.896 270.901 116.184 271.973 116.76C273.045 117.32 273.885 118.096 274.493 119.088C275.101 120.08 275.405 121.232 275.405 122.544C275.405 123.824 275.101 124.968 274.493 125.976C273.885 126.968 273.045 127.752 271.973 128.328C270.901 128.904 269.685 129.192 268.325 129.192ZM268.325 126.12C268.949 126.12 269.509 125.976 270.005 125.688C270.501 125.4 270.893 124.992 271.181 124.464C271.469 123.92 271.613 123.28 271.613 122.544C271.613 121.792 271.469 121.152 271.181 120.624C270.893 120.096 270.501 119.688 270.005 119.4C269.509 119.112 268.949 118.968 268.325 118.968C267.701 118.968 267.141 119.112 266.645 119.4C266.149 119.688 265.749 120.096 265.445 120.624C265.157 121.152 265.013 121.792 265.013 122.544C265.013 123.28 265.157 123.92 265.445 124.464C265.749 124.992 266.149 125.4 266.645 125.688C267.141 125.976 267.701 126.12 268.325 126.12Z" fill="#0695D0"/>
</svg>
