<svg width="528" height="233" viewBox="0 0 528 233" fill="none" xmlns="http://www.w3.org/2000/svg">
<path d="M145.565 79.1332C165.112 83.2891 179.208 98.6316 181.518 118.086C183.516 134.905 174.174 154.622 161.082 160.874C158.401 155.783 154.712 151.646 148.878 149.36C155.162 144.5 160.069 138.999 158.783 130.583C157.599 122.835 153.027 117.304 146.321 113.251C146.915 110.956 147.528 108.593 148.154 106.178C150.169 107.536 152.141 108.866 153.937 110.077C154.492 109.753 154.696 109.708 154.75 109.592C156.854 105.098 152.879 96.6779 148.131 95.526C145.698 94.9358 143.427 95.4249 142.507 97.8094C141.179 101.253 140.312 104.888 139.407 108.483C139.085 109.763 139.227 111.162 139.148 112.703C138.243 112.744 137.433 112.78 136.577 112.819C136.577 109.878 136.844 107.082 136.527 104.354C135.582 96.214 131.515 89.8669 124.985 85.0768C124.477 84.7036 123.919 84.3823 123.348 84.1127C121.231 83.1118 120.379 83.5358 120.758 85.8426C121.452 90.0748 122.256 94.3294 123.52 98.416C125.112 103.568 127.21 108.56 129.128 113.724C122.668 117.223 117.692 122.319 116.745 130.172C115.783 138.143 120.474 143.68 126.021 149.035C119.843 151.168 115.778 155.479 112.604 160.72C97.7222 151.747 87.1633 130.415 94.7434 108.435C101.982 87.4451 123.897 74.7748 145.565 79.1332Z" fill="#0695D0"/>
<path d="M208.384 129.288C207.216 129.288 206.056 129.136 204.904 128.832C203.752 128.512 202.776 128.064 201.976 127.488L203.488 124.512C204.128 124.976 204.872 125.344 205.72 125.616C206.568 125.888 207.424 126.024 208.288 126.024C209.264 126.024 210.032 125.832 210.592 125.448C211.152 125.064 211.432 124.536 211.432 123.864C211.432 123.224 211.184 122.72 210.688 122.352C210.192 121.984 209.392 121.8 208.288 121.8H206.512V119.232L211.192 113.928L211.624 115.32H202.816V112.2H214.576V114.72L209.92 120.024L207.952 118.896H209.08C211.144 118.896 212.704 119.36 213.76 120.288C214.816 121.216 215.344 122.408 215.344 123.864C215.344 124.808 215.096 125.696 214.6 126.528C214.104 127.344 213.344 128.008 212.32 128.52C211.296 129.032 209.984 129.288 208.384 129.288ZM218.195 129V112.2H225.827C227.651 112.2 229.259 112.552 230.651 113.256C232.043 113.944 233.131 114.912 233.915 116.16C234.699 117.408 235.091 118.888 235.091 120.6C235.091 122.296 234.699 123.776 233.915 125.04C233.131 126.288 232.043 127.264 230.651 127.968C229.259 128.656 227.651 129 225.827 129H218.195ZM222.083 125.808H225.635C226.755 125.808 227.723 125.6 228.539 125.184C229.371 124.752 230.011 124.144 230.459 123.36C230.923 122.576 231.155 121.656 231.155 120.6C231.155 119.528 230.923 118.608 230.459 117.84C230.011 117.056 229.371 116.456 228.539 116.04C227.723 115.608 226.755 115.392 225.635 115.392H222.083V125.808ZM252.932 129.288C251.604 129.288 250.38 129.08 249.26 128.664C248.156 128.232 247.188 127.624 246.356 126.84C245.54 126.056 244.9 125.136 244.436 124.08C243.988 123.024 243.764 121.864 243.764 120.6C243.764 119.336 243.988 118.176 244.436 117.12C244.9 116.064 245.548 115.144 246.38 114.36C247.212 113.576 248.188 112.976 249.308 112.56C250.428 112.128 251.66 111.912 253.004 111.912C254.492 111.912 255.828 112.16 257.012 112.656C258.212 113.152 259.22 113.872 260.036 114.816L257.54 117.12C256.932 116.48 256.268 116.008 255.548 115.704C254.828 115.384 254.044 115.224 253.196 115.224C252.38 115.224 251.636 115.352 250.964 115.608C250.292 115.864 249.708 116.232 249.212 116.712C248.732 117.192 248.356 117.76 248.084 118.416C247.828 119.072 247.7 119.8 247.7 120.6C247.7 121.384 247.828 122.104 248.084 122.76C248.356 123.416 248.732 123.992 249.212 124.488C249.708 124.968 250.284 125.336 250.94 125.592C251.612 125.848 252.348 125.976 253.148 125.976C253.916 125.976 254.66 125.856 255.38 125.616C256.116 125.36 256.828 124.936 257.516 124.344L259.724 127.152C258.812 127.84 257.748 128.368 256.532 128.736C255.332 129.104 254.132 129.288 252.932 129.288ZM256.172 126.648V120.336H259.724V127.152L256.172 126.648ZM263.072 129V116.088H266.648V119.736L266.144 118.68C266.528 117.768 267.144 117.08 267.992 116.616C268.84 116.136 269.872 115.896 271.088 115.896V119.352C270.928 119.336 270.784 119.328 270.656 119.328C270.528 119.312 270.392 119.304 270.248 119.304C269.224 119.304 268.392 119.6 267.752 120.192C267.128 120.768 266.816 121.672 266.816 122.904V129H263.072ZM280.39 129V126.48L280.15 125.928V121.416C280.15 120.616 279.902 119.992 279.406 119.544C278.926 119.096 278.182 118.872 277.174 118.872C276.486 118.872 275.806 118.984 275.134 119.208C274.478 119.416 273.918 119.704 273.454 120.072L272.11 117.456C272.814 116.96 273.662 116.576 274.654 116.304C275.646 116.032 276.654 115.896 277.678 115.896C279.646 115.896 281.174 116.36 282.262 117.288C283.35 118.216 283.894 119.664 283.894 121.632V129H280.39ZM276.454 129.192C275.446 129.192 274.582 129.024 273.862 128.688C273.142 128.336 272.59 127.864 272.206 127.272C271.822 126.68 271.63 126.016 271.63 125.28C271.63 124.512 271.814 123.84 272.182 123.264C272.566 122.688 273.166 122.24 273.982 121.92C274.798 121.584 275.862 121.416 277.174 121.416H280.606V123.6H277.582C276.702 123.6 276.094 123.744 275.758 124.032C275.438 124.32 275.278 124.68 275.278 125.112C275.278 125.592 275.462 125.976 275.83 126.264C276.214 126.536 276.734 126.672 277.39 126.672C278.014 126.672 278.574 126.528 279.07 126.24C279.566 125.936 279.926 125.496 280.15 124.92L280.726 126.648C280.454 127.48 279.958 128.112 279.238 128.544C278.518 128.976 277.59 129.192 276.454 129.192ZM294.915 129.192C293.827 129.192 292.875 128.952 292.059 128.472C291.243 127.992 290.603 127.264 290.139 126.288C289.691 125.296 289.467 124.048 289.467 122.544C289.467 121.024 289.683 119.776 290.115 118.8C290.547 117.824 291.171 117.096 291.987 116.616C292.803 116.136 293.779 115.896 294.915 115.896C296.131 115.896 297.219 116.176 298.179 116.736C299.155 117.28 299.923 118.048 300.483 119.04C301.059 120.032 301.347 121.2 301.347 122.544C301.347 123.904 301.059 125.08 300.483 126.072C299.923 127.064 299.155 127.832 298.179 128.376C297.219 128.92 296.131 129.192 294.915 129.192ZM287.283 133.656V116.088H290.859V118.728L290.787 122.568L291.027 126.384V133.656H287.283ZM294.267 126.12C294.891 126.12 295.443 125.976 295.923 125.688C296.419 125.4 296.811 124.992 297.099 124.464C297.403 123.92 297.555 123.28 297.555 122.544C297.555 121.792 297.403 121.152 297.099 120.624C296.811 120.096 296.419 119.688 295.923 119.4C295.443 119.112 294.891 118.968 294.267 118.968C293.643 118.968 293.083 119.112 292.587 119.4C292.091 119.688 291.699 120.096 291.411 120.624C291.123 121.152 290.979 121.792 290.979 122.544C290.979 123.28 291.123 123.92 291.411 124.464C291.699 124.992 292.091 125.4 292.587 125.688C293.083 125.976 293.643 126.12 294.267 126.12ZM311.701 115.896C312.725 115.896 313.637 116.104 314.437 116.52C315.253 116.92 315.893 117.544 316.357 118.392C316.821 119.224 317.053 120.296 317.053 121.608V129H313.309V122.184C313.309 121.144 313.077 120.376 312.613 119.88C312.165 119.384 311.525 119.136 310.693 119.136C310.101 119.136 309.565 119.264 309.085 119.52C308.621 119.76 308.253 120.136 307.981 120.648C307.725 121.16 307.597 121.816 307.597 122.616V129H303.853V111.192H307.597V119.664L306.757 118.584C307.221 117.72 307.885 117.056 308.749 116.592C309.613 116.128 310.597 115.896 311.701 115.896ZM320.447 129V116.088H324.191V129H320.447ZM322.319 114.288C321.631 114.288 321.071 114.088 320.639 113.688C320.207 113.288 319.991 112.792 319.991 112.2C319.991 111.608 320.207 111.112 320.639 110.712C321.071 110.312 321.631 110.112 322.319 110.112C323.007 110.112 323.567 110.304 323.999 110.688C324.431 111.056 324.647 111.536 324.647 112.128C324.647 112.752 324.431 113.272 323.999 113.688C323.583 114.088 323.023 114.288 322.319 114.288ZM333.906 129.192C332.514 129.192 331.274 128.912 330.186 128.352C329.098 127.776 328.242 126.984 327.618 125.976C327.01 124.968 326.706 123.824 326.706 122.544C326.706 121.248 327.01 120.104 327.618 119.112C328.242 118.104 329.098 117.32 330.186 116.76C331.274 116.184 332.514 115.896 333.906 115.896C335.266 115.896 336.45 116.184 337.458 116.76C338.466 117.32 339.21 118.128 339.69 119.184L336.786 120.744C336.45 120.136 336.026 119.688 335.514 119.4C335.018 119.112 334.474 118.968 333.882 118.968C333.242 118.968 332.666 119.112 332.154 119.4C331.642 119.688 331.234 120.096 330.93 120.624C330.642 121.152 330.498 121.792 330.498 122.544C330.498 123.296 330.642 123.936 330.93 124.464C331.234 124.992 331.642 125.4 332.154 125.688C332.666 125.976 333.242 126.12 333.882 126.12C334.474 126.12 335.018 125.984 335.514 125.712C336.026 125.424 336.45 124.968 336.786 124.344L339.69 125.928C339.21 126.968 338.466 127.776 337.458 128.352C336.45 128.912 335.266 129.192 333.906 129.192ZM346.189 129.192C345.085 129.192 344.021 129.064 342.997 128.808C341.989 128.536 341.189 128.2 340.597 127.8L341.845 125.112C342.437 125.48 343.133 125.784 343.933 126.024C344.749 126.248 345.549 126.36 346.333 126.36C347.197 126.36 347.805 126.256 348.157 126.048C348.525 125.84 348.709 125.552 348.709 125.184C348.709 124.88 348.565 124.656 348.277 124.512C348.005 124.352 347.637 124.232 347.173 124.152C346.709 124.072 346.197 123.992 345.637 123.912C345.093 123.832 344.541 123.728 343.981 123.6C343.421 123.456 342.909 123.248 342.445 122.976C341.981 122.704 341.605 122.336 341.317 121.872C341.045 121.408 340.909 120.808 340.909 120.072C340.909 119.256 341.141 118.536 341.605 117.912C342.085 117.288 342.773 116.8 343.669 116.448C344.565 116.08 345.637 115.896 346.885 115.896C347.765 115.896 348.661 115.992 349.573 116.184C350.485 116.376 351.245 116.656 351.853 117.024L350.605 119.688C349.981 119.32 349.349 119.072 348.709 118.944C348.085 118.8 347.477 118.728 346.885 118.728C346.053 118.728 345.445 118.84 345.061 119.064C344.677 119.288 344.485 119.576 344.485 119.928C344.485 120.248 344.621 120.488 344.893 120.648C345.181 120.808 345.557 120.936 346.021 121.032C346.485 121.128 346.989 121.216 347.533 121.296C348.093 121.36 348.653 121.464 349.213 121.608C349.773 121.752 350.277 121.96 350.725 122.232C351.189 122.488 351.565 122.848 351.853 123.312C352.141 123.76 352.285 124.352 352.285 125.088C352.285 125.888 352.045 126.6 351.565 127.224C351.085 127.832 350.389 128.312 349.477 128.664C348.581 129.016 347.485 129.192 346.189 129.192Z" fill="#0695D0"/>
</svg>
