<svg width="528" height="233" viewBox="0 0 528 233" fill="none" xmlns="http://www.w3.org/2000/svg">
<path d="M145.565 79.1332C165.112 83.2891 179.208 98.6316 181.518 118.086C183.516 134.905 174.174 154.622 161.082 160.874C158.401 155.783 154.712 151.646 148.878 149.36C155.162 144.5 160.069 138.999 158.783 130.583C157.599 122.835 153.027 117.304 146.321 113.251C146.915 110.956 147.528 108.593 148.154 106.178C150.169 107.536 152.141 108.866 153.937 110.077C154.492 109.753 154.696 109.708 154.75 109.592C156.854 105.098 152.879 96.6779 148.131 95.526C145.698 94.9358 143.427 95.4249 142.507 97.8094C141.179 101.253 140.312 104.888 139.407 108.483C139.085 109.763 139.227 111.162 139.148 112.703C138.243 112.744 137.433 112.78 136.577 112.819C136.577 109.878 136.844 107.082 136.527 104.354C135.582 96.214 131.515 89.8669 124.985 85.0768C124.477 84.7036 123.919 84.3823 123.348 84.1127C121.231 83.1118 120.379 83.5358 120.758 85.8426C121.452 90.0748 122.256 94.3294 123.52 98.416C125.112 103.568 127.21 108.56 129.128 113.724C122.668 117.223 117.692 122.319 116.745 130.172C115.783 138.143 120.474 143.68 126.021 149.035C119.843 151.168 115.778 155.479 112.604 160.72C97.7222 151.747 87.1633 130.415 94.7434 108.435C101.982 87.4451 123.897 74.7748 145.565 79.1332Z" fill="#0695D0"/>
<path d="M203.992 129V112.2H207.208L217.12 124.296H215.56V112.2H219.4V129H216.208L206.272 116.904H207.832V129H203.992ZM229.519 129.192C228.047 129.192 226.751 128.904 225.631 128.328C224.527 127.752 223.671 126.968 223.063 125.976C222.455 124.968 222.151 123.824 222.151 122.544C222.151 121.248 222.447 120.104 223.039 119.112C223.647 118.104 224.471 117.32 225.511 116.76C226.551 116.184 227.727 115.896 229.039 115.896C230.303 115.896 231.439 116.168 232.447 116.712C233.471 117.24 234.279 118.008 234.871 119.016C235.463 120.008 235.759 121.2 235.759 122.592C235.759 122.736 235.751 122.904 235.735 123.096C235.719 123.272 235.703 123.44 235.687 123.6H225.199V121.416H233.719L232.279 122.064C232.279 121.392 232.143 120.808 231.871 120.312C231.599 119.816 231.223 119.432 230.743 119.16C230.263 118.872 229.703 118.728 229.063 118.728C228.423 118.728 227.855 118.872 227.359 119.16C226.879 119.432 226.503 119.824 226.231 120.336C225.959 120.832 225.823 121.424 225.823 122.112V122.688C225.823 123.392 225.975 124.016 226.279 124.56C226.599 125.088 227.039 125.496 227.599 125.784C228.175 126.056 228.847 126.192 229.615 126.192C230.303 126.192 230.903 126.088 231.415 125.88C231.943 125.672 232.423 125.36 232.855 124.944L234.847 127.104C234.255 127.776 233.511 128.296 232.615 128.664C231.719 129.016 230.687 129.192 229.519 129.192ZM243.531 129.192C242.011 129.192 240.827 128.808 239.979 128.04C239.131 127.256 238.707 126.096 238.707 124.56V113.232H242.451V124.512C242.451 125.056 242.595 125.48 242.883 125.784C243.171 126.072 243.563 126.216 244.059 126.216C244.651 126.216 245.155 126.056 245.571 125.736L246.579 128.376C246.195 128.648 245.731 128.856 245.187 129C244.659 129.128 244.107 129.192 243.531 129.192ZM236.715 119.256V116.376H245.667V119.256H236.715ZM251.399 129L246.743 116.088H250.271L254.135 127.2H252.455L256.487 116.088H259.655L263.567 127.2H261.887L265.871 116.088H269.183L264.503 129H260.879L257.447 119.472H258.551L254.999 129H251.399ZM276.716 129.192C275.34 129.192 274.116 128.904 273.044 128.328C271.988 127.752 271.148 126.968 270.524 125.976C269.916 124.968 269.612 123.824 269.612 122.544C269.612 121.248 269.916 120.104 270.524 119.112C271.148 118.104 271.988 117.32 273.044 116.76C274.116 116.184 275.34 115.896 276.716 115.896C278.076 115.896 279.292 116.184 280.364 116.76C281.436 117.32 282.276 118.096 282.884 119.088C283.492 120.08 283.796 121.232 283.796 122.544C283.796 123.824 283.492 124.968 282.884 125.976C282.276 126.968 281.436 127.752 280.364 128.328C279.292 128.904 278.076 129.192 276.716 129.192ZM276.716 126.12C277.34 126.12 277.9 125.976 278.396 125.688C278.892 125.4 279.284 124.992 279.572 124.464C279.86 123.92 280.004 123.28 280.004 122.544C280.004 121.792 279.86 121.152 279.572 120.624C279.284 120.096 278.892 119.688 278.396 119.4C277.9 119.112 277.34 118.968 276.716 118.968C276.092 118.968 275.532 119.112 275.036 119.4C274.54 119.688 274.14 120.096 273.836 120.624C273.548 121.152 273.404 121.792 273.404 122.544C273.404 123.28 273.548 123.92 273.836 124.464C274.14 124.992 274.54 125.4 275.036 125.688C275.532 125.976 276.092 126.12 276.716 126.12ZM286.298 129V116.088H289.874V119.736L289.37 118.68C289.754 117.768 290.37 117.08 291.218 116.616C292.066 116.136 293.098 115.896 294.314 115.896V119.352C294.154 119.336 294.01 119.328 293.882 119.328C293.754 119.312 293.618 119.304 293.474 119.304C292.45 119.304 291.618 119.6 290.978 120.192C290.354 120.768 290.042 121.672 290.042 122.904V129H286.298ZM299.66 126.36L299.756 121.8L305.78 116.088H310.244L304.46 121.968L302.516 123.552L299.66 126.36ZM296.564 129V111.192H300.308V129H296.564ZM306.188 129L301.82 123.576L304.172 120.672L310.724 129H306.188Z" fill="#0695D0"/>
</svg>
