<svg width="528" height="233" viewBox="0 0 528 233" fill="none" xmlns="http://www.w3.org/2000/svg">
<path d="M145.565 79.1332C165.112 83.2891 179.208 98.6316 181.518 118.086C183.516 134.905 174.174 154.622 161.082 160.874C158.401 155.783 154.712 151.646 148.878 149.36C155.162 144.5 160.069 138.999 158.783 130.583C157.599 122.835 153.027 117.304 146.321 113.251C146.915 110.956 147.528 108.593 148.154 106.178C150.169 107.536 152.141 108.866 153.937 110.077C154.492 109.753 154.696 109.708 154.75 109.592C156.854 105.098 152.879 96.6779 148.131 95.526C145.698 94.9358 143.427 95.4249 142.507 97.8094C141.179 101.253 140.312 104.888 139.407 108.483C139.085 109.763 139.227 111.162 139.148 112.703C138.243 112.744 137.433 112.78 136.577 112.819C136.577 109.878 136.844 107.082 136.527 104.354C135.582 96.214 131.515 89.8669 124.985 85.0768C124.477 84.7036 123.919 84.3823 123.348 84.1127C121.231 83.1118 120.379 83.5358 120.758 85.8426C121.452 90.0748 122.256 94.3294 123.52 98.416C125.112 103.568 127.21 108.56 129.128 113.724C122.668 117.223 117.692 122.319 116.745 130.172C115.783 138.143 120.474 143.68 126.021 149.035C119.843 151.168 115.778 155.479 112.604 160.72C97.7222 151.747 87.1633 130.415 94.7434 108.435C101.982 87.4451 123.897 74.7748 145.565 79.1332Z" fill="#0695D0"/>
<path d="M203.992 129V112.2H211.624C213.448 112.2 215.056 112.552 216.448 113.256C217.84 113.944 218.928 114.912 219.712 116.16C220.496 117.408 220.888 118.888 220.888 120.6C220.888 122.296 220.496 123.776 219.712 125.04C218.928 126.288 217.84 127.264 216.448 127.968C215.056 128.656 213.448 129 211.624 129H203.992ZM207.88 125.808H211.432C212.552 125.808 213.52 125.6 214.336 125.184C215.168 124.752 215.808 124.144 216.256 123.36C216.72 122.576 216.952 121.656 216.952 120.6C216.952 119.528 216.72 118.608 216.256 117.84C215.808 117.056 215.168 116.456 214.336 116.04C213.52 115.608 212.552 115.392 211.432 115.392H207.88V125.808ZM231.476 129V126.48L231.236 125.928V121.416C231.236 120.616 230.988 119.992 230.492 119.544C230.012 119.096 229.268 118.872 228.26 118.872C227.572 118.872 226.892 118.984 226.22 119.208C225.564 119.416 225.004 119.704 224.54 120.072L223.196 117.456C223.9 116.96 224.748 116.576 225.74 116.304C226.732 116.032 227.74 115.896 228.764 115.896C230.732 115.896 232.26 116.36 233.348 117.288C234.436 118.216 234.98 119.664 234.98 121.632V129H231.476ZM227.54 129.192C226.532 129.192 225.668 129.024 224.948 128.688C224.228 128.336 223.676 127.864 223.292 127.272C222.908 126.68 222.716 126.016 222.716 125.28C222.716 124.512 222.9 123.84 223.268 123.264C223.652 122.688 224.252 122.24 225.068 121.92C225.884 121.584 226.948 121.416 228.26 121.416H231.692V123.6H228.668C227.788 123.6 227.18 123.744 226.844 124.032C226.524 124.32 226.364 124.68 226.364 125.112C226.364 125.592 226.548 125.976 226.916 126.264C227.3 126.536 227.82 126.672 228.476 126.672C229.1 126.672 229.66 126.528 230.156 126.24C230.652 125.936 231.012 125.496 231.236 124.92L231.812 126.648C231.54 127.48 231.044 128.112 230.324 128.544C229.604 128.976 228.676 129.192 227.54 129.192ZM243.649 129.192C242.129 129.192 240.945 128.808 240.097 128.04C239.249 127.256 238.825 126.096 238.825 124.56V113.232H242.569V124.512C242.569 125.056 242.713 125.48 243.001 125.784C243.289 126.072 243.681 126.216 244.177 126.216C244.769 126.216 245.273 126.056 245.689 125.736L246.697 128.376C246.313 128.648 245.849 128.856 245.305 129C244.777 129.128 244.225 129.192 243.649 129.192ZM236.833 119.256V116.376H245.785V119.256H236.833ZM256.718 129V126.48L256.478 125.928V121.416C256.478 120.616 256.23 119.992 255.734 119.544C255.254 119.096 254.51 118.872 253.502 118.872C252.814 118.872 252.134 118.984 251.462 119.208C250.806 119.416 250.246 119.704 249.782 120.072L248.438 117.456C249.142 116.96 249.99 116.576 250.982 116.304C251.974 116.032 252.982 115.896 254.006 115.896C255.974 115.896 257.502 116.36 258.59 117.288C259.678 118.216 260.222 119.664 260.222 121.632V129H256.718ZM252.782 129.192C251.774 129.192 250.91 129.024 250.19 128.688C249.47 128.336 248.918 127.864 248.534 127.272C248.15 126.68 247.958 126.016 247.958 125.28C247.958 124.512 248.142 123.84 248.51 123.264C248.894 122.688 249.494 122.24 250.31 121.92C251.126 121.584 252.19 121.416 253.502 121.416H256.934V123.6H253.91C253.03 123.6 252.422 123.744 252.086 124.032C251.766 124.32 251.606 124.68 251.606 125.112C251.606 125.592 251.79 125.976 252.158 126.264C252.542 126.536 253.062 126.672 253.718 126.672C254.342 126.672 254.902 126.528 255.398 126.24C255.894 125.936 256.254 125.496 256.478 124.92L257.054 126.648C256.782 127.48 256.286 128.112 255.566 128.544C254.846 128.976 253.918 129.192 252.782 129.192ZM276.192 129.288C274.848 129.288 273.56 129.112 272.328 128.76C271.096 128.392 270.104 127.92 269.352 127.344L270.672 124.416C271.392 124.928 272.24 125.352 273.216 125.688C274.208 126.008 275.208 126.168 276.216 126.168C276.984 126.168 277.6 126.096 278.064 125.952C278.544 125.792 278.896 125.576 279.12 125.304C279.344 125.032 279.456 124.72 279.456 124.368C279.456 123.92 279.28 123.568 278.928 123.312C278.576 123.04 278.112 122.824 277.536 122.664C276.96 122.488 276.32 122.328 275.616 122.184C274.928 122.024 274.232 121.832 273.528 121.608C272.84 121.384 272.208 121.096 271.632 120.744C271.056 120.392 270.584 119.928 270.216 119.352C269.864 118.776 269.688 118.04 269.688 117.144C269.688 116.184 269.944 115.312 270.456 114.528C270.984 113.728 271.768 113.096 272.808 112.632C273.864 112.152 275.184 111.912 276.768 111.912C277.824 111.912 278.864 112.04 279.888 112.296C280.912 112.536 281.816 112.904 282.6 113.4L281.4 116.352C280.616 115.904 279.832 115.576 279.048 115.368C278.264 115.144 277.496 115.032 276.744 115.032C275.992 115.032 275.376 115.12 274.896 115.296C274.416 115.472 274.072 115.704 273.864 115.992C273.656 116.264 273.552 116.584 273.552 116.952C273.552 117.384 273.728 117.736 274.08 118.008C274.432 118.264 274.896 118.472 275.472 118.632C276.048 118.792 276.68 118.952 277.368 119.112C278.072 119.272 278.768 119.456 279.456 119.664C280.16 119.872 280.8 120.152 281.376 120.504C281.952 120.856 282.416 121.32 282.768 121.896C283.136 122.472 283.32 123.2 283.32 124.08C283.32 125.024 283.056 125.888 282.528 126.672C282 127.456 281.208 128.088 280.152 128.568C279.112 129.048 277.792 129.288 276.192 129.288ZM291.952 129.192C290.56 129.192 289.32 128.912 288.232 128.352C287.144 127.776 286.288 126.984 285.664 125.976C285.056 124.968 284.752 123.824 284.752 122.544C284.752 121.248 285.056 120.104 285.664 119.112C286.288 118.104 287.144 117.32 288.232 116.76C289.32 116.184 290.56 115.896 291.952 115.896C293.312 115.896 294.496 116.184 295.504 116.76C296.512 117.32 297.256 118.128 297.736 119.184L294.832 120.744C294.496 120.136 294.072 119.688 293.56 119.4C293.064 119.112 292.52 118.968 291.928 118.968C291.288 118.968 290.712 119.112 290.2 119.4C289.688 119.688 289.28 120.096 288.976 120.624C288.688 121.152 288.544 121.792 288.544 122.544C288.544 123.296 288.688 123.936 288.976 124.464C289.28 124.992 289.688 125.4 290.2 125.688C290.712 125.976 291.288 126.12 291.928 126.12C292.52 126.12 293.064 125.984 293.56 125.712C294.072 125.424 294.496 124.968 294.832 124.344L297.736 125.928C297.256 126.968 296.512 127.776 295.504 128.352C294.496 128.912 293.312 129.192 291.952 129.192ZM299.822 129V116.088H303.566V129H299.822ZM301.694 114.288C301.006 114.288 300.446 114.088 300.014 113.688C299.582 113.288 299.366 112.792 299.366 112.2C299.366 111.608 299.582 111.112 300.014 110.712C300.446 110.312 301.006 110.112 301.694 110.112C302.382 110.112 302.942 110.304 303.374 110.688C303.806 111.056 304.022 111.536 304.022 112.128C304.022 112.752 303.806 113.272 303.374 113.688C302.958 114.088 302.398 114.288 301.694 114.288ZM313.449 129.192C311.977 129.192 310.681 128.904 309.561 128.328C308.457 127.752 307.601 126.968 306.993 125.976C306.385 124.968 306.081 123.824 306.081 122.544C306.081 121.248 306.377 120.104 306.969 119.112C307.577 118.104 308.401 117.32 309.441 116.76C310.481 116.184 311.657 115.896 312.969 115.896C314.233 115.896 315.369 116.168 316.377 116.712C317.401 117.24 318.209 118.008 318.801 119.016C319.393 120.008 319.689 121.2 319.689 122.592C319.689 122.736 319.681 122.904 319.665 123.096C319.649 123.272 319.633 123.44 319.617 123.6H309.129V121.416H317.648L316.209 122.064C316.209 121.392 316.073 120.808 315.801 120.312C315.529 119.816 315.153 119.432 314.673 119.16C314.193 118.872 313.633 118.728 312.993 118.728C312.353 118.728 311.785 118.872 311.289 119.16C310.809 119.432 310.433 119.824 310.161 120.336C309.889 120.832 309.753 121.424 309.753 122.112V122.688C309.753 123.392 309.905 124.016 310.209 124.56C310.529 125.088 310.969 125.496 311.529 125.784C312.105 126.056 312.777 126.192 313.545 126.192C314.233 126.192 314.833 126.088 315.345 125.88C315.873 125.672 316.353 125.36 316.785 124.944L318.777 127.104C318.185 127.776 317.441 128.296 316.545 128.664C315.649 129.016 314.617 129.192 313.449 129.192ZM330.029 115.896C331.053 115.896 331.965 116.104 332.765 116.52C333.581 116.92 334.221 117.544 334.685 118.392C335.149 119.224 335.381 120.296 335.381 121.608V129H331.637V122.184C331.637 121.144 331.405 120.376 330.941 119.88C330.493 119.384 329.853 119.136 329.021 119.136C328.429 119.136 327.893 119.264 327.413 119.52C326.949 119.76 326.581 120.136 326.309 120.648C326.053 121.16 325.925 121.816 325.925 122.616V129H322.181V116.088H325.757V119.664L325.085 118.584C325.549 117.72 326.213 117.056 327.077 116.592C327.941 116.128 328.925 115.896 330.029 115.896ZM345.109 129.192C343.717 129.192 342.477 128.912 341.389 128.352C340.301 127.776 339.445 126.984 338.821 125.976C338.213 124.968 337.909 123.824 337.909 122.544C337.909 121.248 338.213 120.104 338.821 119.112C339.445 118.104 340.301 117.32 341.389 116.76C342.477 116.184 343.717 115.896 345.109 115.896C346.469 115.896 347.653 116.184 348.661 116.76C349.669 117.32 350.413 118.128 350.893 119.184L347.989 120.744C347.653 120.136 347.229 119.688 346.717 119.4C346.221 119.112 345.677 118.968 345.085 118.968C344.445 118.968 343.869 119.112 343.357 119.4C342.845 119.688 342.437 120.096 342.133 120.624C341.845 121.152 341.701 121.792 341.701 122.544C341.701 123.296 341.845 123.936 342.133 124.464C342.437 124.992 342.845 125.4 343.357 125.688C343.869 125.976 344.445 126.12 345.085 126.12C345.677 126.12 346.221 125.984 346.717 125.712C347.229 125.424 347.653 124.968 347.989 124.344L350.893 125.928C350.413 126.968 349.669 127.776 348.661 128.352C347.653 128.912 346.469 129.192 345.109 129.192ZM359.292 129.192C357.82 129.192 356.524 128.904 355.404 128.328C354.3 127.752 353.444 126.968 352.836 125.976C352.228 124.968 351.924 123.824 351.924 122.544C351.924 121.248 352.22 120.104 352.812 119.112C353.42 118.104 354.244 117.32 355.284 116.76C356.324 116.184 357.5 115.896 358.812 115.896C360.076 115.896 361.212 116.168 362.22 116.712C363.244 117.24 364.052 118.008 364.644 119.016C365.236 120.008 365.532 121.2 365.532 122.592C365.532 122.736 365.524 122.904 365.508 123.096C365.492 123.272 365.476 123.44 365.46 123.6H354.972V121.416H363.492L362.052 122.064C362.052 121.392 361.916 120.808 361.644 120.312C361.372 119.816 360.996 119.432 360.516 119.16C360.036 118.872 359.476 118.728 358.836 118.728C358.196 118.728 357.628 118.872 357.132 119.16C356.652 119.432 356.276 119.824 356.004 120.336C355.732 120.832 355.596 121.424 355.596 122.112V122.688C355.596 123.392 355.748 124.016 356.052 124.56C356.372 125.088 356.812 125.496 357.372 125.784C357.948 126.056 358.62 126.192 359.388 126.192C360.076 126.192 360.676 126.088 361.188 125.88C361.716 125.672 362.196 125.36 362.628 124.944L364.62 127.104C364.028 127.776 363.284 128.296 362.388 128.664C361.492 129.016 360.46 129.192 359.292 129.192Z" fill="#0695D0"/>
</svg>
