<svg width="528" height="233" viewBox="0 0 528 233" fill="none" xmlns="http://www.w3.org/2000/svg">
<path d="M145.565 79.1332C165.112 83.2891 179.208 98.6316 181.518 118.086C183.516 134.905 174.174 154.622 161.082 160.874C158.401 155.783 154.712 151.646 148.878 149.36C155.162 144.5 160.069 138.999 158.783 130.583C157.599 122.835 153.027 117.304 146.321 113.251C146.915 110.956 147.528 108.593 148.154 106.178C150.169 107.536 152.141 108.866 153.937 110.077C154.492 109.753 154.696 109.708 154.75 109.592C156.854 105.098 152.879 96.6779 148.131 95.526C145.698 94.9358 143.427 95.4249 142.507 97.8094C141.179 101.253 140.312 104.888 139.407 108.483C139.085 109.763 139.227 111.162 139.148 112.703C138.243 112.744 137.433 112.78 136.577 112.819C136.577 109.878 136.844 107.082 136.527 104.354C135.582 96.214 131.515 89.8669 124.985 85.0768C124.477 84.7036 123.919 84.3823 123.348 84.1127C121.231 83.1118 120.379 83.5358 120.758 85.8426C121.452 90.0748 122.256 94.3294 123.52 98.416C125.112 103.568 127.21 108.56 129.128 113.724C122.668 117.223 117.692 122.319 116.745 130.172C115.783 138.143 120.474 143.68 126.021 149.035C119.843 151.168 115.778 155.479 112.604 160.72C97.7222 151.747 87.1633 130.415 94.7434 108.435C101.982 87.4451 123.897 74.7748 145.565 79.1332Z" fill="#0695D0"/>
<path d="M203.992 129V112.2H207.88V125.832H216.304V129H203.992ZM224.55 129.192C223.078 129.192 221.782 128.904 220.662 128.328C219.558 127.752 218.702 126.968 218.094 125.976C217.486 124.968 217.182 123.824 217.182 122.544C217.182 121.248 217.478 120.104 218.07 119.112C218.678 118.104 219.502 117.32 220.542 116.76C221.582 116.184 222.758 115.896 224.07 115.896C225.334 115.896 226.47 116.168 227.478 116.712C228.502 117.24 229.31 118.008 229.902 119.016C230.494 120.008 230.79 121.2 230.79 122.592C230.79 122.736 230.782 122.904 230.766 123.096C230.75 123.272 230.734 123.44 230.718 123.6H220.23V121.416H228.75L227.31 122.064C227.31 121.392 227.174 120.808 226.902 120.312C226.63 119.816 226.254 119.432 225.774 119.16C225.294 118.872 224.734 118.728 224.094 118.728C223.454 118.728 222.886 118.872 222.39 119.16C221.91 119.432 221.534 119.824 221.262 120.336C220.99 120.832 220.854 121.424 220.854 122.112V122.688C220.854 123.392 221.006 124.016 221.31 124.56C221.63 125.088 222.07 125.496 222.63 125.784C223.206 126.056 223.878 126.192 224.646 126.192C225.334 126.192 225.934 126.088 226.446 125.88C226.974 125.672 227.454 125.36 227.886 124.944L229.878 127.104C229.286 127.776 228.542 128.296 227.646 128.664C226.75 129.016 225.718 129.192 224.55 129.192ZM239.355 133.848C238.139 133.848 236.963 133.696 235.827 133.392C234.707 133.104 233.771 132.664 233.019 132.072L234.507 129.384C235.051 129.832 235.739 130.184 236.571 130.44C237.419 130.712 238.251 130.848 239.067 130.848C240.395 130.848 241.355 130.552 241.947 129.96C242.555 129.368 242.859 128.488 242.859 127.32V125.376L243.099 122.136L243.051 118.872V116.088H246.603V126.84C246.603 129.24 245.979 131.008 244.731 132.144C243.483 133.28 241.691 133.848 239.355 133.848ZM238.779 128.376C237.579 128.376 236.491 128.12 235.515 127.608C234.555 127.08 233.779 126.352 233.187 125.424C232.611 124.48 232.323 123.384 232.323 122.136C232.323 120.872 232.611 119.776 233.187 118.848C233.779 117.904 234.555 117.176 235.515 116.664C236.491 116.152 237.579 115.896 238.779 115.896C239.867 115.896 240.827 116.12 241.659 116.568C242.491 117 243.139 117.68 243.603 118.608C244.067 119.52 244.299 120.696 244.299 122.136C244.299 123.56 244.067 124.736 243.603 125.664C243.139 126.576 242.491 127.256 241.659 127.704C240.827 128.152 239.867 128.376 238.779 128.376ZM239.523 125.304C240.179 125.304 240.763 125.176 241.275 124.92C241.787 124.648 242.187 124.272 242.475 123.792C242.763 123.312 242.907 122.76 242.907 122.136C242.907 121.496 242.763 120.944 242.475 120.48C242.187 120 241.787 119.632 241.275 119.376C240.763 119.104 240.179 118.968 239.523 118.968C238.867 118.968 238.283 119.104 237.771 119.376C237.259 119.632 236.851 120 236.547 120.48C236.259 120.944 236.115 121.496 236.115 122.136C236.115 122.76 236.259 123.312 236.547 123.792C236.851 124.272 237.259 124.648 237.771 124.92C238.283 125.176 238.867 125.304 239.523 125.304ZM256.231 129.192C254.855 129.192 253.631 128.904 252.559 128.328C251.503 127.752 250.663 126.968 250.039 125.976C249.431 124.968 249.127 123.824 249.127 122.544C249.127 121.248 249.431 120.104 250.039 119.112C250.663 118.104 251.503 117.32 252.559 116.76C253.631 116.184 254.855 115.896 256.231 115.896C257.591 115.896 258.807 116.184 259.879 116.76C260.951 117.32 261.791 118.096 262.399 119.088C263.007 120.08 263.311 121.232 263.311 122.544C263.311 123.824 263.007 124.968 262.399 125.976C261.791 126.968 260.951 127.752 259.879 128.328C258.807 128.904 257.591 129.192 256.231 129.192ZM256.231 126.12C256.855 126.12 257.415 125.976 257.911 125.688C258.407 125.4 258.799 124.992 259.087 124.464C259.375 123.92 259.519 123.28 259.519 122.544C259.519 121.792 259.375 121.152 259.087 120.624C258.799 120.096 258.407 119.688 257.911 119.4C257.415 119.112 256.855 118.968 256.231 118.968C255.607 118.968 255.047 119.112 254.551 119.4C254.055 119.688 253.655 120.096 253.351 120.624C253.063 121.152 252.919 121.792 252.919 122.544C252.919 123.28 253.063 123.92 253.351 124.464C253.655 124.992 254.055 125.4 254.551 125.688C255.047 125.976 255.607 126.12 256.231 126.12ZM272.875 129V112.2H280.147C281.651 112.2 282.947 112.448 284.035 112.944C285.123 113.424 285.963 114.12 286.555 115.032C287.147 115.944 287.443 117.032 287.443 118.296C287.443 119.544 287.147 120.624 286.555 121.536C285.963 122.432 285.123 123.12 284.035 123.6C282.947 124.08 281.651 124.32 280.147 124.32H275.035L276.763 122.616V129H272.875ZM283.555 129L279.355 122.904H283.507L287.755 129H283.555ZM276.763 123.048L275.035 121.224H279.931C281.131 121.224 282.027 120.968 282.619 120.456C283.211 119.928 283.507 119.208 283.507 118.296C283.507 117.368 283.211 116.648 282.619 116.136C282.027 115.624 281.131 115.368 279.931 115.368H275.035L276.763 113.52V123.048ZM296.403 129.192C295.027 129.192 293.803 128.904 292.731 128.328C291.675 127.752 290.835 126.968 290.211 125.976C289.603 124.968 289.299 123.824 289.299 122.544C289.299 121.248 289.603 120.104 290.211 119.112C290.835 118.104 291.675 117.32 292.731 116.76C293.803 116.184 295.027 115.896 296.403 115.896C297.763 115.896 298.979 116.184 300.051 116.76C301.123 117.32 301.963 118.096 302.571 119.088C303.179 120.08 303.483 121.232 303.483 122.544C303.483 123.824 303.179 124.968 302.571 125.976C301.963 126.968 301.123 127.752 300.051 128.328C298.979 128.904 297.763 129.192 296.403 129.192ZM296.403 126.12C297.027 126.12 297.587 125.976 298.083 125.688C298.579 125.4 298.971 124.992 299.259 124.464C299.547 123.92 299.691 123.28 299.691 122.544C299.691 121.792 299.547 121.152 299.259 120.624C298.971 120.096 298.579 119.688 298.083 119.4C297.587 119.112 297.027 118.968 296.403 118.968C295.779 118.968 295.219 119.112 294.723 119.4C294.227 119.688 293.827 120.096 293.523 120.624C293.235 121.152 293.091 121.792 293.091 122.544C293.091 123.28 293.235 123.92 293.523 124.464C293.827 124.992 294.227 125.4 294.723 125.688C295.219 125.976 295.779 126.12 296.403 126.12ZM313.618 129.192C312.482 129.192 311.506 128.952 310.69 128.472C309.874 127.992 309.25 127.264 308.818 126.288C308.386 125.296 308.17 124.048 308.17 122.544C308.17 121.024 308.394 119.776 308.842 118.8C309.306 117.824 309.946 117.096 310.762 116.616C311.578 116.136 312.53 115.896 313.618 115.896C314.834 115.896 315.922 116.168 316.882 116.712C317.858 117.256 318.626 118.024 319.186 119.016C319.762 120.008 320.05 121.184 320.05 122.544C320.05 123.888 319.762 125.056 319.186 126.048C318.626 127.04 317.858 127.816 316.882 128.376C315.922 128.92 314.834 129.192 313.618 129.192ZM305.986 129V111.192H309.73V118.704L309.49 122.52L309.562 126.36V129H305.986ZM312.97 126.12C313.594 126.12 314.146 125.976 314.626 125.688C315.122 125.4 315.514 124.992 315.802 124.464C316.106 123.92 316.258 123.28 316.258 122.544C316.258 121.792 316.106 121.152 315.802 120.624C315.514 120.096 315.122 119.688 314.626 119.4C314.146 119.112 313.594 118.968 312.97 118.968C312.346 118.968 311.786 119.112 311.29 119.4C310.794 119.688 310.402 120.096 310.114 120.624C309.826 121.152 309.682 121.792 309.682 122.544C309.682 123.28 309.826 123.92 310.114 124.464C310.402 124.992 310.794 125.4 311.29 125.688C311.786 125.976 312.346 126.12 312.97 126.12ZM328.7 129.192C327.324 129.192 326.1 128.904 325.028 128.328C323.972 127.752 323.132 126.968 322.508 125.976C321.9 124.968 321.596 123.824 321.596 122.544C321.596 121.248 321.9 120.104 322.508 119.112C323.132 118.104 323.972 117.32 325.028 116.76C326.1 116.184 327.324 115.896 328.7 115.896C330.06 115.896 331.276 116.184 332.348 116.76C333.42 117.32 334.26 118.096 334.868 119.088C335.476 120.08 335.78 121.232 335.78 122.544C335.78 123.824 335.476 124.968 334.868 125.976C334.26 126.968 333.42 127.752 332.348 128.328C331.276 128.904 330.06 129.192 328.7 129.192ZM328.7 126.12C329.324 126.12 329.884 125.976 330.38 125.688C330.876 125.4 331.268 124.992 331.556 124.464C331.844 123.92 331.988 123.28 331.988 122.544C331.988 121.792 331.844 121.152 331.556 120.624C331.268 120.096 330.876 119.688 330.38 119.4C329.884 119.112 329.324 118.968 328.7 118.968C328.076 118.968 327.516 119.112 327.02 119.4C326.524 119.688 326.124 120.096 325.82 120.624C325.532 121.152 325.388 121.792 325.388 122.544C325.388 123.28 325.532 123.92 325.82 124.464C326.124 124.992 326.524 125.4 327.02 125.688C327.516 125.976 328.076 126.12 328.7 126.12ZM343.563 129.192C342.043 129.192 340.859 128.808 340.011 128.04C339.163 127.256 338.739 126.096 338.739 124.56V113.232H342.483V124.512C342.483 125.056 342.627 125.48 342.915 125.784C343.203 126.072 343.595 126.216 344.091 126.216C344.683 126.216 345.187 126.056 345.603 125.736L346.611 128.376C346.227 128.648 345.763 128.856 345.219 129C344.691 129.128 344.139 129.192 343.563 129.192ZM336.747 119.256V116.376H345.699V119.256H336.747ZM353.056 129.192C351.952 129.192 350.888 129.064 349.864 128.808C348.856 128.536 348.056 128.2 347.464 127.8L348.712 125.112C349.304 125.48 350 125.784 350.8 126.024C351.616 126.248 352.416 126.36 353.2 126.36C354.064 126.36 354.672 126.256 355.024 126.048C355.392 125.84 355.576 125.552 355.576 125.184C355.576 124.88 355.432 124.656 355.144 124.512C354.872 124.352 354.504 124.232 354.04 124.152C353.576 124.072 353.064 123.992 352.504 123.912C351.96 123.832 351.408 123.728 350.848 123.6C350.288 123.456 349.776 123.248 349.312 122.976C348.848 122.704 348.472 122.336 348.184 121.872C347.912 121.408 347.776 120.808 347.776 120.072C347.776 119.256 348.008 118.536 348.472 117.912C348.952 117.288 349.64 116.8 350.536 116.448C351.432 116.08 352.504 115.896 353.752 115.896C354.632 115.896 355.528 115.992 356.44 116.184C357.352 116.376 358.112 116.656 358.72 117.024L357.472 119.688C356.848 119.32 356.216 119.072 355.576 118.944C354.952 118.8 354.344 118.728 353.752 118.728C352.92 118.728 352.312 118.84 351.928 119.064C351.544 119.288 351.352 119.576 351.352 119.928C351.352 120.248 351.488 120.488 351.76 120.648C352.048 120.808 352.424 120.936 352.888 121.032C353.352 121.128 353.856 121.216 354.4 121.296C354.96 121.36 355.52 121.464 356.08 121.608C356.64 121.752 357.144 121.96 357.592 122.232C358.056 122.488 358.432 122.848 358.72 123.312C359.008 123.76 359.152 124.352 359.152 125.088C359.152 125.888 358.912 126.6 358.432 127.224C357.952 127.832 357.256 128.312 356.344 128.664C355.448 129.016 354.352 129.192 353.056 129.192Z" fill="#0695D0"/>
</svg>
