<svg width="528" height="233" viewBox="0 0 528 233" fill="none" xmlns="http://www.w3.org/2000/svg">
<path d="M145.565 79.1332C165.112 83.2891 179.208 98.6316 181.518 118.086C183.516 134.905 174.174 154.622 161.082 160.874C158.401 155.783 154.712 151.646 148.878 149.36C155.162 144.5 160.069 138.999 158.783 130.583C157.599 122.835 153.027 117.304 146.321 113.251C146.915 110.956 147.528 108.593 148.154 106.178C150.169 107.536 152.141 108.866 153.937 110.077C154.492 109.753 154.696 109.708 154.75 109.592C156.854 105.098 152.879 96.6779 148.131 95.526C145.698 94.9358 143.427 95.4249 142.507 97.8094C141.179 101.253 140.312 104.888 139.407 108.483C139.085 109.763 139.227 111.162 139.148 112.703C138.243 112.744 137.433 112.78 136.577 112.819C136.577 109.878 136.844 107.082 136.527 104.354C135.582 96.214 131.515 89.8669 124.985 85.0768C124.477 84.7036 123.919 84.3823 123.348 84.1127C121.231 83.1118 120.379 83.5358 120.758 85.8426C121.452 90.0748 122.256 94.3294 123.52 98.416C125.112 103.568 127.21 108.56 129.128 113.724C122.668 117.223 117.692 122.319 116.745 130.172C115.783 138.143 120.474 143.68 126.021 149.035C119.843 151.168 115.778 155.479 112.604 160.72C97.7222 151.747 87.1633 130.415 94.7434 108.435C101.982 87.4451 123.897 74.7748 145.565 79.1332Z" fill="#0695D0"/>
<path d="M212.152 129.288C210.824 129.288 209.592 129.072 208.456 128.64C207.336 128.208 206.36 127.6 205.528 126.816C204.712 126.032 204.072 125.112 203.608 124.056C203.16 123 202.936 121.848 202.936 120.6C202.936 119.352 203.16 118.2 203.608 117.144C204.072 116.088 204.72 115.168 205.552 114.384C206.384 113.6 207.36 112.992 208.48 112.56C209.6 112.128 210.816 111.912 212.128 111.912C213.456 111.912 214.672 112.128 215.776 112.56C216.896 112.992 217.864 113.6 218.68 114.384C219.512 115.168 220.16 116.088 220.624 117.144C221.088 118.184 221.32 119.336 221.32 120.6C221.32 121.848 221.088 123.008 220.624 124.08C220.16 125.136 219.512 126.056 218.68 126.84C217.864 127.608 216.896 128.208 215.776 128.64C214.672 129.072 213.464 129.288 212.152 129.288ZM212.128 125.976C212.88 125.976 213.568 125.848 214.192 125.592C214.832 125.336 215.392 124.968 215.872 124.488C216.352 124.008 216.72 123.44 216.976 122.784C217.248 122.128 217.384 121.4 217.384 120.6C217.384 119.8 217.248 119.072 216.976 118.416C216.72 117.76 216.352 117.192 215.872 116.712C215.408 116.232 214.856 115.864 214.216 115.608C213.576 115.352 212.88 115.224 212.128 115.224C211.376 115.224 210.68 115.352 210.04 115.608C209.416 115.864 208.864 116.232 208.384 116.712C207.904 117.192 207.528 117.76 207.256 118.416C207 119.072 206.872 119.8 206.872 120.6C206.872 121.384 207 122.112 207.256 122.784C207.528 123.44 207.896 124.008 208.36 124.488C208.84 124.968 209.4 125.336 210.04 125.592C210.68 125.848 211.376 125.976 212.128 125.976ZM229.375 129.192C227.855 129.192 226.671 128.808 225.823 128.04C224.975 127.256 224.551 126.096 224.551 124.56V113.232H228.295V124.512C228.295 125.056 228.439 125.48 228.727 125.784C229.015 126.072 229.407 126.216 229.903 126.216C230.495 126.216 230.999 126.056 231.415 125.736L232.423 128.376C232.039 128.648 231.575 128.856 231.031 129C230.503 129.128 229.951 129.192 229.375 129.192ZM222.559 119.256V116.376H231.511V119.256H222.559ZM242.373 115.896C243.397 115.896 244.309 116.104 245.109 116.52C245.925 116.92 246.565 117.544 247.029 118.392C247.493 119.224 247.725 120.296 247.725 121.608V129H243.981V122.184C243.981 121.144 243.749 120.376 243.285 119.88C242.837 119.384 242.197 119.136 241.365 119.136C240.773 119.136 240.237 119.264 239.757 119.52C239.293 119.76 238.925 120.136 238.653 120.648C238.397 121.16 238.269 121.816 238.269 122.616V129H234.525V111.192H238.269V119.664L237.429 118.584C237.893 117.72 238.557 117.056 239.421 116.592C240.285 116.128 241.269 115.896 242.373 115.896ZM257.62 129.192C256.148 129.192 254.852 128.904 253.732 128.328C252.628 127.752 251.772 126.968 251.164 125.976C250.556 124.968 250.252 123.824 250.252 122.544C250.252 121.248 250.548 120.104 251.14 119.112C251.748 118.104 252.572 117.32 253.612 116.76C254.652 116.184 255.828 115.896 257.14 115.896C258.404 115.896 259.54 116.168 260.548 116.712C261.572 117.24 262.38 118.008 262.972 119.016C263.564 120.008 263.86 121.2 263.86 122.592C263.86 122.736 263.852 122.904 263.836 123.096C263.82 123.272 263.804 123.44 263.788 123.6H253.3V121.416H261.82L260.38 122.064C260.38 121.392 260.244 120.808 259.972 120.312C259.7 119.816 259.324 119.432 258.844 119.16C258.364 118.872 257.804 118.728 257.164 118.728C256.524 118.728 255.956 118.872 255.46 119.16C254.98 119.432 254.604 119.824 254.332 120.336C254.06 120.832 253.924 121.424 253.924 122.112V122.688C253.924 123.392 254.076 124.016 254.38 124.56C254.7 125.088 255.14 125.496 255.7 125.784C256.276 126.056 256.948 126.192 257.716 126.192C258.404 126.192 259.004 126.088 259.516 125.88C260.044 125.672 260.524 125.36 260.956 124.944L262.948 127.104C262.356 127.776 261.612 128.296 260.716 128.664C259.82 129.016 258.788 129.192 257.62 129.192ZM266.353 129V116.088H269.929V119.736L269.425 118.68C269.809 117.768 270.425 117.08 271.273 116.616C272.121 116.136 273.153 115.896 274.369 115.896V119.352C274.209 119.336 274.065 119.328 273.937 119.328C273.809 119.312 273.673 119.304 273.529 119.304C272.505 119.304 271.673 119.6 271.033 120.192C270.409 120.768 270.097 121.672 270.097 122.904V129H266.353ZM283.75 129V112.2H291.022C292.526 112.2 293.822 112.448 294.91 112.944C295.998 113.424 296.838 114.12 297.43 115.032C298.022 115.944 298.318 117.032 298.318 118.296C298.318 119.544 298.022 120.624 297.43 121.536C296.838 122.432 295.998 123.12 294.91 123.6C293.822 124.08 292.526 124.32 291.022 124.32H285.91L287.638 122.616V129H283.75ZM294.43 129L290.23 122.904H294.382L298.63 129H294.43ZM287.638 123.048L285.91 121.224H290.806C292.006 121.224 292.902 120.968 293.494 120.456C294.086 119.928 294.382 119.208 294.382 118.296C294.382 117.368 294.086 116.648 293.494 116.136C292.902 115.624 292.006 115.368 290.806 115.368H285.91L287.638 113.52V123.048ZM307.542 129.192C306.07 129.192 304.774 128.904 303.654 128.328C302.55 127.752 301.694 126.968 301.086 125.976C300.478 124.968 300.174 123.824 300.174 122.544C300.174 121.248 300.47 120.104 301.062 119.112C301.67 118.104 302.494 117.32 303.534 116.76C304.574 116.184 305.75 115.896 307.062 115.896C308.326 115.896 309.462 116.168 310.47 116.712C311.494 117.24 312.302 118.008 312.894 119.016C313.486 120.008 313.782 121.2 313.782 122.592C313.782 122.736 313.774 122.904 313.758 123.096C313.742 123.272 313.726 123.44 313.71 123.6H303.222V121.416H311.742L310.302 122.064C310.302 121.392 310.166 120.808 309.894 120.312C309.622 119.816 309.246 119.432 308.766 119.16C308.286 118.872 307.726 118.728 307.086 118.728C306.446 118.728 305.878 118.872 305.382 119.16C304.902 119.432 304.526 119.824 304.254 120.336C303.982 120.832 303.846 121.424 303.846 122.112V122.688C303.846 123.392 303.998 124.016 304.302 124.56C304.622 125.088 305.062 125.496 305.622 125.784C306.198 126.056 306.87 126.192 307.638 126.192C308.326 126.192 308.926 126.088 309.438 125.88C309.966 125.672 310.446 125.36 310.878 124.944L312.87 127.104C312.278 127.776 311.534 128.296 310.638 128.664C309.742 129.016 308.71 129.192 307.542 129.192ZM320.619 129.192C319.515 129.192 318.451 129.064 317.427 128.808C316.419 128.536 315.619 128.2 315.027 127.8L316.275 125.112C316.867 125.48 317.563 125.784 318.363 126.024C319.179 126.248 319.979 126.36 320.763 126.36C321.627 126.36 322.235 126.256 322.587 126.048C322.955 125.84 323.139 125.552 323.139 125.184C323.139 124.88 322.995 124.656 322.707 124.512C322.435 124.352 322.067 124.232 321.603 124.152C321.139 124.072 320.627 123.992 320.067 123.912C319.523 123.832 318.971 123.728 318.411 123.6C317.851 123.456 317.339 123.248 316.875 122.976C316.411 122.704 316.035 122.336 315.747 121.872C315.475 121.408 315.339 120.808 315.339 120.072C315.339 119.256 315.571 118.536 316.035 117.912C316.515 117.288 317.203 116.8 318.099 116.448C318.995 116.08 320.067 115.896 321.315 115.896C322.195 115.896 323.091 115.992 324.003 116.184C324.915 116.376 325.675 116.656 326.283 117.024L325.035 119.688C324.411 119.32 323.779 119.072 323.139 118.944C322.515 118.8 321.907 118.728 321.315 118.728C320.483 118.728 319.875 118.84 319.491 119.064C319.107 119.288 318.915 119.576 318.915 119.928C318.915 120.248 319.051 120.488 319.323 120.648C319.611 120.808 319.987 120.936 320.451 121.032C320.915 121.128 321.419 121.216 321.963 121.296C322.523 121.36 323.083 121.464 323.643 121.608C324.203 121.752 324.707 121.96 325.155 122.232C325.619 122.488 325.995 122.848 326.283 123.312C326.571 123.76 326.715 124.352 326.715 125.088C326.715 125.888 326.475 126.6 325.995 127.224C325.515 127.832 324.819 128.312 323.907 128.664C323.011 129.016 321.915 129.192 320.619 129.192ZM335.169 129.192C333.793 129.192 332.569 128.904 331.497 128.328C330.441 127.752 329.601 126.968 328.977 125.976C328.369 124.968 328.065 123.824 328.065 122.544C328.065 121.248 328.369 120.104 328.977 119.112C329.601 118.104 330.441 117.32 331.497 116.76C332.569 116.184 333.793 115.896 335.169 115.896C336.529 115.896 337.745 116.184 338.817 116.76C339.889 117.32 340.729 118.096 341.337 119.088C341.945 120.08 342.249 121.232 342.249 122.544C342.249 123.824 341.945 124.968 341.337 125.976C340.729 126.968 339.889 127.752 338.817 128.328C337.745 128.904 336.529 129.192 335.169 129.192ZM335.169 126.12C335.793 126.12 336.353 125.976 336.849 125.688C337.345 125.4 337.737 124.992 338.025 124.464C338.313 123.92 338.457 123.28 338.457 122.544C338.457 121.792 338.313 121.152 338.025 120.624C337.737 120.096 337.345 119.688 336.849 119.4C336.353 119.112 335.793 118.968 335.169 118.968C334.545 118.968 333.985 119.112 333.489 119.4C332.993 119.688 332.593 120.096 332.289 120.624C332.001 121.152 331.857 121.792 331.857 122.544C331.857 123.28 332.001 123.92 332.289 124.464C332.593 124.992 332.993 125.4 333.489 125.688C333.985 125.976 334.545 126.12 335.169 126.12ZM350.199 129.192C349.127 129.192 348.167 128.984 347.319 128.568C346.487 128.152 345.839 127.52 345.375 126.672C344.911 125.808 344.679 124.712 344.679 123.384V116.088H348.423V122.832C348.423 123.904 348.647 124.696 349.095 125.208C349.559 125.704 350.207 125.952 351.039 125.952C351.615 125.952 352.127 125.832 352.575 125.592C353.023 125.336 353.375 124.952 353.631 124.44C353.887 123.912 354.015 123.256 354.015 122.472V116.088H357.759V129H354.207V125.448L354.855 126.48C354.423 127.376 353.783 128.056 352.935 128.52C352.103 128.968 351.191 129.192 350.199 129.192ZM361.228 129V116.088H364.804V119.736L364.3 118.68C364.684 117.768 365.3 117.08 366.148 116.616C366.996 116.136 368.028 115.896 369.244 115.896V119.352C369.084 119.336 368.94 119.328 368.812 119.328C368.684 119.312 368.548 119.304 368.404 119.304C367.38 119.304 366.548 119.6 365.908 120.192C365.284 120.768 364.972 121.672 364.972 122.904V129H361.228ZM377.616 129.192C376.224 129.192 374.984 128.912 373.896 128.352C372.808 127.776 371.952 126.984 371.328 125.976C370.72 124.968 370.416 123.824 370.416 122.544C370.416 121.248 370.72 120.104 371.328 119.112C371.952 118.104 372.808 117.32 373.896 116.76C374.984 116.184 376.224 115.896 377.616 115.896C378.976 115.896 380.16 116.184 381.168 116.76C382.176 117.32 382.92 118.128 383.4 119.184L380.496 120.744C380.16 120.136 379.736 119.688 379.224 119.4C378.728 119.112 378.184 118.968 377.592 118.968C376.952 118.968 376.376 119.112 375.864 119.4C375.352 119.688 374.944 120.096 374.64 120.624C374.352 121.152 374.208 121.792 374.208 122.544C374.208 123.296 374.352 123.936 374.64 124.464C374.944 124.992 375.352 125.4 375.864 125.688C376.376 125.976 376.952 126.12 377.592 126.12C378.184 126.12 378.728 125.984 379.224 125.712C379.736 125.424 380.16 124.968 380.496 124.344L383.4 125.928C382.92 126.968 382.176 127.776 381.168 128.352C380.16 128.912 378.976 129.192 377.616 129.192ZM391.8 129.192C390.328 129.192 389.032 128.904 387.912 128.328C386.808 127.752 385.952 126.968 385.344 125.976C384.736 124.968 384.432 123.824 384.432 122.544C384.432 121.248 384.728 120.104 385.32 119.112C385.928 118.104 386.752 117.32 387.792 116.76C388.832 116.184 390.008 115.896 391.32 115.896C392.584 115.896 393.72 116.168 394.728 116.712C395.752 117.24 396.56 118.008 397.152 119.016C397.744 120.008 398.04 121.2 398.04 122.592C398.04 122.736 398.032 122.904 398.016 123.096C398 123.272 397.984 123.44 397.968 123.6H387.48V121.416H396L394.56 122.064C394.56 121.392 394.424 120.808 394.152 120.312C393.88 119.816 393.504 119.432 393.024 119.16C392.544 118.872 391.984 118.728 391.344 118.728C390.704 118.728 390.136 118.872 389.64 119.16C389.16 119.432 388.784 119.824 388.512 120.336C388.24 120.832 388.104 121.424 388.104 122.112V122.688C388.104 123.392 388.256 124.016 388.56 124.56C388.88 125.088 389.32 125.496 389.88 125.784C390.456 126.056 391.128 126.192 391.896 126.192C392.584 126.192 393.184 126.088 393.696 125.88C394.224 125.672 394.704 125.36 395.136 124.944L397.128 127.104C396.536 127.776 395.792 128.296 394.896 128.664C394 129.016 392.968 129.192 391.8 129.192ZM404.877 129.192C403.773 129.192 402.709 129.064 401.685 128.808C400.677 128.536 399.877 128.2 399.285 127.8L400.533 125.112C401.125 125.48 401.821 125.784 402.621 126.024C403.437 126.248 404.237 126.36 405.021 126.36C405.885 126.36 406.493 126.256 406.845 126.048C407.213 125.84 407.397 125.552 407.397 125.184C407.397 124.88 407.253 124.656 406.965 124.512C406.693 124.352 406.325 124.232 405.861 124.152C405.397 124.072 404.885 123.992 404.325 123.912C403.781 123.832 403.229 123.728 402.669 123.6C402.109 123.456 401.597 123.248 401.133 122.976C400.669 122.704 400.293 122.336 400.005 121.872C399.733 121.408 399.597 120.808 399.597 120.072C399.597 119.256 399.829 118.536 400.293 117.912C400.773 117.288 401.461 116.8 402.357 116.448C403.253 116.08 404.325 115.896 405.573 115.896C406.453 115.896 407.349 115.992 408.261 116.184C409.173 116.376 409.933 116.656 410.541 117.024L409.293 119.688C408.669 119.32 408.037 119.072 407.397 118.944C406.773 118.8 406.165 118.728 405.573 118.728C404.741 118.728 404.133 118.84 403.749 119.064C403.365 119.288 403.173 119.576 403.173 119.928C403.173 120.248 403.309 120.488 403.581 120.648C403.869 120.808 404.245 120.936 404.709 121.032C405.173 121.128 405.677 121.216 406.221 121.296C406.781 121.36 407.341 121.464 407.901 121.608C408.461 121.752 408.965 121.96 409.413 122.232C409.877 122.488 410.253 122.848 410.541 123.312C410.829 123.76 410.973 124.352 410.973 125.088C410.973 125.888 410.733 126.6 410.253 127.224C409.773 127.832 409.077 128.312 408.165 128.664C407.269 129.016 406.173 129.192 404.877 129.192Z" fill="#0695D0"/>
</svg>
