<svg width="528" height="233" viewBox="0 0 528 233" fill="none" xmlns="http://www.w3.org/2000/svg">
<path d="M145.565 79.1332C165.112 83.2891 179.208 98.6316 181.518 118.086C183.516 134.905 174.174 154.622 161.082 160.874C158.401 155.783 154.712 151.646 148.878 149.36C155.162 144.5 160.069 138.999 158.783 130.583C157.599 122.835 153.027 117.304 146.321 113.251C146.915 110.956 147.528 108.593 148.154 106.178C150.169 107.536 152.141 108.866 153.937 110.077C154.492 109.753 154.696 109.708 154.75 109.592C156.854 105.098 152.879 96.6779 148.131 95.526C145.698 94.9358 143.427 95.4249 142.507 97.8094C141.179 101.253 140.312 104.888 139.407 108.483C139.085 109.763 139.227 111.162 139.148 112.703C138.243 112.744 137.433 112.78 136.577 112.819C136.577 109.878 136.844 107.082 136.527 104.354C135.582 96.214 131.515 89.8669 124.985 85.0768C124.477 84.7036 123.919 84.3823 123.348 84.1127C121.231 83.1118 120.379 83.5358 120.758 85.8426C121.452 90.0748 122.256 94.3294 123.52 98.416C125.112 103.568 127.21 108.56 129.128 113.724C122.668 117.223 117.692 122.319 116.745 130.172C115.783 138.143 120.474 143.68 126.021 149.035C119.843 151.168 115.778 155.479 112.604 160.72C97.7222 151.747 87.1633 130.415 94.7434 108.435C101.982 87.4451 123.897 74.7748 145.565 79.1332Z" fill="#0695D0"/>
<path d="M203.992 129V112.2H211.624C213.448 112.2 215.056 112.552 216.448 113.256C217.84 113.944 218.928 114.912 219.712 116.16C220.496 117.408 220.888 118.888 220.888 120.6C220.888 122.296 220.496 123.776 219.712 125.04C218.928 126.288 217.84 127.264 216.448 127.968C215.056 128.656 213.448 129 211.624 129H203.992ZM207.88 125.808H211.432C212.552 125.808 213.52 125.6 214.336 125.184C215.168 124.752 215.808 124.144 216.256 123.36C216.72 122.576 216.952 121.656 216.952 120.6C216.952 119.528 216.72 118.608 216.256 117.84C215.808 117.056 215.168 116.456 214.336 116.04C213.52 115.608 212.552 115.392 211.432 115.392H207.88V125.808ZM231.476 129V126.48L231.236 125.928V121.416C231.236 120.616 230.988 119.992 230.492 119.544C230.012 119.096 229.268 118.872 228.26 118.872C227.572 118.872 226.892 118.984 226.22 119.208C225.564 119.416 225.004 119.704 224.54 120.072L223.196 117.456C223.9 116.96 224.748 116.576 225.74 116.304C226.732 116.032 227.74 115.896 228.764 115.896C230.732 115.896 232.26 116.36 233.348 117.288C234.436 118.216 234.98 119.664 234.98 121.632V129H231.476ZM227.54 129.192C226.532 129.192 225.668 129.024 224.948 128.688C224.228 128.336 223.676 127.864 223.292 127.272C222.908 126.68 222.716 126.016 222.716 125.28C222.716 124.512 222.9 123.84 223.268 123.264C223.652 122.688 224.252 122.24 225.068 121.92C225.884 121.584 226.948 121.416 228.26 121.416H231.692V123.6H228.668C227.788 123.6 227.18 123.744 226.844 124.032C226.524 124.32 226.364 124.68 226.364 125.112C226.364 125.592 226.548 125.976 226.916 126.264C227.3 126.536 227.82 126.672 228.476 126.672C229.1 126.672 229.66 126.528 230.156 126.24C230.652 125.936 231.012 125.496 231.236 124.92L231.812 126.648C231.54 127.48 231.044 128.112 230.324 128.544C229.604 128.976 228.676 129.192 227.54 129.192ZM243.649 129.192C242.129 129.192 240.945 128.808 240.097 128.04C239.249 127.256 238.825 126.096 238.825 124.56V113.232H242.569V124.512C242.569 125.056 242.713 125.48 243.001 125.784C243.289 126.072 243.681 126.216 244.177 126.216C244.769 126.216 245.273 126.056 245.689 125.736L246.697 128.376C246.313 128.648 245.849 128.856 245.305 129C244.777 129.128 244.225 129.192 243.649 129.192ZM236.833 119.256V116.376H245.785V119.256H236.833ZM256.718 129V126.48L256.478 125.928V121.416C256.478 120.616 256.23 119.992 255.734 119.544C255.254 119.096 254.51 118.872 253.502 118.872C252.814 118.872 252.134 118.984 251.462 119.208C250.806 119.416 250.246 119.704 249.782 120.072L248.438 117.456C249.142 116.96 249.99 116.576 250.982 116.304C251.974 116.032 252.982 115.896 254.006 115.896C255.974 115.896 257.502 116.36 258.59 117.288C259.678 118.216 260.222 119.664 260.222 121.632V129H256.718ZM252.782 129.192C251.774 129.192 250.91 129.024 250.19 128.688C249.47 128.336 248.918 127.864 248.534 127.272C248.15 126.68 247.958 126.016 247.958 125.28C247.958 124.512 248.142 123.84 248.51 123.264C248.894 122.688 249.494 122.24 250.31 121.92C251.126 121.584 252.19 121.416 253.502 121.416H256.934V123.6H253.91C253.03 123.6 252.422 123.744 252.086 124.032C251.766 124.32 251.606 124.68 251.606 125.112C251.606 125.592 251.79 125.976 252.158 126.264C252.542 126.536 253.062 126.672 253.718 126.672C254.342 126.672 254.902 126.528 255.398 126.24C255.894 125.936 256.254 125.496 256.478 124.92L257.054 126.648C256.782 127.48 256.286 128.112 255.566 128.544C254.846 128.976 253.918 129.192 252.782 129.192ZM271.243 129.192C270.107 129.192 269.131 128.952 268.315 128.472C267.499 127.992 266.875 127.264 266.443 126.288C266.011 125.296 265.795 124.048 265.795 122.544C265.795 121.024 266.019 119.776 266.467 118.8C266.931 117.824 267.571 117.096 268.387 116.616C269.203 116.136 270.155 115.896 271.243 115.896C272.459 115.896 273.547 116.168 274.507 116.712C275.483 117.256 276.251 118.024 276.811 119.016C277.387 120.008 277.675 121.184 277.675 122.544C277.675 123.888 277.387 125.056 276.811 126.048C276.251 127.04 275.483 127.816 274.507 128.376C273.547 128.92 272.459 129.192 271.243 129.192ZM263.611 129V111.192H267.355V118.704L267.115 122.52L267.187 126.36V129H263.611ZM270.595 126.12C271.219 126.12 271.771 125.976 272.251 125.688C272.747 125.4 273.139 124.992 273.427 124.464C273.731 123.92 273.883 123.28 273.883 122.544C273.883 121.792 273.731 121.152 273.427 120.624C273.139 120.096 272.747 119.688 272.251 119.4C271.771 119.112 271.219 118.968 270.595 118.968C269.971 118.968 269.411 119.112 268.915 119.4C268.419 119.688 268.027 120.096 267.739 120.624C267.451 121.152 267.307 121.792 267.307 122.544C267.307 123.28 267.451 123.92 267.739 124.464C268.027 124.992 268.419 125.4 268.915 125.688C269.411 125.976 269.971 126.12 270.595 126.12ZM287.89 129V126.48L287.65 125.928V121.416C287.65 120.616 287.402 119.992 286.906 119.544C286.426 119.096 285.682 118.872 284.674 118.872C283.986 118.872 283.306 118.984 282.634 119.208C281.978 119.416 281.418 119.704 280.954 120.072L279.61 117.456C280.314 116.96 281.162 116.576 282.154 116.304C283.146 116.032 284.154 115.896 285.178 115.896C287.146 115.896 288.674 116.36 289.762 117.288C290.85 118.216 291.394 119.664 291.394 121.632V129H287.89ZM283.954 129.192C282.946 129.192 282.082 129.024 281.362 128.688C280.642 128.336 280.09 127.864 279.706 127.272C279.322 126.68 279.13 126.016 279.13 125.28C279.13 124.512 279.314 123.84 279.682 123.264C280.066 122.688 280.666 122.24 281.482 121.92C282.298 121.584 283.362 121.416 284.674 121.416H288.106V123.6H285.082C284.202 123.6 283.594 123.744 283.258 124.032C282.938 124.32 282.778 124.68 282.778 125.112C282.778 125.592 282.962 125.976 283.33 126.264C283.714 126.536 284.234 126.672 284.89 126.672C285.514 126.672 286.074 126.528 286.57 126.24C287.066 125.936 287.426 125.496 287.65 124.92L288.226 126.648C287.954 127.48 287.458 128.112 286.738 128.544C286.018 128.976 285.09 129.192 283.954 129.192ZM299.127 129.192C298.023 129.192 296.959 129.064 295.935 128.808C294.927 128.536 294.127 128.2 293.535 127.8L294.783 125.112C295.375 125.48 296.071 125.784 296.871 126.024C297.687 126.248 298.487 126.36 299.271 126.36C300.135 126.36 300.743 126.256 301.095 126.048C301.463 125.84 301.647 125.552 301.647 125.184C301.647 124.88 301.503 124.656 301.215 124.512C300.943 124.352 300.575 124.232 300.111 124.152C299.647 124.072 299.135 123.992 298.575 123.912C298.031 123.832 297.479 123.728 296.919 123.6C296.359 123.456 295.847 123.248 295.383 122.976C294.919 122.704 294.543 122.336 294.255 121.872C293.983 121.408 293.847 120.808 293.847 120.072C293.847 119.256 294.079 118.536 294.543 117.912C295.023 117.288 295.711 116.8 296.607 116.448C297.503 116.08 298.575 115.896 299.823 115.896C300.703 115.896 301.599 115.992 302.511 116.184C303.423 116.376 304.183 116.656 304.791 117.024L303.543 119.688C302.919 119.32 302.287 119.072 301.647 118.944C301.023 118.8 300.415 118.728 299.823 118.728C298.991 118.728 298.383 118.84 297.999 119.064C297.615 119.288 297.423 119.576 297.423 119.928C297.423 120.248 297.559 120.488 297.831 120.648C298.119 120.808 298.495 120.936 298.959 121.032C299.423 121.128 299.927 121.216 300.471 121.296C301.031 121.36 301.591 121.464 302.151 121.608C302.711 121.752 303.215 121.96 303.663 122.232C304.127 122.488 304.503 122.848 304.791 123.312C305.079 123.76 305.223 124.352 305.223 125.088C305.223 125.888 304.983 126.6 304.503 127.224C304.023 127.832 303.327 128.312 302.415 128.664C301.519 129.016 300.423 129.192 299.127 129.192ZM313.941 129.192C312.469 129.192 311.173 128.904 310.053 128.328C308.949 127.752 308.093 126.968 307.485 125.976C306.877 124.968 306.573 123.824 306.573 122.544C306.573 121.248 306.869 120.104 307.461 119.112C308.069 118.104 308.893 117.32 309.933 116.76C310.973 116.184 312.149 115.896 313.461 115.896C314.725 115.896 315.861 116.168 316.869 116.712C317.893 117.24 318.701 118.008 319.293 119.016C319.885 120.008 320.181 121.2 320.181 122.592C320.181 122.736 320.173 122.904 320.157 123.096C320.141 123.272 320.125 123.44 320.109 123.6H309.621V121.416H318.141L316.701 122.064C316.701 121.392 316.565 120.808 316.293 120.312C316.021 119.816 315.645 119.432 315.165 119.16C314.685 118.872 314.125 118.728 313.485 118.728C312.845 118.728 312.277 118.872 311.781 119.16C311.301 119.432 310.925 119.824 310.653 120.336C310.381 120.832 310.245 121.424 310.245 122.112V122.688C310.245 123.392 310.397 124.016 310.701 124.56C311.021 125.088 311.461 125.496 312.021 125.784C312.597 126.056 313.269 126.192 314.037 126.192C314.725 126.192 315.325 126.088 315.837 125.88C316.365 125.672 316.845 125.36 317.277 124.944L319.269 127.104C318.677 127.776 317.933 128.296 317.037 128.664C316.141 129.016 315.109 129.192 313.941 129.192ZM327.017 129.192C325.913 129.192 324.849 129.064 323.825 128.808C322.817 128.536 322.017 128.2 321.425 127.8L322.673 125.112C323.265 125.48 323.961 125.784 324.761 126.024C325.577 126.248 326.377 126.36 327.161 126.36C328.025 126.36 328.633 126.256 328.985 126.048C329.353 125.84 329.537 125.552 329.537 125.184C329.537 124.88 329.393 124.656 329.105 124.512C328.833 124.352 328.465 124.232 328.001 124.152C327.537 124.072 327.025 123.992 326.465 123.912C325.921 123.832 325.369 123.728 324.809 123.6C324.249 123.456 323.737 123.248 323.273 122.976C322.809 122.704 322.433 122.336 322.145 121.872C321.873 121.408 321.737 120.808 321.737 120.072C321.737 119.256 321.969 118.536 322.433 117.912C322.913 117.288 323.601 116.8 324.497 116.448C325.393 116.08 326.465 115.896 327.713 115.896C328.593 115.896 329.489 115.992 330.401 116.184C331.313 116.376 332.073 116.656 332.681 117.024L331.433 119.688C330.809 119.32 330.177 119.072 329.537 118.944C328.913 118.8 328.305 118.728 327.713 118.728C326.881 118.728 326.273 118.84 325.889 119.064C325.505 119.288 325.313 119.576 325.313 119.928C325.313 120.248 325.449 120.488 325.721 120.648C326.009 120.808 326.385 120.936 326.849 121.032C327.313 121.128 327.817 121.216 328.361 121.296C328.921 121.36 329.481 121.464 330.041 121.608C330.601 121.752 331.105 121.96 331.553 122.232C332.017 122.488 332.393 122.848 332.681 123.312C332.969 123.76 333.113 124.352 333.113 125.088C333.113 125.888 332.873 126.6 332.393 127.224C331.913 127.832 331.217 128.312 330.305 128.664C329.409 129.016 328.313 129.192 327.017 129.192Z" fill="#0695D0"/>
</svg>
