<svg width="528" height="233" viewBox="0 0 528 233" fill="none" xmlns="http://www.w3.org/2000/svg">
<path d="M145.565 79.1332C165.112 83.2891 179.208 98.6316 181.518 118.086C183.516 134.905 174.174 154.622 161.082 160.874C158.401 155.783 154.712 151.646 148.878 149.36C155.162 144.5 160.069 138.999 158.783 130.583C157.599 122.835 153.027 117.304 146.321 113.251C146.915 110.956 147.528 108.593 148.154 106.178C150.169 107.536 152.141 108.866 153.937 110.077C154.492 109.753 154.696 109.708 154.75 109.592C156.854 105.098 152.879 96.6779 148.131 95.526C145.698 94.9358 143.427 95.4249 142.507 97.8094C141.179 101.253 140.312 104.888 139.407 108.483C139.085 109.763 139.227 111.162 139.148 112.703C138.243 112.744 137.433 112.78 136.577 112.819C136.577 109.878 136.844 107.082 136.527 104.354C135.582 96.214 131.515 89.8669 124.985 85.0768C124.477 84.7036 123.919 84.3823 123.348 84.1127C121.231 83.1118 120.379 83.5358 120.758 85.8426C121.452 90.0748 122.256 94.3294 123.52 98.416C125.112 103.568 127.21 108.56 129.128 113.724C122.668 117.223 117.692 122.319 116.745 130.172C115.783 138.143 120.474 143.68 126.021 149.035C119.843 151.168 115.778 155.479 112.604 160.72C97.7222 151.747 87.1633 130.415 94.7434 108.435C101.982 87.4451 123.897 74.7748 145.565 79.1332Z" fill="#0695D0"/>
<path d="M209.512 129.288C208.168 129.288 206.88 129.112 205.648 128.76C204.416 128.392 203.424 127.92 202.672 127.344L203.992 124.416C204.712 124.928 205.56 125.352 206.536 125.688C207.528 126.008 208.528 126.168 209.536 126.168C210.304 126.168 210.92 126.096 211.384 125.952C211.864 125.792 212.216 125.576 212.44 125.304C212.664 125.032 212.776 124.72 212.776 124.368C212.776 123.92 212.6 123.568 212.248 123.312C211.896 123.04 211.432 122.824 210.856 122.664C210.28 122.488 209.64 122.328 208.936 122.184C208.248 122.024 207.552 121.832 206.848 121.608C206.16 121.384 205.528 121.096 204.952 120.744C204.376 120.392 203.904 119.928 203.536 119.352C203.184 118.776 203.008 118.04 203.008 117.144C203.008 116.184 203.264 115.312 203.776 114.528C204.304 113.728 205.088 113.096 206.128 112.632C207.184 112.152 208.504 111.912 210.088 111.912C211.144 111.912 212.184 112.04 213.208 112.296C214.232 112.536 215.136 112.904 215.92 113.4L214.72 116.352C213.936 115.904 213.152 115.576 212.368 115.368C211.584 115.144 210.816 115.032 210.064 115.032C209.312 115.032 208.696 115.12 208.216 115.296C207.736 115.472 207.392 115.704 207.184 115.992C206.976 116.264 206.872 116.584 206.872 116.952C206.872 117.384 207.048 117.736 207.4 118.008C207.752 118.264 208.216 118.472 208.792 118.632C209.368 118.792 210 118.952 210.688 119.112C211.392 119.272 212.088 119.456 212.776 119.664C213.48 119.872 214.12 120.152 214.696 120.504C215.272 120.856 215.736 121.32 216.088 121.896C216.456 122.472 216.64 123.2 216.64 124.08C216.64 125.024 216.376 125.888 215.848 126.672C215.32 127.456 214.528 128.088 213.472 128.568C212.432 129.048 211.112 129.288 209.512 129.288ZM225.273 129.192C223.881 129.192 222.641 128.912 221.553 128.352C220.465 127.776 219.609 126.984 218.985 125.976C218.377 124.968 218.073 123.824 218.073 122.544C218.073 121.248 218.377 120.104 218.985 119.112C219.609 118.104 220.465 117.32 221.553 116.76C222.641 116.184 223.881 115.896 225.273 115.896C226.633 115.896 227.817 116.184 228.825 116.76C229.833 117.32 230.577 118.128 231.057 119.184L228.153 120.744C227.817 120.136 227.393 119.688 226.881 119.4C226.385 119.112 225.841 118.968 225.249 118.968C224.609 118.968 224.033 119.112 223.521 119.4C223.009 119.688 222.601 120.096 222.297 120.624C222.009 121.152 221.865 121.792 221.865 122.544C221.865 123.296 222.009 123.936 222.297 124.464C222.601 124.992 223.009 125.4 223.521 125.688C224.033 125.976 224.609 126.12 225.249 126.12C225.841 126.12 226.385 125.984 226.881 125.712C227.393 125.424 227.817 124.968 228.153 124.344L231.057 125.928C230.577 126.968 229.833 127.776 228.825 128.352C227.817 128.912 226.633 129.192 225.273 129.192ZM239.456 129.192C237.984 129.192 236.688 128.904 235.568 128.328C234.464 127.752 233.608 126.968 233 125.976C232.392 124.968 232.088 123.824 232.088 122.544C232.088 121.248 232.384 120.104 232.976 119.112C233.584 118.104 234.408 117.32 235.448 116.76C236.488 116.184 237.664 115.896 238.976 115.896C240.24 115.896 241.376 116.168 242.384 116.712C243.408 117.24 244.216 118.008 244.808 119.016C245.4 120.008 245.696 121.2 245.696 122.592C245.696 122.736 245.688 122.904 245.672 123.096C245.656 123.272 245.64 123.44 245.624 123.6H235.136V121.416H243.656L242.216 122.064C242.216 121.392 242.08 120.808 241.808 120.312C241.536 119.816 241.16 119.432 240.68 119.16C240.2 118.872 239.64 118.728 239 118.728C238.36 118.728 237.792 118.872 237.296 119.16C236.816 119.432 236.44 119.824 236.168 120.336C235.896 120.832 235.76 121.424 235.76 122.112V122.688C235.76 123.392 235.912 124.016 236.216 124.56C236.536 125.088 236.976 125.496 237.536 125.784C238.112 126.056 238.784 126.192 239.552 126.192C240.24 126.192 240.84 126.088 241.352 125.88C241.88 125.672 242.36 125.36 242.792 124.944L244.784 127.104C244.192 127.776 243.448 128.296 242.552 128.664C241.656 129.016 240.624 129.192 239.456 129.192ZM256.037 115.896C257.061 115.896 257.973 116.104 258.773 116.52C259.589 116.92 260.229 117.544 260.693 118.392C261.157 119.224 261.389 120.296 261.389 121.608V129H257.645V122.184C257.645 121.144 257.413 120.376 256.949 119.88C256.501 119.384 255.861 119.136 255.029 119.136C254.437 119.136 253.901 119.264 253.421 119.52C252.957 119.76 252.589 120.136 252.317 120.648C252.061 121.16 251.933 121.816 251.933 122.616V129H248.189V116.088H251.765V119.664L251.093 118.584C251.557 117.72 252.221 117.056 253.085 116.592C253.949 116.128 254.933 115.896 256.037 115.896ZM271.284 129.192C269.812 129.192 268.516 128.904 267.396 128.328C266.292 127.752 265.436 126.968 264.828 125.976C264.22 124.968 263.916 123.824 263.916 122.544C263.916 121.248 264.212 120.104 264.804 119.112C265.412 118.104 266.236 117.32 267.276 116.76C268.316 116.184 269.492 115.896 270.804 115.896C272.068 115.896 273.204 116.168 274.212 116.712C275.236 117.24 276.044 118.008 276.636 119.016C277.228 120.008 277.524 121.2 277.524 122.592C277.524 122.736 277.516 122.904 277.5 123.096C277.484 123.272 277.468 123.44 277.452 123.6H266.964V121.416H275.484L274.044 122.064C274.044 121.392 273.908 120.808 273.636 120.312C273.364 119.816 272.988 119.432 272.508 119.16C272.028 118.872 271.468 118.728 270.828 118.728C270.188 118.728 269.62 118.872 269.124 119.16C268.644 119.432 268.268 119.824 267.996 120.336C267.724 120.832 267.588 121.424 267.588 122.112V122.688C267.588 123.392 267.74 124.016 268.044 124.56C268.364 125.088 268.804 125.496 269.364 125.784C269.94 126.056 270.612 126.192 271.38 126.192C272.068 126.192 272.668 126.088 273.18 125.88C273.708 125.672 274.188 125.36 274.62 124.944L276.612 127.104C276.02 127.776 275.276 128.296 274.38 128.664C273.484 129.016 272.452 129.192 271.284 129.192ZM290.654 118.968H298.742V121.992H290.654V118.968ZM290.942 125.88H300.086V129H287.078V112.2H299.774V115.32H290.942V125.88ZM308.389 129.192C307.173 129.192 306.077 128.92 305.101 128.376C304.125 127.816 303.349 127.04 302.773 126.048C302.213 125.056 301.933 123.888 301.933 122.544C301.933 121.184 302.213 120.008 302.773 119.016C303.349 118.024 304.125 117.256 305.101 116.712C306.077 116.168 307.173 115.896 308.389 115.896C309.477 115.896 310.429 116.136 311.245 116.616C312.061 117.096 312.693 117.824 313.141 118.8C313.589 119.776 313.813 121.024 313.813 122.544C313.813 124.048 313.597 125.296 313.165 126.288C312.733 127.264 312.109 127.992 311.293 128.472C310.493 128.952 309.525 129.192 308.389 129.192ZM309.037 126.12C309.645 126.12 310.197 125.976 310.693 125.688C311.189 125.4 311.581 124.992 311.869 124.464C312.173 123.92 312.325 123.28 312.325 122.544C312.325 121.792 312.173 121.152 311.869 120.624C311.581 120.096 311.189 119.688 310.693 119.4C310.197 119.112 309.645 118.968 309.037 118.968C308.413 118.968 307.853 119.112 307.357 119.4C306.861 119.688 306.461 120.096 306.157 120.624C305.869 121.152 305.725 121.792 305.725 122.544C305.725 123.28 305.869 123.92 306.157 124.464C306.461 124.992 306.861 125.4 307.357 125.688C307.853 125.976 308.413 126.12 309.037 126.12ZM312.421 129V126.36L312.493 122.52L312.253 118.704V111.192H315.997V129H312.421ZM319.462 129V116.088H323.206V129H319.462ZM321.334 114.288C320.646 114.288 320.086 114.088 319.654 113.688C319.222 113.288 319.006 112.792 319.006 112.2C319.006 111.608 319.222 111.112 319.654 110.712C320.086 110.312 320.646 110.112 321.334 110.112C322.022 110.112 322.582 110.304 323.014 110.688C323.446 111.056 323.662 111.536 323.662 112.128C323.662 112.752 323.446 113.272 323.014 113.688C322.598 114.088 322.038 114.288 321.334 114.288ZM331.961 129.192C330.441 129.192 329.257 128.808 328.409 128.04C327.561 127.256 327.137 126.096 327.137 124.56V113.232H330.881V124.512C330.881 125.056 331.025 125.48 331.313 125.784C331.601 126.072 331.993 126.216 332.489 126.216C333.081 126.216 333.585 126.056 334.001 125.736L335.009 128.376C334.625 128.648 334.161 128.856 333.617 129C333.089 129.128 332.537 129.192 331.961 129.192ZM325.145 119.256V116.376H334.097V119.256H325.145ZM337.111 129V116.088H340.855V129H337.111ZM338.983 114.288C338.295 114.288 337.735 114.088 337.303 113.688C336.871 113.288 336.655 112.792 336.655 112.2C336.655 111.608 336.871 111.112 337.303 110.712C337.735 110.312 338.295 110.112 338.983 110.112C339.671 110.112 340.231 110.304 340.663 110.688C341.095 111.056 341.311 111.536 341.311 112.128C341.311 112.752 341.095 113.272 340.663 113.688C340.247 114.088 339.687 114.288 338.983 114.288ZM352.178 115.896C353.202 115.896 354.114 116.104 354.914 116.52C355.73 116.92 356.37 117.544 356.834 118.392C357.298 119.224 357.53 120.296 357.53 121.608V129H353.786V122.184C353.786 121.144 353.554 120.376 353.09 119.88C352.642 119.384 352.002 119.136 351.17 119.136C350.578 119.136 350.042 119.264 349.562 119.52C349.098 119.76 348.73 120.136 348.458 120.648C348.202 121.16 348.074 121.816 348.074 122.616V129H344.33V116.088H347.906V119.664L347.234 118.584C347.698 117.72 348.362 117.056 349.226 116.592C350.09 116.128 351.074 115.896 352.178 115.896ZM367.089 133.848C365.873 133.848 364.697 133.696 363.561 133.392C362.441 133.104 361.505 132.664 360.753 132.072L362.241 129.384C362.785 129.832 363.473 130.184 364.305 130.44C365.153 130.712 365.985 130.848 366.801 130.848C368.129 130.848 369.089 130.552 369.681 129.96C370.289 129.368 370.593 128.488 370.593 127.32V125.376L370.833 122.136L370.785 118.872V116.088H374.337V126.84C374.337 129.24 373.713 131.008 372.465 132.144C371.217 133.28 369.425 133.848 367.089 133.848ZM366.513 128.376C365.313 128.376 364.225 128.12 363.249 127.608C362.289 127.08 361.513 126.352 360.921 125.424C360.345 124.48 360.057 123.384 360.057 122.136C360.057 120.872 360.345 119.776 360.921 118.848C361.513 117.904 362.289 117.176 363.249 116.664C364.225 116.152 365.313 115.896 366.513 115.896C367.601 115.896 368.561 116.12 369.393 116.568C370.225 117 370.873 117.68 371.337 118.608C371.801 119.52 372.033 120.696 372.033 122.136C372.033 123.56 371.801 124.736 371.337 125.664C370.873 126.576 370.225 127.256 369.393 127.704C368.561 128.152 367.601 128.376 366.513 128.376ZM367.257 125.304C367.913 125.304 368.497 125.176 369.009 124.92C369.521 124.648 369.921 124.272 370.209 123.792C370.497 123.312 370.641 122.76 370.641 122.136C370.641 121.496 370.497 120.944 370.209 120.48C369.921 120 369.521 119.632 369.009 119.376C368.497 119.104 367.913 118.968 367.257 118.968C366.601 118.968 366.017 119.104 365.505 119.376C364.993 119.632 364.585 120 364.281 120.48C363.993 120.944 363.849 121.496 363.849 122.136C363.849 122.76 363.993 123.312 364.281 123.792C364.585 124.272 364.993 124.648 365.505 124.92C366.017 125.176 366.601 125.304 367.257 125.304Z" fill="#0695D0"/>
</svg>
