<svg width="528" height="233" viewBox="0 0 528 233" fill="none" xmlns="http://www.w3.org/2000/svg">
<path d="M145.565 79.1332C165.112 83.2891 179.208 98.6316 181.518 118.086C183.516 134.905 174.174 154.622 161.082 160.874C158.401 155.783 154.712 151.646 148.878 149.36C155.162 144.5 160.069 138.999 158.783 130.583C157.599 122.835 153.027 117.304 146.321 113.251C146.915 110.956 147.528 108.593 148.154 106.178C150.169 107.536 152.141 108.866 153.937 110.077C154.492 109.753 154.696 109.708 154.75 109.592C156.854 105.098 152.879 96.6779 148.131 95.526C145.698 94.9358 143.427 95.4249 142.507 97.8094C141.179 101.253 140.312 104.888 139.407 108.483C139.085 109.763 139.227 111.162 139.148 112.703C138.243 112.744 137.433 112.78 136.577 112.819C136.577 109.878 136.844 107.082 136.527 104.354C135.582 96.214 131.515 89.8669 124.985 85.0768C124.477 84.7036 123.919 84.3823 123.348 84.1127C121.231 83.1118 120.379 83.5358 120.758 85.8426C121.452 90.0748 122.256 94.3294 123.52 98.416C125.112 103.568 127.21 108.56 129.128 113.724C122.668 117.223 117.692 122.319 116.745 130.172C115.783 138.143 120.474 143.68 126.021 149.035C119.843 151.168 115.778 155.479 112.604 160.72C97.7222 151.747 87.1633 130.415 94.7434 108.435C101.982 87.4451 123.897 74.7748 145.565 79.1332Z" fill="#0695D0"/>
<path d="M201.784 114L209.272 97.2H213.112L220.624 114H216.544L210.4 99.168H211.936L205.768 114H201.784ZM205.528 110.4L206.56 107.448H215.2L216.256 110.4H205.528ZM227.53 114.192C226.314 114.192 225.218 113.92 224.242 113.376C223.266 112.816 222.49 112.04 221.914 111.048C221.354 110.056 221.074 108.888 221.074 107.544C221.074 106.184 221.354 105.008 221.914 104.016C222.49 103.024 223.266 102.256 224.242 101.712C225.218 101.168 226.314 100.896 227.53 100.896C228.618 100.896 229.57 101.136 230.386 101.616C231.202 102.096 231.834 102.824 232.282 103.8C232.73 104.776 232.954 106.024 232.954 107.544C232.954 109.048 232.738 110.296 232.306 111.288C231.874 112.264 231.25 112.992 230.434 113.472C229.634 113.952 228.666 114.192 227.53 114.192ZM228.178 111.12C228.786 111.12 229.338 110.976 229.834 110.688C230.33 110.4 230.722 109.992 231.01 109.464C231.314 108.92 231.466 108.28 231.466 107.544C231.466 106.792 231.314 106.152 231.01 105.624C230.722 105.096 230.33 104.688 229.834 104.4C229.338 104.112 228.786 103.968 228.178 103.968C227.554 103.968 226.994 104.112 226.498 104.4C226.002 104.688 225.602 105.096 225.298 105.624C225.01 106.152 224.866 106.792 224.866 107.544C224.866 108.28 225.01 108.92 225.298 109.464C225.602 109.992 226.002 110.4 226.498 110.688C226.994 110.976 227.554 111.12 228.178 111.12ZM231.562 114V111.36L231.634 107.52L231.394 103.704V96.192H235.138V114H231.562ZM242.107 114L236.683 101.088H240.547L245.059 112.2H243.139L247.819 101.088H251.419L245.971 114H242.107ZM260.445 114V111.48L260.205 110.928V106.416C260.205 105.616 259.957 104.992 259.461 104.544C258.981 104.096 258.237 103.872 257.229 103.872C256.541 103.872 255.861 103.984 255.189 104.208C254.533 104.416 253.973 104.704 253.509 105.072L252.165 102.456C252.869 101.96 253.717 101.576 254.709 101.304C255.701 101.032 256.709 100.896 257.733 100.896C259.701 100.896 261.229 101.36 262.317 102.288C263.405 103.216 263.949 104.664 263.949 106.632V114H260.445ZM256.509 114.192C255.501 114.192 254.637 114.024 253.917 113.688C253.197 113.336 252.645 112.864 252.261 112.272C251.877 111.68 251.685 111.016 251.685 110.28C251.685 109.512 251.869 108.84 252.237 108.264C252.621 107.688 253.221 107.24 254.037 106.92C254.853 106.584 255.917 106.416 257.229 106.416H260.661V108.6H257.637C256.757 108.6 256.149 108.744 255.813 109.032C255.493 109.32 255.333 109.68 255.333 110.112C255.333 110.592 255.517 110.976 255.885 111.264C256.269 111.536 256.789 111.672 257.445 111.672C258.069 111.672 258.629 111.528 259.125 111.24C259.621 110.936 259.981 110.496 260.205 109.92L260.781 111.648C260.509 112.48 260.013 113.112 259.293 113.544C258.573 113.976 257.645 114.192 256.509 114.192ZM275.185 100.896C276.209 100.896 277.121 101.104 277.921 101.52C278.737 101.92 279.377 102.544 279.841 103.392C280.305 104.224 280.537 105.296 280.537 106.608V114H276.793V107.184C276.793 106.144 276.561 105.376 276.097 104.88C275.649 104.384 275.009 104.136 274.177 104.136C273.585 104.136 273.049 104.264 272.569 104.52C272.105 104.76 271.737 105.136 271.465 105.648C271.209 106.16 271.081 106.816 271.081 107.616V114H267.337V101.088H270.913V104.664L270.241 103.584C270.705 102.72 271.369 102.056 272.233 101.592C273.097 101.128 274.081 100.896 275.185 100.896ZM290.265 114.192C288.873 114.192 287.633 113.912 286.545 113.352C285.457 112.776 284.601 111.984 283.977 110.976C283.369 109.968 283.065 108.824 283.065 107.544C283.065 106.248 283.369 105.104 283.977 104.112C284.601 103.104 285.457 102.32 286.545 101.76C287.633 101.184 288.873 100.896 290.265 100.896C291.625 100.896 292.809 101.184 293.817 101.76C294.825 102.32 295.569 103.128 296.049 104.184L293.145 105.744C292.809 105.136 292.385 104.688 291.873 104.4C291.377 104.112 290.833 103.968 290.241 103.968C289.601 103.968 289.025 104.112 288.513 104.4C288.001 104.688 287.593 105.096 287.289 105.624C287.001 106.152 286.857 106.792 286.857 107.544C286.857 108.296 287.001 108.936 287.289 109.464C287.593 109.992 288.001 110.4 288.513 110.688C289.025 110.976 289.601 111.12 290.241 111.12C290.833 111.12 291.377 110.984 291.873 110.712C292.385 110.424 292.809 109.968 293.145 109.344L296.049 110.928C295.569 111.968 294.825 112.776 293.817 113.352C292.809 113.912 291.625 114.192 290.265 114.192ZM304.449 114.192C302.977 114.192 301.681 113.904 300.561 113.328C299.457 112.752 298.601 111.968 297.993 110.976C297.385 109.968 297.081 108.824 297.081 107.544C297.081 106.248 297.377 105.104 297.969 104.112C298.577 103.104 299.401 102.32 300.441 101.76C301.481 101.184 302.657 100.896 303.969 100.896C305.233 100.896 306.369 101.168 307.377 101.712C308.401 102.24 309.209 103.008 309.801 104.016C310.393 105.008 310.689 106.2 310.689 107.592C310.689 107.736 310.681 107.904 310.665 108.096C310.649 108.272 310.633 108.44 310.617 108.6H300.129V106.416H308.648L307.209 107.064C307.209 106.392 307.073 105.808 306.801 105.312C306.529 104.816 306.153 104.432 305.673 104.16C305.193 103.872 304.633 103.728 303.993 103.728C303.353 103.728 302.785 103.872 302.289 104.16C301.809 104.432 301.433 104.824 301.161 105.336C300.889 105.832 300.753 106.424 300.753 107.112V107.688C300.753 108.392 300.905 109.016 301.209 109.56C301.529 110.088 301.969 110.496 302.529 110.784C303.105 111.056 303.777 111.192 304.545 111.192C305.233 111.192 305.833 111.088 306.345 110.88C306.873 110.672 307.353 110.36 307.785 109.944L309.777 112.104C309.185 112.776 308.441 113.296 307.545 113.664C306.649 114.016 305.617 114.192 304.449 114.192ZM318.725 114.192C317.509 114.192 316.413 113.92 315.437 113.376C314.461 112.816 313.685 112.04 313.109 111.048C312.549 110.056 312.269 108.888 312.269 107.544C312.269 106.184 312.549 105.008 313.109 104.016C313.685 103.024 314.461 102.256 315.437 101.712C316.413 101.168 317.509 100.896 318.725 100.896C319.813 100.896 320.765 101.136 321.581 101.616C322.397 102.096 323.029 102.824 323.477 103.8C323.925 104.776 324.149 106.024 324.149 107.544C324.149 109.048 323.933 110.296 323.501 111.288C323.069 112.264 322.445 112.992 321.629 113.472C320.829 113.952 319.861 114.192 318.725 114.192ZM319.373 111.12C319.981 111.12 320.533 110.976 321.029 110.688C321.525 110.4 321.917 109.992 322.205 109.464C322.509 108.92 322.661 108.28 322.661 107.544C322.661 106.792 322.509 106.152 322.205 105.624C321.917 105.096 321.525 104.688 321.029 104.4C320.533 104.112 319.981 103.968 319.373 103.968C318.749 103.968 318.189 104.112 317.693 104.4C317.197 104.688 316.797 105.096 316.493 105.624C316.205 106.152 316.061 106.792 316.061 107.544C316.061 108.28 316.205 108.92 316.493 109.464C316.797 109.992 317.197 110.4 317.693 110.688C318.189 110.976 318.749 111.12 319.373 111.12ZM322.757 114V111.36L322.829 107.52L322.589 103.704V96.192H326.333V114H322.757ZM212.128 143.288C210.816 143.288 209.592 143.072 208.456 142.64C207.336 142.208 206.36 141.6 205.528 140.816C204.712 140.032 204.072 139.112 203.608 138.056C203.16 137 202.936 135.848 202.936 134.6C202.936 133.352 203.16 132.2 203.608 131.144C204.072 130.088 204.72 129.168 205.552 128.384C206.384 127.6 207.36 126.992 208.48 126.56C209.6 126.128 210.816 125.912 212.128 125.912C213.456 125.912 214.672 126.128 215.776 126.56C216.896 126.992 217.864 127.6 218.68 128.384C219.512 129.152 220.16 130.064 220.624 131.12C221.088 132.176 221.32 133.336 221.32 134.6C221.32 135.848 221.088 137.008 220.624 138.08C220.16 139.136 219.512 140.056 218.68 140.84C217.864 141.608 216.896 142.208 215.776 142.64C214.672 143.072 213.456 143.288 212.128 143.288ZM217.624 146.864C216.968 146.864 216.344 146.792 215.752 146.648C215.176 146.504 214.6 146.272 214.024 145.952C213.464 145.632 212.872 145.2 212.248 144.656C211.64 144.112 210.976 143.44 210.256 142.64L214.336 141.608C214.768 142.2 215.168 142.672 215.536 143.024C215.904 143.376 216.256 143.624 216.592 143.768C216.944 143.912 217.312 143.984 217.696 143.984C218.72 143.984 219.632 143.568 220.432 142.736L222.16 144.8C221.024 146.176 219.512 146.864 217.624 146.864ZM212.128 139.976C212.88 139.976 213.568 139.848 214.192 139.592C214.832 139.336 215.392 138.968 215.872 138.488C216.352 138.008 216.72 137.44 216.976 136.784C217.248 136.112 217.384 135.384 217.384 134.6C217.384 133.8 217.248 133.072 216.976 132.416C216.72 131.76 216.352 131.192 215.872 130.712C215.392 130.232 214.832 129.864 214.192 129.608C213.568 129.352 212.88 129.224 212.128 129.224C211.376 129.224 210.68 129.352 210.04 129.608C209.4 129.864 208.84 130.232 208.36 130.712C207.896 131.192 207.528 131.76 207.256 132.416C207 133.072 206.872 133.8 206.872 134.6C206.872 135.384 207 136.112 207.256 136.784C207.528 137.44 207.896 138.008 208.36 138.488C208.84 138.968 209.4 139.336 210.04 139.592C210.68 139.848 211.376 139.976 212.128 139.976ZM229.426 143.192C228.354 143.192 227.394 142.984 226.546 142.568C225.714 142.152 225.066 141.52 224.602 140.672C224.138 139.808 223.906 138.712 223.906 137.384V130.088H227.65V136.832C227.65 137.904 227.874 138.696 228.322 139.208C228.786 139.704 229.434 139.952 230.266 139.952C230.842 139.952 231.354 139.832 231.802 139.592C232.25 139.336 232.602 138.952 232.858 138.44C233.114 137.912 233.242 137.256 233.242 136.472V130.088H236.986V143H233.434V139.448L234.082 140.48C233.65 141.376 233.01 142.056 232.162 142.52C231.33 142.968 230.418 143.192 229.426 143.192ZM246.599 143.192C245.223 143.192 243.999 142.904 242.927 142.328C241.871 141.752 241.031 140.968 240.407 139.976C239.799 138.968 239.495 137.824 239.495 136.544C239.495 135.248 239.799 134.104 240.407 133.112C241.031 132.104 241.871 131.32 242.927 130.76C243.999 130.184 245.223 129.896 246.599 129.896C247.959 129.896 249.175 130.184 250.247 130.76C251.319 131.32 252.159 132.096 252.767 133.088C253.375 134.08 253.679 135.232 253.679 136.544C253.679 137.824 253.375 138.968 252.767 139.976C252.159 140.968 251.319 141.752 250.247 142.328C249.175 142.904 247.959 143.192 246.599 143.192ZM246.599 140.12C247.223 140.12 247.783 139.976 248.279 139.688C248.775 139.4 249.167 138.992 249.455 138.464C249.743 137.92 249.887 137.28 249.887 136.544C249.887 135.792 249.743 135.152 249.455 134.624C249.167 134.096 248.775 133.688 248.279 133.4C247.783 133.112 247.223 132.968 246.599 132.968C245.975 132.968 245.415 133.112 244.919 133.4C244.423 133.688 244.023 134.096 243.719 134.624C243.431 135.152 243.287 135.792 243.287 136.544C243.287 137.28 243.431 137.92 243.719 138.464C244.023 138.992 244.423 139.4 244.919 139.688C245.415 139.976 245.975 140.12 246.599 140.12ZM256.181 143V130.088H259.757V133.736L259.253 132.68C259.637 131.768 260.253 131.08 261.101 130.616C261.949 130.136 262.981 129.896 264.197 129.896V133.352C264.037 133.336 263.893 133.328 263.765 133.328C263.637 133.312 263.501 133.304 263.357 133.304C262.333 133.304 261.501 133.6 260.861 134.192C260.237 134.768 259.925 135.672 259.925 136.904V143H256.181ZM271.965 143.192C270.893 143.192 269.933 142.984 269.085 142.568C268.253 142.152 267.605 141.52 267.141 140.672C266.677 139.808 266.445 138.712 266.445 137.384V130.088H270.189V136.832C270.189 137.904 270.413 138.696 270.861 139.208C271.325 139.704 271.973 139.952 272.805 139.952C273.381 139.952 273.893 139.832 274.341 139.592C274.789 139.336 275.141 138.952 275.397 138.44C275.653 137.912 275.781 137.256 275.781 136.472V130.088H279.525V143H275.973V139.448L276.621 140.48C276.189 141.376 275.549 142.056 274.701 142.52C273.869 142.968 272.957 143.192 271.965 143.192ZM299.53 129.896C300.554 129.896 301.458 130.104 302.242 130.52C303.042 130.92 303.666 131.544 304.114 132.392C304.578 133.224 304.81 134.296 304.81 135.608V143H301.066V136.184C301.066 135.144 300.85 134.376 300.418 133.88C299.986 133.384 299.378 133.136 298.594 133.136C298.05 133.136 297.562 133.264 297.13 133.52C296.698 133.76 296.362 134.128 296.122 134.624C295.882 135.12 295.762 135.752 295.762 136.52V143H292.018V136.184C292.018 135.144 291.802 134.376 291.37 133.88C290.954 133.384 290.354 133.136 289.57 133.136C289.026 133.136 288.538 133.264 288.106 133.52C287.674 133.76 287.338 134.128 287.098 134.624C286.858 135.12 286.738 135.752 286.738 136.52V143H282.994V130.088H286.57V133.616L285.898 132.584C286.346 131.704 286.978 131.04 287.794 130.592C288.626 130.128 289.57 129.896 290.626 129.896C291.81 129.896 292.842 130.2 293.722 130.808C294.618 131.4 295.21 132.312 295.498 133.544L294.178 133.184C294.61 132.176 295.298 131.376 296.242 130.784C297.202 130.192 298.298 129.896 299.53 129.896ZM315.226 143V126.2H319.114V139.832H327.538V143H315.226ZM337.461 143V140.48L337.221 139.928V135.416C337.221 134.616 336.973 133.992 336.477 133.544C335.997 133.096 335.253 132.872 334.245 132.872C333.557 132.872 332.877 132.984 332.205 133.208C331.549 133.416 330.989 133.704 330.525 134.072L329.181 131.456C329.885 130.96 330.733 130.576 331.725 130.304C332.717 130.032 333.725 129.896 334.749 129.896C336.717 129.896 338.245 130.36 339.333 131.288C340.421 132.216 340.965 133.664 340.965 135.632V143H337.461ZM333.525 143.192C332.517 143.192 331.653 143.024 330.933 142.688C330.213 142.336 329.661 141.864 329.277 141.272C328.893 140.68 328.701 140.016 328.701 139.28C328.701 138.512 328.885 137.84 329.253 137.264C329.637 136.688 330.237 136.24 331.053 135.92C331.869 135.584 332.933 135.416 334.245 135.416H337.677V137.6H334.653C333.773 137.6 333.165 137.744 332.829 138.032C332.509 138.32 332.349 138.68 332.349 139.112C332.349 139.592 332.533 139.976 332.901 140.264C333.285 140.536 333.805 140.672 334.461 140.672C335.085 140.672 335.645 140.528 336.141 140.24C336.637 139.936 336.997 139.496 337.221 138.92L337.797 140.648C337.525 141.48 337.029 142.112 336.309 142.544C335.589 142.976 334.661 143.192 333.525 143.192ZM352.201 129.896C353.225 129.896 354.137 130.104 354.937 130.52C355.753 130.92 356.393 131.544 356.857 132.392C357.321 133.224 357.553 134.296 357.553 135.608V143H353.809V136.184C353.809 135.144 353.577 134.376 353.113 133.88C352.665 133.384 352.025 133.136 351.193 133.136C350.601 133.136 350.065 133.264 349.585 133.52C349.121 133.76 348.753 134.136 348.481 134.648C348.225 135.16 348.097 135.816 348.097 136.616V143H344.353V130.088H347.929V133.664L347.257 132.584C347.721 131.72 348.385 131.056 349.249 130.592C350.113 130.128 351.097 129.896 352.201 129.896ZM367.113 147.848C365.897 147.848 364.721 147.696 363.585 147.392C362.465 147.104 361.529 146.664 360.777 146.072L362.265 143.384C362.809 143.832 363.497 144.184 364.329 144.44C365.177 144.712 366.009 144.848 366.825 144.848C368.153 144.848 369.113 144.552 369.705 143.96C370.313 143.368 370.617 142.488 370.617 141.32V139.376L370.857 136.136L370.809 132.872V130.088H374.361V140.84C374.361 143.24 373.737 145.008 372.489 146.144C371.241 147.28 369.449 147.848 367.113 147.848ZM366.537 142.376C365.337 142.376 364.249 142.12 363.273 141.608C362.313 141.08 361.537 140.352 360.945 139.424C360.369 138.48 360.081 137.384 360.081 136.136C360.081 134.872 360.369 133.776 360.945 132.848C361.537 131.904 362.313 131.176 363.273 130.664C364.249 130.152 365.337 129.896 366.537 129.896C367.625 129.896 368.585 130.12 369.417 130.568C370.249 131 370.897 131.68 371.361 132.608C371.825 133.52 372.057 134.696 372.057 136.136C372.057 137.56 371.825 138.736 371.361 139.664C370.897 140.576 370.249 141.256 369.417 141.704C368.585 142.152 367.625 142.376 366.537 142.376ZM367.281 139.304C367.937 139.304 368.521 139.176 369.033 138.92C369.545 138.648 369.945 138.272 370.233 137.792C370.521 137.312 370.665 136.76 370.665 136.136C370.665 135.496 370.521 134.944 370.233 134.48C369.945 134 369.545 133.632 369.033 133.376C368.521 133.104 367.937 132.968 367.281 132.968C366.625 132.968 366.041 133.104 365.529 133.376C365.017 133.632 364.609 134 364.305 134.48C364.017 134.944 363.873 135.496 363.873 136.136C363.873 136.76 364.017 137.312 364.305 137.792C364.609 138.272 365.017 138.648 365.529 138.92C366.041 139.176 366.625 139.304 367.281 139.304ZM383.293 143.192C382.221 143.192 381.261 142.984 380.413 142.568C379.581 142.152 378.933 141.52 378.469 140.672C378.005 139.808 377.773 138.712 377.773 137.384V130.088H381.517V136.832C381.517 137.904 381.741 138.696 382.189 139.208C382.653 139.704 383.301 139.952 384.133 139.952C384.709 139.952 385.221 139.832 385.669 139.592C386.117 139.336 386.469 138.952 386.725 138.44C386.981 137.912 387.109 137.256 387.109 136.472V130.088H390.853V143H387.301V139.448L387.949 140.48C387.517 141.376 386.877 142.056 386.029 142.52C385.197 142.968 384.285 143.192 383.293 143.192ZM402.242 143V140.48L402.002 139.928V135.416C402.002 134.616 401.754 133.992 401.258 133.544C400.778 133.096 400.034 132.872 399.026 132.872C398.338 132.872 397.658 132.984 396.986 133.208C396.33 133.416 395.77 133.704 395.306 134.072L393.962 131.456C394.666 130.96 395.514 130.576 396.506 130.304C397.498 130.032 398.506 129.896 399.53 129.896C401.498 129.896 403.026 130.36 404.114 131.288C405.202 132.216 405.746 133.664 405.746 135.632V143H402.242ZM398.306 143.192C397.298 143.192 396.434 143.024 395.714 142.688C394.994 142.336 394.442 141.864 394.058 141.272C393.674 140.68 393.482 140.016 393.482 139.28C393.482 138.512 393.666 137.84 394.034 137.264C394.418 136.688 395.018 136.24 395.834 135.92C396.65 135.584 397.714 135.416 399.026 135.416H402.458V137.6H399.434C398.554 137.6 397.946 137.744 397.61 138.032C397.29 138.32 397.13 138.68 397.13 139.112C397.13 139.592 397.314 139.976 397.682 140.264C398.066 140.536 398.586 140.672 399.242 140.672C399.866 140.672 400.426 140.528 400.922 140.24C401.418 139.936 401.778 139.496 402.002 138.92L402.578 140.648C402.306 141.48 401.81 142.112 401.09 142.544C400.37 142.976 399.442 143.192 398.306 143.192ZM415.3 147.848C414.084 147.848 412.908 147.696 411.772 147.392C410.652 147.104 409.716 146.664 408.964 146.072L410.452 143.384C410.996 143.832 411.684 144.184 412.516 144.44C413.364 144.712 414.196 144.848 415.012 144.848C416.34 144.848 417.3 144.552 417.892 143.96C418.5 143.368 418.804 142.488 418.804 141.32V139.376L419.044 136.136L418.996 132.872V130.088H422.548V140.84C422.548 143.24 421.924 145.008 420.676 146.144C419.428 147.28 417.636 147.848 415.3 147.848ZM414.724 142.376C413.524 142.376 412.436 142.12 411.46 141.608C410.5 141.08 409.724 140.352 409.132 139.424C408.556 138.48 408.268 137.384 408.268 136.136C408.268 134.872 408.556 133.776 409.132 132.848C409.724 131.904 410.5 131.176 411.46 130.664C412.436 130.152 413.524 129.896 414.724 129.896C415.812 129.896 416.772 130.12 417.604 130.568C418.436 131 419.084 131.68 419.548 132.608C420.012 133.52 420.244 134.696 420.244 136.136C420.244 137.56 420.012 138.736 419.548 139.664C419.084 140.576 418.436 141.256 417.604 141.704C416.772 142.152 415.812 142.376 414.724 142.376ZM415.468 139.304C416.124 139.304 416.708 139.176 417.22 138.92C417.732 138.648 418.132 138.272 418.42 137.792C418.708 137.312 418.852 136.76 418.852 136.136C418.852 135.496 418.708 134.944 418.42 134.48C418.132 134 417.732 133.632 417.22 133.376C416.708 133.104 416.124 132.968 415.468 132.968C414.812 132.968 414.228 133.104 413.716 133.376C413.204 133.632 412.796 134 412.492 134.48C412.204 134.944 412.06 135.496 412.06 136.136C412.06 136.76 412.204 137.312 412.492 137.792C412.796 138.272 413.204 138.648 413.716 138.92C414.228 139.176 414.812 139.304 415.468 139.304ZM432.441 143.192C430.969 143.192 429.673 142.904 428.553 142.328C427.449 141.752 426.593 140.968 425.985 139.976C425.377 138.968 425.073 137.824 425.073 136.544C425.073 135.248 425.369 134.104 425.961 133.112C426.569 132.104 427.393 131.32 428.433 130.76C429.473 130.184 430.649 129.896 431.961 129.896C433.225 129.896 434.361 130.168 435.369 130.712C436.393 131.24 437.201 132.008 437.793 133.016C438.385 134.008 438.681 135.2 438.681 136.592C438.681 136.736 438.673 136.904 438.657 137.096C438.641 137.272 438.625 137.44 438.609 137.6H428.121V135.416H436.641L435.201 136.064C435.201 135.392 435.065 134.808 434.793 134.312C434.521 133.816 434.145 133.432 433.665 133.16C433.185 132.872 432.625 132.728 431.985 132.728C431.345 132.728 430.777 132.872 430.281 133.16C429.801 133.432 429.425 133.824 429.153 134.336C428.881 134.832 428.745 135.424 428.745 136.112V136.688C428.745 137.392 428.897 138.016 429.201 138.56C429.521 139.088 429.961 139.496 430.521 139.784C431.097 140.056 431.769 140.192 432.537 140.192C433.225 140.192 433.825 140.088 434.337 139.88C434.865 139.672 435.345 139.36 435.777 138.944L437.769 141.104C437.177 141.776 436.433 142.296 435.537 142.664C434.641 143.016 433.609 143.192 432.441 143.192Z" fill="#0695D0"/>
</svg>
