<svg width="528" height="233" viewBox="0 0 528 233" fill="none" xmlns="http://www.w3.org/2000/svg">
<path d="M145.565 79.1332C165.112 83.2891 179.208 98.6316 181.518 118.086C183.516 134.905 174.174 154.622 161.082 160.874C158.401 155.783 154.712 151.646 148.878 149.36C155.162 144.5 160.069 138.999 158.783 130.583C157.599 122.835 153.027 117.304 146.321 113.251C146.915 110.956 147.528 108.593 148.154 106.178C150.169 107.536 152.141 108.866 153.937 110.077C154.492 109.753 154.696 109.708 154.75 109.592C156.854 105.098 152.879 96.6779 148.131 95.526C145.698 94.9358 143.427 95.4249 142.507 97.8094C141.179 101.253 140.312 104.888 139.407 108.483C139.085 109.763 139.227 111.162 139.148 112.703C138.243 112.744 137.433 112.78 136.577 112.819C136.577 109.878 136.844 107.082 136.527 104.354C135.582 96.214 131.515 89.8669 124.985 85.0768C124.477 84.7036 123.919 84.3823 123.348 84.1127C121.231 83.1118 120.379 83.5358 120.758 85.8426C121.452 90.0748 122.256 94.3294 123.52 98.416C125.112 103.568 127.21 108.56 129.128 113.724C122.668 117.223 117.692 122.319 116.745 130.172C115.783 138.143 120.474 143.68 126.021 149.035C119.843 151.168 115.778 155.479 112.604 160.72C97.7222 151.747 87.1633 130.415 94.7434 108.435C101.982 87.4451 123.897 74.7748 145.565 79.1332Z" fill="#0695D0"/>
<path d="M203.992 114V97.2H211.264C212.768 97.2 214.064 97.448 215.152 97.944C216.24 98.424 217.08 99.12 217.672 100.032C218.264 100.944 218.56 102.032 218.56 103.296C218.56 104.544 218.264 105.624 217.672 106.536C217.08 107.432 216.24 108.12 215.152 108.6C214.064 109.08 212.768 109.32 211.264 109.32H206.152L207.88 107.616V114H203.992ZM214.672 114L210.472 107.904H214.624L218.872 114H214.672ZM207.88 108.048L206.152 106.224H211.048C212.248 106.224 213.144 105.968 213.736 105.456C214.328 104.928 214.624 104.208 214.624 103.296C214.624 102.368 214.328 101.648 213.736 101.136C213.144 100.624 212.248 100.368 211.048 100.368H206.152L207.88 98.52V108.048ZM227.784 114.192C226.312 114.192 225.016 113.904 223.896 113.328C222.792 112.752 221.936 111.968 221.328 110.976C220.72 109.968 220.416 108.824 220.416 107.544C220.416 106.248 220.712 105.104 221.304 104.112C221.912 103.104 222.736 102.32 223.776 101.76C224.816 101.184 225.992 100.896 227.304 100.896C228.568 100.896 229.704 101.168 230.712 101.712C231.736 102.24 232.544 103.008 233.136 104.016C233.728 105.008 234.024 106.2 234.024 107.592C234.024 107.736 234.016 107.904 234 108.096C233.984 108.272 233.968 108.44 233.952 108.6H223.464V106.416H231.984L230.544 107.064C230.544 106.392 230.408 105.808 230.136 105.312C229.864 104.816 229.488 104.432 229.008 104.16C228.528 103.872 227.968 103.728 227.328 103.728C226.688 103.728 226.12 103.872 225.624 104.16C225.144 104.432 224.768 104.824 224.496 105.336C224.224 105.832 224.088 106.424 224.088 107.112V107.688C224.088 108.392 224.24 109.016 224.544 109.56C224.864 110.088 225.304 110.496 225.864 110.784C226.44 111.056 227.112 111.192 227.88 111.192C228.568 111.192 229.168 111.088 229.68 110.88C230.208 110.672 230.688 110.36 231.12 109.944L233.112 112.104C232.52 112.776 231.776 113.296 230.88 113.664C229.984 114.016 228.952 114.192 227.784 114.192ZM244.086 114V111.48L243.846 110.928V106.416C243.846 105.616 243.598 104.992 243.102 104.544C242.622 104.096 241.878 103.872 240.87 103.872C240.182 103.872 239.502 103.984 238.83 104.208C238.174 104.416 237.614 104.704 237.15 105.072L235.806 102.456C236.51 101.96 237.358 101.576 238.35 101.304C239.342 101.032 240.35 100.896 241.374 100.896C243.342 100.896 244.87 101.36 245.958 102.288C247.046 103.216 247.59 104.664 247.59 106.632V114H244.086ZM240.15 114.192C239.142 114.192 238.278 114.024 237.558 113.688C236.838 113.336 236.286 112.864 235.902 112.272C235.518 111.68 235.326 111.016 235.326 110.28C235.326 109.512 235.51 108.84 235.878 108.264C236.262 107.688 236.862 107.24 237.678 106.92C238.494 106.584 239.558 106.416 240.87 106.416H244.302V108.6H241.278C240.398 108.6 239.79 108.744 239.454 109.032C239.134 109.32 238.974 109.68 238.974 110.112C238.974 110.592 239.158 110.976 239.526 111.264C239.91 111.536 240.43 111.672 241.086 111.672C241.71 111.672 242.27 111.528 242.766 111.24C243.262 110.936 243.622 110.496 243.846 109.92L244.422 111.648C244.15 112.48 243.654 113.112 242.934 113.544C242.214 113.976 241.286 114.192 240.15 114.192ZM256.616 114.192C255.4 114.192 254.304 113.92 253.328 113.376C252.352 112.816 251.576 112.04 251 111.048C250.44 110.056 250.16 108.888 250.16 107.544C250.16 106.184 250.44 105.008 251 104.016C251.576 103.024 252.352 102.256 253.328 101.712C254.304 101.168 255.4 100.896 256.616 100.896C257.704 100.896 258.656 101.136 259.472 101.616C260.288 102.096 260.92 102.824 261.368 103.8C261.816 104.776 262.04 106.024 262.04 107.544C262.04 109.048 261.824 110.296 261.392 111.288C260.96 112.264 260.336 112.992 259.52 113.472C258.72 113.952 257.752 114.192 256.616 114.192ZM257.264 111.12C257.872 111.12 258.424 110.976 258.92 110.688C259.416 110.4 259.808 109.992 260.096 109.464C260.4 108.92 260.552 108.28 260.552 107.544C260.552 106.792 260.4 106.152 260.096 105.624C259.808 105.096 259.416 104.688 258.92 104.4C258.424 104.112 257.872 103.968 257.264 103.968C256.64 103.968 256.08 104.112 255.584 104.4C255.088 104.688 254.688 105.096 254.384 105.624C254.096 106.152 253.952 106.792 253.952 107.544C253.952 108.28 254.096 108.92 254.384 109.464C254.688 109.992 255.088 110.4 255.584 110.688C256.08 110.976 256.64 111.12 257.264 111.12ZM260.648 114V111.36L260.72 107.52L260.48 103.704V96.192H264.224V114H260.648ZM267.689 114V101.088H271.433V114H267.689ZM269.561 99.288C268.873 99.288 268.313 99.088 267.881 98.688C267.449 98.288 267.233 97.792 267.233 97.2C267.233 96.608 267.449 96.112 267.881 95.712C268.313 95.312 268.873 95.112 269.561 95.112C270.249 95.112 270.809 95.304 271.241 95.688C271.673 96.056 271.889 96.536 271.889 97.128C271.889 97.752 271.673 98.272 271.241 98.688C270.825 99.088 270.265 99.288 269.561 99.288ZM282.756 100.896C283.78 100.896 284.692 101.104 285.492 101.52C286.308 101.92 286.948 102.544 287.412 103.392C287.876 104.224 288.108 105.296 288.108 106.608V114H284.364V107.184C284.364 106.144 284.132 105.376 283.668 104.88C283.22 104.384 282.58 104.136 281.748 104.136C281.156 104.136 280.62 104.264 280.14 104.52C279.676 104.76 279.308 105.136 279.036 105.648C278.78 106.16 278.652 106.816 278.652 107.616V114H274.908V101.088H278.484V104.664L277.812 103.584C278.276 102.72 278.94 102.056 279.804 101.592C280.668 101.128 281.652 100.896 282.756 100.896ZM297.667 118.848C296.451 118.848 295.275 118.696 294.139 118.392C293.019 118.104 292.083 117.664 291.331 117.072L292.819 114.384C293.363 114.832 294.051 115.184 294.883 115.44C295.731 115.712 296.563 115.848 297.379 115.848C298.707 115.848 299.667 115.552 300.259 114.96C300.867 114.368 301.171 113.488 301.171 112.32V110.376L301.411 107.136L301.363 103.872V101.088H304.915V111.84C304.915 114.24 304.291 116.008 303.043 117.144C301.795 118.28 300.003 118.848 297.667 118.848ZM297.091 113.376C295.891 113.376 294.803 113.12 293.827 112.608C292.867 112.08 292.091 111.352 291.499 110.424C290.923 109.48 290.635 108.384 290.635 107.136C290.635 105.872 290.923 104.776 291.499 103.848C292.091 102.904 292.867 102.176 293.827 101.664C294.803 101.152 295.891 100.896 297.091 100.896C298.179 100.896 299.139 101.12 299.971 101.568C300.803 102 301.451 102.68 301.915 103.608C302.379 104.52 302.611 105.696 302.611 107.136C302.611 108.56 302.379 109.736 301.915 110.664C301.451 111.576 300.803 112.256 299.971 112.704C299.139 113.152 298.179 113.376 297.091 113.376ZM297.835 110.304C298.491 110.304 299.075 110.176 299.587 109.92C300.099 109.648 300.499 109.272 300.787 108.792C301.075 108.312 301.219 107.76 301.219 107.136C301.219 106.496 301.075 105.944 300.787 105.48C300.499 105 300.099 104.632 299.587 104.376C299.075 104.104 298.491 103.968 297.835 103.968C297.179 103.968 296.595 104.104 296.083 104.376C295.571 104.632 295.163 105 294.859 105.48C294.571 105.944 294.427 106.496 294.427 107.136C294.427 107.76 294.571 108.312 294.859 108.792C295.163 109.272 295.571 109.648 296.083 109.92C296.595 110.176 297.179 110.304 297.835 110.304ZM323.117 114V111.48L322.877 110.928V106.416C322.877 105.616 322.629 104.992 322.133 104.544C321.653 104.096 320.909 103.872 319.901 103.872C319.213 103.872 318.533 103.984 317.861 104.208C317.205 104.416 316.645 104.704 316.181 105.072L314.837 102.456C315.541 101.96 316.389 101.576 317.381 101.304C318.373 101.032 319.381 100.896 320.405 100.896C322.373 100.896 323.901 101.36 324.989 102.288C326.077 103.216 326.621 104.664 326.621 106.632V114H323.117ZM319.181 114.192C318.173 114.192 317.309 114.024 316.589 113.688C315.869 113.336 315.317 112.864 314.933 112.272C314.549 111.68 314.357 111.016 314.357 110.28C314.357 109.512 314.541 108.84 314.909 108.264C315.293 107.688 315.893 107.24 316.709 106.92C317.525 106.584 318.589 106.416 319.901 106.416H323.333V108.6H320.309C319.429 108.6 318.821 108.744 318.485 109.032C318.165 109.32 318.005 109.68 318.005 110.112C318.005 110.592 318.189 110.976 318.557 111.264C318.941 111.536 319.461 111.672 320.117 111.672C320.741 111.672 321.301 111.528 321.797 111.24C322.293 110.936 322.653 110.496 322.877 109.92L323.453 111.648C323.181 112.48 322.685 113.112 321.965 113.544C321.245 113.976 320.317 114.192 319.181 114.192ZM337.857 100.896C338.881 100.896 339.793 101.104 340.593 101.52C341.409 101.92 342.049 102.544 342.513 103.392C342.977 104.224 343.209 105.296 343.209 106.608V114H339.465V107.184C339.465 106.144 339.233 105.376 338.769 104.88C338.321 104.384 337.681 104.136 336.849 104.136C336.257 104.136 335.721 104.264 335.241 104.52C334.777 104.76 334.409 105.136 334.137 105.648C333.881 106.16 333.753 106.816 333.753 107.616V114H330.009V101.088H333.585V104.664L332.913 103.584C333.377 102.72 334.041 102.056 334.905 101.592C335.769 101.128 336.753 100.896 337.857 100.896ZM352.241 114.192C351.025 114.192 349.929 113.92 348.953 113.376C347.977 112.816 347.201 112.04 346.625 111.048C346.065 110.056 345.785 108.888 345.785 107.544C345.785 106.184 346.065 105.008 346.625 104.016C347.201 103.024 347.977 102.256 348.953 101.712C349.929 101.168 351.025 100.896 352.241 100.896C353.329 100.896 354.281 101.136 355.097 101.616C355.913 102.096 356.545 102.824 356.993 103.8C357.441 104.776 357.665 106.024 357.665 107.544C357.665 109.048 357.449 110.296 357.017 111.288C356.585 112.264 355.961 112.992 355.145 113.472C354.345 113.952 353.377 114.192 352.241 114.192ZM352.889 111.12C353.497 111.12 354.049 110.976 354.545 110.688C355.041 110.4 355.433 109.992 355.721 109.464C356.025 108.92 356.177 108.28 356.177 107.544C356.177 106.792 356.025 106.152 355.721 105.624C355.433 105.096 355.041 104.688 354.545 104.4C354.049 104.112 353.497 103.968 352.889 103.968C352.265 103.968 351.705 104.112 351.209 104.4C350.713 104.688 350.313 105.096 350.009 105.624C349.721 106.152 349.577 106.792 349.577 107.544C349.577 108.28 349.721 108.92 350.009 109.464C350.313 109.992 350.713 110.4 351.209 110.688C351.705 110.976 352.265 111.12 352.889 111.12ZM356.273 114V111.36L356.345 107.52L356.105 103.704V96.192H359.849V114H356.273ZM208.024 143L202.528 126.2H206.56L211.336 141.08H209.32L214.312 126.2H217.912L222.712 141.08H220.768L225.664 126.2H229.384L223.888 143H219.712L215.464 129.944H216.568L212.2 143H208.024ZM230.798 143V130.088H234.374V133.736L233.87 132.68C234.254 131.768 234.87 131.08 235.718 130.616C236.566 130.136 237.598 129.896 238.814 129.896V133.352C238.654 133.336 238.51 133.328 238.382 133.328C238.254 133.312 238.118 133.304 237.974 133.304C236.95 133.304 236.118 133.6 235.478 134.192C234.854 134.768 234.542 135.672 234.542 136.904V143H230.798ZM241.064 143V130.088H244.808V143H241.064ZM242.936 128.288C242.248 128.288 241.688 128.088 241.256 127.688C240.824 127.288 240.608 126.792 240.608 126.2C240.608 125.608 240.824 125.112 241.256 124.712C241.688 124.312 242.248 124.112 242.936 124.112C243.624 124.112 244.184 124.304 244.616 124.688C245.048 125.056 245.264 125.536 245.264 126.128C245.264 126.752 245.048 127.272 244.616 127.688C244.2 128.088 243.64 128.288 242.936 128.288ZM253.563 143.192C252.043 143.192 250.859 142.808 250.011 142.04C249.163 141.256 248.739 140.096 248.739 138.56V127.232H252.483V138.512C252.483 139.056 252.627 139.48 252.915 139.784C253.203 140.072 253.595 140.216 254.091 140.216C254.683 140.216 255.187 140.056 255.603 139.736L256.611 142.376C256.227 142.648 255.763 142.856 255.219 143C254.691 143.128 254.139 143.192 253.563 143.192ZM246.747 133.256V130.376H255.699V133.256H246.747ZM258.712 143V130.088H262.456V143H258.712ZM260.584 128.288C259.896 128.288 259.336 128.088 258.904 127.688C258.472 127.288 258.256 126.792 258.256 126.2C258.256 125.608 258.472 125.112 258.904 124.712C259.336 124.312 259.896 124.112 260.584 124.112C261.272 124.112 261.832 124.304 262.264 124.688C262.696 125.056 262.912 125.536 262.912 126.128C262.912 126.752 262.696 127.272 262.264 127.688C261.848 128.088 261.288 128.288 260.584 128.288ZM273.779 129.896C274.803 129.896 275.715 130.104 276.515 130.52C277.331 130.92 277.971 131.544 278.435 132.392C278.899 133.224 279.131 134.296 279.131 135.608V143H275.387V136.184C275.387 135.144 275.155 134.376 274.691 133.88C274.243 133.384 273.603 133.136 272.771 133.136C272.179 133.136 271.643 133.264 271.163 133.52C270.699 133.76 270.331 134.136 270.059 134.648C269.803 135.16 269.675 135.816 269.675 136.616V143H265.931V130.088H269.507V133.664L268.835 132.584C269.299 131.72 269.963 131.056 270.827 130.592C271.691 130.128 272.675 129.896 273.779 129.896ZM288.691 147.848C287.475 147.848 286.299 147.696 285.163 147.392C284.043 147.104 283.107 146.664 282.355 146.072L283.843 143.384C284.387 143.832 285.075 144.184 285.907 144.44C286.755 144.712 287.587 144.848 288.403 144.848C289.731 144.848 290.691 144.552 291.283 143.96C291.891 143.368 292.195 142.488 292.195 141.32V139.376L292.435 136.136L292.387 132.872V130.088H295.939V140.84C295.939 143.24 295.315 145.008 294.067 146.144C292.819 147.28 291.027 147.848 288.691 147.848ZM288.115 142.376C286.915 142.376 285.827 142.12 284.851 141.608C283.891 141.08 283.115 140.352 282.523 139.424C281.947 138.48 281.659 137.384 281.659 136.136C281.659 134.872 281.947 133.776 282.523 132.848C283.115 131.904 283.891 131.176 284.851 130.664C285.827 130.152 286.915 129.896 288.115 129.896C289.203 129.896 290.163 130.12 290.995 130.568C291.827 131 292.475 131.68 292.939 132.608C293.403 133.52 293.635 134.696 293.635 136.136C293.635 137.56 293.403 138.736 292.939 139.664C292.475 140.576 291.827 141.256 290.995 141.704C290.163 142.152 289.203 142.376 288.115 142.376ZM288.859 139.304C289.515 139.304 290.099 139.176 290.611 138.92C291.123 138.648 291.523 138.272 291.811 137.792C292.099 137.312 292.243 136.76 292.243 136.136C292.243 135.496 292.099 134.944 291.811 134.48C291.523 134 291.123 133.632 290.611 133.376C290.099 133.104 289.515 132.968 288.859 132.968C288.203 132.968 287.619 133.104 287.107 133.376C286.595 133.632 286.187 134 285.883 134.48C285.595 134.944 285.451 135.496 285.451 136.136C285.451 136.76 285.595 137.312 285.883 137.792C286.187 138.272 286.595 138.648 287.107 138.92C287.619 139.176 288.203 139.304 288.859 139.304ZM309.58 143.288C308.444 143.288 307.396 143.08 306.436 142.664C305.492 142.232 304.716 141.624 304.108 140.84L306.268 138.248C306.732 138.856 307.22 139.32 307.732 139.64C308.244 139.944 308.796 140.096 309.388 140.096C310.972 140.096 311.764 139.168 311.764 137.312V129.32H305.86V126.2H315.628V137.096C315.628 139.176 315.116 140.728 314.092 141.752C313.068 142.776 311.564 143.288 309.58 143.288ZM324.989 143.288C323.645 143.288 322.357 143.112 321.125 142.76C319.893 142.392 318.901 141.92 318.149 141.344L319.469 138.416C320.189 138.928 321.037 139.352 322.013 139.688C323.005 140.008 324.005 140.168 325.013 140.168C325.781 140.168 326.397 140.096 326.861 139.952C327.341 139.792 327.693 139.576 327.917 139.304C328.141 139.032 328.253 138.72 328.253 138.368C328.253 137.92 328.077 137.568 327.725 137.312C327.373 137.04 326.909 136.824 326.333 136.664C325.757 136.488 325.117 136.328 324.413 136.184C323.725 136.024 323.029 135.832 322.325 135.608C321.637 135.384 321.005 135.096 320.429 134.744C319.853 134.392 319.381 133.928 319.013 133.352C318.661 132.776 318.485 132.04 318.485 131.144C318.485 130.184 318.741 129.312 319.253 128.528C319.781 127.728 320.565 127.096 321.605 126.632C322.661 126.152 323.981 125.912 325.565 125.912C326.621 125.912 327.661 126.04 328.685 126.296C329.709 126.536 330.613 126.904 331.397 127.4L330.197 130.352C329.413 129.904 328.629 129.576 327.845 129.368C327.061 129.144 326.293 129.032 325.541 129.032C324.789 129.032 324.173 129.12 323.693 129.296C323.213 129.472 322.869 129.704 322.661 129.992C322.453 130.264 322.349 130.584 322.349 130.952C322.349 131.384 322.525 131.736 322.877 132.008C323.229 132.264 323.693 132.472 324.269 132.632C324.845 132.792 325.477 132.952 326.165 133.112C326.869 133.272 327.565 133.456 328.253 133.664C328.957 133.872 329.597 134.152 330.173 134.504C330.749 134.856 331.213 135.32 331.565 135.896C331.933 136.472 332.117 137.2 332.117 138.08C332.117 139.024 331.853 139.888 331.325 140.672C330.797 141.456 330.005 142.088 328.949 142.568C327.909 143.048 326.589 143.288 324.989 143.288ZM342.933 143.288C341.605 143.288 340.373 143.072 339.237 142.64C338.117 142.208 337.141 141.6 336.309 140.816C335.493 140.032 334.853 139.112 334.389 138.056C333.941 137 333.717 135.848 333.717 134.6C333.717 133.352 333.941 132.2 334.389 131.144C334.853 130.088 335.501 129.168 336.333 128.384C337.165 127.6 338.141 126.992 339.261 126.56C340.381 126.128 341.597 125.912 342.909 125.912C344.237 125.912 345.453 126.128 346.557 126.56C347.677 126.992 348.645 127.6 349.461 128.384C350.293 129.168 350.941 130.088 351.405 131.144C351.869 132.184 352.101 133.336 352.101 134.6C352.101 135.848 351.869 137.008 351.405 138.08C350.941 139.136 350.293 140.056 349.461 140.84C348.645 141.608 347.677 142.208 346.557 142.64C345.453 143.072 344.245 143.288 342.933 143.288ZM342.909 139.976C343.661 139.976 344.349 139.848 344.973 139.592C345.613 139.336 346.173 138.968 346.653 138.488C347.133 138.008 347.501 137.44 347.757 136.784C348.029 136.128 348.165 135.4 348.165 134.6C348.165 133.8 348.029 133.072 347.757 132.416C347.501 131.76 347.133 131.192 346.653 130.712C346.189 130.232 345.637 129.864 344.997 129.608C344.357 129.352 343.661 129.224 342.909 129.224C342.157 129.224 341.461 129.352 340.821 129.608C340.197 129.864 339.645 130.232 339.165 130.712C338.685 131.192 338.309 131.76 338.037 132.416C337.781 133.072 337.653 133.8 337.653 134.6C337.653 135.384 337.781 136.112 338.037 136.784C338.309 137.44 338.677 138.008 339.141 138.488C339.621 138.968 340.181 139.336 340.821 139.592C341.461 139.848 342.157 139.976 342.909 139.976ZM355.023 143V126.2H358.239L368.151 138.296H366.591V126.2H370.431V143H367.239L357.303 130.904H358.863V143H355.023Z" fill="#0695D0"/>
</svg>
