<svg width="528" height="233" viewBox="0 0 528 233" fill="none" xmlns="http://www.w3.org/2000/svg">
<path d="M145.565 79.1332C165.112 83.2891 179.208 98.6316 181.518 118.086C183.516 134.905 174.174 154.622 161.082 160.874C158.401 155.783 154.712 151.646 148.878 149.36C155.162 144.5 160.069 138.999 158.783 130.583C157.599 122.835 153.027 117.304 146.321 113.251C146.915 110.956 147.528 108.593 148.154 106.178C150.169 107.536 152.141 108.866 153.937 110.077C154.492 109.753 154.696 109.708 154.75 109.592C156.854 105.098 152.879 96.6779 148.131 95.526C145.698 94.9358 143.427 95.4249 142.507 97.8094C141.179 101.253 140.312 104.888 139.407 108.483C139.085 109.763 139.227 111.162 139.148 112.703C138.243 112.744 137.433 112.78 136.577 112.819C136.577 109.878 136.844 107.082 136.527 104.354C135.582 96.214 131.515 89.8669 124.985 85.0768C124.477 84.7036 123.919 84.3823 123.348 84.1127C121.231 83.1118 120.379 83.5358 120.758 85.8426C121.452 90.0748 122.256 94.3294 123.52 98.416C125.112 103.568 127.21 108.56 129.128 113.724C122.668 117.223 117.692 122.319 116.745 130.172C115.783 138.143 120.474 143.68 126.021 149.035C119.843 151.168 115.778 155.479 112.604 160.72C97.7222 151.747 87.1633 130.415 94.7434 108.435C101.982 87.4451 123.897 74.7748 145.565 79.1332Z" fill="#0695D0"/>
<path d="M203.992 129V112.2H211.624C213.448 112.2 215.056 112.552 216.448 113.256C217.84 113.944 218.928 114.912 219.712 116.16C220.496 117.408 220.888 118.888 220.888 120.6C220.888 122.296 220.496 123.776 219.712 125.04C218.928 126.288 217.84 127.264 216.448 127.968C215.056 128.656 213.448 129 211.624 129H203.992ZM207.88 125.808H211.432C212.552 125.808 213.52 125.6 214.336 125.184C215.168 124.752 215.808 124.144 216.256 123.36C216.72 122.576 216.952 121.656 216.952 120.6C216.952 119.528 216.72 118.608 216.256 117.84C215.808 117.056 215.168 116.456 214.336 116.04C213.52 115.608 212.552 115.392 211.432 115.392H207.88V125.808ZM229.964 129.192C228.492 129.192 227.196 128.904 226.076 128.328C224.972 127.752 224.116 126.968 223.508 125.976C222.9 124.968 222.596 123.824 222.596 122.544C222.596 121.248 222.892 120.104 223.484 119.112C224.092 118.104 224.916 117.32 225.956 116.76C226.996 116.184 228.172 115.896 229.484 115.896C230.748 115.896 231.884 116.168 232.892 116.712C233.916 117.24 234.724 118.008 235.316 119.016C235.908 120.008 236.204 121.2 236.204 122.592C236.204 122.736 236.196 122.904 236.18 123.096C236.164 123.272 236.148 123.44 236.132 123.6H225.644V121.416H234.164L232.724 122.064C232.724 121.392 232.588 120.808 232.316 120.312C232.044 119.816 231.668 119.432 231.188 119.16C230.708 118.872 230.148 118.728 229.508 118.728C228.868 118.728 228.3 118.872 227.804 119.16C227.324 119.432 226.948 119.824 226.676 120.336C226.404 120.832 226.268 121.424 226.268 122.112V122.688C226.268 123.392 226.42 124.016 226.724 124.56C227.044 125.088 227.484 125.496 228.044 125.784C228.62 126.056 229.292 126.192 230.06 126.192C230.748 126.192 231.348 126.088 231.86 125.88C232.388 125.672 232.868 125.36 233.3 124.944L235.292 127.104C234.7 127.776 233.956 128.296 233.06 128.664C232.164 129.016 231.132 129.192 229.964 129.192ZM243.041 129.192C241.937 129.192 240.873 129.064 239.849 128.808C238.841 128.536 238.041 128.2 237.449 127.8L238.697 125.112C239.289 125.48 239.985 125.784 240.785 126.024C241.601 126.248 242.401 126.36 243.185 126.36C244.049 126.36 244.657 126.256 245.009 126.048C245.377 125.84 245.561 125.552 245.561 125.184C245.561 124.88 245.417 124.656 245.129 124.512C244.857 124.352 244.489 124.232 244.025 124.152C243.561 124.072 243.049 123.992 242.489 123.912C241.945 123.832 241.393 123.728 240.833 123.6C240.273 123.456 239.761 123.248 239.297 122.976C238.833 122.704 238.457 122.336 238.169 121.872C237.897 121.408 237.761 120.808 237.761 120.072C237.761 119.256 237.993 118.536 238.457 117.912C238.937 117.288 239.625 116.8 240.521 116.448C241.417 116.08 242.489 115.896 243.737 115.896C244.617 115.896 245.513 115.992 246.425 116.184C247.337 116.376 248.097 116.656 248.705 117.024L247.457 119.688C246.833 119.32 246.201 119.072 245.561 118.944C244.937 118.8 244.329 118.728 243.737 118.728C242.905 118.728 242.297 118.84 241.913 119.064C241.529 119.288 241.337 119.576 241.337 119.928C241.337 120.248 241.473 120.488 241.745 120.648C242.033 120.808 242.409 120.936 242.873 121.032C243.337 121.128 243.841 121.216 244.385 121.296C244.945 121.36 245.505 121.464 246.065 121.608C246.625 121.752 247.129 121.96 247.577 122.232C248.041 122.488 248.417 122.848 248.705 123.312C248.993 123.76 249.137 124.352 249.137 125.088C249.137 125.888 248.897 126.6 248.417 127.224C247.937 127.832 247.241 128.312 246.329 128.664C245.433 129.016 244.337 129.192 243.041 129.192ZM257.687 129.192C256.295 129.192 255.055 128.912 253.967 128.352C252.879 127.776 252.023 126.984 251.399 125.976C250.791 124.968 250.487 123.824 250.487 122.544C250.487 121.248 250.791 120.104 251.399 119.112C252.023 118.104 252.879 117.32 253.967 116.76C255.055 116.184 256.295 115.896 257.687 115.896C259.047 115.896 260.231 116.184 261.239 116.76C262.247 117.32 262.991 118.128 263.471 119.184L260.567 120.744C260.231 120.136 259.807 119.688 259.295 119.4C258.799 119.112 258.255 118.968 257.663 118.968C257.023 118.968 256.447 119.112 255.935 119.4C255.423 119.688 255.015 120.096 254.711 120.624C254.423 121.152 254.279 121.792 254.279 122.544C254.279 123.296 254.423 123.936 254.711 124.464C255.015 124.992 255.423 125.4 255.935 125.688C256.447 125.976 257.023 126.12 257.663 126.12C258.255 126.12 258.799 125.984 259.295 125.712C259.807 125.424 260.231 124.968 260.567 124.344L263.471 125.928C262.991 126.968 262.247 127.776 261.239 128.352C260.231 128.912 259.047 129.192 257.687 129.192ZM265.626 129V116.088H269.202V119.736L268.698 118.68C269.082 117.768 269.698 117.08 270.546 116.616C271.394 116.136 272.426 115.896 273.642 115.896V119.352C273.482 119.336 273.338 119.328 273.21 119.328C273.082 119.312 272.946 119.304 272.802 119.304C271.778 119.304 270.946 119.6 270.306 120.192C269.682 120.768 269.37 121.672 269.37 122.904V129H265.626ZM275.892 129V116.088H279.636V129H275.892ZM277.764 114.288C277.076 114.288 276.516 114.088 276.084 113.688C275.652 113.288 275.436 112.792 275.436 112.2C275.436 111.608 275.652 111.112 276.084 110.712C276.516 110.312 277.076 110.112 277.764 110.112C278.452 110.112 279.012 110.304 279.444 110.688C279.876 111.056 280.092 111.536 280.092 112.128C280.092 112.752 279.876 113.272 279.444 113.688C279.028 114.088 278.468 114.288 277.764 114.288ZM290.743 129.192C289.655 129.192 288.703 128.952 287.887 128.472C287.071 127.992 286.431 127.264 285.967 126.288C285.519 125.296 285.295 124.048 285.295 122.544C285.295 121.024 285.511 119.776 285.943 118.8C286.375 117.824 286.999 117.096 287.815 116.616C288.631 116.136 289.607 115.896 290.743 115.896C291.959 115.896 293.047 116.176 294.007 116.736C294.983 117.28 295.751 118.048 296.311 119.04C296.887 120.032 297.175 121.2 297.175 122.544C297.175 123.904 296.887 125.08 296.311 126.072C295.751 127.064 294.983 127.832 294.007 128.376C293.047 128.92 291.959 129.192 290.743 129.192ZM283.111 133.656V116.088H286.687V118.728L286.615 122.568L286.855 126.384V133.656H283.111ZM290.095 126.12C290.719 126.12 291.271 125.976 291.751 125.688C292.247 125.4 292.639 124.992 292.927 124.464C293.231 123.92 293.383 123.28 293.383 122.544C293.383 121.792 293.231 121.152 292.927 120.624C292.639 120.096 292.247 119.688 291.751 119.4C291.271 119.112 290.719 118.968 290.095 118.968C289.471 118.968 288.911 119.112 288.415 119.4C287.919 119.688 287.527 120.096 287.239 120.624C286.951 121.152 286.807 121.792 286.807 122.544C286.807 123.28 286.951 123.92 287.239 124.464C287.527 124.992 287.919 125.4 288.415 125.688C288.911 125.976 289.471 126.12 290.095 126.12ZM304.961 129.192C303.441 129.192 302.257 128.808 301.409 128.04C300.561 127.256 300.137 126.096 300.137 124.56V113.232H303.881V124.512C303.881 125.056 304.025 125.48 304.313 125.784C304.601 126.072 304.993 126.216 305.489 126.216C306.081 126.216 306.585 126.056 307.001 125.736L308.009 128.376C307.625 128.648 307.161 128.856 306.617 129C306.089 129.128 305.537 129.192 304.961 129.192ZM298.145 119.256V116.376H307.097V119.256H298.145ZM310.111 129V116.088H313.855V129H310.111ZM311.983 114.288C311.295 114.288 310.735 114.088 310.303 113.688C309.871 113.288 309.655 112.792 309.655 112.2C309.655 111.608 309.871 111.112 310.303 110.712C310.735 110.312 311.295 110.112 311.983 110.112C312.671 110.112 313.231 110.304 313.663 110.688C314.095 111.056 314.311 111.536 314.311 112.128C314.311 112.752 314.095 113.272 313.663 113.688C313.247 114.088 312.687 114.288 311.983 114.288ZM320.834 129L315.41 116.088H319.274L323.786 127.2H321.866L326.546 116.088H330.146L324.698 129H320.834ZM337.73 129.192C336.258 129.192 334.962 128.904 333.842 128.328C332.738 127.752 331.882 126.968 331.274 125.976C330.666 124.968 330.362 123.824 330.362 122.544C330.362 121.248 330.658 120.104 331.25 119.112C331.858 118.104 332.682 117.32 333.722 116.76C334.762 116.184 335.938 115.896 337.25 115.896C338.514 115.896 339.65 116.168 340.658 116.712C341.682 117.24 342.49 118.008 343.082 119.016C343.674 120.008 343.97 121.2 343.97 122.592C343.97 122.736 343.962 122.904 343.946 123.096C343.93 123.272 343.914 123.44 343.898 123.6H333.41V121.416H341.93L340.49 122.064C340.49 121.392 340.354 120.808 340.082 120.312C339.81 119.816 339.434 119.432 338.954 119.16C338.474 118.872 337.914 118.728 337.274 118.728C336.634 118.728 336.066 118.872 335.57 119.16C335.09 119.432 334.714 119.824 334.442 120.336C334.17 120.832 334.034 121.424 334.034 122.112V122.688C334.034 123.392 334.186 124.016 334.49 124.56C334.81 125.088 335.25 125.496 335.81 125.784C336.386 126.056 337.058 126.192 337.826 126.192C338.514 126.192 339.114 126.088 339.626 125.88C340.154 125.672 340.634 125.36 341.066 124.944L343.058 127.104C342.466 127.776 341.722 128.296 340.826 128.664C339.93 129.016 338.898 129.192 337.73 129.192ZM359.043 129.288C357.699 129.288 356.411 129.112 355.179 128.76C353.947 128.392 352.955 127.92 352.203 127.344L353.523 124.416C354.243 124.928 355.091 125.352 356.067 125.688C357.059 126.008 358.059 126.168 359.067 126.168C359.835 126.168 360.451 126.096 360.915 125.952C361.395 125.792 361.747 125.576 361.971 125.304C362.195 125.032 362.307 124.72 362.307 124.368C362.307 123.92 362.131 123.568 361.779 123.312C361.427 123.04 360.963 122.824 360.387 122.664C359.811 122.488 359.171 122.328 358.467 122.184C357.779 122.024 357.083 121.832 356.379 121.608C355.691 121.384 355.059 121.096 354.483 120.744C353.907 120.392 353.435 119.928 353.067 119.352C352.715 118.776 352.539 118.04 352.539 117.144C352.539 116.184 352.795 115.312 353.307 114.528C353.835 113.728 354.619 113.096 355.659 112.632C356.715 112.152 358.035 111.912 359.619 111.912C360.675 111.912 361.715 112.04 362.739 112.296C363.763 112.536 364.667 112.904 365.451 113.4L364.251 116.352C363.467 115.904 362.683 115.576 361.899 115.368C361.115 115.144 360.347 115.032 359.595 115.032C358.843 115.032 358.227 115.12 357.747 115.296C357.267 115.472 356.923 115.704 356.715 115.992C356.507 116.264 356.403 116.584 356.403 116.952C356.403 117.384 356.579 117.736 356.931 118.008C357.283 118.264 357.747 118.472 358.323 118.632C358.899 118.792 359.531 118.952 360.219 119.112C360.923 119.272 361.619 119.456 362.307 119.664C363.011 119.872 363.651 120.152 364.227 120.504C364.803 120.856 365.267 121.32 365.619 121.896C365.987 122.472 366.171 123.2 366.171 124.08C366.171 125.024 365.907 125.888 365.379 126.672C364.851 127.456 364.059 128.088 363.003 128.568C361.963 129.048 360.643 129.288 359.043 129.288ZM373.844 129.192C372.324 129.192 371.14 128.808 370.292 128.04C369.444 127.256 369.02 126.096 369.02 124.56V113.232H372.764V124.512C372.764 125.056 372.908 125.48 373.196 125.784C373.484 126.072 373.876 126.216 374.372 126.216C374.964 126.216 375.468 126.056 375.884 125.736L376.892 128.376C376.508 128.648 376.044 128.856 375.5 129C374.972 129.128 374.42 129.192 373.844 129.192ZM367.028 119.256V116.376H375.98V119.256H367.028ZM386.914 129V126.48L386.674 125.928V121.416C386.674 120.616 386.426 119.992 385.93 119.544C385.45 119.096 384.706 118.872 383.698 118.872C383.01 118.872 382.33 118.984 381.658 119.208C381.002 119.416 380.442 119.704 379.978 120.072L378.634 117.456C379.338 116.96 380.186 116.576 381.178 116.304C382.17 116.032 383.178 115.896 384.202 115.896C386.17 115.896 387.698 116.36 388.786 117.288C389.874 118.216 390.418 119.664 390.418 121.632V129H386.914ZM382.978 129.192C381.97 129.192 381.106 129.024 380.386 128.688C379.666 128.336 379.114 127.864 378.73 127.272C378.346 126.68 378.154 126.016 378.154 125.28C378.154 124.512 378.338 123.84 378.706 123.264C379.09 122.688 379.69 122.24 380.506 121.92C381.322 121.584 382.386 121.416 383.698 121.416H387.13V123.6H384.106C383.226 123.6 382.618 123.744 382.282 124.032C381.962 124.32 381.802 124.68 381.802 125.112C381.802 125.592 381.986 125.976 382.354 126.264C382.738 126.536 383.258 126.672 383.914 126.672C384.538 126.672 385.098 126.528 385.594 126.24C386.09 125.936 386.45 125.496 386.674 124.92L387.25 126.648C386.978 127.48 386.482 128.112 385.762 128.544C385.042 128.976 384.114 129.192 382.978 129.192ZM399.086 129.192C397.566 129.192 396.382 128.808 395.534 128.04C394.686 127.256 394.262 126.096 394.262 124.56V113.232H398.006V124.512C398.006 125.056 398.15 125.48 398.438 125.784C398.726 126.072 399.118 126.216 399.614 126.216C400.206 126.216 400.71 126.056 401.126 125.736L402.134 128.376C401.75 128.648 401.286 128.856 400.742 129C400.214 129.128 399.662 129.192 399.086 129.192ZM392.27 119.256V116.376H401.222V119.256H392.27ZM404.236 129V116.088H407.98V129H404.236ZM406.108 114.288C405.42 114.288 404.86 114.088 404.428 113.688C403.996 113.288 403.78 112.792 403.78 112.2C403.78 111.608 403.996 111.112 404.428 110.712C404.86 110.312 405.42 110.112 406.108 110.112C406.796 110.112 407.356 110.304 407.788 110.688C408.22 111.056 408.436 111.536 408.436 112.128C408.436 112.752 408.22 113.272 407.788 113.688C407.372 114.088 406.812 114.288 406.108 114.288ZM415.799 129.192C414.695 129.192 413.631 129.064 412.607 128.808C411.599 128.536 410.799 128.2 410.207 127.8L411.455 125.112C412.047 125.48 412.743 125.784 413.543 126.024C414.359 126.248 415.159 126.36 415.943 126.36C416.807 126.36 417.415 126.256 417.767 126.048C418.135 125.84 418.319 125.552 418.319 125.184C418.319 124.88 418.175 124.656 417.887 124.512C417.615 124.352 417.247 124.232 416.783 124.152C416.319 124.072 415.807 123.992 415.247 123.912C414.703 123.832 414.151 123.728 413.591 123.6C413.031 123.456 412.519 123.248 412.055 122.976C411.591 122.704 411.215 122.336 410.927 121.872C410.655 121.408 410.519 120.808 410.519 120.072C410.519 119.256 410.751 118.536 411.215 117.912C411.695 117.288 412.383 116.8 413.279 116.448C414.175 116.08 415.247 115.896 416.495 115.896C417.375 115.896 418.271 115.992 419.183 116.184C420.095 116.376 420.855 116.656 421.463 117.024L420.215 119.688C419.591 119.32 418.959 119.072 418.319 118.944C417.695 118.8 417.087 118.728 416.495 118.728C415.663 118.728 415.055 118.84 414.671 119.064C414.287 119.288 414.095 119.576 414.095 119.928C414.095 120.248 414.231 120.488 414.503 120.648C414.791 120.808 415.167 120.936 415.631 121.032C416.095 121.128 416.599 121.216 417.143 121.296C417.703 121.36 418.263 121.464 418.823 121.608C419.383 121.752 419.887 121.96 420.335 122.232C420.799 122.488 421.175 122.848 421.463 123.312C421.751 123.76 421.895 124.352 421.895 125.088C421.895 125.888 421.655 126.6 421.175 127.224C420.695 127.832 419.999 128.312 419.087 128.664C418.191 129.016 417.095 129.192 415.799 129.192ZM429.485 129.192C427.965 129.192 426.781 128.808 425.933 128.04C425.085 127.256 424.661 126.096 424.661 124.56V113.232H428.405V124.512C428.405 125.056 428.549 125.48 428.837 125.784C429.125 126.072 429.517 126.216 430.013 126.216C430.605 126.216 431.109 126.056 431.525 125.736L432.533 128.376C432.149 128.648 431.685 128.856 431.141 129C430.613 129.128 430.061 129.192 429.485 129.192ZM422.669 119.256V116.376H431.621V119.256H422.669ZM434.634 129V116.088H438.378V129H434.634ZM436.506 114.288C435.818 114.288 435.258 114.088 434.826 113.688C434.394 113.288 434.178 112.792 434.178 112.2C434.178 111.608 434.394 111.112 434.826 110.712C435.258 110.312 435.818 110.112 436.506 110.112C437.194 110.112 437.754 110.304 438.186 110.688C438.618 111.056 438.834 111.536 438.834 112.128C438.834 112.752 438.618 113.272 438.186 113.688C437.77 114.088 437.21 114.288 436.506 114.288ZM448.093 129.192C446.701 129.192 445.461 128.912 444.373 128.352C443.285 127.776 442.429 126.984 441.805 125.976C441.197 124.968 440.893 123.824 440.893 122.544C440.893 121.248 441.197 120.104 441.805 119.112C442.429 118.104 443.285 117.32 444.373 116.76C445.461 116.184 446.701 115.896 448.093 115.896C449.453 115.896 450.637 116.184 451.645 116.76C452.653 117.32 453.397 118.128 453.877 119.184L450.973 120.744C450.637 120.136 450.213 119.688 449.701 119.4C449.205 119.112 448.661 118.968 448.069 118.968C447.429 118.968 446.853 119.112 446.341 119.4C445.829 119.688 445.421 120.096 445.117 120.624C444.829 121.152 444.685 121.792 444.685 122.544C444.685 123.296 444.829 123.936 445.117 124.464C445.421 124.992 445.829 125.4 446.341 125.688C446.853 125.976 447.429 126.12 448.069 126.12C448.661 126.12 449.205 125.984 449.701 125.712C450.213 125.424 450.637 124.968 450.973 124.344L453.877 125.928C453.397 126.968 452.653 127.776 451.645 128.352C450.637 128.912 449.453 129.192 448.093 129.192ZM460.377 129.192C459.273 129.192 458.209 129.064 457.185 128.808C456.177 128.536 455.377 128.2 454.785 127.8L456.033 125.112C456.625 125.48 457.321 125.784 458.121 126.024C458.937 126.248 459.737 126.36 460.521 126.36C461.385 126.36 461.993 126.256 462.345 126.048C462.713 125.84 462.897 125.552 462.897 125.184C462.897 124.88 462.753 124.656 462.465 124.512C462.193 124.352 461.825 124.232 461.361 124.152C460.897 124.072 460.385 123.992 459.825 123.912C459.281 123.832 458.729 123.728 458.169 123.6C457.609 123.456 457.097 123.248 456.633 122.976C456.169 122.704 455.793 122.336 455.505 121.872C455.233 121.408 455.097 120.808 455.097 120.072C455.097 119.256 455.329 118.536 455.793 117.912C456.273 117.288 456.961 116.8 457.857 116.448C458.753 116.08 459.825 115.896 461.073 115.896C461.953 115.896 462.849 115.992 463.761 116.184C464.673 116.376 465.433 116.656 466.041 117.024L464.793 119.688C464.169 119.32 463.537 119.072 462.897 118.944C462.273 118.8 461.665 118.728 461.073 118.728C460.241 118.728 459.633 118.84 459.249 119.064C458.865 119.288 458.673 119.576 458.673 119.928C458.673 120.248 458.809 120.488 459.081 120.648C459.369 120.808 459.745 120.936 460.209 121.032C460.673 121.128 461.177 121.216 461.721 121.296C462.281 121.36 462.841 121.464 463.401 121.608C463.961 121.752 464.465 121.96 464.913 122.232C465.377 122.488 465.753 122.848 466.041 123.312C466.329 123.76 466.473 124.352 466.473 125.088C466.473 125.888 466.233 126.6 465.753 127.224C465.273 127.832 464.577 128.312 463.665 128.664C462.769 129.016 461.673 129.192 460.377 129.192Z" fill="#0695D0"/>
</svg>
