<svg width="528" height="233" viewBox="0 0 528 233" fill="none" xmlns="http://www.w3.org/2000/svg">
<path d="M145.565 79.1332C165.112 83.2891 179.208 98.6316 181.518 118.086C183.516 134.905 174.174 154.622 161.082 160.874C158.401 155.783 154.712 151.646 148.878 149.36C155.162 144.5 160.069 138.999 158.783 130.583C157.599 122.835 153.027 117.304 146.321 113.251C146.915 110.956 147.528 108.593 148.154 106.178C150.169 107.536 152.141 108.866 153.937 110.077C154.492 109.753 154.696 109.708 154.75 109.592C156.854 105.098 152.879 96.6779 148.131 95.526C145.698 94.9358 143.427 95.4249 142.507 97.8094C141.179 101.253 140.312 104.888 139.407 108.483C139.085 109.763 139.227 111.162 139.148 112.703C138.243 112.744 137.433 112.78 136.577 112.819C136.577 109.878 136.844 107.082 136.527 104.354C135.582 96.214 131.515 89.8669 124.985 85.0768C124.477 84.7036 123.919 84.3823 123.348 84.1127C121.231 83.1118 120.379 83.5358 120.758 85.8426C121.452 90.0748 122.256 94.3294 123.52 98.416C125.112 103.568 127.21 108.56 129.128 113.724C122.668 117.223 117.692 122.319 116.745 130.172C115.783 138.143 120.474 143.68 126.021 149.035C119.843 151.168 115.778 155.479 112.604 160.72C97.7222 151.747 87.1633 130.415 94.7434 108.435C101.982 87.4451 123.897 74.7748 145.565 79.1332Z" fill="#0695D0"/>
<path d="M203.992 129V112.2H211.624C213.448 112.2 215.056 112.552 216.448 113.256C217.84 113.944 218.928 114.912 219.712 116.16C220.496 117.408 220.888 118.888 220.888 120.6C220.888 122.296 220.496 123.776 219.712 125.04C218.928 126.288 217.84 127.264 216.448 127.968C215.056 128.656 213.448 129 211.624 129H203.992ZM207.88 125.808H211.432C212.552 125.808 213.52 125.6 214.336 125.184C215.168 124.752 215.808 124.144 216.256 123.36C216.72 122.576 216.952 121.656 216.952 120.6C216.952 119.528 216.72 118.608 216.256 117.84C215.808 117.056 215.168 116.456 214.336 116.04C213.52 115.608 212.552 115.392 211.432 115.392H207.88V125.808ZM231.476 129V126.48L231.236 125.928V121.416C231.236 120.616 230.988 119.992 230.492 119.544C230.012 119.096 229.268 118.872 228.26 118.872C227.572 118.872 226.892 118.984 226.22 119.208C225.564 119.416 225.004 119.704 224.54 120.072L223.196 117.456C223.9 116.96 224.748 116.576 225.74 116.304C226.732 116.032 227.74 115.896 228.764 115.896C230.732 115.896 232.26 116.36 233.348 117.288C234.436 118.216 234.98 119.664 234.98 121.632V129H231.476ZM227.54 129.192C226.532 129.192 225.668 129.024 224.948 128.688C224.228 128.336 223.676 127.864 223.292 127.272C222.908 126.68 222.716 126.016 222.716 125.28C222.716 124.512 222.9 123.84 223.268 123.264C223.652 122.688 224.252 122.24 225.068 121.92C225.884 121.584 226.948 121.416 228.26 121.416H231.692V123.6H228.668C227.788 123.6 227.18 123.744 226.844 124.032C226.524 124.32 226.364 124.68 226.364 125.112C226.364 125.592 226.548 125.976 226.916 126.264C227.3 126.536 227.82 126.672 228.476 126.672C229.1 126.672 229.66 126.528 230.156 126.24C230.652 125.936 231.012 125.496 231.236 124.92L231.812 126.648C231.54 127.48 231.044 128.112 230.324 128.544C229.604 128.976 228.676 129.192 227.54 129.192ZM243.649 129.192C242.129 129.192 240.945 128.808 240.097 128.04C239.249 127.256 238.825 126.096 238.825 124.56V113.232H242.569V124.512C242.569 125.056 242.713 125.48 243.001 125.784C243.289 126.072 243.681 126.216 244.177 126.216C244.769 126.216 245.273 126.056 245.689 125.736L246.697 128.376C246.313 128.648 245.849 128.856 245.305 129C244.777 129.128 244.225 129.192 243.649 129.192ZM236.833 119.256V116.376H245.785V119.256H236.833ZM256.718 129V126.48L256.478 125.928V121.416C256.478 120.616 256.23 119.992 255.734 119.544C255.254 119.096 254.51 118.872 253.502 118.872C252.814 118.872 252.134 118.984 251.462 119.208C250.806 119.416 250.246 119.704 249.782 120.072L248.438 117.456C249.142 116.96 249.99 116.576 250.982 116.304C251.974 116.032 252.982 115.896 254.006 115.896C255.974 115.896 257.502 116.36 258.59 117.288C259.678 118.216 260.222 119.664 260.222 121.632V129H256.718ZM252.782 129.192C251.774 129.192 250.91 129.024 250.19 128.688C249.47 128.336 248.918 127.864 248.534 127.272C248.15 126.68 247.958 126.016 247.958 125.28C247.958 124.512 248.142 123.84 248.51 123.264C248.894 122.688 249.494 122.24 250.31 121.92C251.126 121.584 252.19 121.416 253.502 121.416H256.934V123.6H253.91C253.03 123.6 252.422 123.744 252.086 124.032C251.766 124.32 251.606 124.68 251.606 125.112C251.606 125.592 251.79 125.976 252.158 126.264C252.542 126.536 253.062 126.672 253.718 126.672C254.342 126.672 254.902 126.528 255.398 126.24C255.894 125.936 256.254 125.496 256.478 124.92L257.054 126.648C256.782 127.48 256.286 128.112 255.566 128.544C254.846 128.976 253.918 129.192 252.782 129.192ZM274.152 129V115.368H268.776V112.2H283.416V115.368H278.04V129H274.152ZM284.962 129V116.088H288.538V119.736L288.034 118.68C288.418 117.768 289.034 117.08 289.882 116.616C290.73 116.136 291.762 115.896 292.978 115.896V119.352C292.818 119.336 292.674 119.328 292.546 119.328C292.418 119.312 292.282 119.304 292.138 119.304C291.114 119.304 290.282 119.6 289.642 120.192C289.018 120.768 288.706 121.672 288.706 122.904V129H284.962ZM302.281 129V126.48L302.041 125.928V121.416C302.041 120.616 301.793 119.992 301.297 119.544C300.817 119.096 300.073 118.872 299.065 118.872C298.377 118.872 297.697 118.984 297.025 119.208C296.369 119.416 295.809 119.704 295.345 120.072L294.001 117.456C294.705 116.96 295.553 116.576 296.545 116.304C297.537 116.032 298.545 115.896 299.569 115.896C301.537 115.896 303.065 116.36 304.153 117.288C305.241 118.216 305.785 119.664 305.785 121.632V129H302.281ZM298.345 129.192C297.337 129.192 296.473 129.024 295.753 128.688C295.033 128.336 294.481 127.864 294.097 127.272C293.713 126.68 293.521 126.016 293.521 125.28C293.521 124.512 293.705 123.84 294.073 123.264C294.457 122.688 295.057 122.24 295.873 121.92C296.689 121.584 297.753 121.416 299.065 121.416H302.497V123.6H299.473C298.593 123.6 297.985 123.744 297.649 124.032C297.329 124.32 297.169 124.68 297.169 125.112C297.169 125.592 297.353 125.976 297.721 126.264C298.105 126.536 298.625 126.672 299.281 126.672C299.905 126.672 300.465 126.528 300.961 126.24C301.457 125.936 301.817 125.496 302.041 124.92L302.617 126.648C302.345 127.48 301.849 128.112 301.129 128.544C300.409 128.976 299.481 129.192 298.345 129.192ZM317.021 115.896C318.045 115.896 318.957 116.104 319.757 116.52C320.573 116.92 321.213 117.544 321.677 118.392C322.141 119.224 322.373 120.296 322.373 121.608V129H318.629V122.184C318.629 121.144 318.397 120.376 317.933 119.88C317.485 119.384 316.845 119.136 316.013 119.136C315.421 119.136 314.885 119.264 314.405 119.52C313.941 119.76 313.573 120.136 313.301 120.648C313.045 121.16 312.917 121.816 312.917 122.616V129H309.173V116.088H312.749V119.664L312.077 118.584C312.541 117.72 313.205 117.056 314.069 116.592C314.933 116.128 315.917 115.896 317.021 115.896ZM330.111 129.192C329.007 129.192 327.943 129.064 326.919 128.808C325.911 128.536 325.111 128.2 324.519 127.8L325.767 125.112C326.359 125.48 327.055 125.784 327.855 126.024C328.671 126.248 329.471 126.36 330.255 126.36C331.119 126.36 331.727 126.256 332.079 126.048C332.447 125.84 332.631 125.552 332.631 125.184C332.631 124.88 332.487 124.656 332.199 124.512C331.927 124.352 331.559 124.232 331.095 124.152C330.631 124.072 330.119 123.992 329.559 123.912C329.015 123.832 328.463 123.728 327.903 123.6C327.343 123.456 326.831 123.248 326.367 122.976C325.903 122.704 325.527 122.336 325.239 121.872C324.967 121.408 324.831 120.808 324.831 120.072C324.831 119.256 325.063 118.536 325.527 117.912C326.007 117.288 326.695 116.8 327.591 116.448C328.487 116.08 329.559 115.896 330.807 115.896C331.687 115.896 332.583 115.992 333.495 116.184C334.407 116.376 335.167 116.656 335.775 117.024L334.527 119.688C333.903 119.32 333.271 119.072 332.631 118.944C332.007 118.8 331.399 118.728 330.807 118.728C329.975 118.728 329.367 118.84 328.983 119.064C328.599 119.288 328.407 119.576 328.407 119.928C328.407 120.248 328.543 120.488 328.815 120.648C329.103 120.808 329.479 120.936 329.943 121.032C330.407 121.128 330.911 121.216 331.455 121.296C332.015 121.36 332.575 121.464 333.135 121.608C333.695 121.752 334.199 121.96 334.647 122.232C335.111 122.488 335.487 122.848 335.775 123.312C336.063 123.76 336.207 124.352 336.207 125.088C336.207 125.888 335.967 126.6 335.487 127.224C335.007 127.832 334.311 128.312 333.399 128.664C332.503 129.016 331.407 129.192 330.111 129.192ZM338.973 129V115.8C338.973 114.344 339.405 113.184 340.269 112.32C341.133 111.44 342.365 111 343.965 111C344.509 111 345.029 111.056 345.525 111.168C346.037 111.28 346.469 111.456 346.821 111.696L345.837 114.408C345.629 114.264 345.397 114.152 345.141 114.072C344.885 113.992 344.613 113.952 344.325 113.952C343.781 113.952 343.357 114.112 343.053 114.432C342.765 114.736 342.621 115.2 342.621 115.824V117.024L342.717 118.632V129H338.973ZM336.981 119.256V116.376H345.933V119.256H336.981ZM353.778 129.192C352.402 129.192 351.178 128.904 350.106 128.328C349.05 127.752 348.21 126.968 347.586 125.976C346.978 124.968 346.674 123.824 346.674 122.544C346.674 121.248 346.978 120.104 347.586 119.112C348.21 118.104 349.05 117.32 350.106 116.76C351.178 116.184 352.402 115.896 353.778 115.896C355.138 115.896 356.354 116.184 357.426 116.76C358.498 117.32 359.338 118.096 359.946 119.088C360.554 120.08 360.858 121.232 360.858 122.544C360.858 123.824 360.554 124.968 359.946 125.976C359.338 126.968 358.498 127.752 357.426 128.328C356.354 128.904 355.138 129.192 353.778 129.192ZM353.778 126.12C354.402 126.12 354.962 125.976 355.458 125.688C355.954 125.4 356.346 124.992 356.634 124.464C356.922 123.92 357.066 123.28 357.066 122.544C357.066 121.792 356.922 121.152 356.634 120.624C356.346 120.096 355.954 119.688 355.458 119.4C354.962 119.112 354.402 118.968 353.778 118.968C353.154 118.968 352.594 119.112 352.098 119.4C351.602 119.688 351.202 120.096 350.898 120.624C350.61 121.152 350.466 121.792 350.466 122.544C350.466 123.28 350.61 123.92 350.898 124.464C351.202 124.992 351.602 125.4 352.098 125.688C352.594 125.976 353.154 126.12 353.778 126.12ZM363.361 129V116.088H366.937V119.736L366.433 118.68C366.817 117.768 367.433 117.08 368.281 116.616C369.129 116.136 370.161 115.896 371.377 115.896V119.352C371.217 119.336 371.073 119.328 370.945 119.328C370.817 119.312 370.681 119.304 370.537 119.304C369.513 119.304 368.681 119.6 368.041 120.192C367.417 120.768 367.105 121.672 367.105 122.904V129H363.361ZM390.162 115.896C391.186 115.896 392.09 116.104 392.874 116.52C393.674 116.92 394.298 117.544 394.746 118.392C395.21 119.224 395.442 120.296 395.442 121.608V129H391.698V122.184C391.698 121.144 391.482 120.376 391.05 119.88C390.618 119.384 390.01 119.136 389.226 119.136C388.682 119.136 388.194 119.264 387.762 119.52C387.33 119.76 386.994 120.128 386.754 120.624C386.514 121.12 386.394 121.752 386.394 122.52V129H382.65V122.184C382.65 121.144 382.434 120.376 382.002 119.88C381.586 119.384 380.986 119.136 380.202 119.136C379.658 119.136 379.17 119.264 378.738 119.52C378.306 119.76 377.97 120.128 377.73 120.624C377.49 121.12 377.37 121.752 377.37 122.52V129H373.626V116.088H377.202V119.616L376.53 118.584C376.978 117.704 377.61 117.04 378.426 116.592C379.258 116.128 380.202 115.896 381.258 115.896C382.442 115.896 383.474 116.2 384.354 116.808C385.25 117.4 385.842 118.312 386.13 119.544L384.81 119.184C385.242 118.176 385.93 117.376 386.874 116.784C387.834 116.192 388.93 115.896 390.162 115.896ZM406.718 129V126.48L406.478 125.928V121.416C406.478 120.616 406.23 119.992 405.734 119.544C405.254 119.096 404.51 118.872 403.502 118.872C402.814 118.872 402.134 118.984 401.462 119.208C400.806 119.416 400.246 119.704 399.782 120.072L398.438 117.456C399.142 116.96 399.99 116.576 400.982 116.304C401.974 116.032 402.982 115.896 404.006 115.896C405.974 115.896 407.502 116.36 408.59 117.288C409.678 118.216 410.222 119.664 410.222 121.632V129H406.718ZM402.782 129.192C401.774 129.192 400.91 129.024 400.19 128.688C399.47 128.336 398.918 127.864 398.534 127.272C398.15 126.68 397.958 126.016 397.958 125.28C397.958 124.512 398.142 123.84 398.51 123.264C398.894 122.688 399.494 122.24 400.31 121.92C401.126 121.584 402.19 121.416 403.502 121.416H406.934V123.6H403.91C403.03 123.6 402.422 123.744 402.086 124.032C401.766 124.32 401.606 124.68 401.606 125.112C401.606 125.592 401.79 125.976 402.158 126.264C402.542 126.536 403.062 126.672 403.718 126.672C404.342 126.672 404.902 126.528 405.398 126.24C405.894 125.936 406.254 125.496 406.478 124.92L407.054 126.648C406.782 127.48 406.286 128.112 405.566 128.544C404.846 128.976 403.918 129.192 402.782 129.192ZM418.891 129.192C417.371 129.192 416.187 128.808 415.339 128.04C414.491 127.256 414.067 126.096 414.067 124.56V113.232H417.811V124.512C417.811 125.056 417.955 125.48 418.243 125.784C418.531 126.072 418.923 126.216 419.419 126.216C420.011 126.216 420.515 126.056 420.931 125.736L421.939 128.376C421.555 128.648 421.091 128.856 420.547 129C420.019 129.128 419.467 129.192 418.891 129.192ZM412.075 119.256V116.376H421.027V119.256H412.075ZM424.041 129V116.088H427.785V129H424.041ZM425.913 114.288C425.225 114.288 424.665 114.088 424.233 113.688C423.801 113.288 423.585 112.792 423.585 112.2C423.585 111.608 423.801 111.112 424.233 110.712C424.665 110.312 425.225 110.112 425.913 110.112C426.601 110.112 427.161 110.304 427.593 110.688C428.025 111.056 428.241 111.536 428.241 112.128C428.241 112.752 428.025 113.272 427.593 113.688C427.177 114.088 426.617 114.288 425.913 114.288ZM437.403 129.192C436.027 129.192 434.803 128.904 433.731 128.328C432.675 127.752 431.835 126.968 431.211 125.976C430.603 124.968 430.299 123.824 430.299 122.544C430.299 121.248 430.603 120.104 431.211 119.112C431.835 118.104 432.675 117.32 433.731 116.76C434.803 116.184 436.027 115.896 437.403 115.896C438.763 115.896 439.979 116.184 441.051 116.76C442.123 117.32 442.963 118.096 443.571 119.088C444.179 120.08 444.483 121.232 444.483 122.544C444.483 123.824 444.179 124.968 443.571 125.976C442.963 126.968 442.123 127.752 441.051 128.328C439.979 128.904 438.763 129.192 437.403 129.192ZM437.403 126.12C438.027 126.12 438.587 125.976 439.083 125.688C439.579 125.4 439.971 124.992 440.259 124.464C440.547 123.92 440.691 123.28 440.691 122.544C440.691 121.792 440.547 121.152 440.259 120.624C439.971 120.096 439.579 119.688 439.083 119.4C438.587 119.112 438.027 118.968 437.403 118.968C436.779 118.968 436.219 119.112 435.723 119.4C435.227 119.688 434.827 120.096 434.523 120.624C434.235 121.152 434.091 121.792 434.091 122.544C434.091 123.28 434.235 123.92 434.523 124.464C434.827 124.992 435.227 125.4 435.723 125.688C436.219 125.976 436.779 126.12 437.403 126.12ZM454.834 115.896C455.858 115.896 456.77 116.104 457.57 116.52C458.386 116.92 459.026 117.544 459.49 118.392C459.954 119.224 460.186 120.296 460.186 121.608V129H456.442V122.184C456.442 121.144 456.21 120.376 455.746 119.88C455.298 119.384 454.658 119.136 453.826 119.136C453.234 119.136 452.698 119.264 452.218 119.52C451.754 119.76 451.386 120.136 451.114 120.648C450.858 121.16 450.73 121.816 450.73 122.616V129H446.986V116.088H450.562V119.664L449.89 118.584C450.354 117.72 451.018 117.056 451.882 116.592C452.746 116.128 453.73 115.896 454.834 115.896ZM467.924 129.192C466.82 129.192 465.756 129.064 464.732 128.808C463.724 128.536 462.924 128.2 462.332 127.8L463.58 125.112C464.172 125.48 464.868 125.784 465.668 126.024C466.484 126.248 467.284 126.36 468.068 126.36C468.932 126.36 469.54 126.256 469.892 126.048C470.26 125.84 470.444 125.552 470.444 125.184C470.444 124.88 470.3 124.656 470.012 124.512C469.74 124.352 469.372 124.232 468.908 124.152C468.444 124.072 467.932 123.992 467.372 123.912C466.828 123.832 466.276 123.728 465.716 123.6C465.156 123.456 464.644 123.248 464.18 122.976C463.716 122.704 463.34 122.336 463.052 121.872C462.78 121.408 462.644 120.808 462.644 120.072C462.644 119.256 462.876 118.536 463.34 117.912C463.82 117.288 464.508 116.8 465.404 116.448C466.3 116.08 467.372 115.896 468.62 115.896C469.5 115.896 470.396 115.992 471.308 116.184C472.22 116.376 472.98 116.656 473.588 117.024L472.34 119.688C471.716 119.32 471.084 119.072 470.444 118.944C469.82 118.8 469.212 118.728 468.62 118.728C467.788 118.728 467.18 118.84 466.796 119.064C466.412 119.288 466.22 119.576 466.22 119.928C466.22 120.248 466.356 120.488 466.628 120.648C466.916 120.808 467.292 120.936 467.756 121.032C468.22 121.128 468.724 121.216 469.268 121.296C469.828 121.36 470.388 121.464 470.948 121.608C471.508 121.752 472.012 121.96 472.46 122.232C472.924 122.488 473.3 122.848 473.588 123.312C473.876 123.76 474.02 124.352 474.02 125.088C474.02 125.888 473.78 126.6 473.3 127.224C472.82 127.832 472.124 128.312 471.212 128.664C470.316 129.016 469.22 129.192 467.924 129.192Z" fill="#0695D0"/>
</svg>
