<svg width="528" height="233" viewBox="0 0 528 233" fill="none" xmlns="http://www.w3.org/2000/svg">
<path d="M145.565 79.1332C165.112 83.2891 179.208 98.6316 181.518 118.086C183.516 134.905 174.174 154.622 161.082 160.874C158.401 155.783 154.712 151.646 148.878 149.36C155.162 144.5 160.069 138.999 158.783 130.583C157.599 122.835 153.027 117.304 146.321 113.251C146.915 110.956 147.528 108.593 148.154 106.178C150.169 107.536 152.141 108.866 153.937 110.077C154.492 109.753 154.696 109.708 154.75 109.592C156.854 105.098 152.879 96.6779 148.131 95.526C145.698 94.9358 143.427 95.4249 142.507 97.8094C141.179 101.253 140.312 104.888 139.407 108.483C139.085 109.763 139.227 111.162 139.148 112.703C138.243 112.744 137.433 112.78 136.577 112.819C136.577 109.878 136.844 107.082 136.527 104.354C135.582 96.214 131.515 89.8669 124.985 85.0768C124.477 84.7036 123.919 84.3823 123.348 84.1127C121.231 83.1118 120.379 83.5358 120.758 85.8426C121.452 90.0748 122.256 94.3294 123.52 98.416C125.112 103.568 127.21 108.56 129.128 113.724C122.668 117.223 117.692 122.319 116.745 130.172C115.783 138.143 120.474 143.68 126.021 149.035C119.843 151.168 115.778 155.479 112.604 160.72C97.7222 151.747 87.1633 130.415 94.7434 108.435C101.982 87.4451 123.897 74.7748 145.565 79.1332Z" fill="#0695D0"/>
<path d="M212.104 129.288C210.776 129.288 209.552 129.08 208.432 128.664C207.328 128.232 206.36 127.624 205.528 126.84C204.712 126.056 204.072 125.136 203.608 124.08C203.16 123.024 202.936 121.864 202.936 120.6C202.936 119.336 203.16 118.176 203.608 117.12C204.072 116.064 204.72 115.144 205.552 114.36C206.384 113.576 207.36 112.976 208.48 112.56C209.6 112.128 210.832 111.912 212.176 111.912C213.664 111.912 215 112.16 216.184 112.656C217.384 113.152 218.392 113.872 219.208 114.816L216.712 117.12C216.104 116.48 215.44 116.008 214.72 115.704C214 115.384 213.216 115.224 212.368 115.224C211.552 115.224 210.808 115.352 210.136 115.608C209.464 115.864 208.88 116.232 208.384 116.712C207.904 117.192 207.528 117.76 207.256 118.416C207 119.072 206.872 119.8 206.872 120.6C206.872 121.384 207 122.104 207.256 122.76C207.528 123.416 207.904 123.992 208.384 124.488C208.88 124.968 209.456 125.336 210.112 125.592C210.784 125.848 211.52 125.976 212.32 125.976C213.088 125.976 213.832 125.856 214.552 125.616C215.288 125.36 216 124.936 216.688 124.344L218.896 127.152C217.984 127.84 216.92 128.368 215.704 128.736C214.504 129.104 213.304 129.288 212.104 129.288ZM215.344 126.648V120.336H218.896V127.152L215.344 126.648ZM230.164 129V126.48L229.924 125.928V121.416C229.924 120.616 229.676 119.992 229.18 119.544C228.7 119.096 227.956 118.872 226.948 118.872C226.26 118.872 225.58 118.984 224.908 119.208C224.252 119.416 223.692 119.704 223.228 120.072L221.884 117.456C222.588 116.96 223.436 116.576 224.428 116.304C225.42 116.032 226.428 115.896 227.452 115.896C229.42 115.896 230.948 116.36 232.036 117.288C233.124 118.216 233.668 119.664 233.668 121.632V129H230.164ZM226.228 129.192C225.22 129.192 224.356 129.024 223.636 128.688C222.916 128.336 222.364 127.864 221.98 127.272C221.596 126.68 221.404 126.016 221.404 125.28C221.404 124.512 221.588 123.84 221.956 123.264C222.34 122.688 222.94 122.24 223.756 121.92C224.572 121.584 225.636 121.416 226.948 121.416H230.38V123.6H227.356C226.476 123.6 225.868 123.744 225.532 124.032C225.212 124.32 225.052 124.68 225.052 125.112C225.052 125.592 225.236 125.976 225.604 126.264C225.988 126.536 226.508 126.672 227.164 126.672C227.788 126.672 228.348 126.528 228.844 126.24C229.34 125.936 229.7 125.496 229.924 124.92L230.5 126.648C230.228 127.48 229.732 128.112 229.012 128.544C228.292 128.976 227.364 129.192 226.228 129.192ZM253.592 115.896C254.616 115.896 255.52 116.104 256.304 116.52C257.104 116.92 257.728 117.544 258.176 118.392C258.64 119.224 258.872 120.296 258.872 121.608V129H255.128V122.184C255.128 121.144 254.912 120.376 254.48 119.88C254.048 119.384 253.44 119.136 252.656 119.136C252.112 119.136 251.624 119.264 251.192 119.52C250.76 119.76 250.424 120.128 250.184 120.624C249.944 121.12 249.824 121.752 249.824 122.52V129H246.08V122.184C246.08 121.144 245.864 120.376 245.432 119.88C245.016 119.384 244.416 119.136 243.632 119.136C243.088 119.136 242.6 119.264 242.168 119.52C241.736 119.76 241.4 120.128 241.16 120.624C240.92 121.12 240.8 121.752 240.8 122.52V129H237.056V116.088H240.632V119.616L239.96 118.584C240.408 117.704 241.04 117.04 241.856 116.592C242.688 116.128 243.632 115.896 244.688 115.896C245.872 115.896 246.904 116.2 247.784 116.808C248.68 117.4 249.272 118.312 249.56 119.544L248.24 119.184C248.672 118.176 249.36 117.376 250.304 116.784C251.264 116.192 252.36 115.896 253.592 115.896ZM268.73 129.192C267.258 129.192 265.962 128.904 264.842 128.328C263.738 127.752 262.882 126.968 262.274 125.976C261.666 124.968 261.362 123.824 261.362 122.544C261.362 121.248 261.658 120.104 262.25 119.112C262.858 118.104 263.682 117.32 264.722 116.76C265.762 116.184 266.938 115.896 268.25 115.896C269.514 115.896 270.65 116.168 271.658 116.712C272.682 117.24 273.49 118.008 274.082 119.016C274.674 120.008 274.97 121.2 274.97 122.592C274.97 122.736 274.962 122.904 274.946 123.096C274.93 123.272 274.914 123.44 274.898 123.6H264.41V121.416H272.93L271.49 122.064C271.49 121.392 271.354 120.808 271.082 120.312C270.81 119.816 270.434 119.432 269.954 119.16C269.474 118.872 268.914 118.728 268.274 118.728C267.634 118.728 267.066 118.872 266.57 119.16C266.09 119.432 265.714 119.824 265.442 120.336C265.17 120.832 265.034 121.424 265.034 122.112V122.688C265.034 123.392 265.186 124.016 265.49 124.56C265.81 125.088 266.25 125.496 266.81 125.784C267.386 126.056 268.058 126.192 268.826 126.192C269.514 126.192 270.114 126.088 270.626 125.88C271.154 125.672 271.634 125.36 272.066 124.944L274.058 127.104C273.466 127.776 272.722 128.296 271.826 128.664C270.93 129.016 269.898 129.192 268.73 129.192ZM284.523 129V112.2H291.795C293.299 112.2 294.595 112.448 295.683 112.944C296.771 113.424 297.611 114.12 298.203 115.032C298.795 115.944 299.091 117.032 299.091 118.296C299.091 119.544 298.795 120.624 298.203 121.536C297.611 122.448 296.771 123.152 295.683 123.648C294.595 124.128 293.299 124.368 291.795 124.368H286.683L288.411 122.616V129H284.523ZM288.411 123.048L286.683 121.2H291.579C292.779 121.2 293.675 120.944 294.267 120.432C294.859 119.92 295.155 119.208 295.155 118.296C295.155 117.368 294.859 116.648 294.267 116.136C293.675 115.624 292.779 115.368 291.579 115.368H286.683L288.411 113.52V123.048ZM309.685 115.896C310.709 115.896 311.621 116.104 312.421 116.52C313.237 116.92 313.877 117.544 314.341 118.392C314.805 119.224 315.037 120.296 315.037 121.608V129H311.293V122.184C311.293 121.144 311.061 120.376 310.597 119.88C310.149 119.384 309.509 119.136 308.677 119.136C308.085 119.136 307.549 119.264 307.069 119.52C306.605 119.76 306.237 120.136 305.965 120.648C305.709 121.16 305.581 121.816 305.581 122.616V129H301.837V111.192H305.581V119.664L304.741 118.584C305.205 117.72 305.869 117.056 306.733 116.592C307.597 116.128 308.581 115.896 309.685 115.896ZM319.829 133.848C319.157 133.848 318.493 133.744 317.837 133.536C317.181 133.328 316.645 133.04 316.229 132.672L317.597 130.008C317.885 130.264 318.213 130.464 318.581 130.608C318.965 130.752 319.341 130.824 319.709 130.824C320.237 130.824 320.653 130.696 320.957 130.44C321.277 130.2 321.565 129.792 321.821 129.216L322.493 127.632L322.781 127.224L327.413 116.088H331.013L325.181 129.792C324.765 130.832 324.285 131.648 323.741 132.24C323.213 132.832 322.621 133.248 321.965 133.488C321.325 133.728 320.613 133.848 319.829 133.848ZM322.037 129.504L316.277 116.088H320.141L324.605 126.888L322.037 129.504ZM336.697 129.192C335.593 129.192 334.529 129.064 333.505 128.808C332.497 128.536 331.697 128.2 331.105 127.8L332.353 125.112C332.945 125.48 333.641 125.784 334.441 126.024C335.257 126.248 336.057 126.36 336.841 126.36C337.705 126.36 338.313 126.256 338.665 126.048C339.033 125.84 339.217 125.552 339.217 125.184C339.217 124.88 339.073 124.656 338.785 124.512C338.513 124.352 338.145 124.232 337.681 124.152C337.217 124.072 336.705 123.992 336.145 123.912C335.601 123.832 335.049 123.728 334.489 123.6C333.929 123.456 333.417 123.248 332.953 122.976C332.489 122.704 332.113 122.336 331.825 121.872C331.553 121.408 331.417 120.808 331.417 120.072C331.417 119.256 331.649 118.536 332.113 117.912C332.593 117.288 333.281 116.8 334.177 116.448C335.073 116.08 336.145 115.896 337.393 115.896C338.273 115.896 339.169 115.992 340.081 116.184C340.993 116.376 341.753 116.656 342.361 117.024L341.113 119.688C340.489 119.32 339.857 119.072 339.217 118.944C338.593 118.8 337.985 118.728 337.393 118.728C336.561 118.728 335.953 118.84 335.569 119.064C335.185 119.288 334.993 119.576 334.993 119.928C334.993 120.248 335.129 120.488 335.401 120.648C335.689 120.808 336.065 120.936 336.529 121.032C336.993 121.128 337.497 121.216 338.041 121.296C338.601 121.36 339.161 121.464 339.721 121.608C340.281 121.752 340.785 121.96 341.233 122.232C341.697 122.488 342.073 122.848 342.361 123.312C342.649 123.76 342.793 124.352 342.793 125.088C342.793 125.888 342.553 126.6 342.073 127.224C341.593 127.832 340.897 128.312 339.985 128.664C339.089 129.016 337.993 129.192 336.697 129.192ZM345.103 129V116.088H348.847V129H345.103ZM346.975 114.288C346.287 114.288 345.727 114.088 345.295 113.688C344.863 113.288 344.647 112.792 344.647 112.2C344.647 111.608 344.863 111.112 345.295 110.712C345.727 110.312 346.287 110.112 346.975 110.112C347.663 110.112 348.223 110.304 348.655 110.688C349.087 111.056 349.303 111.536 349.303 112.128C349.303 112.752 349.087 113.272 348.655 113.688C348.239 114.088 347.679 114.288 346.975 114.288ZM358.562 129.192C357.17 129.192 355.93 128.912 354.842 128.352C353.754 127.776 352.898 126.984 352.274 125.976C351.666 124.968 351.362 123.824 351.362 122.544C351.362 121.248 351.666 120.104 352.274 119.112C352.898 118.104 353.754 117.32 354.842 116.76C355.93 116.184 357.17 115.896 358.562 115.896C359.922 115.896 361.106 116.184 362.114 116.76C363.122 117.32 363.866 118.128 364.346 119.184L361.442 120.744C361.106 120.136 360.682 119.688 360.17 119.4C359.674 119.112 359.13 118.968 358.538 118.968C357.898 118.968 357.322 119.112 356.81 119.4C356.298 119.688 355.89 120.096 355.586 120.624C355.298 121.152 355.154 121.792 355.154 122.544C355.154 123.296 355.298 123.936 355.586 124.464C355.89 124.992 356.298 125.4 356.81 125.688C357.322 125.976 357.898 126.12 358.538 126.12C359.13 126.12 359.674 125.984 360.17 125.712C360.682 125.424 361.106 124.968 361.442 124.344L364.346 125.928C363.866 126.968 363.122 127.776 362.114 128.352C361.106 128.912 359.922 129.192 358.562 129.192ZM370.845 129.192C369.741 129.192 368.677 129.064 367.653 128.808C366.645 128.536 365.845 128.2 365.253 127.8L366.501 125.112C367.093 125.48 367.789 125.784 368.589 126.024C369.405 126.248 370.205 126.36 370.989 126.36C371.853 126.36 372.461 126.256 372.813 126.048C373.181 125.84 373.365 125.552 373.365 125.184C373.365 124.88 373.221 124.656 372.933 124.512C372.661 124.352 372.293 124.232 371.829 124.152C371.365 124.072 370.853 123.992 370.293 123.912C369.749 123.832 369.197 123.728 368.637 123.6C368.077 123.456 367.565 123.248 367.101 122.976C366.637 122.704 366.261 122.336 365.973 121.872C365.701 121.408 365.565 120.808 365.565 120.072C365.565 119.256 365.797 118.536 366.261 117.912C366.741 117.288 367.429 116.8 368.325 116.448C369.221 116.08 370.293 115.896 371.541 115.896C372.421 115.896 373.317 115.992 374.229 116.184C375.141 116.376 375.901 116.656 376.509 117.024L375.261 119.688C374.637 119.32 374.005 119.072 373.365 118.944C372.741 118.8 372.133 118.728 371.541 118.728C370.709 118.728 370.101 118.84 369.717 119.064C369.333 119.288 369.141 119.576 369.141 119.928C369.141 120.248 369.277 120.488 369.549 120.648C369.837 120.808 370.213 120.936 370.677 121.032C371.141 121.128 371.645 121.216 372.189 121.296C372.749 121.36 373.309 121.464 373.869 121.608C374.429 121.752 374.933 121.96 375.381 122.232C375.845 122.488 376.221 122.848 376.509 123.312C376.797 123.76 376.941 124.352 376.941 125.088C376.941 125.888 376.701 126.6 376.221 127.224C375.741 127.832 375.045 128.312 374.133 128.664C373.237 129.016 372.141 129.192 370.845 129.192Z" fill="#0695D0"/>
</svg>
