<svg width="389" height="485" viewBox="0 0 389 485" fill="none" xmlns="http://www.w3.org/2000/svg">
<path d="M229.098 434.5C202.046 441.221 176.003 430.847 153.028 421.692C144.913 418.461 137.247 415.404 129.739 413.101C127.907 412.537 125.988 412.028 123.955 411.491C118.127 409.946 111.529 408.201 105.311 404.591C96.7296 399.61 90.8151 391.447 87.2209 379.642C86.7926 378.243 86.4077 376.867 86.0282 375.533C84.2013 369.062 82.9328 364.959 79.9945 362.314C77.62 360.173 74.5029 358.297 71.196 356.313C67.6451 354.178 63.975 351.972 60.4025 349.023C48.0531 338.828 39.2383 324.009 33.4539 303.732C29.1549 288.653 26.7371 272.62 26.2655 256.067C25.3818 224.993 51.837 171.75 52.1027 171.295C56.3257 164.221 61.3674 155.907 66.6856 147.89C92.9998 108.203 121.526 84.9995 153.885 76.9613C154.194 76.8854 154.503 76.8096 154.812 76.7337C172.208 72.5818 190.602 73.5249 206.611 79.4004C214.938 82.4574 222.522 86.7448 229.152 92.1433C237.289 98.7722 242.878 106.8 246.841 113.06C247.925 114.767 248.977 116.491 249.991 118.155C253.211 123.434 256.258 128.426 259.944 132.47C263.593 136.47 268.51 139.738 274.988 142.465C279.319 144.291 283.846 145.825 288.638 147.446C299.047 150.974 309.808 154.622 319.712 161.668C334.859 172.444 346.108 188.157 352.234 207.1C357.671 223.909 359.005 242.717 356.094 261.498C350.689 296.306 333.113 330.107 306.599 356.671C304.967 358.303 303.313 359.918 301.714 361.484C296.84 366.243 292.238 370.742 288.308 375.642C284.442 380.45 281.184 385.946 277.731 391.762C277.183 392.683 276.636 393.604 276.088 394.52C267.116 409.524 256.334 424.386 238.319 431.524C235.31 432.717 232.204 433.714 229.092 434.489L229.098 434.5Z" fill="#202020"/>
<path d="M318.623 217.377C308.875 206.011 295.138 199.729 283.336 190.911C277.406 186.477 272.196 181.214 268.65 174.661C264.791 167.522 262.774 159.582 260.226 151.923C257.824 144.693 254.864 137.69 250.267 131.559C246.001 125.874 240.791 121.017 234.904 117.033C222.76 108.811 208.118 104.637 193.503 104.507C158.471 104.187 127.76 124.513 102.888 147.305C96.5398 153.121 90.4193 159.181 84.3531 165.284C83.4098 166.232 49.3108 207.328 43.7975 232.559C40.7237 246.63 39.2328 261.292 39.7262 275.694C40.2303 290.399 43.2228 305.727 52.146 317.781C56.7323 323.977 63.1889 328.6 67.5041 334.985C72.2314 341.983 71.6351 350.151 72.0525 358.205C72.4428 365.734 74.2101 372.862 79.7885 378.265C85.15 383.458 92.1812 386.466 98.5077 390.266C126.145 406.884 152.502 435.649 187.848 430.885C203.201 428.82 214.591 418.987 225.124 408.391C230.513 402.971 235.815 397.372 241.913 392.727C248.907 387.404 256.686 383.236 264.2 378.705C291.902 361.994 314.99 336.974 327.578 306.995C339.781 277.927 340.042 242.354 318.617 217.377H318.623Z" fill="#B4C6DE"/>
<path d="M273.226 367.23L267.534 404.407L189.231 452.528L75.5058 402.483C69.6347 395.827 77.7664 380.786 77.7664 380.786C71.711 373.425 80.8836 369.902 80.8836 369.902L181.522 415.253L273.231 367.235L273.226 367.23Z" fill="#B7AFA9"/>
<path d="M78.2706 380.412C75.3811 370.292 82.2443 371.019 82.2443 371.019L183.078 415.828L279.937 363.615L192.115 324.226L98.8709 360.178C75.56 358.552 72.3073 372.466 72.3073 372.466C71.7652 376.981 73.2126 380.775 73.2126 380.775L78.2706 380.412Z" fill="#5C8956"/>
<path d="M78.2706 380.412C73.9337 385.832 76.281 401.372 76.281 401.372L188.862 451.417L267.377 402.901C268.282 399.47 268.553 397.394 268.553 397.394L270.721 395.529C276.321 394.808 277.406 402.337 277.406 402.337C276.983 406.25 269.453 409.502 269.453 409.502L190.364 458.767C185.062 460.452 178.074 454.913 178.074 454.913L73.2777 405.638C71.4724 404.787 70.1117 403.193 69.6076 401.258C66.5229 389.361 73.2018 380.775 73.2018 380.775L78.2597 380.412H78.2706Z" fill="#33562E"/>
<path d="M77.4574 380.482C75.4299 372.314 78.1567 370.862 78.1567 370.862C80.6288 368.33 83.8164 370.027 83.8164 370.027L182.72 412.478L276.576 362.103L279.937 363.609L183.078 415.822L84.4995 372.325C82.8081 371.577 80.8185 372.249 79.9403 373.875C78.2706 376.965 78.2652 380.412 78.2652 380.412L77.4466 380.482H77.4574Z" fill="#33562E"/>
<path d="M78.5687 402.385C78.997 396.456 84.0549 398.743 84.0549 398.743L188.623 443.671L262.232 400.429C266.086 400.309 265.739 403.914 265.739 403.914L188.867 451.416L78.5742 402.385H78.5687Z" fill="#9D9893"/>
<path d="M190.369 420.034C196.685 430.538 192.478 446.929 192.478 446.929L188.862 448.013V420.44C188.862 419.616 189.941 419.329 190.364 420.034H190.369Z" fill="#9D9893"/>
<path d="M112.305 395.523C110.944 394.965 109.589 394.412 108.228 393.854C108.163 393.632 108.06 393.404 107.913 393.182C106.677 391.279 104.742 390.559 102.752 389.621C100.557 388.58 98.1065 386.992 95.6237 386.873C91.2054 386.661 88.8906 391.567 91.7313 394.9C93.0378 396.429 94.946 396.998 96.8217 397.469C99.5269 398.152 102.21 398.857 104.71 400.114C108.759 402.158 113.812 405.274 118.533 405.031C119.357 404.987 120.252 404.608 120.642 403.822C123.169 398.721 115.622 396.873 112.305 395.518V395.523Z" fill="#9D9893"/>
<path d="M268.358 376.731C268.32 374.639 265.707 373.49 264.194 375.008C258.117 381.111 251.173 386.206 243.491 390.108C239.902 391.93 236.189 393.436 232.367 394.699C228.637 395.935 224.82 397.084 221.655 399.496C220.456 400.412 219.416 401.513 218.402 402.635C215.567 403.984 212.823 405.523 210.14 407.318C205.792 410.228 200.485 413.329 198.11 418.212C197.129 420.223 196.826 422.538 197.297 424.543C196.977 426.89 197.064 429.297 197.601 431.638C197.937 433.096 199.91 433.969 201.184 433.096C202.93 431.898 204.616 430.624 206.242 429.286C209.766 428.646 213.122 426.521 215.789 424.38C218.684 422.05 221.237 419.269 224.078 416.863C224.913 416.592 225.742 416.315 226.566 416.006C233.776 413.323 240.58 409.719 246.852 405.263C246.955 405.193 247.047 405.112 247.134 405.03C250.045 403.545 252.918 401.984 255.743 400.342C258.757 398.586 261.972 396.813 264.259 394.109C268.325 389.295 268.482 382.726 268.374 376.742L268.358 376.731Z" fill="#9D9893"/>
<path d="M259.776 323.863L254.729 356.818L185.322 399.469L84.5212 355.11C79.3169 349.213 86.5216 335.879 86.5216 335.879C81.1546 329.353 89.2863 326.231 89.2863 326.231L178.486 366.428L259.776 323.868V323.863Z" fill="#B7AFA9"/>
<path d="M86.9769 335.543C84.4127 326.573 90.5007 327.218 90.5007 327.218L179.874 366.931L265.723 320.648L187.881 285.737L105.23 317.608C84.5699 316.166 81.6859 328.497 81.6859 328.497C81.2034 332.502 82.4882 335.863 82.4882 335.863L86.9715 335.543H86.9769Z" fill="#A44E1C"/>
<path d="M86.9769 335.543C83.1333 340.345 85.215 354.118 85.215 354.118L185.002 398.477L254.599 355.473C255.401 352.432 255.64 350.595 255.64 350.595L257.564 348.942C262.53 348.302 263.49 354.974 263.49 354.974C263.115 358.443 256.442 361.327 256.442 361.327L186.341 404.992C181.641 406.488 175.45 401.577 175.45 401.577L82.5587 357.901C80.9594 357.148 79.7505 355.733 79.306 354.02C76.5737 343.478 82.4936 335.863 82.4936 335.863L86.9769 335.543Z" fill="#73300A"/>
<path d="M86.2505 335.608C84.4561 328.372 86.8685 327.082 86.8685 327.082C89.0586 324.838 91.8885 326.34 91.8885 326.34L179.554 363.967L262.747 319.315L265.728 320.654L179.879 366.937L92.5065 328.383C91.0103 327.722 89.243 328.312 88.4623 329.754C86.9823 332.491 86.9769 335.548 86.9769 335.548L86.2505 335.608Z" fill="#73300A"/>
<path d="M87.2371 355.023C87.6166 349.766 92.0999 351.798 92.0999 351.798L184.785 391.62L250.029 353.294C253.444 353.186 253.135 356.384 253.135 356.384L184.997 398.488L87.2317 355.029L87.2371 355.023Z" fill="#9D9893"/>
<path d="M186.336 370.661C191.93 379.973 188.206 394.499 188.206 394.499L185.002 395.458V371.019C185.002 370.292 185.962 370.032 186.336 370.661Z" fill="#9D9893"/>
<path d="M160.558 239.053C153.115 257.926 141.66 276.701 136.125 285.309C133.723 289.038 132.623 293.466 133.062 297.883C135.399 321.223 154.411 329.391 154.411 329.391C188.564 338.063 209.343 331.38 209.343 331.38C232.475 322.166 232.833 307.71 232.833 307.71C239.88 279.162 218.196 235.622 218.196 235.622C205.364 245.378 160.553 239.053 160.553 239.053H160.558Z" fill="#BC9C76"/>
<path d="M191.93 242.338C198.978 251.362 222.831 263.108 222.831 263.108L214.428 238.327C205.711 241.519 191.936 242.338 191.936 242.338H191.93Z" fill="#8B7152"/>
<path d="M201.228 241.275C210.362 240.521 218.207 235.616 218.207 235.616C220.662 239.345 227.618 254.701 227.618 254.701C222.262 253.286 217.285 248.516 214.656 245.616C213.463 244.305 211.756 243.562 209.983 243.649C204.242 243.92 201.228 241.269 201.228 241.269V241.275Z" fill="#654F35"/>
<path d="M179.82 242.196C177.89 246.305 167.232 251.243 167.232 251.243C166.809 257.568 154.524 266.479 154.524 266.479C150.968 267.623 146.04 268.875 146.04 268.875L160.721 243.893L174.886 241.969C175.911 242.001 179.825 242.196 179.825 242.196H179.82Z" fill="#B1916D"/>
<path d="M210.059 168.644C205.142 128.442 237.501 95.8778 250.614 84.4791C253.222 82.2135 257.282 83.6336 257.976 87.0212C266.227 127.326 219.096 177.674 219.096 177.674L210.059 168.639V168.644Z" fill="#B99373"/>
<path d="M169.026 165.512C180.383 113.862 160.835 84.8861 150.448 72.7557C147.813 69.677 142.853 70.6147 141.525 74.4413C118.598 140.329 162.531 169.49 162.531 169.49L169.026 165.512Z" fill="#BFA182"/>
<path d="M144.766 202.185C151.391 161.11 181.706 161.332 186.71 161.652C187.284 161.69 187.859 161.706 188.434 161.712C217.133 162.07 228.426 192.244 228.426 192.244C239.089 218.982 217.762 235.969 217.762 235.969C208.221 244.348 173.341 242.029 161.295 241.248C159.132 241.107 157.04 240.424 155.24 239.215C131.338 223.139 144.756 202.179 144.756 202.179L144.766 202.185Z" fill="#D1B390"/>
<path d="M150.155 310.394C155.929 322.004 180.573 330.145 180.573 330.145L172.788 332.974C159.946 332.633 154.562 329.44 154.562 329.44C145.623 325.679 143.454 318.768 143.454 318.768L150.155 310.394Z" fill="#846A4B"/>
<path d="M222.928 237.351C232.762 248.039 243.816 259.313 248.809 264.365C251.254 266.836 252.344 270.392 251.53 273.774C250.36 278.647 246.738 281.84 244.342 283.482C242.905 284.463 241.154 284.886 239.43 284.674C229.152 283.417 224.23 273.411 224.23 273.411C216.098 264.56 215.014 243.779 215.014 243.779C215.014 241.665 215.805 239.676 216.754 238.044C218.06 235.795 221.167 235.432 222.928 237.351Z" fill="#957D65"/>
<path d="M185.241 242.197C195.481 240.462 220.863 204.445 220.863 204.445C225.357 218.418 218.971 231.671 218.971 231.671C214.753 238.896 201.222 241.275 201.222 241.275C195.237 242.869 185.235 242.197 185.235 242.197H185.241Z" fill="#B78656"/>
<path d="M212.124 195.583C211.175 191.745 208.373 185.366 208.373 185.366L215.014 186.455L212.124 195.577V195.583Z" fill="#D1AA86"/>
<path d="M215.8 211.355C216.862 196.759 203.852 165.137 203.852 165.137C218.608 172.292 219.567 178.558 219.567 178.558C226.68 193.49 220.863 204.45 220.863 204.45L215.8 211.361V211.355Z" fill="#B48D62"/>
<path d="M219.031 176.916C224.024 190.341 219.752 215.686 217.849 225.258C217.285 228.088 215.881 230.695 213.778 232.662C208.394 237.703 201.233 241.275 201.233 241.275C215.957 241.665 222.029 231.66 222.029 231.66C238.26 213.724 228.707 192.938 228.707 192.938C226.089 184.601 219.036 176.916 219.036 176.916H219.031Z" fill="#9B7A59"/>
<path d="M203.857 165.138C179.554 153.923 161.697 169.49 161.697 169.49C185.365 167.474 207.191 173.848 207.191 173.848L203.857 165.138Z" fill="#9C8162"/>
<path d="M189.588 170.362C195.546 174.032 211.978 188.493 211.978 188.493C211.143 184.211 207.191 173.847 207.191 173.847C203.499 171.327 189.588 170.362 189.588 170.362Z" fill="#C9A680"/>
<path d="M147.949 207.778C151.993 219.93 161.697 237.08 161.697 237.08C145.401 229.866 147.07 220.613 147.07 220.613C145.666 213.963 147.949 207.778 147.949 207.778Z" fill="#BC9D7E"/>
<path d="M211.978 188.493C212.108 197.583 211.577 216.852 211.577 216.852L215.8 211.35C216.358 202.157 211.972 188.493 211.972 188.493H211.978Z" fill="#C9A077"/>
<path d="M144.766 202.185C139.736 221.979 160.52 237.844 169.59 241.741C162.472 242.029 159.393 241.286 159.393 241.286C144.582 236.305 141.389 221.188 141.389 221.188C138.857 210.711 144.761 202.179 144.761 202.179L144.766 202.185Z" fill="#8D7354"/>
<path d="M147.07 220.613C145.731 191.317 168.142 169.132 168.142 169.132C165.605 168.915 161.697 169.485 161.697 169.485C147.054 179.994 144.766 202.179 144.766 202.179C141.817 212.575 147.07 220.608 147.07 220.608V220.613Z" fill="#C1A381"/>
<path d="M222.468 236.928C223.4 243.427 242.743 263.005 247.698 267.932C248.543 268.772 248.955 269.943 248.825 271.13C248.321 275.883 245.22 282.843 245.22 282.843C254.539 278.463 251.558 268.197 251.558 268.197C250.956 261.27 222.462 236.928 222.462 236.928H222.468Z" fill="#A87742"/>
<path d="M159.393 241.286C166.451 241.546 174.881 241.969 174.881 241.969C170.679 244.218 167.318 245.747 165.041 246.343C162.916 246.901 161.165 248.37 160.195 250.343C154.915 261.081 146.555 267.959 146.555 267.959L159.393 241.292V241.286Z" fill="#654F35"/>
<path d="M159.393 242.196C143.368 243.112 133.718 255.21 133.718 255.21L137.974 270.23L146.734 268.761C148.588 268.452 150.133 267.173 150.784 265.411L159.393 242.196Z" fill="#957D65"/>
<path d="M125.597 264.587C125.543 263.622 125.131 262.706 125.093 261.747C125.055 260.788 125.483 259.861 125.608 258.918C125.852 257.053 124.974 255.178 123.402 254.153C123.169 254.002 122.93 253.953 122.713 253.974C121.369 253.037 119.867 252.267 118.192 252.272C116.457 252.272 114.847 253.096 114.072 254.69C113.736 255.384 113.616 256.197 113.779 256.95C113.942 257.709 114.446 258.3 114.663 259.026C114.88 259.742 114.316 260.506 114.083 261.162C113.785 261.985 113.627 262.88 113.627 263.758C113.638 267.303 116.051 270.56 119.547 271.384C121.396 271.823 123.017 271.167 124.133 269.644C125.201 268.197 125.695 266.376 125.592 264.587H125.597Z" fill="#AC8863"/>
<path d="M239.262 275.796C236.752 275.157 234.134 274.978 231.564 275.314C230.984 275.39 230.48 275.758 230.48 276.398C230.48 276.924 230.979 277.558 231.564 277.482C233.966 277.168 236.357 277.292 238.688 277.883C239.257 278.029 239.864 277.699 240.021 277.124C240.173 276.566 239.832 275.937 239.262 275.791V275.796Z" fill="#AC8863"/>
<path d="M117.162 252.375C112.597 253.394 113.779 256.95 113.779 256.95L114.706 259.232C112.147 265.541 114.852 267.953 114.852 267.953C115.676 270.918 119.921 271.455 119.921 271.455C117.644 269.064 116.549 266.978 116.023 265.487C115.655 264.435 115.649 263.286 116.018 262.235C116.49 260.891 116.387 259.097 116.235 257.926C116.132 257.118 116.235 256.3 116.528 255.535C117.552 252.852 117.167 252.375 117.167 252.375H117.162Z" fill="#99754F"/>
<path d="M213.696 312.947C217.724 305.385 233.668 285.537 233.668 285.537L231.467 305.57L213.702 312.947H213.696Z" fill="#A07A50"/>
<path d="M205.743 332.248C219.698 318.871 225.84 309.597 225.84 309.597C231.022 299.239 232.963 282.843 232.963 282.843C234.524 289.797 234.421 297 234.335 299.391C234.318 299.9 234.264 300.41 234.183 300.914L232.768 309.456C232.405 311.646 231.597 313.738 230.404 315.608C220.213 331.608 205.743 332.253 205.743 332.253V332.248Z" fill="#7E6B55"/>
<path d="M172.425 332.822C184.335 330.042 227.797 305.033 227.797 305.033C226.263 320.106 205.624 332.822 205.624 332.822C195.362 336.004 172.425 332.822 172.425 332.822Z" fill="#947042"/>
<path d="M165.807 252.369C165.868 251.803 164.704 251.214 163.207 251.052C161.709 250.89 160.446 251.217 160.385 251.783C160.324 252.348 161.488 252.938 162.985 253.1C164.482 253.262 165.746 252.934 165.807 252.369Z" fill="#54514E"/>
<path d="M160.461 251.535C163.009 250.945 165.746 252.018 165.746 252.018C162.998 249.367 160.461 251.535 160.461 251.535Z" fill="#75726F"/>
<path d="M164.608 252.375C174.469 246.321 207.619 244.359 212.254 244.202C212.601 244.191 212.943 244.191 213.29 244.223C218.857 244.744 223.622 247.974 223.622 247.974L164.608 252.375Z" fill="#A09B96"/>
<path d="M121.683 228.24C134.759 224.483 161.209 251.872 161.209 251.872L158.655 254.37L121.689 228.24H121.683Z" fill="#A09B96"/>
<path d="M120.61 227.697C119.455 227.432 118.387 229.052 118.403 229.015C118.42 228.977 121.916 228.76 121.916 228.76L120.604 227.697H120.61Z" fill="#223342"/>
<path d="M227.265 247.687L169.015 251.926C169.015 251.926 161.577 253.145 159.284 250.533C159.073 250.294 158.807 250.104 158.531 249.947L120.995 227.833C120.284 227.415 119.401 227.963 119.455 228.781L122.252 272.425C122.35 273.98 123.136 275.406 124.388 276.327L157.192 300.426C157.192 300.426 161.333 304.567 166.418 302.789L223.075 298.16C225.466 297.965 227.352 296.057 227.52 293.661L230.529 250.934C230.659 249.085 229.119 247.546 227.271 247.682L227.265 247.687Z" fill="#223342"/>
<path d="M119.872 228.57L158.655 251.422L156.725 302.491L123.326 277.954C122.046 277.016 121.249 275.558 121.152 273.975L118.306 229.53C118.252 228.695 119.157 228.142 119.878 228.565L119.872 228.57Z" fill="#6E95C0"/>
<path d="M158.655 251.421C160.705 254.435 168.777 253.107 168.777 253.107L166.126 304.903C160.943 306.708 156.731 302.496 156.731 302.496L158.661 251.427L158.655 251.421Z" fill="#4C6B8B"/>
<path d="M228.117 247.747C228.653 247.741 229.266 247.909 229.759 248.099C230.475 248.375 231.028 248.977 231.217 249.725C231.445 250.603 231.418 251.508 231.418 251.508L228.117 247.747Z" fill="#223342"/>
<path d="M168.777 253.107L166.126 304.903L223.818 300.187C226.252 299.987 228.176 298.041 228.344 295.607L231.407 252.099C231.537 250.218 229.971 248.652 228.089 248.787L168.771 253.107H168.777Z" fill="#6E95C0"/>
<path d="M171.693 253.031C170.75 253.991 170.197 255.27 170.154 256.614C169.677 270.159 170.972 298.469 170.972 298.469C175.976 294.87 205.624 297.098 213.501 297.759C214.537 297.846 215.55 298.073 216.521 298.447C219.6 299.634 225.243 300.209 225.243 300.209L166.12 305.038L168.771 253.243L171.693 253.031Z" fill="#6286A8"/>
<path d="M158.65 251.422L122.057 229.866C121.949 236.836 150.909 251.677 150.909 251.677C150.003 254.701 154.248 262.246 154.248 262.246L158.65 251.422Z" fill="#6285AB"/>
<path d="M158.65 251.557C151.657 259.151 151.364 291.515 151.364 291.515C142.869 281.564 131.734 278.989 126.416 278.322C124.811 278.122 123.553 276.859 123.375 275.255L118.295 229.541L121.141 273.986C121.179 277.114 123.721 278.393 123.721 278.393L156.72 302.632L158.65 251.563V251.557Z" fill="#6286A8"/>
<path d="M201.96 296.952C207.202 292.014 224.371 291.109 224.371 291.109C226.902 288.669 228.117 252.072 228.117 252.072C225.276 250.457 221.573 249.265 221.573 249.265L227.211 248.853C229.689 248.321 230.811 250.045 230.811 250.045C231.288 250.484 231.44 251.644 231.461 251.796C231.461 251.807 231.461 251.817 231.461 251.828L228.854 291.434C229.488 301.358 224.929 300.166 224.929 300.166L201.954 296.946L201.96 296.952Z" fill="#577791"/>
<path d="M204.524 283.537C203.862 282.371 202.995 281.482 201.667 281.011C203.071 279.867 204.128 278.599 203.77 276.718C203.445 274.994 202.366 273.786 200.832 272.94L201.201 271.341L202.545 272.181C202.67 272.089 202.713 272.078 202.724 272.051C203.125 271.048 202.241 269.26 201.211 268.978C200.588 268.81 200.1 268.924 199.862 269.525C199.558 270.295 199.412 271.124 199.238 271.937C199.173 272.225 199.216 272.539 199.211 272.864L198.625 272.929C198.604 272.252 198.653 271.59 198.55 270.951C198.268 269.157 197.303 267.78 195.806 266.772C195.66 266.674 195.492 266.604 195.329 266.528C194.966 266.371 194.809 266.528 194.858 266.886C194.923 267.363 194.966 267.856 195.118 268.306C195.682 269.937 196.289 271.552 196.891 273.206C195.508 274.008 194.419 275.184 194.267 276.956C194.11 278.745 195.21 279.954 196.495 281.103C195.118 281.634 194.218 282.621 193.546 283.824C190.434 282.079 187.897 277.943 188.889 273.2C189.832 268.696 193.741 265.368 198.246 265.173C202.935 264.972 207.12 267.856 208.465 272.225C209.923 276.973 207.755 281.401 204.518 283.537H204.524Z" fill="white"/>
<path d="M156.725 317.895C165.996 321.283 207.375 316.388 207.375 316.388C203.402 326.795 176.941 331.343 176.941 331.343C164.19 327.245 156.725 317.895 156.725 317.895Z" fill="#A0794E"/>
<path d="M242.905 276.604C242.998 276.159 242.835 275.628 242.407 275.428C238.379 273.547 233.787 273.086 229.477 274.208C227.547 274.707 225.233 275.493 223.893 277.048C222.663 278.474 222.31 280.875 223.888 282.219C224.067 282.371 224.262 282.495 224.463 282.615C224.479 282.626 224.495 282.636 224.517 282.647C224.479 282.729 224.452 282.799 224.43 282.837C224.289 283.103 224.154 283.379 224.034 283.655C223.584 284.685 223.27 285.78 223.259 286.913C223.248 289.011 224.436 290.875 226.29 291.834C230.236 293.883 235.229 291.753 238.292 289.032C240.076 287.45 241.404 285.417 242.222 283.184C242.656 282.008 242.911 280.783 243.03 279.536C243.128 278.566 243.166 277.541 242.905 276.598V276.604Z" fill="#AC8863"/>
<path d="M225.243 275.894C229.575 275.531 233.619 276.176 236.384 276.837C238.661 277.379 239.962 279.769 239.197 281.981C237.723 286.257 234.871 291.341 234.871 291.341C243.491 287.076 243.339 277.921 243.339 277.921C243.67 275.032 241.772 275.151 241.772 275.151C229.564 270.517 225.243 275.899 225.243 275.899V275.894Z" fill="#99754F"/>
<path d="M205.749 315.142C208.877 332.996 202.203 346.422 194.766 346.546C186.515 346.682 179.814 334.335 181.175 317.131C182.503 300.317 187.279 285.835 193.459 285.542C199.639 285.249 202.838 298.534 205.749 315.142Z" fill="#A28C77"/>
<path d="M191.93 342.064C198.707 335.018 204.41 307.917 204.41 307.917C209.82 326.616 203.971 338.112 203.971 338.112C200.789 347.891 194.066 346.546 194.066 346.546L191.93 342.064Z" fill="#504334"/>
<path d="M186.878 301.591C190.787 293.699 199.553 290.913 199.553 290.913C195.904 283.222 191.93 285.905 191.93 285.905C188.499 287.254 186.948 291.737 186.948 291.737L186.878 301.591Z" fill="#D2BEAC"/>
<path d="M194.766 346.546C185.333 327.879 186.948 291.743 186.948 291.743C178.106 309.721 181.403 327.874 181.403 327.874C183.164 347.663 194.766 346.546 194.766 346.546Z" fill="#70583C"/>
<path d="M149.467 304.317C154.069 319.863 150.936 332.503 140.684 333.917C130.395 335.337 123.331 324.313 124.074 307.732C124.773 292.084 127.337 278.366 134.027 277.574C140.717 276.783 145.021 289.293 149.472 304.312L149.467 304.317Z" fill="#A59788"/>
<path d="M144.311 332.812C126.871 323.565 126.297 289 126.297 289C121.358 311.705 125.017 320.15 125.017 320.15C127.549 333.251 137.773 334.275 137.773 334.275C143.156 334.6 144.311 332.812 144.311 332.812Z" fill="#8A7B6E"/>
<path d="M126.887 296.659C130.758 288.311 140.283 281.178 140.283 281.178C136.824 275.915 132.802 277.878 132.802 277.878C126.242 280.132 126.302 289.005 126.302 289.005C125.679 292.03 126.887 296.659 126.887 296.659Z" fill="#857869"/>
<path d="M135.778 285.076C145.379 295.157 150.301 325.505 150.301 325.505C156.27 306.166 140.289 281.179 140.289 281.179L135.778 285.07V285.076Z" fill="#BAA38E"/>
<path d="M215.849 173.034C244.51 148.801 258.941 95.0811 258.941 95.0811C261.858 134.589 219.231 177.533 219.231 177.533L215.843 173.034H215.849Z" fill="#A77746"/>
<path d="M215.014 172.254C212.346 154.704 234.248 101.141 234.248 101.141C210.449 127.147 210.108 151.598 210.108 151.598C208.676 161.837 210.004 168.568 210.004 168.568L215.008 172.254H215.014Z" fill="#866E58"/>
<path d="M215.849 129.24C225.238 121.456 250.614 84.4795 250.614 84.4795C226.805 99.8946 215.849 129.24 215.849 129.24Z" fill="#715434"/>
<path d="M167.573 126.697C165.096 111.157 152.557 75.3027 152.557 75.3027C163.019 86.4087 168.652 106.865 168.652 106.865L167.573 126.703V126.697Z" fill="#AF8C6B"/>
<path d="M165.529 166.823C168.739 150.243 167.204 102.214 167.204 102.214C178.979 127.483 169.243 164.861 169.243 164.861L165.529 166.823Z" fill="#755533"/>
<path d="M162.06 169.192C164.196 160.319 167.573 127.695 167.573 127.695L168.142 165.463C166.57 166.991 162.06 169.192 162.06 169.192Z" fill="#A87A4A"/>
<path d="M163.274 162.606C147.293 147.836 134.9 106.859 134.9 106.859C132.298 136.091 145.607 152.774 145.607 152.774C151.749 162.65 162.054 169.186 162.054 169.186L163.274 162.606Z" fill="#B7885A"/>
<path d="M139.73 120.773C137.779 106.642 139.893 79.4438 139.893 79.4438C133.322 93.8779 134.9 108.935 134.9 108.935L139.73 120.778V120.773Z" fill="#C49B6E"/>
<path d="M156.053 185.718C163.86 179.154 176.149 169.192 176.149 169.192C173.406 168.498 168.142 169.138 168.142 169.138C162.895 170.964 156.053 185.723 156.053 185.723V185.718Z" fill="#C49B6E"/>
<path d="M210.444 168.579C207.251 164.899 203.049 162.211 198.382 160.818C198.354 160.812 198.333 160.807 198.306 160.801C190.57 156.243 180.768 155.945 172.777 160.547C170.246 162.005 167.958 163.891 166.077 166.124C165.692 166.579 164.478 167.864 164.825 168.428C165.237 169.1 166.343 169.138 166.131 169.907C165.979 170.46 166.196 171.208 166.738 171.485C167.579 171.913 168.435 172 169.346 171.723C169.915 171.55 170.913 170.829 171.558 170.905V170.915C171.596 171.105 171.606 171.3 171.639 171.495C171.715 171.918 171.85 172.314 172.084 172.677C172.599 173.49 173.482 173.918 174.415 174.038C176.317 174.281 177.624 173.197 179.191 172.346C180.839 171.452 182.053 172.661 183.294 173.707C184.493 174.715 185.897 175.615 187.512 175.658C188.249 175.68 188.987 175.501 189.605 175.1C190.185 174.726 190.608 173.794 191.28 173.767C192.028 173.739 192.971 174.417 193.606 174.748C194.505 175.225 195.411 175.723 196.376 176.065C197.959 176.628 199.672 176.634 201.26 176.086C204.567 174.937 206.882 172.092 210.086 170.753C210.953 170.39 210.991 169.197 210.454 168.574L210.444 168.579Z" fill="#B29354"/>
<path d="M158.379 151.364C144.045 130.676 143.942 108.398 144.577 99.6882C144.701 97.9592 146.74 97.119 148.068 98.2356C167.329 114.442 162.033 143.196 160.135 151.05C159.935 151.869 158.861 152.064 158.379 151.37V151.364Z" fill="#BC7469"/>
<path d="M220.278 160.666C219.204 123.987 236.59 109.944 243.583 105.797C245.155 104.865 247.21 105.624 247.752 107.369C253.141 124.584 229.613 153.24 222.43 161.452C221.692 162.297 220.31 161.788 220.278 160.666Z" fill="#BC7469"/>
<path d="M158.623 151.76C148.859 137.663 148.789 122.481 149.217 116.551C149.304 115.375 150.692 114.8 151.597 115.559C164.722 126.6 161.111 146.194 159.821 151.544C159.685 152.102 158.954 152.232 158.623 151.76Z" fill="#A65E53"/>
<path d="M220.489 160.996C219.714 134.519 232.264 124.383 237.311 121.386C238.444 120.713 239.929 121.261 240.32 122.524C244.212 134.952 227.227 155.636 222.039 161.56C221.508 162.173 220.511 161.804 220.484 160.991L220.489 160.996Z" fill="#A65E53"/>
<path d="M137.883 328.61C140.786 328.248 142.191 320.369 141.022 311.012C139.853 301.655 136.553 294.364 133.65 294.726C130.747 295.089 129.342 302.968 130.511 312.325C131.68 321.682 134.981 328.973 137.883 328.61Z" fill="#A65E53"/>
<path d="M194.766 336.221C197.691 336.221 200.062 328.576 200.062 319.147C200.062 309.717 197.691 302.073 194.766 302.073C191.84 302.073 189.469 309.717 189.469 319.147C189.469 328.576 191.84 336.221 194.766 336.221Z" fill="#A65E53"/>
<path d="M137.845 328.5C140.112 328.216 141.246 322.362 140.38 315.423C139.513 308.484 136.972 303.089 134.706 303.372C132.439 303.655 131.304 309.509 132.171 316.448C133.038 323.387 135.578 328.783 137.845 328.5Z" fill="#BC7469"/>
<path d="M198.902 323.863C198.902 330.855 197.053 336.524 194.766 336.524C192.478 336.524 190.629 330.855 190.629 323.863C190.629 316.871 192.478 311.201 194.766 311.201C197.053 311.201 198.902 316.871 198.902 323.863Z" fill="#BC7469"/>
<path d="M205.239 211.686C204.41 211.551 203.575 211.534 202.74 211.583C202.751 211.496 202.762 211.404 202.762 211.312C202.762 209.551 200.512 207.036 198.214 207.036C195.915 207.036 193.606 209.491 193.606 211.253C193.606 212.505 194.793 213.377 196.305 213.773C196.305 213.805 196.311 213.838 196.322 213.865C196.484 214.461 197.08 214.738 197.655 214.624C198.869 214.375 200.089 214.125 201.314 213.925C202.404 213.74 203.575 213.605 204.665 213.784C205.239 213.876 205.83 213.632 205.998 213.025C206.139 212.505 205.825 211.784 205.239 211.692V211.686Z" fill="#020202"/>
<path d="M156.368 206.895C157.116 206.402 157.614 205.675 157.614 204.77C157.614 203.036 155.836 201.312 153.955 201.312C152.242 201.312 149.58 202.998 149.109 204.607C148.068 204.597 147.038 204.77 146.051 205.269C145.531 205.534 145.379 206.272 145.661 206.754C145.97 207.285 146.62 207.41 147.146 207.144C148.23 206.597 149.456 206.689 150.632 206.927C151.386 207.263 152.302 207.469 153.126 207.551C153.961 207.8 154.785 208.152 155.251 208.83C155.582 209.312 156.205 209.529 156.736 209.22C157.213 208.938 157.457 208.223 157.127 207.735C156.904 207.41 156.644 207.139 156.373 206.889L156.368 206.895Z" fill="#020202"/>
<path d="M175.705 217.621C175.705 219.518 171.861 219.882 168.928 219.882C165.996 219.882 163.822 217.394 163.822 215.502C163.822 213.61 166.83 212.25 169.763 212.25C172.696 212.25 175.705 215.73 175.705 217.627V217.621Z" fill="#BE796D"/>
<path d="M173.189 217.367C172.924 218.407 170.587 219.773 168.706 219.285C166.825 218.798 166.099 216.64 166.37 215.605C166.641 214.57 168.381 214.12 170.267 214.608C172.154 215.096 173.461 216.331 173.195 217.367H173.189Z" fill="#A35B50"/>
<path d="M172.859 215.838C172.859 216.261 171.14 214.797 169.915 214.797C168.69 214.797 166.971 215.328 166.971 214.9C166.971 214.472 169.113 213.681 170.338 213.681C171.563 213.681 172.859 215.415 172.859 215.838Z" fill="#F2D6D9"/>
<path d="M177.684 225.849C177.402 225.367 176.692 225.134 176.198 225.459C175.033 226.239 173.748 226.597 172.365 226.548C171.704 226.527 171.119 226.407 170.457 226.169C170.175 226.066 169.53 224.673 169.232 224.369C168.939 224.077 168.554 224.006 168.197 224.104C167.926 224.131 167.671 224.256 167.497 224.505C167.356 224.592 167.188 224.689 167.134 224.711C166.841 224.825 166.532 224.901 166.223 224.949H166.196C166.196 224.949 166.174 224.955 166.153 224.96C166.055 224.971 165.952 224.976 165.855 224.987C165.692 224.998 165.535 225.004 165.372 225.004C165.041 225.004 164.705 224.993 164.375 224.966C163.29 224.879 162.152 224.592 161.431 223.714C161.057 223.258 160.282 223.329 159.897 223.714C159.447 224.163 159.523 224.792 159.897 225.247C160.981 226.57 162.737 227.009 164.375 227.139C165.491 227.226 166.635 227.172 167.671 226.803C168.495 227.963 170.376 228.51 171.715 228.673C173.645 228.906 175.683 228.424 177.299 227.34C177.787 227.014 177.998 226.386 177.689 225.855L177.684 225.849Z" fill="#020202"/>
<path d="M154.508 195.746C152.459 194.591 150.133 193.989 147.781 194.017C146.734 194.027 146.734 195.653 147.781 195.643C149.851 195.621 151.884 196.136 153.69 197.149C154.6 197.664 155.424 196.26 154.508 195.746Z" fill="#020202"/>
<path d="M204.773 201.675C202.35 200.851 199.645 200.889 197.254 201.8C196.842 201.957 196.56 202.347 196.685 202.802C196.793 203.193 197.27 203.529 197.688 203.371C199.84 202.553 202.166 202.504 204.345 203.247C204.762 203.388 205.234 203.084 205.348 202.678C205.472 202.233 205.196 201.821 204.779 201.675H204.773Z" fill="#020202"/>
<path d="M214.406 205.041C214.303 203.518 214.146 202.011 212.628 201.242C211.322 200.575 209.668 200.505 208.243 200.282C200.452 199.063 192.586 198.364 184.704 198.201C184.146 197.756 183.186 197.811 182.985 198.705C182.21 202.109 181.592 205.708 181.69 209.231C181.419 208.819 181.137 208.413 180.844 208.011C179.695 206.44 178.432 205.247 176.518 204.683C173.667 203.843 169.996 203.399 167.6 205.323C167.611 204.949 167.606 204.58 167.6 204.206C167.568 202.521 167.421 200.835 167.161 199.171C166.928 197.681 166.267 196.559 164.83 195.984C163.399 195.409 161.876 195.008 160.379 194.64C153.321 192.9 146.002 192.651 138.874 191.306C138.754 191.285 138.646 191.285 138.537 191.296C138.516 191.279 138.494 191.258 138.467 191.247C138.012 190.981 137.215 191.095 136.982 191.637C134.613 197.231 135.203 203.486 137.659 208.949C138.261 210.288 138.96 211.605 139.914 212.732C140.836 213.811 142.045 214.548 143.357 215.063C144.642 215.562 146.002 215.806 147.358 216.017C149.087 216.283 150.833 216.559 152.584 216.64C155.511 216.776 158.39 216.196 160.97 214.787C163.187 213.578 165.405 211.665 166.624 209.383C166.82 209.155 167.02 208.927 167.248 208.738C167.4 208.608 167.877 208.136 167.953 208.028C168.088 207.946 168.213 207.843 168.316 207.692C169.031 206.613 170.365 206.179 171.606 206.136C173.173 206.087 174.908 206.413 176.383 206.944C177.781 207.448 178.643 208.656 179.456 209.833C180.367 211.15 181.18 212.532 181.896 213.968C182.026 214.228 182.216 214.38 182.422 214.456C182.763 215.67 183.229 216.863 183.853 218.017C184.585 219.367 185.528 220.576 186.797 221.464C188.076 222.364 189.61 222.912 191.117 223.291C192.689 223.687 194.305 223.904 195.91 224.099C197.471 224.294 199.043 224.424 200.615 224.37C203.618 224.272 206.508 223.464 208.877 221.562C211.018 219.844 212.515 217.388 213.398 214.814C214.461 211.703 214.612 208.32 214.396 205.063L214.406 205.041ZM164.201 209.15C163.496 210.131 162.613 211.02 161.653 211.757C159.783 213.193 157.468 214.169 155.115 214.402C152.22 214.689 149.174 214.201 146.333 213.632C145.13 213.388 143.926 213.058 142.869 212.413C141.823 211.773 141.102 210.814 140.505 209.757C137.762 204.938 136.656 198.748 138.586 193.437C144.241 194.483 149.992 194.867 155.657 195.859C158.466 196.353 161.409 196.916 164.06 197.995C165.139 198.434 165.101 199.838 165.21 200.841C165.378 202.369 165.464 203.914 165.432 205.453C165.399 206.873 165.031 207.995 164.201 209.15ZM211.962 211.746C211.495 214.207 210.541 216.619 208.888 218.527C207.196 220.478 204.968 221.643 202.42 222.028C199.661 222.445 196.771 222.077 194.039 221.638C191.383 221.215 188.336 220.559 186.618 218.294C184.769 215.855 183.994 212.635 183.847 209.627C183.69 206.505 184.178 203.415 184.84 200.369C191.112 200.505 197.379 200.971 203.602 201.784C205.185 201.99 206.763 202.223 208.335 202.477C209.056 202.591 209.782 202.705 210.498 202.841C210.953 202.927 211.598 203.003 211.924 203.366C212.281 203.762 212.205 204.548 212.238 205.041C212.287 205.795 212.319 206.548 212.319 207.301C212.325 208.787 212.238 210.283 211.962 211.746Z" fill="#403225"/>
<path d="M213.442 203.686C213.339 202.163 213.181 200.656 211.663 199.886C210.357 199.219 208.703 199.149 207.278 198.927C199.487 197.707 191.621 197.008 183.739 196.845C183.181 196.401 182.221 196.455 182.021 197.35C181.245 200.753 180.627 204.352 180.725 207.876C180.454 207.464 180.172 207.057 179.879 206.656C178.73 205.084 177.467 203.892 175.553 203.328C172.702 202.488 169.031 202.043 166.635 203.968C166.646 203.594 166.641 203.225 166.635 202.851C166.603 201.165 166.456 199.48 166.196 197.816C165.963 196.325 165.302 195.203 163.865 194.629C162.434 194.054 160.911 193.653 159.414 193.284C152.356 191.544 145.037 191.295 137.909 189.951C137.789 189.929 137.681 189.929 137.573 189.94C137.551 189.924 137.529 189.902 137.502 189.891C137.047 189.626 136.25 189.74 136.017 190.282C133.648 195.875 134.239 202.13 136.694 207.594C137.296 208.933 137.995 210.25 138.949 211.377C139.871 212.456 141.08 213.193 142.392 213.708C143.677 214.206 145.037 214.45 146.393 214.662C148.122 214.927 149.868 215.204 151.619 215.285C154.546 215.42 157.425 214.841 160.005 213.431C162.222 212.223 164.44 210.309 165.659 208.027C165.855 207.8 166.055 207.572 166.283 207.382C166.435 207.252 166.597 207.133 166.738 206.987C166.836 206.889 166.912 206.781 166.988 206.672C167.123 206.591 167.248 206.488 167.351 206.336C168.066 205.258 169.4 204.824 170.642 204.781C172.208 204.732 173.943 205.057 175.418 205.588C176.816 206.092 177.678 207.301 178.491 208.477C179.402 209.794 181.251 213.025 181.457 213.101C181.798 214.315 182.264 215.507 182.888 216.662C183.62 218.011 184.563 219.22 185.832 220.109C187.111 221.009 188.645 221.556 190.152 221.936C191.724 222.331 193.34 222.548 194.945 222.743C196.506 222.938 198.078 223.068 199.65 223.014C202.653 222.917 205.543 222.109 207.912 220.207C210.053 218.488 211.55 216.033 212.433 213.458C213.496 210.347 213.648 206.965 213.431 203.707L213.442 203.686ZM163.236 207.794C162.531 208.775 161.648 209.664 160.688 210.401C158.818 211.838 156.503 212.813 154.15 213.046C151.256 213.334 148.209 212.846 145.368 212.277C144.165 212.033 142.961 211.702 141.904 211.057C140.858 210.418 140.137 209.458 139.54 208.401C136.797 203.583 135.691 197.393 137.621 192.081C143.276 193.127 149.027 193.512 154.693 194.504C157.501 194.997 160.444 195.561 163.095 196.639C164.174 197.079 164.136 198.482 164.245 199.485C164.413 201.014 164.499 202.558 164.467 204.098C164.434 205.518 164.066 206.64 163.236 207.794ZM210.997 210.391C210.53 212.851 209.576 215.263 207.923 217.171C206.231 219.122 204.003 220.288 201.455 220.673C198.696 221.09 195.807 220.721 193.074 220.282C190.418 219.86 187.371 219.204 185.653 216.938C183.804 214.499 183.029 211.279 182.882 208.271C182.725 205.149 183.213 202.06 183.875 199.014C190.147 199.149 196.414 199.615 202.637 200.428C204.22 200.634 205.798 200.867 207.37 201.122C208.091 201.236 208.817 201.35 209.533 201.485C209.988 201.572 210.633 201.648 210.959 202.011C211.316 202.407 211.241 203.193 211.273 203.686C211.322 204.439 211.354 205.193 211.354 205.946C211.36 207.431 211.273 208.927 210.997 210.391Z" fill="#5F8CB8"/>
<path d="M101.029 339.966C123.076 352.856 176.063 371.886 176.063 371.886L101.029 339.966Z" fill="#9D9893"/>
<path d="M91.6337 340.568C113.682 353.457 166.668 372.487 166.668 372.487L91.6337 340.568Z" fill="#9D9893"/>
<path d="M105.29 351.929C127.337 364.818 180.324 383.848 180.324 383.848L105.29 351.929Z" fill="#9D9893"/>
<path d="M191.93 367.495C199.303 367.615 256.767 332.974 256.767 332.974L191.93 367.495Z" fill="#9D9893"/>
<path d="M191.264 373.788C198.636 373.908 256.101 339.267 256.101 339.267L191.264 373.788Z" fill="#9D9893"/>
<path d="M191.264 380.412C198.636 380.531 256.101 345.891 256.101 345.891L191.264 380.412Z" fill="#9D9893"/>
<path d="M88.381 381.642C98.3776 389.594 184.514 420.787 184.514 420.787L88.381 381.642Z" fill="#756E68"/>
<path d="M82.1901 384.298C92.1867 392.249 178.323 423.443 178.323 423.443L82.1901 384.298Z" fill="#756E68"/>
<path d="M88.381 391.74C98.3776 399.691 184.514 430.884 184.514 430.884L88.381 391.74Z" fill="#756E68"/>
<path d="M85.9469 396.255C95.9435 404.206 182.08 435.4 182.08 435.4L85.9469 396.255Z" fill="#756E68"/>
<path d="M193.768 419.632C203.223 418.277 271.16 374.807 269.447 374.948L193.768 419.632Z" fill="#756E68"/>
<path d="M192.673 425.654C202.128 424.299 270.065 380.829 268.352 380.97L192.673 425.654Z" fill="#756E68"/>
<path d="M193.768 430.885C203.223 429.53 271.16 386.06 269.447 386.201L193.768 430.885Z" fill="#756E68"/>
<path d="M193.768 437.508C203.223 436.153 271.16 392.683 269.447 392.824L193.768 437.508Z" fill="#756E68"/>
</svg>
