<svg width="32" height="32" viewBox="0 0 32 32" fill="none" xmlns="http://www.w3.org/2000/svg">
<rect width="32" height="32" fill="#1E1E1E"/>
<g id="desktop" clip-path="url(#clip0_27_3)">
<rect width="1440" height="5294" transform="translate(-24 -28)" fill="#EDEDED"/>
<g id="header">
<rect width="1440" height="88" transform="translate(-24 -28)" fill="#202020"/>
<g id="logo">
<g id="Quorum logo">
<path id="Vector" d="M19.0531 2.80111C25.6372 4.19457 30.3853 9.33879 31.1636 15.8618C31.8365 21.501 28.6899 28.112 24.28 30.2082C23.3767 28.5012 22.134 27.1141 20.169 26.3476C22.2858 24.7181 23.9385 22.8736 23.5054 20.0518C23.1067 17.454 21.5664 15.5994 19.3076 14.2405C19.508 13.4712 19.7143 12.6789 19.9252 11.8689C20.6039 12.3245 21.2683 12.7704 21.8731 13.1763C22.0601 13.0678 22.1287 13.0527 22.147 13.0138C22.8558 11.5069 21.5166 8.68371 19.9172 8.29751C19.0978 8.09963 18.3328 8.26362 18.0231 9.0631C17.5758 10.2179 17.2835 11.4366 16.9788 12.6418C16.8702 13.0711 16.9183 13.5403 16.8915 14.0569C16.5866 14.0706 16.3137 14.0828 16.0255 14.0957C16.0255 13.1097 16.1153 12.172 16.0087 11.2574C15.6903 8.52818 14.3205 6.40006 12.121 4.79398C11.9496 4.66882 11.7617 4.56109 11.5696 4.47072C10.8563 4.13511 10.5694 4.2773 10.6969 5.05073C10.9309 6.46977 11.2018 7.89629 11.6273 9.26651C12.1636 10.9938 12.8703 12.6678 13.5163 14.3992C11.3403 15.5725 9.66436 17.2811 9.3452 19.9142C9.02126 22.5868 10.6013 24.443 12.4698 26.2387C10.3887 26.954 9.01954 28.3992 7.95037 30.1566C2.9376 27.1478 -0.619077 19.9955 1.93421 12.6256C4.37238 5.58805 11.7543 1.33979 19.0531 2.80111Z" fill="#0695D0"/>
</g>
</g>
</g>
</g>
<defs>
<clipPath id="clip0_27_3">
<rect width="1440" height="5294" fill="white" transform="translate(-24 -28)"/>
</clipPath>
</defs>
</svg>
