<svg width="32" height="32" viewBox="0 0 32 32" fill="none" xmlns="http://www.w3.org/2000/svg">
<g clip-path="url(#clip0_2003_11229)">
<ellipse cx="16" cy="19" rx="9" ry="11" fill="white"/>
<path d="M14.1332 18.4001L11.2665 15.5334C11.0221 15.289 10.7109 15.1667 10.3332 15.1667C9.95539 15.1667 9.64428 15.289 9.39984 15.5334C9.15539 15.7779 9.03317 16.089 9.03317 16.4667C9.03317 16.8445 9.15539 17.1556 9.39984 17.4001L13.1998 21.2001C13.4665 21.4667 13.7776 21.6001 14.1332 21.6001C14.4887 21.6001 14.7998 21.4667 15.0665 21.2001L22.5998 13.6667C22.8443 13.4223 22.9665 13.1112 22.9665 12.7334C22.9665 12.3556 22.8443 12.0445 22.5998 11.8001C22.3554 11.5556 22.0443 11.4334 21.6665 11.4334C21.2887 11.4334 20.9776 11.5556 20.7332 11.8001L14.1332 18.4001ZM15.9998 29.3334C14.1554 29.3334 12.4221 28.9834 10.7998 28.2834C9.17761 27.5834 7.7665 26.6334 6.5665 25.4334C5.3665 24.2334 4.4165 22.8223 3.7165 21.2001C3.0165 19.5779 2.6665 17.8445 2.6665 16.0001C2.6665 14.1556 3.0165 12.4223 3.7165 10.8001C4.4165 9.17786 5.3665 7.76675 6.5665 6.56675C7.7665 5.36675 9.17761 4.41675 10.7998 3.71675C12.4221 3.01675 14.1554 2.66675 15.9998 2.66675C17.8443 2.66675 19.5776 3.01675 21.1998 3.71675C22.8221 4.41675 24.2332 5.36675 25.4332 6.56675C26.6332 7.76675 27.5832 9.17786 28.2832 10.8001C28.9832 12.4223 29.3332 14.1556 29.3332 16.0001C29.3332 17.8445 28.9832 19.5779 28.2832 21.2001C27.5832 22.8223 26.6332 24.2334 25.4332 25.4334C24.2332 26.6334 22.8221 27.5834 21.1998 28.2834C19.5776 28.9834 17.8443 29.3334 15.9998 29.3334Z" fill="#05862D"/>
</g>
<defs>
<clipPath id="clip0_2003_11229">
<rect width="32" height="32" fill="white"/>
</clipPath>
</defs>
</svg>
