<svg width="2000" height="1000"
	xmlns="http://www.w3.org/2000/svg" id="svg-2101527076" tabindex="-1" role="img">

	<rect width="100.0%" height="100.0%" x="0.0%" y="0.0%" id="svg-2101527076-1454026445" tabindex="-1" fill="white" aria-label="Minimum and Maximum Life Expectancy for Various Cat Breeds,  with 2 violin plots. Use the arrow keys to navigate the chart." />

	<rect width="1740.0" height="680.0" x="163.0" y="212.0" id="svg-2101527076-1378497201" tabindex="-1" fill="white" aria-label="Chart Area " />

	<rect width="0.0" height="0.0" x="163.0" y="942.0" id="svg-2101527076-1574873161" tabindex="-1" />

	<rect width="0.0" height="0.0" x="163.0" y="942.0" id="svg-2101527076-1591916281" tabindex="-1" />

	<rect width="0.0" height="0.0" x="163.0" y="942.0" id="svg-2101527076-600958416" tabindex="-1" />

	<rect width="0.0" height="0.0" x="163.0" y="942.0" id="svg-2101527076-1884231057" tabindex="-1" />

	<rect width="0.0" height="0.0" x="163.0" y="942.0" id="svg-2101527076-1492875057" tabindex="-1" />

	<rect width="0.0" height="0.0" x="163.0" y="942.0" id="svg-2101527076-333793193" tabindex="-1" />

	<rect width="0.0" height="0.0" x="163.0" y="834.0" id="svg-2101527076-1068945248" tabindex="-1" />

	<rect width="0.0" height="0.0" x="163.0" y="834.0" id="svg-2101527076-937277082" tabindex="-1" />

	<text x="479.0" y="865.0" font-size="27px" font-family="Arial" text-anchor="left" transform="rotate(0.0, 479.0, 865)" id="svg-2101527076-882646447" tabindex="-1" aria-label=", 1 of 2 labels.">Maximum Life Span</text>

	<text x="1352.0" y="865.0" font-size="27px" font-family="Arial" text-anchor="left" transform="rotate(0.0, 1352.0, 865)" id="svg-2101527076-234740890" tabindex="-1" aria-label=", 2 of 2 labels.">Minimum Life Span</text>

	<rect width="0.0" height="0.0" x="0.0" y="834.0" id="svg-2101527076-179294202" tabindex="-1" />

	<rect width="0.0" height="0.0" x="0.0" y="834.0" id="svg-2101527076-1767230265" tabindex="-1" />

	<rect width="0.0" height="0.0" x="0.0" y="834.0" id="svg-2101527076-593103894" tabindex="-1" />

	<rect width="0.0" height="0.0" x="0.0" y="834.0" id="svg-2101527076-727666004" tabindex="-1" />

	<rect width="0.0" height="0.0" x="0.0" y="834.0" id="svg-2101527076-1601935322" tabindex="-1" />

	<rect width="0.0" height="0.0" x="0.0" y="834.0" id="svg-2101527076-414225167" tabindex="-1" />

	<rect width="0.0" height="0.0" x="0.0" y="834.0" id="svg-2101527076-1803093683" tabindex="-1" />

	<rect width="0.0" height="0.0" x="0.0" y="834.0" id="svg-2101527076-975033189" tabindex="-1" />

	<rect width="0.0" height="0.0" x="0.0" y="834.0" id="svg-2101527076-962287291" tabindex="-1" />

	<rect width="0.0" height="0.0" x="0.0" y="834.0" id="svg-2101527076-628064884" tabindex="-1" />

	<rect width="0.0" height="0.0" x="0.0" y="834.0" id="svg-2101527076-109069556" tabindex="-1" />

	<rect width="0.0" height="0.0" x="0.0" y="834.0" id="svg-2101527076-1389509050" tabindex="-1" />

	<rect width="0.0" height="0.0" x="0.0" y="834.0" id="svg-2101527076-828326869" tabindex="-1" />

	<rect width="0.0" height="0.0" x="0.0" y="834.0" id="svg-2101527076-1761217448" tabindex="-1" />

	<rect width="0.0" height="0.0" x="0.0" y="834.0" id="svg-2101527076-1817789863" tabindex="-1" />

	<rect width="0.0" height="0.0" x="0.0" y="834.0" id="svg-2101527076-788905599" tabindex="-1" />

	<rect width="0.0" height="0.0" x="0.0" y="834.0" id="svg-2101527076-1678709153" tabindex="-1" />

	<rect width="0.0" height="0.0" x="0.0" y="834.0" id="svg-2101527076-1544614339" tabindex="-1" />

	<rect width="0.0" height="0.0" x="0.0" y="834.0" id="svg-2101527076-2059592603" tabindex="-1" />

	<rect width="0.0" height="0.0" x="0.0" y="834.0" id="svg-2101527076-2016828666" tabindex="-1" />

	<rect width="0.0" height="0.0" x="0.0" y="834.0" id="svg-2101527076-1688782916" tabindex="-1" />

	<rect width="0.0" height="0.0" x="0.0" y="834.0" id="svg-2101527076-1064154107" tabindex="-1" />

	<rect width="0.0" height="0.0" x="0.0" y="834.0" id="svg-2101527076-1390301622" tabindex="-1" />

	<rect width="0.0" height="0.0" x="0.0" y="834.0" id="svg-2101527076-415565467" tabindex="-1" />

	<rect width="0.0" height="0.0" x="163.0" y="834.0" id="svg-2101527076-973936431" tabindex="-1" />

	<rect width="1734.0" height="4.0" x="169.0" y="732.0" id="svg-2101527076-1756207614" tabindex="-1" fill="rgba(191.25,191.25,191.25,255.0)" />

	<rect width="1734.0" height="4.0" x="169.0" y="636.0" id="svg-2101527076-1214133948" tabindex="-1" fill="rgba(191.25,191.25,191.25,255.0)" />

	<rect width="1734.0" height="4.0" x="169.0" y="540.0" id="svg-2101527076-2015301874" tabindex="-1" fill="rgba(191.25,191.25,191.25,255.0)" />

	<rect width="1734.0" height="4.0" x="169.0" y="443.0" id="svg-2101527076-712627377" tabindex="-1" fill="rgba(191.25,191.25,191.25,255.0)" />

	<rect width="1734.0" height="4.0" x="169.0" y="347.0" id="svg-2101527076-782228073" tabindex="-1" fill="rgba(191.25,191.25,191.25,255.0)" />

	<rect width="1734.0" height="4.0" x="169.0" y="251.0" id="svg-2101527076-399373008" tabindex="-1" fill="rgba(191.25,191.25,191.25,255.0)" />

	<rect width="1734.0" height="4.0" x="169.0" y="160.0" id="svg-2101527076-391506011" tabindex="-1" fill="rgba(191.25,191.25,191.25,255.0)" />

	<text x="138.0" y="846.0" font-size="27px" font-family="Arial" text-anchor="left" id="svg-2101527076-1936550492" tabindex="-1" aria-label=" label. ">6</text>

	<text x="138.0" y="751.0" font-size="27px" font-family="Arial" text-anchor="left" id="svg-2101527076-594651850" tabindex="-1" aria-label=" label. ">8</text>

	<text x="123.0" y="654.0" font-size="27px" font-family="Arial" text-anchor="left" id="svg-2101527076-1532139270" tabindex="-1" aria-label=" label. ">10</text>

	<text x="123.0" y="558.0" font-size="27px" font-family="Arial" text-anchor="left" id="svg-2101527076-1677568775" tabindex="-1" aria-label=" label. ">12</text>

	<text x="123.0" y="462.0" font-size="27px" font-family="Arial" text-anchor="left" id="svg-2101527076-2069500590" tabindex="-1" aria-label=" label. ">14</text>

	<text x="123.0" y="366.0" font-size="27px" font-family="Arial" text-anchor="left" id="svg-2101527076-1431556341" tabindex="-1" aria-label=" label. ">16</text>

	<text x="123.0" y="269.0" font-size="27px" font-family="Arial" text-anchor="left" id="svg-2101527076-452364286" tabindex="-1" aria-label=" label. ">18</text>

	<text x="123.0" y="173.0" font-size="27px" font-family="Arial" text-anchor="left" id="svg-2101527076-350069300" tabindex="-1" aria-label=" label. ">20</text>

	<rect width="1737.0" height="3.0" x="163.0" y="831.0" id="svg-2101527076-1060703587" tabindex="-1" fill="rgba(0.0,0.0,0.0,255.0)" />

	<rect width="1740.0" height="108.0" x="163.0" y="834.0" id="svg-2101527076-1957078537" tabindex="-1" fill="rgba(0.0,0.0,0.0,0.0)" aria-label="Type of extrema axis has 2 text labels. The labels are Maximum Life Span, and Minimum Life Span. " />

	<text x="902.0" y="923.0" font-size="37px" font-family="Arial" text-anchor="left" id="svg-2101527076-1514214932" tabindex="-1">Type of extrema</text>

	<rect width="6.0" height="674.0" x="163.0" y="160.0" id="svg-2101527076-594858858" tabindex="-1" fill="rgba(0.0,0.0,0.0,255.0)" />

	<rect width="163.0" height="680.0" x="0.0" y="154.0" id="svg-2101527076-1423016050" tabindex="-1" fill="rgba(0.0,0.0,0.0,0.0)" aria-label="Age axis ranges from 6 to 20. " />

	<text x="93.0" y="527.0" font-size="37px" font-family="Arial" text-anchor="left" transform="rotate(270.0, 93.0, 527)" id="svg-2101527076-352776719" tabindex="-1">Age</text>

	<text x="754.0" y="62.0" font-size="20px" font-family="Arial" text-anchor="left" id="svg-2101527076-1202042637" tabindex="-1">Minimum and Maximum Life Expectancy for Various Cat Breeds</text>

	<text x="913.0" y="140.0" font-size="25px" font-family="Arial" text-anchor="left" id="svg-2101527076-1112527632" tabindex="-1">How long do cats live</text>

	<rect width="870.0" height="677.0" x="163.0" y="157.0" id="svg-2101527076-207546206-1218519094-200404000" tabindex="-1" fill="rgba(0.0,0.0,0.0,0.0)" aria-label="Maximum Life Span, 1 of 2 box plots" />

	<polygon tabindex="-1" fill="rgba(46.0,46.0,46.0,255.0)" stroke="black" stroke-width="1.0" points="566,155 566,156 566,157 566,158 566,159 566,160 566,161 566,162 566,163 566,164 566,165 566,166 566,167 566,168 567,169 567,170 567,171 567,172 568,173 568,174 568,175 568,176 569,177 569,178 569,179 570,180 570,181 570,182 570,183 571,184 571,185 571,186 571,187 572,188 572,189 572,190 572,191 573,192 573,193 573,194 573,195 573,196 573,197 573,198 573,199 573,200 573,201 573,202 573,203 573,204 573,205 573,206 573,207 573,208 573,209 573,210 573,211 572,212 572,213 572,214 572,215 571,216 571,217 571,218 570,219 570,220 570,221 569,222 569,223 568,224 568,225 568,226 567,227 567,228 566,229 566,230 565,231 565,232 564,233 564,234 563,235 563,236 562,237 562,238 561,239 561,240 560,241 560,242 559,243 559,244 558,245 558,246 557,247 557,248 556,249 556,250 555,251 555,252 555,253 554,254 554,255 553,256 553,257 552,258 552,259 551,260 551,261 550,262 550,263 549,264 549,265 548,266 548,267 547,268 546,269 546,270 545,271 545,272 544,273 543,274 543,275 542,276 541,277 540,278 540,279 539,280 538,281 537,282 536,283 535,284 534,285 533,286 532,287 531,288 530,289 529,290 527,291 526,292 525,293 523,294 522,295 521,296 519,297 517,298 516,299 514,300 512,301 511,302 509,303 507,304 505,305 503,306 501,307 498,308 496,309 494,310 492,311 489,312 487,313 484,314 482,315 479,316 477,317 474,318 471,319 469,320 466,321 463,322 460,323 457,324 454,325 451,326 448,327 445,328 442,329 439,330 436,331 433,332 430,333 427,334 424,335 421,336 418,337 414,338 411,339 408,340 405,341 402,342 398,343 395,344 392,345 389,346 386,347 383,348 379,349 376,350 373,351 370,352 367,353 364,354 360,355 357,356 354,357 351,358 348,359 345,360 341,361 338,362 335,363 332,364 329,365 326,366 323,367 320,368 317,369 314,370 312,371 309,372 306,373 303,374 301,375 298,376 296,377 294,378 291,379 289,380 287,381 285,382 283,383 282,384 280,385 279,386 277,387 276,388 275,389 274,390 274,391 273,392 273,393 272,394 272,395 272,396 273,397 273,398 274,399 274,400 275,401 276,402 278,403 279,404 280,405 282,406 284,407 286,408 288,409 290,410 292,411 295,412 297,413 300,414 303,415 305,416 308,417 311,418 314,419 318,420 321,421 324,422 327,423 331,424 334,425 337,426 341,427 344,428 348,429 351,430 355,431 359,432 362,433 366,434 369,435 373,436 377,437 380,438 384,439 388,440 391,441 395,442 399,443 403,444 406,445 410,446 414,447 418,448 422,449 425,450 429,451 433,452 437,453 441,454 444,455 448,456 452,457 456,458 460,459 463,460 467,461 471,462 475,463 478,464 482,465 486,466 489,467 493,468 496,469 500,470 503,471 506,472 510,473 513,474 516,475 519,476 522,477 525,478 528,479 531,480 533,481 536,482 538,483 541,484 543,485 545,486 548,487 550,488 552,489 553,490 555,491 557,492 558,493 560,494 561,495 562,496 564,497 565,498 566,499 567,500 567,501 568,502 569,503 569,504 570,505 570,506 571,507 571,508 571,509 572,510 572,511 572,512 572,513 572,514 572,515 572,516 572,517 572,518 571,519 571,520 571,521 571,522 571,523 570,524 570,525 570,526 570,527 569,528 569,529 569,530 569,531 569,532 569,533 568,534 568,535 568,536 568,537 568,538 568,539 568,540 568,541 628,541 628,540 628,539 628,538 628,537 628,536 628,535 628,534 627,533 627,532 627,531 627,530 627,529 627,528 626,527 626,526 626,525 626,524 625,523 625,522 625,521 625,520 625,519 624,518 624,517 624,516 624,515 624,514 624,513 624,512 624,511 624,510 625,509 625,508 625,507 626,506 626,505 627,504 627,503 628,502 629,501 629,500 630,499 631,498 632,497 634,496 635,495 636,494 638,493 639,492 641,491 643,490 644,489 646,488 648,487 651,486 653,485 655,484 658,483 660,482 663,481 665,480 668,479 671,478 674,477 677,476 680,475 683,474 686,473 690,472 693,471 696,470 700,469 703,468 707,467 710,466 714,465 718,464 721,463 725,462 729,461 733,460 736,459 740,458 744,457 748,456 752,455 755,454 759,453 763,452 767,451 771,450 774,449 778,448 782,447 786,446 790,445 793,444 797,443 801,442 805,441 808,440 812,439 816,438 819,437 823,436 827,435 830,434 834,433 837,432 841,431 845,430 848,429 852,428 855,427 859,426 862,425 865,424 869,423 872,422 875,421 878,420 882,419 885,418 888,417 891,416 893,415 896,414 899,413 901,412 904,411 906,410 908,409 910,408 912,407 914,406 916,405 917,404 918,403 920,402 921,401 922,400 922,399 923,398 923,397 924,396 924,395 924,394 923,393 923,392 922,391 922,390 921,389 920,388 919,387 917,386 916,385 914,384 913,383 911,382 909,381 907,380 905,379 902,378 900,377 898,376 895,375 893,374 890,373 887,372 884,371 882,370 879,369 876,368 873,367 870,366 867,365 864,364 861,363 858,362 855,361 851,360 848,359 845,358 842,357 839,356 836,355 832,354 829,353 826,352 823,351 820,350 817,349 813,348 810,347 807,346 804,345 801,344 798,343 794,342 791,341 788,340 785,339 782,338 778,337 775,336 772,335 769,334 766,333 763,332 760,331 757,330 754,329 751,328 748,327 745,326 742,325 739,324 736,323 733,322 730,321 727,320 725,319 722,318 719,317 717,316 714,315 712,314 709,313 707,312 704,311 702,310 700,309 698,308 695,307 693,306 691,305 689,304 687,303 685,302 684,301 682,300 680,299 679,298 677,297 675,296 674,295 673,294 671,293 670,292 669,291 667,290 666,289 665,288 664,287 663,286 662,285 661,284 660,283 659,282 658,281 657,280 656,279 656,278 655,277 654,276 653,275 653,274 652,273 651,272 651,271 650,270 650,269 649,268 648,267 648,266 647,265 647,264 646,263 646,262 645,261 645,260 644,259 644,258 643,257 643,256 642,255 642,254 641,253 641,252 641,251 640,250 640,249 639,248 639,247 638,246 638,245 637,244 637,243 636,242 636,241 635,240 635,239 634,238 634,237 633,236 633,235 632,234 632,233 631,232 631,231 630,230 630,229 629,228 629,227 628,226 628,225 628,224 627,223 627,222 626,221 626,220 626,219 625,218 625,217 625,216 624,215 624,214 624,213 624,212 623,211 623,210 623,209 623,208 623,207 623,206 623,205 623,204 623,203 623,202 623,201 623,200 623,199 623,198 623,197 623,196 623,195 623,194 623,193 623,192 624,191 624,190 624,189 624,188 625,187 625,186 625,185 625,184 626,183 626,182 626,181 626,180 627,179 627,178 627,177 628,176 628,175 628,174 628,173 629,172 629,171 629,170 629,169 630,168 630,167 630,166 630,165 630,164 630,163 630,162 630,161 630,160 630,159 630,158 630,157 630,156 630,155 " />

	<rect width="8.0" height="8.0" x="594.0" y="440.0" id="svg-2101527076-207546206-1218519094-1463022229" tabindex="-1" fill="black" aria-label="Minimum 14" />

	<rect width="8.0" height="49.0" x="594.0" y="399.0" id="svg-2101527076-207546206-1218519094-472991420" tabindex="-1" fill="black" aria-label="Unnamed" />

	<rect width="24.0" height="56.0" x="586.0" y="343.0" id="svg-2101527076-207546206-1218519094-1455855843" tabindex="-1" fill="black" aria-label="Interquartile range 1" />

	<rect width="24.0" height="8.0" x="586.0" y="391.0" id="svg-2101527076-207546206-1218519094-1202220987" tabindex="-1" fill="black" aria-label="1st Quartile 15" />

	<rect width="24.0" height="8.0" x="586.0" y="343.0" id="svg-2101527076-207546206-1218519094-425015667" tabindex="-1" fill="black" aria-label="3rd Quartile 16" />

	<rect width="8.0" height="40.0" x="594.0" y="311.0" id="svg-2101527076-207546206-1218519094-2075568954" tabindex="-1" fill="black" aria-label="Unnamed" />

	<rect width="8.0" height="8.0" x="594.0" y="303.0" id="svg-2101527076-207546206-1218519094-2145896000" tabindex="-1" fill="black" aria-label="Maximum 17" />

	<circle cx="598.5" cy="390.5" r="8.5" id="svg-2101527076-207546206-1218519094-256346753" tabindex="-1" fill="white" stroke="black" stroke-width="1.0" aria-label="Median 15" />

	<rect width="870.0" height="677.0" x="1033.0" y="157.0" id="svg-2101527076-1279740095-2095677157-852026681" tabindex="-1" fill="rgba(0.0,0.0,0.0,0.0)" aria-label="Minimum Life Span, 2 of 2 box plots" />

	<polygon tabindex="-1" fill="rgba(239.0,201.0,31.0,255.0)" stroke="black" stroke-width="1.0" points="1456,252 1456,253 1456,254 1456,255 1455,256 1455,257 1455,258 1455,259 1455,260 1455,261 1455,262 1455,263 1455,264 1455,265 1455,266 1455,267 1454,268 1454,269 1454,270 1454,271 1454,272 1454,273 1454,274 1454,275 1454,276 1454,277 1454,278 1454,279 1454,280 1454,281 1454,282 1454,283 1455,284 1455,285 1455,286 1455,287 1455,288 1455,289 1455,290 1455,291 1455,292 1455,293 1455,294 1455,295 1455,296 1456,297 1456,298 1456,299 1456,300 1456,301 1456,302 1456,303 1456,304 1457,305 1457,306 1457,307 1457,308 1457,309 1457,310 1457,311 1458,312 1458,313 1458,314 1458,315 1458,316 1458,317 1459,318 1459,319 1459,320 1459,321 1459,322 1459,323 1459,324 1459,325 1459,326 1459,327 1459,328 1459,329 1459,330 1459,331 1459,332 1459,333 1459,334 1459,335 1459,336 1459,337 1459,338 1459,339 1458,340 1458,341 1458,342 1458,343 1457,344 1457,345 1457,346 1456,347 1456,348 1455,349 1455,350 1454,351 1454,352 1453,353 1452,354 1452,355 1451,356 1450,357 1450,358 1449,359 1448,360 1447,361 1446,362 1445,363 1444,364 1443,365 1442,366 1441,367 1440,368 1439,369 1438,370 1437,371 1436,372 1435,373 1434,374 1433,375 1432,376 1430,377 1429,378 1428,379 1427,380 1426,381 1424,382 1423,383 1422,384 1421,385 1419,386 1418,387 1417,388 1416,389 1414,390 1413,391 1412,392 1410,393 1409,394 1408,395 1407,396 1405,397 1404,398 1403,399 1401,400 1400,401 1399,402 1397,403 1396,404 1395,405 1394,406 1392,407 1391,408 1390,409 1388,410 1387,411 1386,412 1385,413 1383,414 1382,415 1381,416 1380,417 1379,418 1377,419 1376,420 1375,421 1374,422 1373,423 1372,424 1371,425 1370,426 1369,427 1368,428 1368,429 1367,430 1366,431 1365,432 1365,433 1364,434 1364,435 1363,436 1363,437 1363,438 1362,439 1362,440 1362,441 1362,442 1362,443 1362,444 1362,445 1362,446 1363,447 1363,448 1363,449 1364,450 1364,451 1365,452 1365,453 1366,454 1366,455 1367,456 1368,457 1368,458 1369,459 1370,460 1371,461 1371,462 1372,463 1373,464 1373,465 1374,466 1374,467 1375,468 1375,469 1376,470 1376,471 1376,472 1376,473 1376,474 1376,475 1376,476 1376,477 1375,478 1375,479 1374,480 1373,481 1372,482 1371,483 1369,484 1368,485 1366,486 1364,487 1362,488 1360,489 1357,490 1355,491 1352,492 1349,493 1346,494 1342,495 1339,496 1335,497 1331,498 1327,499 1323,500 1318,501 1314,502 1309,503 1304,504 1299,505 1294,506 1288,507 1283,508 1277,509 1272,510 1266,511 1260,512 1255,513 1249,514 1243,515 1237,516 1232,517 1226,518 1220,519 1215,520 1209,521 1204,522 1199,523 1193,524 1189,525 1184,526 1179,527 1175,528 1171,529 1167,530 1163,531 1160,532 1157,533 1154,534 1151,535 1149,536 1147,537 1145,538 1144,539 1143,540 1143,541 1142,542 1142,543 1143,544 1143,545 1144,546 1145,547 1147,548 1149,549 1151,550 1154,551 1156,552 1159,553 1163,554 1166,555 1170,556 1174,557 1178,558 1182,559 1187,560 1191,561 1196,562 1201,563 1206,564 1211,565 1216,566 1221,567 1226,568 1231,569 1237,570 1242,571 1247,572 1252,573 1257,574 1262,575 1267,576 1272,577 1276,578 1281,579 1285,580 1290,581 1294,582 1298,583 1302,584 1305,585 1309,586 1312,587 1315,588 1318,589 1321,590 1324,591 1326,592 1328,593 1331,594 1332,595 1334,596 1336,597 1337,598 1338,599 1339,600 1340,601 1341,602 1342,603 1342,604 1342,605 1343,606 1343,607 1343,608 1343,609 1342,610 1342,611 1342,612 1341,613 1341,614 1340,615 1340,616 1339,617 1338,618 1338,619 1337,620 1336,621 1336,622 1335,623 1335,624 1334,625 1333,626 1333,627 1332,628 1332,629 1332,630 1332,631 1331,632 1331,633 1331,634 1331,635 1331,636 1332,637 1332,638 1332,639 1333,640 1334,641 1334,642 1335,643 1336,644 1337,645 1338,646 1339,647 1341,648 1342,649 1344,650 1345,651 1347,652 1348,653 1350,654 1352,655 1354,656 1356,657 1358,658 1360,659 1362,660 1364,661 1366,662 1368,663 1371,664 1373,665 1375,666 1377,667 1379,668 1382,669 1384,670 1386,671 1388,672 1390,673 1392,674 1394,675 1396,676 1398,677 1400,678 1402,679 1404,680 1406,681 1408,682 1410,683 1411,684 1413,685 1415,686 1416,687 1418,688 1419,689 1421,690 1422,691 1424,692 1425,693 1426,694 1428,695 1429,696 1430,697 1431,698 1432,699 1433,700 1434,701 1435,702 1436,703 1437,704 1438,705 1438,706 1439,707 1440,708 1441,709 1441,710 1442,711 1443,712 1443,713 1444,714 1445,715 1445,716 1446,717 1446,718 1447,719 1447,720 1448,721 1448,722 1448,723 1449,724 1449,725 1450,726 1450,727 1451,728 1451,729 1451,730 1452,731 1452,732 1452,733 1453,734 1453,735 1483,735 1483,734 1484,733 1484,732 1484,731 1485,730 1485,729 1485,728 1486,727 1486,726 1487,725 1487,724 1488,723 1488,722 1488,721 1489,720 1489,719 1490,718 1490,717 1491,716 1491,715 1492,714 1493,713 1493,712 1494,711 1495,710 1495,709 1496,708 1497,707 1498,706 1498,705 1499,704 1500,703 1501,702 1502,701 1503,700 1504,699 1505,698 1506,697 1507,696 1508,695 1510,694 1511,693 1512,692 1514,691 1515,690 1517,689 1518,688 1520,687 1521,686 1523,685 1525,684 1526,683 1528,682 1530,681 1532,680 1534,679 1536,678 1538,677 1540,676 1542,675 1544,674 1546,673 1548,672 1550,671 1552,670 1554,669 1557,668 1559,667 1561,666 1563,665 1565,664 1568,663 1570,662 1572,661 1574,660 1576,659 1578,658 1580,657 1582,656 1584,655 1586,654 1588,653 1589,652 1591,651 1592,650 1594,649 1595,648 1597,647 1598,646 1599,645 1600,644 1601,643 1602,642 1602,641 1603,640 1604,639 1604,638 1604,637 1605,636 1605,635 1605,634 1605,633 1605,632 1604,631 1604,630 1604,629 1604,628 1603,627 1603,626 1602,625 1601,624 1601,623 1600,622 1600,621 1599,620 1598,619 1598,618 1597,617 1596,616 1596,615 1595,614 1595,613 1594,612 1594,611 1594,610 1593,609 1593,608 1593,607 1593,606 1594,605 1594,604 1594,603 1595,602 1596,601 1597,600 1598,599 1599,598 1600,597 1602,596 1604,595 1605,594 1608,593 1610,592 1612,591 1615,590 1618,589 1621,588 1624,587 1627,586 1631,585 1634,584 1638,583 1642,582 1646,581 1651,580 1655,579 1660,578 1664,577 1669,576 1674,575 1679,574 1684,573 1689,572 1694,571 1699,570 1705,569 1710,568 1715,567 1720,566 1725,565 1730,564 1735,563 1740,562 1745,561 1749,560 1754,559 1758,558 1762,557 1766,556 1770,555 1773,554 1777,553 1780,552 1782,551 1785,550 1787,549 1789,548 1791,547 1792,546 1793,545 1793,544 1794,543 1794,542 1793,541 1793,540 1792,539 1791,538 1789,537 1787,536 1785,535 1782,534 1779,533 1776,532 1773,531 1769,530 1765,529 1761,528 1757,527 1752,526 1747,525 1743,524 1737,523 1732,522 1727,521 1721,520 1716,519 1710,518 1704,517 1699,516 1693,515 1687,514 1681,513 1676,512 1670,511 1664,510 1659,509 1653,508 1648,507 1642,506 1637,505 1632,504 1627,503 1622,502 1618,501 1613,500 1609,499 1605,498 1601,497 1597,496 1594,495 1590,494 1587,493 1584,492 1581,491 1579,490 1576,489 1574,488 1572,487 1570,486 1568,485 1567,484 1565,483 1564,482 1563,481 1562,480 1561,479 1561,478 1560,477 1560,476 1560,475 1560,474 1560,473 1560,472 1560,471 1560,470 1561,469 1561,468 1562,467 1562,466 1563,465 1563,464 1564,463 1565,462 1565,461 1566,460 1567,459 1568,458 1568,457 1569,456 1570,455 1570,454 1571,453 1571,452 1572,451 1572,450 1573,449 1573,448 1573,447 1574,446 1574,445 1574,444 1574,443 1574,442 1574,441 1574,440 1574,439 1573,438 1573,437 1573,436 1572,435 1572,434 1571,433 1571,432 1570,431 1569,430 1568,429 1568,428 1567,427 1566,426 1565,425 1564,424 1563,423 1562,422 1561,421 1560,420 1559,419 1557,418 1556,417 1555,416 1554,415 1553,414 1551,413 1550,412 1549,411 1548,410 1546,409 1545,408 1544,407 1542,406 1541,405 1540,404 1539,403 1537,402 1536,401 1535,400 1533,399 1532,398 1531,397 1529,396 1528,395 1527,394 1526,393 1524,392 1523,391 1522,390 1520,389 1519,388 1518,387 1517,386 1515,385 1514,384 1513,383 1512,382 1510,381 1509,380 1508,379 1507,378 1506,377 1504,376 1503,375 1502,374 1501,373 1500,372 1499,371 1498,370 1497,369 1496,368 1495,367 1494,366 1493,365 1492,364 1491,363 1490,362 1489,361 1488,360 1487,359 1486,358 1486,357 1485,356 1484,355 1484,354 1483,353 1482,352 1482,351 1481,350 1481,349 1480,348 1480,347 1479,346 1479,345 1479,344 1478,343 1478,342 1478,341 1478,340 1477,339 1477,338 1477,337 1477,336 1477,335 1477,334 1477,333 1477,332 1477,331 1477,330 1477,329 1477,328 1477,327 1477,326 1477,325 1477,324 1477,323 1477,322 1477,321 1477,320 1477,319 1477,318 1478,317 1478,316 1478,315 1478,314 1478,313 1478,312 1479,311 1479,310 1479,309 1479,308 1479,307 1479,306 1479,305 1480,304 1480,303 1480,302 1480,301 1480,300 1480,299 1480,298 1480,297 1481,296 1481,295 1481,294 1481,293 1481,292 1481,291 1481,290 1481,289 1481,288 1481,287 1481,286 1481,285 1481,284 1482,283 1482,282 1482,281 1482,280 1482,279 1482,278 1482,277 1482,276 1482,275 1482,274 1482,273 1482,272 1482,271 1482,270 1482,269 1482,268 1481,267 1481,266 1481,265 1481,264 1481,263 1481,262 1481,261 1481,260 1481,259 1481,258 1481,257 1481,256 1480,255 1480,254 1480,253 1480,252 " />

	<rect width="8.0" height="8.0" x="1464.0" y="681.0" id="svg-2101527076-1279740095-2095677157-1943855334" tabindex="-1" fill="black" aria-label="Minimum 9" />

	<rect width="8.0" height="96.0" x="1464.0" y="593.0" id="svg-2101527076-1279740095-2095677157-94919826" tabindex="-1" fill="black" aria-label="Unnamed" />

	<rect width="24.0" height="81.0" x="1456.0" y="512.0" id="svg-2101527076-1279740095-2095677157-847320212" tabindex="-1" fill="black" aria-label="Interquartile range 1.5" />

	<rect width="24.0" height="8.0" x="1456.0" y="585.0" id="svg-2101527076-1279740095-2095677157-1201004240" tabindex="-1" fill="black" aria-label="1st Quartile 11" />

	<rect width="24.0" height="8.0" x="1456.0" y="512.0" id="svg-2101527076-1279740095-2095677157-349259569" tabindex="-1" fill="black" aria-label="3rd Quartile 12.5" />

	<rect width="8.0" height="64.0" x="1464.0" y="456.0" id="svg-2101527076-1279740095-2095677157-785306763" tabindex="-1" fill="black" aria-label="Unnamed" />

	<rect width="8.0" height="8.0" x="1464.0" y="448.0" id="svg-2101527076-1279740095-2095677157-1204088028" tabindex="-1" fill="black" aria-label="Maximum 14" />

	<circle cx="1468.5" cy="535.5" r="8.5" id="svg-2101527076-1279740095-2095677157-1406848276" tabindex="-1" fill="white" stroke="black" stroke-width="1.0" aria-label="Median 12" />

	<rect width="1740.0" height="58.0" x="163.0" y="942.0" id="svg-2101527076-1123236701" tabindex="-1" fill="rgba(0.0,0.0,0.0,0.0)" aria-label="legend with 2 series" />

	<text x="175.0" y="985.0" font-size="37px" font-family="Arial" text-anchor="left" id="svg-2101527076-1552221437" tabindex="-1" aria-label="Life Span">Life Span</text>

	<rect width="25.0" height="25.0" x="342.0" y="954.0" id="svg-2101527076-79161706" tabindex="-1" fill="rgba(46.0,46.0,46.0,255.0)" />

	<text x="379.0" y="979.0" font-size="25px" font-family="Arial" text-anchor="left" id="svg-2101527076-1218519094" tabindex="-1" aria-label="Maximum Life Span">Maximum Life Span</text>

	<rect width="25.0" height="25.0" x="615.0" y="954.0" id="svg-2101527076-1685407532" tabindex="-1" fill="rgba(239.0,201.0,31.0,255.0)" />

	<text x="652.0" y="979.0" font-size="25px" font-family="Arial" text-anchor="left" id="svg-2101527076-2095677157" tabindex="-1" aria-label="Minimum Life Span">Minimum Life Span</text>

	<div id= "svg-2101527076-nav" class= "svgNavigation" role= "application" ><ul role= "tree" ><li id= "svg-2101527076-1454026445-nav" tabindex= "-1" role= "treeitem" aria-labelledby= "svg-2101527076-1454026445" ></li><li id= "svg-2101527076-1423016050-nav" tabindex= "-1" role= "treeitem" aria-labelledby= "svg-2101527076-1423016050" aria-expanded= "false" ><ul role= "group" ><li id= "svg-2101527076-1936550492-nav" tabindex= "-1" role= "treeitem" aria-labelledby= "svg-2101527076-1936550492" ></li><li id= "svg-2101527076-594651850-nav" tabindex= "-1" role= "treeitem" aria-labelledby= "svg-2101527076-594651850" ></li><li id= "svg-2101527076-1532139270-nav" tabindex= "-1" role= "treeitem" aria-labelledby= "svg-2101527076-1532139270" ></li><li id= "svg-2101527076-1677568775-nav" tabindex= "-1" role= "treeitem" aria-labelledby= "svg-2101527076-1677568775" ></li><li id= "svg-2101527076-2069500590-nav" tabindex= "-1" role= "treeitem" aria-labelledby= "svg-2101527076-2069500590" ></li><li id= "svg-2101527076-1431556341-nav" tabindex= "-1" role= "treeitem" aria-labelledby= "svg-2101527076-1431556341" ></li><li id= "svg-2101527076-452364286-nav" tabindex= "-1" role= "treeitem" aria-labelledby= "svg-2101527076-452364286" ></li><li id= "svg-2101527076-350069300-nav" tabindex= "-1" role= "treeitem" aria-labelledby= "svg-2101527076-350069300" ></li></ul></li><li id= "svg-2101527076-1378497201-nav" tabindex= "-1" role= "treeitem" aria-labelledby= "svg-2101527076-1378497201" aria-expanded= "false" ><ul role= "group" ><li id= "svg-2101527076-207546206-1218519094-200404000-nav" tabindex= "-1" role= "treeitem" aria-labelledby= "svg-2101527076-207546206-1218519094-200404000" aria-expanded= "false" ><ul role= "group" ><li id= "svg-2101527076-207546206-1218519094-1463022229-nav" tabindex= "-1" role= "treeitem" aria-labelledby= "svg-2101527076-207546206-1218519094-1463022229" ></li><li id= "svg-2101527076-207546206-1218519094-1455855843-nav" tabindex= "-1" role= "treeitem" aria-labelledby= "svg-2101527076-207546206-1218519094-1455855843" ></li><li id= "svg-2101527076-207546206-1218519094-1202220987-nav" tabindex= "-1" role= "treeitem" aria-labelledby= "svg-2101527076-207546206-1218519094-1202220987" ></li><li id= "svg-2101527076-207546206-1218519094-256346753-nav" tabindex= "-1" role= "treeitem" aria-labelledby= "svg-2101527076-207546206-1218519094-256346753" ></li><li id= "svg-2101527076-207546206-1218519094-425015667-nav" tabindex= "-1" role= "treeitem" aria-labelledby= "svg-2101527076-207546206-1218519094-425015667" ></li><li id= "svg-2101527076-207546206-1218519094-2145896000-nav" tabindex= "-1" role= "treeitem" aria-labelledby= "svg-2101527076-207546206-1218519094-2145896000" ></li></ul></li><li id= "svg-2101527076-1279740095-2095677157-852026681-nav" tabindex= "-1" role= "treeitem" aria-labelledby= "svg-2101527076-1279740095-2095677157-852026681" aria-expanded= "false" ><ul role= "group" ><li id= "svg-2101527076-1279740095-2095677157-1943855334-nav" tabindex= "-1" role= "treeitem" aria-labelledby= "svg-2101527076-1279740095-2095677157-1943855334" ></li><li id= "svg-2101527076-1279740095-2095677157-847320212-nav" tabindex= "-1" role= "treeitem" aria-labelledby= "svg-2101527076-1279740095-2095677157-847320212" ></li><li id= "svg-2101527076-1279740095-2095677157-1201004240-nav" tabindex= "-1" role= "treeitem" aria-labelledby= "svg-2101527076-1279740095-2095677157-1201004240" ></li><li id= "svg-2101527076-1279740095-2095677157-1406848276-nav" tabindex= "-1" role= "treeitem" aria-labelledby= "svg-2101527076-1279740095-2095677157-1406848276" ></li><li id= "svg-2101527076-1279740095-2095677157-349259569-nav" tabindex= "-1" role= "treeitem" aria-labelledby= "svg-2101527076-1279740095-2095677157-349259569" ></li><li id= "svg-2101527076-1279740095-2095677157-1204088028-nav" tabindex= "-1" role= "treeitem" aria-labelledby= "svg-2101527076-1279740095-2095677157-1204088028" ></li></ul></li></ul></li><li id= "svg-2101527076-1957078537-nav" tabindex= "-1" role= "treeitem" aria-labelledby= "svg-2101527076-1957078537" aria-expanded= "false" ><ul role= "group" ><li id= "svg-2101527076-882646447-nav" tabindex= "-1" role= "treeitem" aria-labelledby= "svg-2101527076-882646447" ></li><li id= "svg-2101527076-234740890-nav" tabindex= "-1" role= "treeitem" aria-labelledby= "svg-2101527076-234740890" ></li></ul></li><li id= "svg-2101527076-1123236701-nav" tabindex= "-1" role= "treeitem" aria-labelledby= "svg-2101527076-1123236701" aria-expanded= "false" ><ul role= "group" ><li id= "svg-2101527076-1218519094-nav" tabindex= "-1" role= "treeitem" aria-labelledby= "svg-2101527076-1218519094" ></li><li id= "svg-2101527076-2095677157-nav" tabindex= "-1" role= "treeitem" aria-labelledby= "svg-2101527076-2095677157" ></li></ul></li></ul></div>
</svg>
