<svg viewBox="0 0 1000 1000"
	xmlns="http://www.w3.org/2000/svg" id="svg_1868914109_226202614242076680765" tabindex="-1" class="quorum-chart" style="user-select: none;" role="application">

	<rect width="100.0%" height="100.0%" x="0.0%" y="0.0%" id="svg_1868914109_226202614242076680765_1415611350" tabindex="-1" class="quorum-chart-information-list selection-box226202614242076680765" fill="rgb(255.0,255.0,255.0)" role="graphics-object" aria-hidden="true" />

	<g tabindex="-1"><text x="98.0" y="981.0" font-size="25px" font-family="Arial" text-anchor="left" id="svg_1868914109_226202614242076680765_619804661" tabindex="-1" class="quorum-chart-text" fill="rgb(0.0,0.0,0.0)" aria-label="Life Span" aria-hidden="true">Life Span</text>
<g id="svg_1868914109_226202614242076680765_1077938655_legend" tabindex="-1" class="quorum-chart-legendentry" fill="rgb(240.0,94.0,93.0)" fill-opacity="1.0" aria-label="Minimum Life Span1 points, 1 of 2 series." aria-hidden="true"><rect width="190.0" height="42.0" x="210.0" y="958.0" rx="10.0" ry="10.0" id="svg_1868914109_226202614242076680765-1077938655" tabindex="-1" class="quorum-chart-selection-outline" fill="rgb(0.0,0.0,0.0)" fill-opacity="0.0" aria-hidden="true" />
<rect width="18.0" height="18.0" x="214.0" y="967.0" id="svg_1868914109_226202614242076680765_1709199365" tabindex="-1" class="quorum-chart-rect" fill="rgb(46.0,46.0,46.0)" aria-hidden="true" />
<text x="241.0" y="981.0" font-size="18px" font-family="Arial" text-anchor="left" id="svg_1868914109_226202614242076680765_1859555837" tabindex="-1" class="quorum-chart-text" fill="rgb(0.0,0.0,0.0)" fill-opacity="1.0" aria-label="Minimum Life Span" aria-hidden="true">Minimum Life Span</text>
</g>
<g id="svg_1868914109_226202614242076680765_622946713_legend" tabindex="-1" class="quorum-chart-legendentry" fill="rgb(240.0,94.0,93.0)" fill-opacity="1.0" aria-label="Maximum Life Span1 points, 2 of 2 series." aria-hidden="true"><rect width="195.0" height="42.0" x="400.0" y="958.0" rx="10.0" ry="10.0" id="svg_1868914109_226202614242076680765-622946713" tabindex="-1" class="quorum-chart-selection-outline" fill="rgb(0.0,0.0,0.0)" fill-opacity="0.0" aria-hidden="true" />
<rect width="18.0" height="18.0" x="404.0" y="967.0" id="svg_1868914109_226202614242076680765_519879168" tabindex="-1" class="quorum-chart-rect" fill="rgb(239.0,201.0,31.0)" aria-hidden="true" />
<text x="431.0" y="981.0" font-size="18px" font-family="Arial" text-anchor="left" id="svg_1868914109_226202614242076680765_823994613" tabindex="-1" class="quorum-chart-text" fill="rgb(0.0,0.0,0.0)" fill-opacity="1.0" aria-label="Maximum Life Span" aria-hidden="true">Maximum Life Span</text>
</g>
</g>

	<g tabindex="-1"><rect width="0.0" height="0.0" x="89.0" y="958.0" id="svg_1868914109_226202614242076680765_1345611807" tabindex="-1" aria-hidden="true" />
<rect width="0.0" height="0.0" x="89.0" y="958.0" id="svg_1868914109_226202614242076680765_503209425" tabindex="-1" aria-hidden="true" />
<rect width="0.0" height="0.0" x="89.0" y="958.0" id="svg_1868914109_226202614242076680765_534798335" tabindex="-1" aria-hidden="true" />
<rect width="0.0" height="0.0" x="89.0" y="958.0" id="svg_1868914109_226202614242076680765_1845590352" tabindex="-1" aria-hidden="true" />
<rect width="0.0" height="0.0" x="89.0" y="958.0" id="svg_1868914109_226202614242076680765_486965279" tabindex="-1" aria-hidden="true" />
<rect width="0.0" height="0.0" x="89.0" y="958.0" id="svg_1868914109_226202614242076680765_1920554683" tabindex="-1" aria-hidden="true" />
<text x="227.0" y="897.0" font-size="18px" font-family="Arial" text-anchor="left" transform="rotate(0.0, 227.0, 901)" id="svg_1868914109_226202614242076680765_595239111" tabindex="-1" class="quorum-chart-text" fill="rgb(0.0,0.0,0.0)" fill-opacity="1.0" aria-label=", 1 of 2 labels." aria-hidden="true">Minimum Life Span</text>
<text x="654.0" y="897.0" font-size="18px" font-family="Arial" text-anchor="left" transform="rotate(0.0, 654.0, 901)" id="svg_1868914109_226202614242076680765_462349981" tabindex="-1" class="quorum-chart-text" fill="rgb(0.0,0.0,0.0)" fill-opacity="1.0" aria-label=", 2 of 2 labels." aria-hidden="true">Maximum Life Span</text>
</g>

	<line x1="0.0" y1="0.0" x2="0.0" y2="0.0" id="svg_1868914109_226202614242076680765_1878782124" tabindex="-1" stroke-width="0.0" stroke-dasharray="20 20" transform=" translate(89.0 877.0)   " aria-hidden="true" />

	<line x1="0.0" y1="0.0" x2="0.0" y2="0.0" id="svg_1868914109_226202614242076680765_181784570" tabindex="-1" stroke-width="0.0" stroke-dasharray="20 20" transform=" translate(89.0 877.0)   " aria-hidden="true" />

	<rect width="0.0" height="0.0" x="0.0" y="877.0" id="svg_1868914109_226202614242076680765_2034523899" tabindex="-1" aria-hidden="true" />

	<rect width="0.0" height="0.0" x="0.0" y="877.0" id="svg_1868914109_226202614242076680765_361948480" tabindex="-1" aria-hidden="true" />

	<rect width="0.0" height="0.0" x="0.0" y="877.0" id="svg_1868914109_226202614242076680765_1042772649" tabindex="-1" aria-hidden="true" />

	<rect width="0.0" height="0.0" x="0.0" y="877.0" id="svg_1868914109_226202614242076680765_1145680499" tabindex="-1" aria-hidden="true" />

	<rect width="0.0" height="0.0" x="0.0" y="877.0" id="svg_1868914109_226202614242076680765_530681735" tabindex="-1" aria-hidden="true" />

	<rect width="0.0" height="0.0" x="0.0" y="877.0" id="svg_1868914109_226202614242076680765_496751062" tabindex="-1" aria-hidden="true" />

	<rect width="0.0" height="0.0" x="0.0" y="877.0" id="svg_1868914109_226202614242076680765_413944566" tabindex="-1" aria-hidden="true" />

	<rect width="0.0" height="0.0" x="0.0" y="877.0" id="svg_1868914109_226202614242076680765_293583290" tabindex="-1" aria-hidden="true" />

	<rect width="0.0" height="0.0" x="0.0" y="877.0" id="svg_1868914109_226202614242076680765_45207973" tabindex="-1" aria-hidden="true" />

	<rect width="0.0" height="0.0" x="0.0" y="877.0" id="svg_1868914109_226202614242076680765_1105700164" tabindex="-1" aria-hidden="true" />

	<rect width="0.0" height="0.0" x="0.0" y="877.0" id="svg_1868914109_226202614242076680765_996584564" tabindex="-1" aria-hidden="true" />

	<rect width="0.0" height="0.0" x="0.0" y="877.0" id="svg_1868914109_226202614242076680765_1463316683" tabindex="-1" aria-hidden="true" />

	<rect width="0.0" height="0.0" x="0.0" y="877.0" id="svg_1868914109_226202614242076680765_1535684464" tabindex="-1" aria-hidden="true" />

	<rect width="0.0" height="0.0" x="0.0" y="877.0" id="svg_1868914109_226202614242076680765_658107584" tabindex="-1" aria-hidden="true" />

	<rect width="0.0" height="0.0" x="0.0" y="877.0" id="svg_1868914109_226202614242076680765_691200351" tabindex="-1" aria-hidden="true" />

	<rect width="0.0" height="0.0" x="0.0" y="877.0" id="svg_1868914109_226202614242076680765_1033400986" tabindex="-1" aria-hidden="true" />

	<rect width="0.0" height="0.0" x="0.0" y="877.0" id="svg_1868914109_226202614242076680765_594913654" tabindex="-1" aria-hidden="true" />

	<rect width="0.0" height="0.0" x="0.0" y="877.0" id="svg_1868914109_226202614242076680765_1271012916" tabindex="-1" aria-hidden="true" />

	<rect width="0.0" height="0.0" x="0.0" y="877.0" id="svg_1868914109_226202614242076680765_1967400458" tabindex="-1" aria-hidden="true" />

	<rect width="0.0" height="0.0" x="0.0" y="877.0" id="svg_1868914109_226202614242076680765_196511386" tabindex="-1" aria-hidden="true" />

	<rect width="0.0" height="0.0" x="0.0" y="877.0" id="svg_1868914109_226202614242076680765_84324483" tabindex="-1" aria-hidden="true" />

	<rect width="0.0" height="0.0" x="0.0" y="877.0" id="svg_1868914109_226202614242076680765_1592671657" tabindex="-1" aria-hidden="true" />

	<rect width="0.0" height="0.0" x="0.0" y="877.0" id="svg_1868914109_226202614242076680765_181281800" tabindex="-1" aria-hidden="true" />

	<rect width="0.0" height="0.0" x="0.0" y="877.0" id="svg_1868914109_226202614242076680765_896786845" tabindex="-1" aria-hidden="true" />

	<line x1="0.0" y1="0.0" x2="0.0" y2="0.0" id="svg_1868914109_226202614242076680765_96591128" tabindex="-1" stroke="rgb(227.0,221.0,221.0)" stroke-width="0.0" stroke-dasharray="20 20" transform=" translate(89.0 877.0)   " aria-hidden="true" />

	<line x1="0.0" y1="0.0" x2="860.0" y2="0.0" id="svg_1868914109_226202614242076680765_711834492" tabindex="-1" stroke="rgb(227.0,221.0,221.0)" stroke-width="1.0" stroke-dasharray="20 20" transform=" translate(89.0 772.0)   " aria-hidden="true" />

	<line x1="0.0" y1="0.0" x2="860.0" y2="0.0" id="svg_1868914109_226202614242076680765_1366832221" tabindex="-1" stroke="rgb(227.0,221.0,221.0)" stroke-width="1.0" stroke-dasharray="20 20" transform=" translate(89.0 668.0)   " aria-hidden="true" />

	<line x1="0.0" y1="0.0" x2="860.0" y2="0.0" id="svg_1868914109_226202614242076680765_2066569446" tabindex="-1" stroke="rgb(227.0,221.0,221.0)" stroke-width="1.0" stroke-dasharray="20 20" transform=" translate(89.0 564.0)   " aria-hidden="true" />

	<line x1="0.0" y1="0.0" x2="860.0" y2="0.0" id="svg_1868914109_226202614242076680765_1888449414" tabindex="-1" stroke="rgb(227.0,221.0,221.0)" stroke-width="1.0" stroke-dasharray="20 20" transform=" translate(89.0 459.0)   " aria-hidden="true" />

	<line x1="0.0" y1="0.0" x2="860.0" y2="0.0" id="svg_1868914109_226202614242076680765_931041456" tabindex="-1" stroke="rgb(227.0,221.0,221.0)" stroke-width="1.0" stroke-dasharray="20 20" transform=" translate(89.0 355.0)   " aria-hidden="true" />

	<line x1="0.0" y1="0.0" x2="860.0" y2="0.0" id="svg_1868914109_226202614242076680765_666144990" tabindex="-1" stroke="rgb(227.0,221.0,221.0)" stroke-width="1.0" stroke-dasharray="20 20" transform=" translate(89.0 251.0)   " aria-hidden="true" />

	<line x1="0.0" y1="0.0" x2="860.0" y2="0.0" id="svg_1868914109_226202614242076680765_919541414" tabindex="-1" stroke="rgb(227.0,221.0,221.0)" stroke-width="1.0" stroke-dasharray="20 20" transform=" translate(89.0 146.0)   " aria-hidden="true" />

	<text x="73.0" y="883.0" font-size="18px" font-family="Arial" text-anchor="left" id="svg_1868914109_226202614242076680765_1037521082" tabindex="-1" class="quorum-chart-text" fill="rgb(0.0,0.0,0.0)" fill-opacity="1.0" aria-label=" label. " aria-hidden="true">6</text>

	<text x="73.0" y="780.0" font-size="18px" font-family="Arial" text-anchor="left" id="svg_1868914109_226202614242076680765_2129636512" tabindex="-1" class="quorum-chart-text" fill="rgb(0.0,0.0,0.0)" fill-opacity="1.0" aria-label=" label. " aria-hidden="true">8</text>

	<text x="63.0" y="675.0" font-size="18px" font-family="Arial" text-anchor="left" id="svg_1868914109_226202614242076680765_2103374275" tabindex="-1" class="quorum-chart-text" fill="rgb(0.0,0.0,0.0)" fill-opacity="1.0" aria-label=" label. " aria-hidden="true">10</text>

	<text x="63.0" y="571.0" font-size="18px" font-family="Arial" text-anchor="left" id="svg_1868914109_226202614242076680765_871019240" tabindex="-1" class="quorum-chart-text" fill="rgb(0.0,0.0,0.0)" fill-opacity="1.0" aria-label=" label. " aria-hidden="true">12</text>

	<text x="63.0" y="467.0" font-size="18px" font-family="Arial" text-anchor="left" id="svg_1868914109_226202614242076680765_884958895" tabindex="-1" class="quorum-chart-text" fill="rgb(0.0,0.0,0.0)" fill-opacity="1.0" aria-label=" label. " aria-hidden="true">14</text>

	<text x="63.0" y="363.0" font-size="18px" font-family="Arial" text-anchor="left" id="svg_1868914109_226202614242076680765_926303796" tabindex="-1" class="quorum-chart-text" fill="rgb(0.0,0.0,0.0)" fill-opacity="1.0" aria-label=" label. " aria-hidden="true">16</text>

	<text x="63.0" y="258.0" font-size="18px" font-family="Arial" text-anchor="left" id="svg_1868914109_226202614242076680765_1038907896" tabindex="-1" class="quorum-chart-text" fill="rgb(0.0,0.0,0.0)" fill-opacity="1.0" aria-label=" label. " aria-hidden="true">18</text>

	<text x="63.0" y="154.0" font-size="18px" font-family="Arial" text-anchor="left" id="svg_1868914109_226202614242076680765_1542975839" tabindex="-1" class="quorum-chart-text" fill="rgb(0.0,0.0,0.0)" fill-opacity="1.0" aria-label=" label. " aria-hidden="true">20</text>

	<rect width="860.0" height="3.0" x="89.0" y="877.0" id="svg_1868914109_226202614242076680765_1838426355" tabindex="-1" fill="rgb(153.0,153.0,153.0)" aria-hidden="true" />

	<text x="428.0" y="930.0" font-size="25px" font-family="Arial" text-anchor="left" id="svg_1868914109_226202614242076680765-347238032" tabindex="-1" class="quorum-chart-text" fill="rgb(0.0,0.0,0.0)" fill-opacity="1.0" aria-hidden="true">Type of extrema</text>

	<text x="49.0" y="535.0" font-size="25px" font-family="Arial" text-anchor="left" transform="rotate(270.0, 49.0, 535)" id="svg_1868914109_226202614242076680765_288398804" tabindex="-1" class="quorum-chart-text" fill="rgb(0.0,0.0,0.0)" aria-hidden="true">Age</text>

	<text x="90.0" y="60.0" font-weight="bold" font-size="28px" font-family="Arial" text-anchor="left" id="svg_1868914109_226202614242076680765_1330447795" tabindex="-1" class="quorum-chart-text" fill="rgb(0.0,0.0,0.0)" fill-opacity="1.0" aria-hidden="true">Minimum and Maximum Life Expectancy for Various Cat Breeds</text>

	<text x="399.0" y="109.0" font-size="25px" font-family="Arial" text-anchor="left" id="svg_1868914109_226202614242076680765_735344652" tabindex="-1" fill="rgb(32.0,32.0,32.0)" aria-hidden="true">How long do cats live</text>

	<g tabindex="-1"><g width="860.0" height="730.0" x="89.0" y="147.0" id="svg_1868914109_226202614242076680765_2059515584" tabindex="0" class="quorum-chart-area quorum-chart-information-list selection-box226202614242076680765" role="graphics-object" aria-label="Minimum and Maximum Life Expectancy for Various Cat Breeds , Violin Plot with 2 plots. To navigate the chart, use Enter to move into the list of plots or use the arrow keys to navigate the chart information." aria-hidden="false"><rect width="860.0" height="730.0" x="89.0" y="147.0" id="svg_1868914109_226202614242076680765_2059515584_boundingbox" tabindex="-1" class="selection-box226202614242076680765" fill="rgb(0.0,0.0,0.0)" fill-opacity="0.0" stroke="rgb(0.0,0.0,0.0)" stroke-opacity="0.0" aria-hidden="true" /><g id="svg_1868914109_226202614242076680765_1077938655_1324878091" tabindex="-1" class="quorum-chart-plot-list selection-box226202614242076680765" fill="rgb(46.0,46.0,46.0)" fill-opacity="1.0" role="graphics-object" aria-label="Minimum Life Span plot,  12, data ranges from  8 to  15, 1 of 2 plots. To navigate the list of plots, use the arrow keys to move between plots in list order, use Page Up or Page Down to move between plots by median value order, use Shift + Enter to return to the plot group list." aria-hidden="false"><rect width="430.0" height="625.0" x="89.0" y="252.0" tabindex="-1" class="selection-box226202614242076680765" fill="rgb(0.0,0.0,0.0)" fill-opacity="0.0" aria-hidden="true" /><polygon tabindex="-1" fill="rgb(46.0,46.0,46.0)" fill-opacity="1.0" stroke="rgb(0.0,0.0,0.0)" stroke-opacity="1.0" stroke-width="0.0" aria-hidden="true" points="296.0,252.0 296.0,253.0 296.0,254.0 295.0,255.0 295.0,256.0 295.0,257.0 295.0,258.0 295.0,259.0 295.0,260.0 295.0,261.0 295.0,262.0 295.0,263.0 295.0,264.0 295.0,265.0 295.0,266.0 295.0,267.0 295.0,268.0 295.0,269.0 295.0,270.0 295.0,271.0 295.0,272.0 295.0,273.0 295.0,274.0 295.0,275.0 295.0,276.0 295.0,277.0 295.0,278.0 295.0,279.0 295.0,280.0 295.0,281.0 295.0,282.0 295.0,283.0 295.0,284.0 295.0,285.0 295.0,286.0 295.0,287.0 295.0,288.0 295.0,289.0 295.0,290.0 295.0,291.0 295.0,292.0 295.0,293.0 295.0,294.0 295.0,295.0 295.0,296.0 295.0,297.0 295.0,298.0 295.0,299.0 295.0,300.0 295.0,301.0 295.0,302.0 295.0,303.0 295.0,304.0 295.0,305.0 295.0,306.0 296.0,307.0 296.0,308.0 296.0,309.0 296.0,310.0 296.0,311.0 296.0,312.0 296.0,313.0 296.0,314.0 296.0,315.0 296.0,316.0 296.0,317.0 296.0,318.0 296.0,319.0 296.0,320.0 296.0,321.0 296.0,322.0 296.0,323.0 296.0,324.0 296.0,325.0 296.0,326.0 296.0,327.0 296.0,328.0 296.0,329.0 296.0,330.0 296.0,331.0 296.0,332.0 296.0,333.0 296.0,334.0 296.0,335.0 296.0,336.0 296.0,337.0 296.0,338.0 296.0,339.0 295.0,340.0 295.0,341.0 295.0,342.0 295.0,343.0 295.0,344.0 295.0,345.0 295.0,346.0 294.0,347.0 294.0,348.0 294.0,349.0 294.0,350.0 293.0,351.0 293.0,352.0 293.0,353.0 292.0,354.0 292.0,355.0 292.0,356.0 291.0,357.0 291.0,358.0 291.0,359.0 290.0,360.0 290.0,361.0 290.0,362.0 289.0,363.0 289.0,364.0 288.0,365.0 288.0,366.0 287.0,367.0 287.0,368.0 286.0,369.0 286.0,370.0 285.0,371.0 284.0,372.0 284.0,373.0 283.0,374.0 283.0,375.0 282.0,376.0 281.0,377.0 281.0,378.0 280.0,379.0 279.0,380.0 279.0,381.0 278.0,382.0 277.0,383.0 277.0,384.0 276.0,385.0 275.0,386.0 275.0,387.0 274.0,388.0 273.0,389.0 272.0,390.0 271.0,391.0 271.0,392.0 270.0,393.0 269.0,394.0 268.0,395.0 268.0,396.0 267.0,397.0 266.0,398.0 265.0,399.0 264.0,400.0 263.0,401.0 263.0,402.0 262.0,403.0 261.0,404.0 260.0,405.0 259.0,406.0 259.0,407.0 258.0,408.0 257.0,409.0 256.0,410.0 255.0,411.0 254.0,412.0 254.0,413.0 253.0,414.0 252.0,415.0 251.0,416.0 250.0,417.0 250.0,418.0 249.0,419.0 248.0,420.0 247.0,421.0 247.0,422.0 246.0,423.0 245.0,424.0 244.0,425.0 244.0,426.0 243.0,427.0 242.0,428.0 242.0,429.0 241.0,430.0 240.0,431.0 240.0,432.0 239.0,433.0 238.0,434.0 238.0,435.0 237.0,436.0 237.0,437.0 236.0,438.0 236.0,439.0 235.0,440.0 235.0,441.0 234.0,442.0 234.0,443.0 233.0,444.0 233.0,445.0 233.0,446.0 232.0,447.0 232.0,448.0 232.0,449.0 231.0,450.0 231.0,451.0 231.0,452.0 231.0,453.0 230.0,454.0 230.0,455.0 230.0,456.0 230.0,457.0 230.0,458.0 230.0,459.0 230.0,460.0 230.0,461.0 229.0,462.0 229.0,463.0 229.0,464.0 229.0,465.0 229.0,466.0 229.0,467.0 229.0,468.0 229.0,469.0 229.0,470.0 229.0,471.0 229.0,472.0 229.0,473.0 229.0,474.0 229.0,475.0 229.0,476.0 229.0,477.0 229.0,478.0 229.0,479.0 229.0,480.0 229.0,481.0 228.0,482.0 228.0,483.0 228.0,484.0 228.0,485.0 227.0,486.0 227.0,487.0 227.0,488.0 226.0,489.0 226.0,490.0 225.0,491.0 224.0,492.0 224.0,493.0 223.0,494.0 222.0,495.0 222.0,496.0 221.0,497.0 220.0,498.0 219.0,499.0 218.0,500.0 216.0,501.0 215.0,502.0 214.0,503.0 212.0,504.0 211.0,505.0 210.0,506.0 208.0,507.0 206.0,508.0 205.0,509.0 203.0,510.0 201.0,511.0 199.0,512.0 197.0,513.0 195.0,514.0 193.0,515.0 191.0,516.0 188.0,517.0 186.0,518.0 184.0,519.0 181.0,520.0 179.0,521.0 176.0,522.0 174.0,523.0 171.0,524.0 168.0,525.0 166.0,526.0 163.0,527.0 160.0,528.0 158.0,529.0 155.0,530.0 152.0,531.0 149.0,532.0 147.0,533.0 144.0,534.0 141.0,535.0 138.0,536.0 136.0,537.0 133.0,538.0 130.0,539.0 128.0,540.0 125.0,541.0 123.0,542.0 120.0,543.0 118.0,544.0 116.0,545.0 113.0,546.0 111.0,547.0 109.0,548.0 107.0,549.0 105.0,550.0 103.0,551.0 102.0,552.0 100.0,553.0 99.0,554.0 97.0,555.0 96.0,556.0 95.0,557.0 94.0,558.0 93.0,559.0 92.0,560.0 91.0,561.0 91.0,562.0 90.0,563.0 90.0,564.0 90.0,565.0 89.0,566.0 90.0,567.0 90.0,568.0 90.0,569.0 90.0,570.0 91.0,571.0 92.0,572.0 92.0,573.0 93.0,574.0 94.0,575.0 95.0,576.0 97.0,577.0 98.0,578.0 99.0,579.0 101.0,580.0 103.0,581.0 104.0,582.0 106.0,583.0 108.0,584.0 110.0,585.0 112.0,586.0 114.0,587.0 116.0,588.0 118.0,589.0 120.0,590.0 123.0,591.0 125.0,592.0 127.0,593.0 130.0,594.0 132.0,595.0 134.0,596.0 137.0,597.0 139.0,598.0 142.0,599.0 144.0,600.0 146.0,601.0 149.0,602.0 151.0,603.0 153.0,604.0 156.0,605.0 158.0,606.0 160.0,607.0 162.0,608.0 164.0,609.0 167.0,610.0 169.0,611.0 171.0,612.0 173.0,613.0 174.0,614.0 176.0,615.0 178.0,616.0 180.0,617.0 181.0,618.0 183.0,619.0 185.0,620.0 186.0,621.0 187.0,622.0 189.0,623.0 190.0,624.0 191.0,625.0 192.0,626.0 194.0,627.0 195.0,628.0 196.0,629.0 196.0,630.0 197.0,631.0 198.0,632.0 199.0,633.0 200.0,634.0 200.0,635.0 201.0,636.0 201.0,637.0 202.0,638.0 202.0,639.0 203.0,640.0 203.0,641.0 204.0,642.0 204.0,643.0 204.0,644.0 204.0,645.0 205.0,646.0 205.0,647.0 205.0,648.0 205.0,649.0 205.0,650.0 206.0,651.0 206.0,652.0 206.0,653.0 206.0,654.0 206.0,655.0 207.0,656.0 207.0,657.0 207.0,658.0 207.0,659.0 207.0,660.0 208.0,661.0 208.0,662.0 208.0,663.0 209.0,664.0 209.0,665.0 209.0,666.0 210.0,667.0 210.0,668.0 210.0,669.0 211.0,670.0 211.0,671.0 212.0,672.0 212.0,673.0 213.0,674.0 214.0,675.0 214.0,676.0 215.0,677.0 216.0,678.0 216.0,679.0 217.0,680.0 218.0,681.0 219.0,682.0 220.0,683.0 220.0,684.0 221.0,685.0 222.0,686.0 223.0,687.0 224.0,688.0 225.0,689.0 226.0,690.0 227.0,691.0 228.0,692.0 229.0,693.0 231.0,694.0 232.0,695.0 233.0,696.0 234.0,697.0 235.0,698.0 236.0,699.0 237.0,700.0 239.0,701.0 240.0,702.0 241.0,703.0 242.0,704.0 243.0,705.0 244.0,706.0 246.0,707.0 247.0,708.0 248.0,709.0 249.0,710.0 250.0,711.0 251.0,712.0 253.0,713.0 254.0,714.0 255.0,715.0 256.0,716.0 257.0,717.0 258.0,718.0 259.0,719.0 260.0,720.0 261.0,721.0 262.0,722.0 263.0,723.0 264.0,724.0 265.0,725.0 266.0,726.0 267.0,727.0 268.0,728.0 269.0,729.0 270.0,730.0 271.0,731.0 272.0,732.0 272.0,733.0 273.0,734.0 274.0,735.0 275.0,736.0 275.0,737.0 276.0,738.0 277.0,739.0 278.0,740.0 278.0,741.0 279.0,742.0 280.0,743.0 280.0,744.0 281.0,745.0 281.0,746.0 282.0,747.0 282.0,748.0 283.0,749.0 283.0,750.0 284.0,751.0 284.0,752.0 285.0,753.0 285.0,754.0 286.0,755.0 286.0,756.0 287.0,757.0 287.0,758.0 287.0,759.0 288.0,760.0 288.0,761.0 289.0,762.0 289.0,763.0 289.0,764.0 290.0,765.0 290.0,766.0 290.0,767.0 291.0,768.0 291.0,769.0 291.0,770.0 292.0,771.0 292.0,772.0 292.0,773.0 316.0,773.0 316.0,772.0 316.0,771.0 317.0,770.0 317.0,769.0 317.0,768.0 318.0,767.0 318.0,766.0 318.0,765.0 319.0,764.0 319.0,763.0 319.0,762.0 320.0,761.0 320.0,760.0 321.0,759.0 321.0,758.0 321.0,757.0 322.0,756.0 322.0,755.0 323.0,754.0 323.0,753.0 324.0,752.0 324.0,751.0 325.0,750.0 325.0,749.0 326.0,748.0 326.0,747.0 327.0,746.0 327.0,745.0 328.0,744.0 328.0,743.0 329.0,742.0 330.0,741.0 330.0,740.0 331.0,739.0 332.0,738.0 333.0,737.0 333.0,736.0 334.0,735.0 335.0,734.0 336.0,733.0 336.0,732.0 337.0,731.0 338.0,730.0 339.0,729.0 340.0,728.0 341.0,727.0 342.0,726.0 343.0,725.0 344.0,724.0 345.0,723.0 346.0,722.0 347.0,721.0 348.0,720.0 349.0,719.0 350.0,718.0 351.0,717.0 352.0,716.0 353.0,715.0 354.0,714.0 355.0,713.0 357.0,712.0 358.0,711.0 359.0,710.0 360.0,709.0 361.0,708.0 362.0,707.0 364.0,706.0 365.0,705.0 366.0,704.0 367.0,703.0 368.0,702.0 369.0,701.0 371.0,700.0 372.0,699.0 373.0,698.0 374.0,697.0 375.0,696.0 376.0,695.0 377.0,694.0 379.0,693.0 380.0,692.0 381.0,691.0 382.0,690.0 383.0,689.0 384.0,688.0 385.0,687.0 386.0,686.0 387.0,685.0 388.0,684.0 388.0,683.0 389.0,682.0 390.0,681.0 391.0,680.0 392.0,679.0 392.0,678.0 393.0,677.0 394.0,676.0 394.0,675.0 395.0,674.0 396.0,673.0 396.0,672.0 397.0,671.0 397.0,670.0 398.0,669.0 398.0,668.0 398.0,667.0 399.0,666.0 399.0,665.0 399.0,664.0 400.0,663.0 400.0,662.0 400.0,661.0 401.0,660.0 401.0,659.0 401.0,658.0 401.0,657.0 401.0,656.0 402.0,655.0 402.0,654.0 402.0,653.0 402.0,652.0 402.0,651.0 403.0,650.0 403.0,649.0 403.0,648.0 403.0,647.0 403.0,646.0 404.0,645.0 404.0,644.0 404.0,643.0 404.0,642.0 405.0,641.0 405.0,640.0 406.0,639.0 406.0,638.0 407.0,637.0 407.0,636.0 408.0,635.0 408.0,634.0 409.0,633.0 410.0,632.0 411.0,631.0 412.0,630.0 412.0,629.0 413.0,628.0 414.0,627.0 416.0,626.0 417.0,625.0 418.0,624.0 419.0,623.0 421.0,622.0 422.0,621.0 423.0,620.0 425.0,619.0 427.0,618.0 428.0,617.0 430.0,616.0 432.0,615.0 434.0,614.0 435.0,613.0 437.0,612.0 439.0,611.0 441.0,610.0 444.0,609.0 446.0,608.0 448.0,607.0 450.0,606.0 452.0,605.0 455.0,604.0 457.0,603.0 459.0,602.0 462.0,601.0 464.0,600.0 466.0,599.0 469.0,598.0 471.0,597.0 474.0,596.0 476.0,595.0 478.0,594.0 481.0,593.0 483.0,592.0 485.0,591.0 488.0,590.0 490.0,589.0 492.0,588.0 494.0,587.0 496.0,586.0 498.0,585.0 500.0,584.0 502.0,583.0 504.0,582.0 505.0,581.0 507.0,580.0 509.0,579.0 510.0,578.0 511.0,577.0 513.0,576.0 514.0,575.0 515.0,574.0 516.0,573.0 516.0,572.0 517.0,571.0 518.0,570.0 518.0,569.0 518.0,568.0 518.0,567.0 519.0,566.0 518.0,565.0 518.0,564.0 518.0,563.0 517.0,562.0 517.0,561.0 516.0,560.0 515.0,559.0 514.0,558.0 513.0,557.0 512.0,556.0 511.0,555.0 509.0,554.0 508.0,553.0 506.0,552.0 505.0,551.0 503.0,550.0 501.0,549.0 499.0,548.0 497.0,547.0 495.0,546.0 492.0,545.0 490.0,544.0 488.0,543.0 485.0,542.0 483.0,541.0 480.0,540.0 478.0,539.0 475.0,538.0 472.0,537.0 470.0,536.0 467.0,535.0 464.0,534.0 461.0,533.0 459.0,532.0 456.0,531.0 453.0,530.0 450.0,529.0 448.0,528.0 445.0,527.0 442.0,526.0 440.0,525.0 437.0,524.0 434.0,523.0 432.0,522.0 429.0,521.0 427.0,520.0 424.0,519.0 422.0,518.0 420.0,517.0 417.0,516.0 415.0,515.0 413.0,514.0 411.0,513.0 409.0,512.0 407.0,511.0 405.0,510.0 403.0,509.0 402.0,508.0 400.0,507.0 398.0,506.0 397.0,505.0 396.0,504.0 394.0,503.0 393.0,502.0 392.0,501.0 390.0,500.0 389.0,499.0 388.0,498.0 387.0,497.0 386.0,496.0 386.0,495.0 385.0,494.0 384.0,493.0 384.0,492.0 383.0,491.0 382.0,490.0 382.0,489.0 381.0,488.0 381.0,487.0 381.0,486.0 380.0,485.0 380.0,484.0 380.0,483.0 380.0,482.0 379.0,481.0 379.0,480.0 379.0,479.0 379.0,478.0 379.0,477.0 379.0,476.0 379.0,475.0 379.0,474.0 379.0,473.0 379.0,472.0 379.0,471.0 379.0,470.0 379.0,469.0 379.0,468.0 379.0,467.0 379.0,466.0 379.0,465.0 379.0,464.0 379.0,463.0 379.0,462.0 378.0,461.0 378.0,460.0 378.0,459.0 378.0,458.0 378.0,457.0 378.0,456.0 378.0,455.0 378.0,454.0 377.0,453.0 377.0,452.0 377.0,451.0 377.0,450.0 376.0,449.0 376.0,448.0 376.0,447.0 375.0,446.0 375.0,445.0 375.0,444.0 374.0,443.0 374.0,442.0 373.0,441.0 373.0,440.0 372.0,439.0 372.0,438.0 371.0,437.0 371.0,436.0 370.0,435.0 370.0,434.0 369.0,433.0 368.0,432.0 368.0,431.0 367.0,430.0 366.0,429.0 366.0,428.0 365.0,427.0 364.0,426.0 364.0,425.0 363.0,424.0 362.0,423.0 361.0,422.0 361.0,421.0 360.0,420.0 359.0,419.0 358.0,418.0 358.0,417.0 357.0,416.0 356.0,415.0 355.0,414.0 354.0,413.0 354.0,412.0 353.0,411.0 352.0,410.0 351.0,409.0 350.0,408.0 349.0,407.0 349.0,406.0 348.0,405.0 347.0,404.0 346.0,403.0 345.0,402.0 345.0,401.0 344.0,400.0 343.0,399.0 342.0,398.0 341.0,397.0 340.0,396.0 340.0,395.0 339.0,394.0 338.0,393.0 337.0,392.0 337.0,391.0 336.0,390.0 335.0,389.0 334.0,388.0 333.0,387.0 333.0,386.0 332.0,385.0 331.0,384.0 331.0,383.0 330.0,382.0 329.0,381.0 329.0,380.0 328.0,379.0 327.0,378.0 327.0,377.0 326.0,376.0 325.0,375.0 325.0,374.0 324.0,373.0 324.0,372.0 323.0,371.0 322.0,370.0 322.0,369.0 321.0,368.0 321.0,367.0 320.0,366.0 320.0,365.0 319.0,364.0 319.0,363.0 318.0,362.0 318.0,361.0 318.0,360.0 317.0,359.0 317.0,358.0 317.0,357.0 316.0,356.0 316.0,355.0 316.0,354.0 315.0,353.0 315.0,352.0 315.0,351.0 314.0,350.0 314.0,349.0 314.0,348.0 314.0,347.0 313.0,346.0 313.0,345.0 313.0,344.0 313.0,343.0 313.0,342.0 313.0,341.0 313.0,340.0 312.0,339.0 312.0,338.0 312.0,337.0 312.0,336.0 312.0,335.0 312.0,334.0 312.0,333.0 312.0,332.0 312.0,331.0 312.0,330.0 312.0,329.0 312.0,328.0 312.0,327.0 312.0,326.0 312.0,325.0 312.0,324.0 312.0,323.0 312.0,322.0 312.0,321.0 312.0,320.0 312.0,319.0 312.0,318.0 312.0,317.0 312.0,316.0 312.0,315.0 312.0,314.0 312.0,313.0 312.0,312.0 312.0,311.0 312.0,310.0 312.0,309.0 312.0,308.0 312.0,307.0 313.0,306.0 313.0,305.0 313.0,304.0 313.0,303.0 313.0,302.0 313.0,301.0 313.0,300.0 313.0,299.0 313.0,298.0 313.0,297.0 313.0,296.0 313.0,295.0 313.0,294.0 313.0,293.0 313.0,292.0 313.0,291.0 313.0,290.0 313.0,289.0 313.0,288.0 313.0,287.0 313.0,286.0 313.0,285.0 313.0,284.0 313.0,283.0 313.0,282.0 313.0,281.0 313.0,280.0 313.0,279.0 313.0,278.0 313.0,277.0 313.0,276.0 313.0,275.0 313.0,274.0 313.0,273.0 313.0,272.0 313.0,271.0 313.0,270.0 313.0,269.0 313.0,268.0 313.0,267.0 313.0,266.0 313.0,265.0 313.0,264.0 313.0,263.0 313.0,262.0 313.0,261.0 313.0,260.0 313.0,259.0 313.0,258.0 313.0,257.0 313.0,256.0 313.0,255.0 312.0,254.0 312.0,253.0 312.0,252.0 " /><g id="svg_1868914109_226202614242076680765_1077938655_1324878091_242113956" tabindex="-1" class="quorum-chart-plotitem-list selection-box226202614242076680765" fill="rgb(0.0,0.0,0.0)" fill-opacity="1.0" role="graphics-symbol" aria-label="Minimum 8 To navigate the list of plot summary items, use the arrow keys to move between plot summary items in list order, use Shift + Enter to return to the plots list." aria-hidden="false"><rect width="2.0" height="2.0" x="303.0" y="771.0" id="svg_1868914109_226202614242076680765_1077938655_1324878091_242113956_item" tabindex="-1" class="selection-box226202614242076680765" fill="rgb(0.0,0.0,0.0)" fill-opacity="1.0" stroke="rgb(0.0,0.0,0.0)" stroke-opacity="1.0" stroke-width="0.0" aria-hidden="true" /></g><g id="svg_1868914109_226202614242076680765_1077938655_1324878091_1913425792" tabindex="-1" class="quorum-chart-plotitem-list selection-box226202614242076680765" fill="rgb(191.25,191.25,191.25)" fill-opacity="1.0" role="graphics-symbol" aria-label="Interquartile range 2" aria-hidden="false"><rect width="6.0" height="107.0" x="301.0" y="510.0" id="svg_1868914109_226202614242076680765_1077938655_1324878091_1913425792_item" tabindex="-1" class="selection-box226202614242076680765" fill="rgb(191.25,191.25,191.25)" fill-opacity="1.0" stroke="rgb(0.0,0.0,0.0)" stroke-opacity="1.0" stroke-width="2.0" aria-hidden="true" /></g><g id="svg_1868914109_226202614242076680765_1077938655_1324878091_257495665" tabindex="-1" class="quorum-chart-plotitem-list selection-box226202614242076680765" fill="rgb(0.0,0.0,0.0)" fill-opacity="1.0" role="graphics-symbol" aria-label="1st Quartile 11" aria-hidden="false"><rect width="6.0" height="2.0" x="301.0" y="615.0" id="svg_1868914109_226202614242076680765_1077938655_1324878091_257495665_item" tabindex="-1" class="selection-box226202614242076680765" fill="rgb(0.0,0.0,0.0)" fill-opacity="1.0" stroke="rgb(0.0,0.0,0.0)" stroke-opacity="1.0" stroke-width="0.0" aria-hidden="true" /></g><g id="svg_1868914109_226202614242076680765_1077938655_1324878091_2009885224" tabindex="-1" class="quorum-chart-plotitem-list selection-box226202614242076680765" fill="rgb(0.0,0.0,0.0)" fill-opacity="1.0" role="graphics-symbol" aria-label="Median 12" aria-hidden="false"><circle cx="303.5" cy="562.5" r="2.5" id="svg_1868914109_226202614242076680765_1077938655_1324878091_2009885224_item" tabindex="-1" class="selection-box226202614242076680765" fill="rgb(0.0,0.0,0.0)" fill-opacity="1.0" stroke="rgb(153.0,153.0,153.0)" stroke-opacity="1.0" stroke-width="1.0" aria-hidden="true" /></g><g id="svg_1868914109_226202614242076680765_1077938655_1324878091_187931144" tabindex="-1" class="quorum-chart-plotitem-list selection-box226202614242076680765" fill="rgb(0.0,0.0,0.0)" fill-opacity="1.0" role="graphics-symbol" aria-label="3rd Quartile 13" aria-hidden="false"><rect width="6.0" height="2.0" x="301.0" y="510.0" id="svg_1868914109_226202614242076680765_1077938655_1324878091_187931144_item" tabindex="-1" class="selection-box226202614242076680765" fill="rgb(0.0,0.0,0.0)" fill-opacity="1.0" stroke="rgb(0.0,0.0,0.0)" stroke-opacity="1.0" stroke-width="0.0" aria-hidden="true" /></g><g id="svg_1868914109_226202614242076680765_1077938655_1324878091_492135521" tabindex="-1" class="quorum-chart-plotitem-list selection-box226202614242076680765" fill="rgb(0.0,0.0,0.0)" fill-opacity="1.0" role="graphics-symbol" aria-label="Maximum 15 End of list order." aria-hidden="false"><rect width="2.0" height="2.0" x="303.0" y="408.0" id="svg_1868914109_226202614242076680765_1077938655_1324878091_492135521_item" tabindex="-1" class="selection-box226202614242076680765" fill="rgb(0.0,0.0,0.0)" fill-opacity="1.0" stroke="rgb(0.0,0.0,0.0)" stroke-opacity="1.0" stroke-width="0.0" aria-hidden="true" /></g></g><g id="svg_1868914109_226202614242076680765_622946713_2077884890" tabindex="-1" class="quorum-chart-plot-list selection-box226202614242076680765" fill="rgb(239.0,201.0,31.0)" fill-opacity="1.0" role="graphics-object" aria-label="Maximum Life Span plot,  15, data ranges from  14 to  17, 2 of 2 plots. End of list order. End of value order." aria-hidden="false"><rect width="430.0" height="730.0" x="519.0" y="147.0" tabindex="-1" class="selection-box226202614242076680765" fill="rgb(0.0,0.0,0.0)" fill-opacity="0.0" aria-hidden="true" /><polygon tabindex="-1" fill="rgb(239.0,201.0,31.0)" fill-opacity="1.0" stroke="rgb(0.0,0.0,0.0)" stroke-opacity="1.0" stroke-width="0.0" aria-hidden="true" points="714.0,148.0 714.0,149.0 714.0,150.0 714.0,151.0 714.0,152.0 714.0,153.0 714.0,154.0 713.0,155.0 713.0,156.0 713.0,157.0 713.0,158.0 713.0,159.0 713.0,160.0 713.0,161.0 713.0,162.0 713.0,163.0 713.0,164.0 714.0,165.0 714.0,166.0 714.0,167.0 714.0,168.0 714.0,169.0 714.0,170.0 714.0,171.0 714.0,172.0 714.0,173.0 714.0,174.0 714.0,175.0 714.0,176.0 714.0,177.0 714.0,178.0 714.0,179.0 714.0,180.0 715.0,181.0 715.0,182.0 715.0,183.0 715.0,184.0 715.0,185.0 715.0,186.0 715.0,187.0 715.0,188.0 715.0,189.0 715.0,190.0 715.0,191.0 715.0,192.0 715.0,193.0 715.0,194.0 715.0,195.0 715.0,196.0 715.0,197.0 715.0,198.0 715.0,199.0 715.0,200.0 715.0,201.0 715.0,202.0 715.0,203.0 715.0,204.0 715.0,205.0 715.0,206.0 715.0,207.0 715.0,208.0 714.0,209.0 714.0,210.0 714.0,211.0 714.0,212.0 714.0,213.0 714.0,214.0 714.0,215.0 714.0,216.0 713.0,217.0 713.0,218.0 713.0,219.0 713.0,220.0 713.0,221.0 712.0,222.0 712.0,223.0 712.0,224.0 712.0,225.0 712.0,226.0 711.0,227.0 711.0,228.0 711.0,229.0 711.0,230.0 710.0,231.0 710.0,232.0 710.0,233.0 710.0,234.0 709.0,235.0 709.0,236.0 709.0,237.0 708.0,238.0 708.0,239.0 708.0,240.0 708.0,241.0 707.0,242.0 707.0,243.0 707.0,244.0 706.0,245.0 706.0,246.0 706.0,247.0 705.0,248.0 705.0,249.0 705.0,250.0 704.0,251.0 704.0,252.0 704.0,253.0 703.0,254.0 703.0,255.0 703.0,256.0 702.0,257.0 702.0,258.0 701.0,259.0 701.0,260.0 701.0,261.0 700.0,262.0 700.0,263.0 699.0,264.0 699.0,265.0 699.0,266.0 698.0,267.0 698.0,268.0 697.0,269.0 697.0,270.0 696.0,271.0 696.0,272.0 695.0,273.0 695.0,274.0 694.0,275.0 694.0,276.0 693.0,277.0 693.0,278.0 692.0,279.0 692.0,280.0 691.0,281.0 690.0,282.0 690.0,283.0 689.0,284.0 688.0,285.0 688.0,286.0 687.0,287.0 686.0,288.0 685.0,289.0 685.0,290.0 684.0,291.0 683.0,292.0 682.0,293.0 681.0,294.0 680.0,295.0 679.0,296.0 679.0,297.0 678.0,298.0 677.0,299.0 676.0,300.0 675.0,301.0 673.0,302.0 672.0,303.0 671.0,304.0 670.0,305.0 669.0,306.0 668.0,307.0 667.0,308.0 665.0,309.0 664.0,310.0 663.0,311.0 661.0,312.0 660.0,313.0 659.0,314.0 657.0,315.0 656.0,316.0 655.0,317.0 653.0,318.0 652.0,319.0 650.0,320.0 649.0,321.0 647.0,322.0 645.0,323.0 644.0,324.0 642.0,325.0 641.0,326.0 639.0,327.0 637.0,328.0 635.0,329.0 634.0,330.0 632.0,331.0 630.0,332.0 628.0,333.0 627.0,334.0 625.0,335.0 623.0,336.0 621.0,337.0 619.0,338.0 617.0,339.0 616.0,340.0 614.0,341.0 612.0,342.0 610.0,343.0 608.0,344.0 606.0,345.0 604.0,346.0 602.0,347.0 600.0,348.0 598.0,349.0 596.0,350.0 594.0,351.0 593.0,352.0 591.0,353.0 589.0,354.0 587.0,355.0 585.0,356.0 583.0,357.0 581.0,358.0 579.0,359.0 577.0,360.0 575.0,361.0 573.0,362.0 571.0,363.0 569.0,364.0 568.0,365.0 566.0,366.0 564.0,367.0 562.0,368.0 560.0,369.0 558.0,370.0 557.0,371.0 555.0,372.0 553.0,373.0 551.0,374.0 550.0,375.0 548.0,376.0 546.0,377.0 545.0,378.0 543.0,379.0 542.0,380.0 540.0,381.0 539.0,382.0 537.0,383.0 536.0,384.0 535.0,385.0 533.0,386.0 532.0,387.0 531.0,388.0 530.0,389.0 529.0,390.0 528.0,391.0 527.0,392.0 526.0,393.0 525.0,394.0 524.0,395.0 523.0,396.0 523.0,397.0 522.0,398.0 522.0,399.0 521.0,400.0 521.0,401.0 520.0,402.0 520.0,403.0 520.0,404.0 520.0,405.0 520.0,406.0 519.0,407.0 520.0,408.0 520.0,409.0 520.0,410.0 520.0,411.0 520.0,412.0 521.0,413.0 521.0,414.0 522.0,415.0 522.0,416.0 523.0,417.0 524.0,418.0 525.0,419.0 525.0,420.0 526.0,421.0 527.0,422.0 528.0,423.0 529.0,424.0 531.0,425.0 532.0,426.0 533.0,427.0 534.0,428.0 536.0,429.0 537.0,430.0 539.0,431.0 540.0,432.0 542.0,433.0 543.0,434.0 545.0,435.0 547.0,436.0 549.0,437.0 550.0,438.0 552.0,439.0 554.0,440.0 556.0,441.0 558.0,442.0 560.0,443.0 562.0,444.0 564.0,445.0 566.0,446.0 568.0,447.0 570.0,448.0 572.0,449.0 575.0,450.0 577.0,451.0 579.0,452.0 581.0,453.0 583.0,454.0 586.0,455.0 588.0,456.0 590.0,457.0 592.0,458.0 595.0,459.0 597.0,460.0 599.0,461.0 601.0,462.0 604.0,463.0 606.0,464.0 608.0,465.0 611.0,466.0 613.0,467.0 615.0,468.0 618.0,469.0 620.0,470.0 622.0,471.0 624.0,472.0 627.0,473.0 629.0,474.0 631.0,475.0 633.0,476.0 636.0,477.0 638.0,478.0 640.0,479.0 642.0,480.0 644.0,481.0 646.0,482.0 649.0,483.0 651.0,484.0 653.0,485.0 655.0,486.0 657.0,487.0 659.0,488.0 661.0,489.0 663.0,490.0 665.0,491.0 666.0,492.0 668.0,493.0 670.0,494.0 672.0,495.0 674.0,496.0 675.0,497.0 677.0,498.0 679.0,499.0 680.0,500.0 682.0,501.0 683.0,502.0 685.0,503.0 686.0,504.0 688.0,505.0 689.0,506.0 690.0,507.0 692.0,508.0 693.0,509.0 694.0,510.0 695.0,511.0 696.0,512.0 697.0,513.0 698.0,514.0 699.0,515.0 700.0,516.0 701.0,517.0 702.0,518.0 703.0,519.0 704.0,520.0 704.0,521.0 705.0,522.0 706.0,523.0 707.0,524.0 707.0,525.0 708.0,526.0 708.0,527.0 709.0,528.0 709.0,529.0 710.0,530.0 710.0,531.0 710.0,532.0 711.0,533.0 711.0,534.0 711.0,535.0 712.0,536.0 712.0,537.0 712.0,538.0 712.0,539.0 713.0,540.0 713.0,541.0 713.0,542.0 713.0,543.0 713.0,544.0 713.0,545.0 714.0,546.0 714.0,547.0 714.0,548.0 714.0,549.0 714.0,550.0 714.0,551.0 714.0,552.0 714.0,553.0 714.0,554.0 714.0,555.0 714.0,556.0 714.0,557.0 715.0,558.0 715.0,559.0 715.0,560.0 715.0,561.0 715.0,562.0 715.0,563.0 715.0,564.0 715.0,565.0 753.0,565.0 753.0,564.0 753.0,563.0 753.0,562.0 753.0,561.0 753.0,560.0 753.0,559.0 753.0,558.0 754.0,557.0 754.0,556.0 754.0,555.0 754.0,554.0 754.0,553.0 754.0,552.0 754.0,551.0 754.0,550.0 754.0,549.0 754.0,548.0 754.0,547.0 754.0,546.0 755.0,545.0 755.0,544.0 755.0,543.0 755.0,542.0 755.0,541.0 755.0,540.0 756.0,539.0 756.0,538.0 756.0,537.0 756.0,536.0 757.0,535.0 757.0,534.0 757.0,533.0 758.0,532.0 758.0,531.0 758.0,530.0 759.0,529.0 759.0,528.0 760.0,527.0 760.0,526.0 761.0,525.0 761.0,524.0 762.0,523.0 763.0,522.0 764.0,521.0 764.0,520.0 765.0,519.0 766.0,518.0 767.0,517.0 768.0,516.0 769.0,515.0 770.0,514.0 771.0,513.0 772.0,512.0 773.0,511.0 774.0,510.0 775.0,509.0 776.0,508.0 778.0,507.0 779.0,506.0 780.0,505.0 782.0,504.0 783.0,503.0 785.0,502.0 786.0,501.0 788.0,500.0 789.0,499.0 791.0,498.0 793.0,497.0 794.0,496.0 796.0,495.0 798.0,494.0 800.0,493.0 802.0,492.0 803.0,491.0 805.0,490.0 807.0,489.0 809.0,488.0 811.0,487.0 813.0,486.0 815.0,485.0 817.0,484.0 819.0,483.0 822.0,482.0 824.0,481.0 826.0,480.0 828.0,479.0 830.0,478.0 832.0,477.0 835.0,476.0 837.0,475.0 839.0,474.0 841.0,473.0 844.0,472.0 846.0,471.0 848.0,470.0 850.0,469.0 853.0,468.0 855.0,467.0 857.0,466.0 860.0,465.0 862.0,464.0 864.0,463.0 867.0,462.0 869.0,461.0 871.0,460.0 873.0,459.0 876.0,458.0 878.0,457.0 880.0,456.0 882.0,455.0 885.0,454.0 887.0,453.0 889.0,452.0 891.0,451.0 893.0,450.0 896.0,449.0 898.0,448.0 900.0,447.0 902.0,446.0 904.0,445.0 906.0,444.0 908.0,443.0 910.0,442.0 912.0,441.0 914.0,440.0 916.0,439.0 918.0,438.0 919.0,437.0 921.0,436.0 923.0,435.0 925.0,434.0 926.0,433.0 928.0,432.0 929.0,431.0 931.0,430.0 932.0,429.0 934.0,428.0 935.0,427.0 936.0,426.0 937.0,425.0 939.0,424.0 940.0,423.0 941.0,422.0 942.0,421.0 943.0,420.0 943.0,419.0 944.0,418.0 945.0,417.0 946.0,416.0 946.0,415.0 947.0,414.0 947.0,413.0 948.0,412.0 948.0,411.0 948.0,410.0 948.0,409.0 948.0,408.0 949.0,407.0 948.0,406.0 948.0,405.0 948.0,404.0 948.0,403.0 948.0,402.0 947.0,401.0 947.0,400.0 946.0,399.0 946.0,398.0 945.0,397.0 945.0,396.0 944.0,395.0 943.0,394.0 942.0,393.0 941.0,392.0 940.0,391.0 939.0,390.0 938.0,389.0 937.0,388.0 936.0,387.0 935.0,386.0 933.0,385.0 932.0,384.0 931.0,383.0 929.0,382.0 928.0,381.0 926.0,380.0 925.0,379.0 923.0,378.0 922.0,377.0 920.0,376.0 918.0,375.0 917.0,374.0 915.0,373.0 913.0,372.0 911.0,371.0 910.0,370.0 908.0,369.0 906.0,368.0 904.0,367.0 902.0,366.0 900.0,365.0 899.0,364.0 897.0,363.0 895.0,362.0 893.0,361.0 891.0,360.0 889.0,359.0 887.0,358.0 885.0,357.0 883.0,356.0 881.0,355.0 879.0,354.0 877.0,353.0 875.0,352.0 874.0,351.0 872.0,350.0 870.0,349.0 868.0,348.0 866.0,347.0 864.0,346.0 862.0,345.0 860.0,344.0 858.0,343.0 856.0,342.0 854.0,341.0 852.0,340.0 851.0,339.0 849.0,338.0 847.0,337.0 845.0,336.0 843.0,335.0 841.0,334.0 840.0,333.0 838.0,332.0 836.0,331.0 834.0,330.0 833.0,329.0 831.0,328.0 829.0,327.0 827.0,326.0 826.0,325.0 824.0,324.0 823.0,323.0 821.0,322.0 819.0,321.0 818.0,320.0 816.0,319.0 815.0,318.0 813.0,317.0 812.0,316.0 811.0,315.0 809.0,314.0 808.0,313.0 807.0,312.0 805.0,311.0 804.0,310.0 803.0,309.0 801.0,308.0 800.0,307.0 799.0,306.0 798.0,305.0 797.0,304.0 796.0,303.0 795.0,302.0 793.0,301.0 792.0,300.0 791.0,299.0 790.0,298.0 789.0,297.0 789.0,296.0 788.0,295.0 787.0,294.0 786.0,293.0 785.0,292.0 784.0,291.0 783.0,290.0 783.0,289.0 782.0,288.0 781.0,287.0 780.0,286.0 780.0,285.0 779.0,284.0 778.0,283.0 778.0,282.0 777.0,281.0 776.0,280.0 776.0,279.0 775.0,278.0 775.0,277.0 774.0,276.0 774.0,275.0 773.0,274.0 773.0,273.0 772.0,272.0 772.0,271.0 771.0,270.0 771.0,269.0 770.0,268.0 770.0,267.0 769.0,266.0 769.0,265.0 769.0,264.0 768.0,263.0 768.0,262.0 767.0,261.0 767.0,260.0 767.0,259.0 766.0,258.0 766.0,257.0 765.0,256.0 765.0,255.0 765.0,254.0 764.0,253.0 764.0,252.0 764.0,251.0 763.0,250.0 763.0,249.0 763.0,248.0 762.0,247.0 762.0,246.0 762.0,245.0 761.0,244.0 761.0,243.0 761.0,242.0 760.0,241.0 760.0,240.0 760.0,239.0 760.0,238.0 759.0,237.0 759.0,236.0 759.0,235.0 758.0,234.0 758.0,233.0 758.0,232.0 758.0,231.0 757.0,230.0 757.0,229.0 757.0,228.0 757.0,227.0 756.0,226.0 756.0,225.0 756.0,224.0 756.0,223.0 756.0,222.0 755.0,221.0 755.0,220.0 755.0,219.0 755.0,218.0 755.0,217.0 754.0,216.0 754.0,215.0 754.0,214.0 754.0,213.0 754.0,212.0 754.0,211.0 754.0,210.0 754.0,209.0 753.0,208.0 753.0,207.0 753.0,206.0 753.0,205.0 753.0,204.0 753.0,203.0 753.0,202.0 753.0,201.0 753.0,200.0 753.0,199.0 753.0,198.0 753.0,197.0 753.0,196.0 753.0,195.0 753.0,194.0 753.0,193.0 753.0,192.0 753.0,191.0 753.0,190.0 753.0,189.0 753.0,188.0 753.0,187.0 753.0,186.0 753.0,185.0 753.0,184.0 753.0,183.0 753.0,182.0 753.0,181.0 754.0,180.0 754.0,179.0 754.0,178.0 754.0,177.0 754.0,176.0 754.0,175.0 754.0,174.0 754.0,173.0 754.0,172.0 754.0,171.0 754.0,170.0 754.0,169.0 754.0,168.0 754.0,167.0 754.0,166.0 754.0,165.0 755.0,164.0 755.0,163.0 755.0,162.0 755.0,161.0 755.0,160.0 755.0,159.0 755.0,158.0 755.0,157.0 755.0,156.0 755.0,155.0 754.0,154.0 754.0,153.0 754.0,152.0 754.0,151.0 754.0,150.0 754.0,149.0 754.0,148.0 " /><g id="svg_1868914109_226202614242076680765_622946713_2077884890_920102538" tabindex="-1" class="quorum-chart-plotitem-list selection-box226202614242076680765" fill="rgb(0.0,0.0,0.0)" fill-opacity="1.0" role="graphics-symbol" aria-label="Minimum 14 To navigate the list of plot summary items, use the arrow keys to move between plot summary items in list order, use Shift + Enter to return to the plots list." aria-hidden="false"><rect width="2.0" height="2.0" x="733.0" y="458.0" id="svg_1868914109_226202614242076680765_622946713_2077884890_920102538_item" tabindex="-1" class="selection-box226202614242076680765" fill="rgb(0.0,0.0,0.0)" fill-opacity="1.0" stroke="rgb(0.0,0.0,0.0)" stroke-opacity="1.0" stroke-width="0.0" aria-hidden="true" /></g><g id="svg_1868914109_226202614242076680765_622946713_2077884890_1121811842" tabindex="-1" class="quorum-chart-plotitem-list selection-box226202614242076680765" fill="rgb(191.25,191.25,191.25)" fill-opacity="1.0" role="graphics-symbol" aria-label="Interquartile range 1" aria-hidden="false"><rect width="6.0" height="54.0" x="731.0" y="354.0" id="svg_1868914109_226202614242076680765_622946713_2077884890_1121811842_item" tabindex="-1" class="selection-box226202614242076680765" fill="rgb(191.25,191.25,191.25)" fill-opacity="1.0" stroke="rgb(0.0,0.0,0.0)" stroke-opacity="1.0" stroke-width="2.0" aria-hidden="true" /></g><g id="svg_1868914109_226202614242076680765_622946713_2077884890_2636011" tabindex="-1" class="quorum-chart-plotitem-list selection-box226202614242076680765" fill="rgb(0.0,0.0,0.0)" fill-opacity="1.0" role="graphics-symbol" aria-label="1st Quartile 15" aria-hidden="false"><rect width="6.0" height="2.0" x="731.0" y="406.0" id="svg_1868914109_226202614242076680765_622946713_2077884890_2636011_item" tabindex="-1" class="selection-box226202614242076680765" fill="rgb(0.0,0.0,0.0)" fill-opacity="1.0" stroke="rgb(0.0,0.0,0.0)" stroke-opacity="1.0" stroke-width="0.0" aria-hidden="true" /></g><g id="svg_1868914109_226202614242076680765_622946713_2077884890_263574324" tabindex="-1" class="quorum-chart-plotitem-list selection-box226202614242076680765" fill="rgb(0.0,0.0,0.0)" fill-opacity="1.0" role="graphics-symbol" aria-label="Median 15" aria-hidden="false"><circle cx="733.5" cy="405.5" r="2.5" id="svg_1868914109_226202614242076680765_622946713_2077884890_263574324_item" tabindex="-1" class="selection-box226202614242076680765" fill="rgb(0.0,0.0,0.0)" fill-opacity="1.0" stroke="rgb(153.0,153.0,153.0)" stroke-opacity="1.0" stroke-width="1.0" aria-hidden="true" /></g><g id="svg_1868914109_226202614242076680765_622946713_2077884890_73254846" tabindex="-1" class="quorum-chart-plotitem-list selection-box226202614242076680765" fill="rgb(0.0,0.0,0.0)" fill-opacity="1.0" role="graphics-symbol" aria-label="3rd Quartile 16" aria-hidden="false"><rect width="6.0" height="2.0" x="731.0" y="354.0" id="svg_1868914109_226202614242076680765_622946713_2077884890_73254846_item" tabindex="-1" class="selection-box226202614242076680765" fill="rgb(0.0,0.0,0.0)" fill-opacity="1.0" stroke="rgb(0.0,0.0,0.0)" stroke-opacity="1.0" stroke-width="0.0" aria-hidden="true" /></g><g id="svg_1868914109_226202614242076680765_622946713_2077884890_759536602" tabindex="-1" class="quorum-chart-plotitem-list selection-box226202614242076680765" fill="rgb(0.0,0.0,0.0)" fill-opacity="1.0" role="graphics-symbol" aria-label="Maximum 17 End of list order." aria-hidden="false"><rect width="2.0" height="2.0" x="733.0" y="304.0" id="svg_1868914109_226202614242076680765_622946713_2077884890_759536602_item" tabindex="-1" class="selection-box226202614242076680765" fill="rgb(0.0,0.0,0.0)" fill-opacity="1.0" stroke="rgb(0.0,0.0,0.0)" stroke-opacity="1.0" stroke-width="0.0" aria-hidden="true" /></g></g></g><rect width="860.0" height="81.0" x="89.0" y="877.0" id="svg_1868914109_226202614242076680765_512478459" tabindex="-1" class="quorum-chart-information-list selection-box226202614242076680765" fill="rgb(0.0,0.0,0.0)" fill-opacity="0.0" role="graphics-object" aria-label="X axis shows Type of extrema and ranges from Minimum Life Span to Maximum Life Span" aria-hidden="false" /><rect width="89.0" height="730.0" x="0.0" y="147.0" id="svg_1868914109_226202614242076680765_522173599" tabindex="-1" class="quorum-chart-information-list selection-box226202614242076680765" fill="rgb(0.0,0.0,0.0)" fill-opacity="0.0" role="graphics-object" aria-label="Y axis shows Age and ranges from 6 to 20" aria-hidden="false" /><rect width="860.0" height="42.0" x="89.0" y="958.0" id="svg_1868914109_226202614242076680765_282375539" tabindex="-1" class="quorum-chart-information-list selection-box226202614242076680765" fill="rgb(0.0,0.0,0.0)" fill-opacity="0.0" role="graphics-object" aria-label="Legend shows Life Span and has values Minimum Life Span, and Maximum Life Span" aria-hidden="false" /></g>
	<g id="svg_1868914109_226202614242076680765_1077938655_1324878091_1504033633" tabindex="-1" class="quorum-chart-plotitem-list selection-box226202614242076680765" fill="rgb(0.0,0.0,0.0)" fill-opacity="1.0" role="graphics-symbol" aria-label="Unnamed" aria-hidden="false"><rect width="2.0" height="156.0" x="303.0" y="617.0" id="svg_1868914109_226202614242076680765_1077938655_1324878091_1504033633_item" tabindex="-1" class="selection-box226202614242076680765" fill="rgb(0.0,0.0,0.0)" fill-opacity="1.0" stroke="rgb(0.0,0.0,0.0)" stroke-opacity="1.0" stroke-width="0.0" aria-hidden="true" />
</g>

	<g id="svg_1868914109_226202614242076680765_1077938655_1324878091_1868933720" tabindex="-1" class="quorum-chart-plotitem-list selection-box226202614242076680765" fill="rgb(0.0,0.0,0.0)" fill-opacity="1.0" role="graphics-symbol" aria-label="Unnamed" aria-hidden="false"><rect width="2.0" height="102.0" x="303.0" y="410.0" id="svg_1868914109_226202614242076680765_1077938655_1324878091_1868933720_item" tabindex="-1" class="selection-box226202614242076680765" fill="rgb(0.0,0.0,0.0)" fill-opacity="1.0" stroke="rgb(0.0,0.0,0.0)" stroke-opacity="1.0" stroke-width="0.0" aria-hidden="true" />
</g>

	<g id="svg_1868914109_226202614242076680765_622946713_2077884890_669781254" tabindex="-1" class="quorum-chart-plotitem-list selection-box226202614242076680765" fill="rgb(0.0,0.0,0.0)" fill-opacity="1.0" role="graphics-symbol" aria-label="Unnamed" aria-hidden="false"><rect width="2.0" height="52.0" x="733.0" y="408.0" id="svg_1868914109_226202614242076680765_622946713_2077884890_669781254_item" tabindex="-1" class="selection-box226202614242076680765" fill="rgb(0.0,0.0,0.0)" fill-opacity="1.0" stroke="rgb(0.0,0.0,0.0)" stroke-opacity="1.0" stroke-width="0.0" aria-hidden="true" />
</g>

	<g id="svg_1868914109_226202614242076680765_622946713_2077884890_645323114" tabindex="-1" class="quorum-chart-plotitem-list selection-box226202614242076680765" fill="rgb(0.0,0.0,0.0)" fill-opacity="1.0" role="graphics-symbol" aria-label="Unnamed" aria-hidden="false"><rect width="2.0" height="50.0" x="733.0" y="306.0" id="svg_1868914109_226202614242076680765_622946713_2077884890_645323114_item" tabindex="-1" class="selection-box226202614242076680765" fill="rgb(0.0,0.0,0.0)" fill-opacity="1.0" stroke="rgb(0.0,0.0,0.0)" stroke-opacity="1.0" stroke-width="0.0" aria-hidden="true" />
</g>

	<script href= "https://quorumlanguage.com/script/quorumCharts.js"  type="text/javascript"></script>
	<script  type="text/javascript">document.getElementById('svg_1868914109_226202614242076680765_1077938655_1324878091_242113956').addEventListener('focus', (event) => {
gainFocus('svg_1868914109_226202614242076680765_1077938655_1324878091_242113956_item'); });
document.getElementById('svg_1868914109_226202614242076680765_1077938655_1324878091_242113956').addEventListener('blur', (event) => {
loseFocus('svg_1868914109_226202614242076680765_1077938655_1324878091_242113956_item'); });
document.getElementById('svg_1868914109_226202614242076680765_1077938655_1324878091_1504033633').addEventListener('focus', (event) => {
gainFocus('svg_1868914109_226202614242076680765_1077938655_1324878091_1504033633_item'); });
document.getElementById('svg_1868914109_226202614242076680765_1077938655_1324878091_1504033633').addEventListener('blur', (event) => {
loseFocus('svg_1868914109_226202614242076680765_1077938655_1324878091_1504033633_item'); });
document.getElementById('svg_1868914109_226202614242076680765_1077938655_1324878091_1913425792').addEventListener('focus', (event) => {
gainFocus('svg_1868914109_226202614242076680765_1077938655_1324878091_1913425792_item'); });
document.getElementById('svg_1868914109_226202614242076680765_1077938655_1324878091_1913425792').addEventListener('blur', (event) => {
loseFocus('svg_1868914109_226202614242076680765_1077938655_1324878091_1913425792_item'); });
document.getElementById('svg_1868914109_226202614242076680765_1077938655_1324878091_1515730720').addEventListener('focus', (event) => {
gainFocus('svg_1868914109_226202614242076680765_1077938655_1324878091_1515730720_item'); });
document.getElementById('svg_1868914109_226202614242076680765_1077938655_1324878091_1515730720').addEventListener('blur', (event) => {
loseFocus('svg_1868914109_226202614242076680765_1077938655_1324878091_1515730720_item'); });
document.getElementById('svg_1868914109_226202614242076680765_1077938655_1324878091_1322359657').addEventListener('focus', (event) => {
gainFocus('svg_1868914109_226202614242076680765_1077938655_1324878091_1322359657_item'); });
document.getElementById('svg_1868914109_226202614242076680765_1077938655_1324878091_1322359657').addEventListener('blur', (event) => {
loseFocus('svg_1868914109_226202614242076680765_1077938655_1324878091_1322359657_item'); });
document.getElementById('svg_1868914109_226202614242076680765_1077938655_1324878091_257495665').addEventListener('focus', (event) => {
gainFocus('svg_1868914109_226202614242076680765_1077938655_1324878091_257495665_item'); });
document.getElementById('svg_1868914109_226202614242076680765_1077938655_1324878091_257495665').addEventListener('blur', (event) => {
loseFocus('svg_1868914109_226202614242076680765_1077938655_1324878091_257495665_item'); });
document.getElementById('svg_1868914109_226202614242076680765_1077938655_1324878091_2009885224').addEventListener('focus', (event) => {
gainFocus('svg_1868914109_226202614242076680765_1077938655_1324878091_2009885224_item'); });
document.getElementById('svg_1868914109_226202614242076680765_1077938655_1324878091_2009885224').addEventListener('blur', (event) => {
loseFocus('svg_1868914109_226202614242076680765_1077938655_1324878091_2009885224_item'); });
document.getElementById('svg_1868914109_226202614242076680765_1077938655_1324878091_187931144').addEventListener('focus', (event) => {
gainFocus('svg_1868914109_226202614242076680765_1077938655_1324878091_187931144_item'); });
document.getElementById('svg_1868914109_226202614242076680765_1077938655_1324878091_187931144').addEventListener('blur', (event) => {
loseFocus('svg_1868914109_226202614242076680765_1077938655_1324878091_187931144_item'); });
document.getElementById('svg_1868914109_226202614242076680765_1077938655_1324878091_1868933720').addEventListener('focus', (event) => {
gainFocus('svg_1868914109_226202614242076680765_1077938655_1324878091_1868933720_item'); });
document.getElementById('svg_1868914109_226202614242076680765_1077938655_1324878091_1868933720').addEventListener('blur', (event) => {
loseFocus('svg_1868914109_226202614242076680765_1077938655_1324878091_1868933720_item'); });
document.getElementById('svg_1868914109_226202614242076680765_1077938655_1324878091_492135521').addEventListener('focus', (event) => {
gainFocus('svg_1868914109_226202614242076680765_1077938655_1324878091_492135521_item'); });
document.getElementById('svg_1868914109_226202614242076680765_1077938655_1324878091_492135521').addEventListener('blur', (event) => {
loseFocus('svg_1868914109_226202614242076680765_1077938655_1324878091_492135521_item'); });
document.getElementById('svg_1868914109_226202614242076680765_622946713_2077884890_920102538').addEventListener('focus', (event) => {
gainFocus('svg_1868914109_226202614242076680765_622946713_2077884890_920102538_item'); });
document.getElementById('svg_1868914109_226202614242076680765_622946713_2077884890_920102538').addEventListener('blur', (event) => {
loseFocus('svg_1868914109_226202614242076680765_622946713_2077884890_920102538_item'); });
document.getElementById('svg_1868914109_226202614242076680765_622946713_2077884890_669781254').addEventListener('focus', (event) => {
gainFocus('svg_1868914109_226202614242076680765_622946713_2077884890_669781254_item'); });
document.getElementById('svg_1868914109_226202614242076680765_622946713_2077884890_669781254').addEventListener('blur', (event) => {
loseFocus('svg_1868914109_226202614242076680765_622946713_2077884890_669781254_item'); });
document.getElementById('svg_1868914109_226202614242076680765_622946713_2077884890_1121811842').addEventListener('focus', (event) => {
gainFocus('svg_1868914109_226202614242076680765_622946713_2077884890_1121811842_item'); });
document.getElementById('svg_1868914109_226202614242076680765_622946713_2077884890_1121811842').addEventListener('blur', (event) => {
loseFocus('svg_1868914109_226202614242076680765_622946713_2077884890_1121811842_item'); });
document.getElementById('svg_1868914109_226202614242076680765_622946713_2077884890_1827344889').addEventListener('focus', (event) => {
gainFocus('svg_1868914109_226202614242076680765_622946713_2077884890_1827344889_item'); });
document.getElementById('svg_1868914109_226202614242076680765_622946713_2077884890_1827344889').addEventListener('blur', (event) => {
loseFocus('svg_1868914109_226202614242076680765_622946713_2077884890_1827344889_item'); });
document.getElementById('svg_1868914109_226202614242076680765_622946713_2077884890_1298547491').addEventListener('focus', (event) => {
gainFocus('svg_1868914109_226202614242076680765_622946713_2077884890_1298547491_item'); });
document.getElementById('svg_1868914109_226202614242076680765_622946713_2077884890_1298547491').addEventListener('blur', (event) => {
loseFocus('svg_1868914109_226202614242076680765_622946713_2077884890_1298547491_item'); });
document.getElementById('svg_1868914109_226202614242076680765_622946713_2077884890_2636011').addEventListener('focus', (event) => {
gainFocus('svg_1868914109_226202614242076680765_622946713_2077884890_2636011_item'); });
document.getElementById('svg_1868914109_226202614242076680765_622946713_2077884890_2636011').addEventListener('blur', (event) => {
loseFocus('svg_1868914109_226202614242076680765_622946713_2077884890_2636011_item'); });
document.getElementById('svg_1868914109_226202614242076680765_622946713_2077884890_263574324').addEventListener('focus', (event) => {
gainFocus('svg_1868914109_226202614242076680765_622946713_2077884890_263574324_item'); });
document.getElementById('svg_1868914109_226202614242076680765_622946713_2077884890_263574324').addEventListener('blur', (event) => {
loseFocus('svg_1868914109_226202614242076680765_622946713_2077884890_263574324_item'); });
document.getElementById('svg_1868914109_226202614242076680765_622946713_2077884890_73254846').addEventListener('focus', (event) => {
gainFocus('svg_1868914109_226202614242076680765_622946713_2077884890_73254846_item'); });
document.getElementById('svg_1868914109_226202614242076680765_622946713_2077884890_73254846').addEventListener('blur', (event) => {
loseFocus('svg_1868914109_226202614242076680765_622946713_2077884890_73254846_item'); });
document.getElementById('svg_1868914109_226202614242076680765_622946713_2077884890_645323114').addEventListener('focus', (event) => {
gainFocus('svg_1868914109_226202614242076680765_622946713_2077884890_645323114_item'); });
document.getElementById('svg_1868914109_226202614242076680765_622946713_2077884890_645323114').addEventListener('blur', (event) => {
loseFocus('svg_1868914109_226202614242076680765_622946713_2077884890_645323114_item'); });
document.getElementById('svg_1868914109_226202614242076680765_622946713_2077884890_759536602').addEventListener('focus', (event) => {
gainFocus('svg_1868914109_226202614242076680765_622946713_2077884890_759536602_item'); });
document.getElementById('svg_1868914109_226202614242076680765_622946713_2077884890_759536602').addEventListener('blur', (event) => {
loseFocus('svg_1868914109_226202614242076680765_622946713_2077884890_759536602_item'); });
</script>
	<script  type="text/javascript">
if (typeof quorum_chart_value_order == 'undefined' || quorum_chart_value_order == null)
	var quorum_chart_value_order = {};

quorum_chart_value_order.svg_1868914109_226202614242076680765 = {
	svg_1868914109_226202614242076680765_1077938655_1324878091: 12.0,
	svg_1868914109_226202614242076680765_622946713_2077884890: 15.0
};
</script>
	<style type= "text/css" >.selection-box226202614242076680765:focus {
 outline: 5px solid rgb(240.0,94.0,93.0);
 outline-offset: 5px;
 animation: blink-animation 1s steps(5, start) infinite;
 animation-delay: 1s;
 border-radius: 5px;
 z-index: 10;
}
g.selection-box226202614242076680765:focus > rect {
 outline: 5px solid rgb(240.0,94.0,93.0);
 outline-offset: 5px;
 animation: blink-animation 1s steps(5, start) infinite;
 animation-delay: 1s;
 border-radius: 5px;
 z-index: 10;
}

circle.selection-box226202614242076680765:focus {
  border-radius: 50%;
}

g.selection-box226202614242076680765:focus > circle{
  border-radius: 50%;
}

@keyframes blink-animation {
  0%, 49% {
    outline-color: rgb(240.0,94.0,93.0); /* Change to desired color at 50% of the animation */
  }
  50%, 100% {
    outline-color: transparent;
  }
}
.dot-container226202614242076680765:has(>g:focus) > g:not(:focus) {
 opacity: 0.15;
}
.dot-series226202614242076680765:focus {
 outline: none;
}
.quorum-chart-wedge:focus-within{
 outline: none;
 transform: translateX(calc(var(--unit-x) * 25)) translateY(calc(var(--unit-y) * 25));
}
.quorum-chart-wedge:focus-within > * {
 outline: none;
 visibility: visible;
}
.crust {
 visibility: hidden;
</style>
</svg>
