<svg width="2000" height="1000" viewBox="0 0 2000 1000"
	xmlns="http://www.w3.org/2000/svg" id="svg-1414013111-3242022191449646316245" tabindex="-1" class="quorum-chart" role="img">

	<rect width="100.0%" height="100.0%" x="0.0%" y="0.0%" id="svg-1414013111-3242022191449646316245-243575009" tabindex="-1" class="quorum-chart-element" fill="white" aria-label="Minimum and Maximum Life Expectancy for Various Cat Breeds,  with 2 violin plots. Use the arrow keys to navigate the chart." />

	<rect width="1740.0" height="680.0" x="163.0" y="212.0" id="svg-1414013111-3242022191449646316245-777341499" tabindex="-1" class="quorum-chart-element" fill="white" aria-label="Chart Area " />

	<rect width="0.0" height="0.0" x="163.0" y="942.0" id="svg-1414013111-3242022191449646316245-1454026445" tabindex="-1" />

	<rect width="0.0" height="0.0" x="163.0" y="942.0" id="svg-1414013111-3242022191449646316245-1378497201" tabindex="-1" />

	<rect width="0.0" height="0.0" x="163.0" y="942.0" id="svg-1414013111-3242022191449646316245-892931811" tabindex="-1" />

	<rect width="0.0" height="0.0" x="163.0" y="942.0" id="svg-1414013111-3242022191449646316245-1577167234" tabindex="-1" />

	<rect width="0.0" height="0.0" x="163.0" y="942.0" id="svg-1414013111-3242022191449646316245-1574873161" tabindex="-1" />

	<rect width="0.0" height="0.0" x="163.0" y="942.0" id="svg-1414013111-3242022191449646316245-1591916281" tabindex="-1" />

	<rect width="0.0" height="0.0" x="163.0" y="834.0" id="svg-1414013111-3242022191449646316245-600958416" tabindex="-1" />

	<rect width="0.0" height="0.0" x="163.0" y="834.0" id="svg-1414013111-3242022191449646316245-1884231057" tabindex="-1" />

	<text x="482.0" y="865.0" font-size="27px" font-family="Arial" text-anchor="left" transform="rotate(0.0, 482.0, 865)" id="svg-1414013111-3242022191449646316245-1492875057" tabindex="-1" class="quorum-chart-text" aria-label=", 1 of 2 labels.">Minimum Life Span</text>

	<text x="1349.0" y="865.0" font-size="27px" font-family="Arial" text-anchor="left" transform="rotate(0.0, 1349.0, 865)" id="svg-1414013111-3242022191449646316245-333793193" tabindex="-1" class="quorum-chart-text" aria-label=", 2 of 2 labels.">Maximum Life Span</text>

	<rect width="0.0" height="0.0" x="0.0" y="834.0" id="svg-1414013111-3242022191449646316245-882646447" tabindex="-1" />

	<rect width="0.0" height="0.0" x="0.0" y="834.0" id="svg-1414013111-3242022191449646316245-234740890" tabindex="-1" />

	<rect width="0.0" height="0.0" x="0.0" y="834.0" id="svg-1414013111-3242022191449646316245-79290250" tabindex="-1" />

	<rect width="0.0" height="0.0" x="0.0" y="834.0" id="svg-1414013111-3242022191449646316245-1586151649" tabindex="-1" />

	<rect width="0.0" height="0.0" x="0.0" y="834.0" id="svg-1414013111-3242022191449646316245-179294202" tabindex="-1" />

	<rect width="0.0" height="0.0" x="0.0" y="834.0" id="svg-1414013111-3242022191449646316245-1767230265" tabindex="-1" />

	<rect width="0.0" height="0.0" x="0.0" y="834.0" id="svg-1414013111-3242022191449646316245-593103894" tabindex="-1" />

	<rect width="0.0" height="0.0" x="0.0" y="834.0" id="svg-1414013111-3242022191449646316245-727666004" tabindex="-1" />

	<rect width="0.0" height="0.0" x="0.0" y="834.0" id="svg-1414013111-3242022191449646316245-1601935322" tabindex="-1" />

	<rect width="0.0" height="0.0" x="0.0" y="834.0" id="svg-1414013111-3242022191449646316245-414225167" tabindex="-1" />

	<rect width="0.0" height="0.0" x="0.0" y="834.0" id="svg-1414013111-3242022191449646316245-1803093683" tabindex="-1" />

	<rect width="0.0" height="0.0" x="0.0" y="834.0" id="svg-1414013111-3242022191449646316245-975033189" tabindex="-1" />

	<rect width="0.0" height="0.0" x="0.0" y="834.0" id="svg-1414013111-3242022191449646316245-962287291" tabindex="-1" />

	<rect width="0.0" height="0.0" x="0.0" y="834.0" id="svg-1414013111-3242022191449646316245-628064884" tabindex="-1" />

	<rect width="0.0" height="0.0" x="0.0" y="834.0" id="svg-1414013111-3242022191449646316245-109069556" tabindex="-1" />

	<rect width="0.0" height="0.0" x="0.0" y="834.0" id="svg-1414013111-3242022191449646316245-1389509050" tabindex="-1" />

	<rect width="0.0" height="0.0" x="0.0" y="834.0" id="svg-1414013111-3242022191449646316245-828326869" tabindex="-1" />

	<rect width="0.0" height="0.0" x="0.0" y="834.0" id="svg-1414013111-3242022191449646316245-1761217448" tabindex="-1" />

	<rect width="0.0" height="0.0" x="0.0" y="834.0" id="svg-1414013111-3242022191449646316245-1817789863" tabindex="-1" />

	<rect width="0.0" height="0.0" x="0.0" y="834.0" id="svg-1414013111-3242022191449646316245-788905599" tabindex="-1" />

	<rect width="0.0" height="0.0" x="0.0" y="834.0" id="svg-1414013111-3242022191449646316245-1678709153" tabindex="-1" />

	<rect width="0.0" height="0.0" x="0.0" y="834.0" id="svg-1414013111-3242022191449646316245-1544614339" tabindex="-1" />

	<rect width="0.0" height="0.0" x="0.0" y="834.0" id="svg-1414013111-3242022191449646316245-2059592603" tabindex="-1" />

	<rect width="0.0" height="0.0" x="0.0" y="834.0" id="svg-1414013111-3242022191449646316245-2016828666" tabindex="-1" />

	<rect width="0.0" height="0.0" x="163.0" y="834.0" id="svg-1414013111-3242022191449646316245-1688782916" tabindex="-1" />

	<rect width="1734.0" height="4.0" x="169.0" y="732.0" id="svg-1414013111-3242022191449646316245-1064154107" tabindex="-1" fill="rgba(191.25,191.25,191.25,255.0)" />

	<rect width="1734.0" height="4.0" x="169.0" y="636.0" id="svg-1414013111-3242022191449646316245-1390301622" tabindex="-1" fill="rgba(191.25,191.25,191.25,255.0)" />

	<rect width="1734.0" height="4.0" x="169.0" y="540.0" id="svg-1414013111-3242022191449646316245-415565467" tabindex="-1" fill="rgba(191.25,191.25,191.25,255.0)" />

	<rect width="1734.0" height="4.0" x="169.0" y="443.0" id="svg-1414013111-3242022191449646316245-973936431" tabindex="-1" fill="rgba(191.25,191.25,191.25,255.0)" />

	<rect width="1734.0" height="4.0" x="169.0" y="347.0" id="svg-1414013111-3242022191449646316245-1756207614" tabindex="-1" fill="rgba(191.25,191.25,191.25,255.0)" />

	<rect width="1734.0" height="4.0" x="169.0" y="251.0" id="svg-1414013111-3242022191449646316245-1214133948" tabindex="-1" fill="rgba(191.25,191.25,191.25,255.0)" />

	<rect width="1734.0" height="4.0" x="169.0" y="160.0" id="svg-1414013111-3242022191449646316245-2015301874" tabindex="-1" fill="rgba(191.25,191.25,191.25,255.0)" />

	<text x="138.0" y="846.0" font-size="27px" font-family="Arial" text-anchor="left" id="svg-1414013111-3242022191449646316245-712627377" tabindex="-1" class="quorum-chart-text" aria-label=" label. ">6</text>

	<text x="138.0" y="751.0" font-size="27px" font-family="Arial" text-anchor="left" id="svg-1414013111-3242022191449646316245-782228073" tabindex="-1" class="quorum-chart-text" aria-label=" label. ">8</text>

	<text x="123.0" y="654.0" font-size="27px" font-family="Arial" text-anchor="left" id="svg-1414013111-3242022191449646316245-399373008" tabindex="-1" class="quorum-chart-text" aria-label=" label. ">10</text>

	<text x="123.0" y="558.0" font-size="27px" font-family="Arial" text-anchor="left" id="svg-1414013111-3242022191449646316245-391506011" tabindex="-1" class="quorum-chart-text" aria-label=" label. ">12</text>

	<text x="123.0" y="462.0" font-size="27px" font-family="Arial" text-anchor="left" id="svg-1414013111-3242022191449646316245-1936550492" tabindex="-1" class="quorum-chart-text" aria-label=" label. ">14</text>

	<text x="123.0" y="366.0" font-size="27px" font-family="Arial" text-anchor="left" id="svg-1414013111-3242022191449646316245-594651850" tabindex="-1" class="quorum-chart-text" aria-label=" label. ">16</text>

	<text x="123.0" y="269.0" font-size="27px" font-family="Arial" text-anchor="left" id="svg-1414013111-3242022191449646316245-1532139270" tabindex="-1" class="quorum-chart-text" aria-label=" label. ">18</text>

	<text x="123.0" y="173.0" font-size="27px" font-family="Arial" text-anchor="left" id="svg-1414013111-3242022191449646316245-1677568775" tabindex="-1" class="quorum-chart-text" aria-label=" label. ">20</text>

	<rect width="1737.0" height="3.0" x="163.0" y="831.0" id="svg-1414013111-3242022191449646316245-2069500590" tabindex="-1" fill="rgba(0.0,0.0,0.0,255.0)" />

	<rect width="1740.0" height="108.0" x="163.0" y="834.0" id="svg-1414013111-3242022191449646316245-1431556341" tabindex="-1" class="quorum-chart-element" fill="rgba(0.0,0.0,0.0,0.0)" aria-label="Type of extrema axis has 2 text labels. The labels are Minimum Life Span, and Maximum Life Span. " />

	<text x="902.0" y="923.0" font-size="37px" font-family="Arial" text-anchor="left" id="svg-1414013111-3242022191449646316245-452364286" tabindex="-1" class="quorum-chart-text">Type of extrema</text>

	<rect width="6.0" height="674.0" x="163.0" y="160.0" id="svg-1414013111-3242022191449646316245-350069300" tabindex="-1" fill="rgba(0.0,0.0,0.0,255.0)" />

	<rect width="163.0" height="680.0" x="0.0" y="154.0" id="svg-1414013111-3242022191449646316245-1060703587" tabindex="-1" class="quorum-chart-element" fill="rgba(0.0,0.0,0.0,0.0)" aria-label="Age axis ranges from 6 to 20. " />

	<text x="93.0" y="527.0" font-size="37px" font-family="Arial" text-anchor="left" transform="rotate(270.0, 93.0, 527)" id="svg-1414013111-3242022191449646316245-1957078537" tabindex="-1" class="quorum-chart-text">Age</text>

	<text x="754.0" y="62.0" font-size="20px" font-family="Arial" text-anchor="left" id="svg-1414013111-3242022191449646316245-1514214932" tabindex="-1" class="quorum-chart-text">Minimum and Maximum Life Expectancy for Various Cat Breeds</text>

	<text x="913.0" y="140.0" font-size="25px" font-family="Arial" text-anchor="left" id="svg-1414013111-3242022191449646316245-594858858" tabindex="-1">How long do cats live</text>

	<rect width="870.0" height="677.0" x="163.0" y="157.0" id="svg-1414013111-3242022191449646316245-1852661033-1548946718-1814423236" tabindex="-1" fill="rgba(0.0,0.0,0.0,0.0)" aria-label="Minimum Life Span, 1 of 2 box plots" />

	<polygon tabindex="-1" fill="rgba(46.0,46.0,46.0,255.0)" stroke="black" stroke-width="1.0" points="586.0,252.0 586.0,253.0 586.0,254.0 586.0,255.0 585.0,256.0 585.0,257.0 585.0,258.0 585.0,259.0 585.0,260.0 585.0,261.0 585.0,262.0 585.0,263.0 585.0,264.0 585.0,265.0 585.0,266.0 585.0,267.0 584.0,268.0 584.0,269.0 584.0,270.0 584.0,271.0 584.0,272.0 584.0,273.0 584.0,274.0 584.0,275.0 584.0,276.0 584.0,277.0 584.0,278.0 584.0,279.0 584.0,280.0 584.0,281.0 584.0,282.0 584.0,283.0 585.0,284.0 585.0,285.0 585.0,286.0 585.0,287.0 585.0,288.0 585.0,289.0 585.0,290.0 585.0,291.0 585.0,292.0 585.0,293.0 585.0,294.0 585.0,295.0 585.0,296.0 586.0,297.0 586.0,298.0 586.0,299.0 586.0,300.0 586.0,301.0 586.0,302.0 586.0,303.0 586.0,304.0 587.0,305.0 587.0,306.0 587.0,307.0 587.0,308.0 587.0,309.0 587.0,310.0 587.0,311.0 588.0,312.0 588.0,313.0 588.0,314.0 588.0,315.0 588.0,316.0 588.0,317.0 589.0,318.0 589.0,319.0 589.0,320.0 589.0,321.0 589.0,322.0 589.0,323.0 589.0,324.0 589.0,325.0 589.0,326.0 589.0,327.0 589.0,328.0 589.0,329.0 589.0,330.0 589.0,331.0 589.0,332.0 589.0,333.0 589.0,334.0 589.0,335.0 589.0,336.0 589.0,337.0 589.0,338.0 589.0,339.0 588.0,340.0 588.0,341.0 588.0,342.0 588.0,343.0 587.0,344.0 587.0,345.0 587.0,346.0 586.0,347.0 586.0,348.0 585.0,349.0 585.0,350.0 584.0,351.0 584.0,352.0 583.0,353.0 582.0,354.0 582.0,355.0 581.0,356.0 580.0,357.0 580.0,358.0 579.0,359.0 578.0,360.0 577.0,361.0 576.0,362.0 575.0,363.0 574.0,364.0 573.0,365.0 572.0,366.0 571.0,367.0 570.0,368.0 569.0,369.0 568.0,370.0 567.0,371.0 566.0,372.0 565.0,373.0 564.0,374.0 563.0,375.0 562.0,376.0 560.0,377.0 559.0,378.0 558.0,379.0 557.0,380.0 556.0,381.0 554.0,382.0 553.0,383.0 552.0,384.0 551.0,385.0 549.0,386.0 548.0,387.0 547.0,388.0 546.0,389.0 544.0,390.0 543.0,391.0 542.0,392.0 540.0,393.0 539.0,394.0 538.0,395.0 537.0,396.0 535.0,397.0 534.0,398.0 533.0,399.0 531.0,400.0 530.0,401.0 529.0,402.0 527.0,403.0 526.0,404.0 525.0,405.0 524.0,406.0 522.0,407.0 521.0,408.0 520.0,409.0 518.0,410.0 517.0,411.0 516.0,412.0 515.0,413.0 513.0,414.0 512.0,415.0 511.0,416.0 510.0,417.0 509.0,418.0 507.0,419.0 506.0,420.0 505.0,421.0 504.0,422.0 503.0,423.0 502.0,424.0 501.0,425.0 500.0,426.0 499.0,427.0 498.0,428.0 498.0,429.0 497.0,430.0 496.0,431.0 495.0,432.0 495.0,433.0 494.0,434.0 494.0,435.0 493.0,436.0 493.0,437.0 493.0,438.0 492.0,439.0 492.0,440.0 492.0,441.0 492.0,442.0 492.0,443.0 492.0,444.0 492.0,445.0 492.0,446.0 493.0,447.0 493.0,448.0 493.0,449.0 494.0,450.0 494.0,451.0 495.0,452.0 495.0,453.0 496.0,454.0 496.0,455.0 497.0,456.0 498.0,457.0 498.0,458.0 499.0,459.0 500.0,460.0 501.0,461.0 501.0,462.0 502.0,463.0 503.0,464.0 503.0,465.0 504.0,466.0 504.0,467.0 505.0,468.0 505.0,469.0 506.0,470.0 506.0,471.0 506.0,472.0 506.0,473.0 506.0,474.0 506.0,475.0 506.0,476.0 506.0,477.0 505.0,478.0 505.0,479.0 504.0,480.0 503.0,481.0 502.0,482.0 501.0,483.0 499.0,484.0 498.0,485.0 496.0,486.0 494.0,487.0 492.0,488.0 490.0,489.0 487.0,490.0 485.0,491.0 482.0,492.0 479.0,493.0 476.0,494.0 472.0,495.0 469.0,496.0 465.0,497.0 461.0,498.0 457.0,499.0 453.0,500.0 448.0,501.0 444.0,502.0 439.0,503.0 434.0,504.0 429.0,505.0 424.0,506.0 418.0,507.0 413.0,508.0 407.0,509.0 402.0,510.0 396.0,511.0 390.0,512.0 385.0,513.0 379.0,514.0 373.0,515.0 367.0,516.0 362.0,517.0 356.0,518.0 350.0,519.0 345.0,520.0 339.0,521.0 334.0,522.0 329.0,523.0 323.0,524.0 319.0,525.0 314.0,526.0 309.0,527.0 305.0,528.0 301.0,529.0 297.0,530.0 293.0,531.0 290.0,532.0 287.0,533.0 284.0,534.0 281.0,535.0 279.0,536.0 277.0,537.0 275.0,538.0 274.0,539.0 273.0,540.0 273.0,541.0 272.0,542.0 272.0,543.0 273.0,544.0 273.0,545.0 274.0,546.0 275.0,547.0 277.0,548.0 279.0,549.0 281.0,550.0 284.0,551.0 286.0,552.0 289.0,553.0 293.0,554.0 296.0,555.0 300.0,556.0 304.0,557.0 308.0,558.0 312.0,559.0 317.0,560.0 321.0,561.0 326.0,562.0 331.0,563.0 336.0,564.0 341.0,565.0 346.0,566.0 351.0,567.0 356.0,568.0 361.0,569.0 367.0,570.0 372.0,571.0 377.0,572.0 382.0,573.0 387.0,574.0 392.0,575.0 397.0,576.0 402.0,577.0 406.0,578.0 411.0,579.0 415.0,580.0 420.0,581.0 424.0,582.0 428.0,583.0 432.0,584.0 435.0,585.0 439.0,586.0 442.0,587.0 445.0,588.0 448.0,589.0 451.0,590.0 454.0,591.0 456.0,592.0 458.0,593.0 461.0,594.0 462.0,595.0 464.0,596.0 466.0,597.0 467.0,598.0 468.0,599.0 469.0,600.0 470.0,601.0 471.0,602.0 472.0,603.0 472.0,604.0 472.0,605.0 473.0,606.0 473.0,607.0 473.0,608.0 473.0,609.0 472.0,610.0 472.0,611.0 472.0,612.0 471.0,613.0 471.0,614.0 470.0,615.0 470.0,616.0 469.0,617.0 468.0,618.0 468.0,619.0 467.0,620.0 466.0,621.0 466.0,622.0 465.0,623.0 465.0,624.0 464.0,625.0 463.0,626.0 463.0,627.0 462.0,628.0 462.0,629.0 462.0,630.0 462.0,631.0 461.0,632.0 461.0,633.0 461.0,634.0 461.0,635.0 461.0,636.0 462.0,637.0 462.0,638.0 462.0,639.0 463.0,640.0 464.0,641.0 464.0,642.0 465.0,643.0 466.0,644.0 467.0,645.0 468.0,646.0 469.0,647.0 471.0,648.0 472.0,649.0 474.0,650.0 475.0,651.0 477.0,652.0 478.0,653.0 480.0,654.0 482.0,655.0 484.0,656.0 486.0,657.0 488.0,658.0 490.0,659.0 492.0,660.0 494.0,661.0 496.0,662.0 498.0,663.0 501.0,664.0 503.0,665.0 505.0,666.0 507.0,667.0 509.0,668.0 512.0,669.0 514.0,670.0 516.0,671.0 518.0,672.0 520.0,673.0 522.0,674.0 524.0,675.0 526.0,676.0 528.0,677.0 530.0,678.0 532.0,679.0 534.0,680.0 536.0,681.0 538.0,682.0 540.0,683.0 541.0,684.0 543.0,685.0 545.0,686.0 546.0,687.0 548.0,688.0 549.0,689.0 551.0,690.0 552.0,691.0 554.0,692.0 555.0,693.0 556.0,694.0 558.0,695.0 559.0,696.0 560.0,697.0 561.0,698.0 562.0,699.0 563.0,700.0 564.0,701.0 565.0,702.0 566.0,703.0 567.0,704.0 568.0,705.0 568.0,706.0 569.0,707.0 570.0,708.0 571.0,709.0 571.0,710.0 572.0,711.0 573.0,712.0 573.0,713.0 574.0,714.0 575.0,715.0 575.0,716.0 576.0,717.0 576.0,718.0 577.0,719.0 577.0,720.0 578.0,721.0 578.0,722.0 578.0,723.0 579.0,724.0 579.0,725.0 580.0,726.0 580.0,727.0 581.0,728.0 581.0,729.0 581.0,730.0 582.0,731.0 582.0,732.0 582.0,733.0 583.0,734.0 583.0,735.0 613.0,735.0 613.0,734.0 614.0,733.0 614.0,732.0 614.0,731.0 615.0,730.0 615.0,729.0 615.0,728.0 616.0,727.0 616.0,726.0 617.0,725.0 617.0,724.0 618.0,723.0 618.0,722.0 618.0,721.0 619.0,720.0 619.0,719.0 620.0,718.0 620.0,717.0 621.0,716.0 621.0,715.0 622.0,714.0 623.0,713.0 623.0,712.0 624.0,711.0 625.0,710.0 625.0,709.0 626.0,708.0 627.0,707.0 628.0,706.0 628.0,705.0 629.0,704.0 630.0,703.0 631.0,702.0 632.0,701.0 633.0,700.0 634.0,699.0 635.0,698.0 636.0,697.0 637.0,696.0 638.0,695.0 640.0,694.0 641.0,693.0 642.0,692.0 644.0,691.0 645.0,690.0 647.0,689.0 648.0,688.0 650.0,687.0 651.0,686.0 653.0,685.0 655.0,684.0 656.0,683.0 658.0,682.0 660.0,681.0 662.0,680.0 664.0,679.0 666.0,678.0 668.0,677.0 670.0,676.0 672.0,675.0 674.0,674.0 676.0,673.0 678.0,672.0 680.0,671.0 682.0,670.0 684.0,669.0 687.0,668.0 689.0,667.0 691.0,666.0 693.0,665.0 695.0,664.0 698.0,663.0 700.0,662.0 702.0,661.0 704.0,660.0 706.0,659.0 708.0,658.0 710.0,657.0 712.0,656.0 714.0,655.0 716.0,654.0 718.0,653.0 719.0,652.0 721.0,651.0 722.0,650.0 724.0,649.0 725.0,648.0 727.0,647.0 728.0,646.0 729.0,645.0 730.0,644.0 731.0,643.0 732.0,642.0 732.0,641.0 733.0,640.0 734.0,639.0 734.0,638.0 734.0,637.0 735.0,636.0 735.0,635.0 735.0,634.0 735.0,633.0 735.0,632.0 734.0,631.0 734.0,630.0 734.0,629.0 734.0,628.0 733.0,627.0 733.0,626.0 732.0,625.0 731.0,624.0 731.0,623.0 730.0,622.0 730.0,621.0 729.0,620.0 728.0,619.0 728.0,618.0 727.0,617.0 726.0,616.0 726.0,615.0 725.0,614.0 725.0,613.0 724.0,612.0 724.0,611.0 724.0,610.0 723.0,609.0 723.0,608.0 723.0,607.0 723.0,606.0 724.0,605.0 724.0,604.0 724.0,603.0 725.0,602.0 726.0,601.0 727.0,600.0 728.0,599.0 729.0,598.0 730.0,597.0 732.0,596.0 734.0,595.0 735.0,594.0 738.0,593.0 740.0,592.0 742.0,591.0 745.0,590.0 748.0,589.0 751.0,588.0 754.0,587.0 757.0,586.0 761.0,585.0 764.0,584.0 768.0,583.0 772.0,582.0 776.0,581.0 781.0,580.0 785.0,579.0 790.0,578.0 794.0,577.0 799.0,576.0 804.0,575.0 809.0,574.0 814.0,573.0 819.0,572.0 824.0,571.0 829.0,570.0 835.0,569.0 840.0,568.0 845.0,567.0 850.0,566.0 855.0,565.0 860.0,564.0 865.0,563.0 870.0,562.0 875.0,561.0 879.0,560.0 884.0,559.0 888.0,558.0 892.0,557.0 896.0,556.0 900.0,555.0 903.0,554.0 907.0,553.0 910.0,552.0 912.0,551.0 915.0,550.0 917.0,549.0 919.0,548.0 921.0,547.0 922.0,546.0 923.0,545.0 923.0,544.0 924.0,543.0 924.0,542.0 923.0,541.0 923.0,540.0 922.0,539.0 921.0,538.0 919.0,537.0 917.0,536.0 915.0,535.0 912.0,534.0 909.0,533.0 906.0,532.0 903.0,531.0 899.0,530.0 895.0,529.0 891.0,528.0 887.0,527.0 882.0,526.0 877.0,525.0 873.0,524.0 867.0,523.0 862.0,522.0 857.0,521.0 851.0,520.0 846.0,519.0 840.0,518.0 834.0,517.0 829.0,516.0 823.0,515.0 817.0,514.0 811.0,513.0 806.0,512.0 800.0,511.0 794.0,510.0 789.0,509.0 783.0,508.0 778.0,507.0 772.0,506.0 767.0,505.0 762.0,504.0 757.0,503.0 752.0,502.0 748.0,501.0 743.0,500.0 739.0,499.0 735.0,498.0 731.0,497.0 727.0,496.0 724.0,495.0 720.0,494.0 717.0,493.0 714.0,492.0 711.0,491.0 709.0,490.0 706.0,489.0 704.0,488.0 702.0,487.0 700.0,486.0 698.0,485.0 697.0,484.0 695.0,483.0 694.0,482.0 693.0,481.0 692.0,480.0 691.0,479.0 691.0,478.0 690.0,477.0 690.0,476.0 690.0,475.0 690.0,474.0 690.0,473.0 690.0,472.0 690.0,471.0 690.0,470.0 691.0,469.0 691.0,468.0 692.0,467.0 692.0,466.0 693.0,465.0 693.0,464.0 694.0,463.0 695.0,462.0 695.0,461.0 696.0,460.0 697.0,459.0 698.0,458.0 698.0,457.0 699.0,456.0 700.0,455.0 700.0,454.0 701.0,453.0 701.0,452.0 702.0,451.0 702.0,450.0 703.0,449.0 703.0,448.0 703.0,447.0 704.0,446.0 704.0,445.0 704.0,444.0 704.0,443.0 704.0,442.0 704.0,441.0 704.0,440.0 704.0,439.0 703.0,438.0 703.0,437.0 703.0,436.0 702.0,435.0 702.0,434.0 701.0,433.0 701.0,432.0 700.0,431.0 699.0,430.0 698.0,429.0 698.0,428.0 697.0,427.0 696.0,426.0 695.0,425.0 694.0,424.0 693.0,423.0 692.0,422.0 691.0,421.0 690.0,420.0 689.0,419.0 687.0,418.0 686.0,417.0 685.0,416.0 684.0,415.0 683.0,414.0 681.0,413.0 680.0,412.0 679.0,411.0 678.0,410.0 676.0,409.0 675.0,408.0 674.0,407.0 672.0,406.0 671.0,405.0 670.0,404.0 669.0,403.0 667.0,402.0 666.0,401.0 665.0,400.0 663.0,399.0 662.0,398.0 661.0,397.0 659.0,396.0 658.0,395.0 657.0,394.0 656.0,393.0 654.0,392.0 653.0,391.0 652.0,390.0 650.0,389.0 649.0,388.0 648.0,387.0 647.0,386.0 645.0,385.0 644.0,384.0 643.0,383.0 642.0,382.0 640.0,381.0 639.0,380.0 638.0,379.0 637.0,378.0 636.0,377.0 634.0,376.0 633.0,375.0 632.0,374.0 631.0,373.0 630.0,372.0 629.0,371.0 628.0,370.0 627.0,369.0 626.0,368.0 625.0,367.0 624.0,366.0 623.0,365.0 622.0,364.0 621.0,363.0 620.0,362.0 619.0,361.0 618.0,360.0 617.0,359.0 616.0,358.0 616.0,357.0 615.0,356.0 614.0,355.0 614.0,354.0 613.0,353.0 612.0,352.0 612.0,351.0 611.0,350.0 611.0,349.0 610.0,348.0 610.0,347.0 609.0,346.0 609.0,345.0 609.0,344.0 608.0,343.0 608.0,342.0 608.0,341.0 608.0,340.0 607.0,339.0 607.0,338.0 607.0,337.0 607.0,336.0 607.0,335.0 607.0,334.0 607.0,333.0 607.0,332.0 607.0,331.0 607.0,330.0 607.0,329.0 607.0,328.0 607.0,327.0 607.0,326.0 607.0,325.0 607.0,324.0 607.0,323.0 607.0,322.0 607.0,321.0 607.0,320.0 607.0,319.0 607.0,318.0 608.0,317.0 608.0,316.0 608.0,315.0 608.0,314.0 608.0,313.0 608.0,312.0 609.0,311.0 609.0,310.0 609.0,309.0 609.0,308.0 609.0,307.0 609.0,306.0 609.0,305.0 610.0,304.0 610.0,303.0 610.0,302.0 610.0,301.0 610.0,300.0 610.0,299.0 610.0,298.0 610.0,297.0 611.0,296.0 611.0,295.0 611.0,294.0 611.0,293.0 611.0,292.0 611.0,291.0 611.0,290.0 611.0,289.0 611.0,288.0 611.0,287.0 611.0,286.0 611.0,285.0 611.0,284.0 612.0,283.0 612.0,282.0 612.0,281.0 612.0,280.0 612.0,279.0 612.0,278.0 612.0,277.0 612.0,276.0 612.0,275.0 612.0,274.0 612.0,273.0 612.0,272.0 612.0,271.0 612.0,270.0 612.0,269.0 612.0,268.0 611.0,267.0 611.0,266.0 611.0,265.0 611.0,264.0 611.0,263.0 611.0,262.0 611.0,261.0 611.0,260.0 611.0,259.0 611.0,258.0 611.0,257.0 611.0,256.0 610.0,255.0 610.0,254.0 610.0,253.0 610.0,252.0 " />

	<rect width="8.0" height="8.0" x="594.0" y="730.0" id="svg-1414013111-3242022191449646316245-1852661033-1548946718-1130346421" tabindex="-1" fill="black" aria-label="Minimum 8" />

	<rect width="8.0" height="145.0" x="594.0" y="593.0" id="svg-1414013111-3242022191449646316245-1852661033-1548946718-1316005672" tabindex="-1" fill="black" aria-label="Unnamed" />

	<rect width="24.0" height="105.0" x="586.0" y="488.0" id="svg-1414013111-3242022191449646316245-1852661033-1548946718-192428201" tabindex="-1" fill="black" aria-label="Interquartile range 2" />

	<rect width="24.0" height="8.0" x="586.0" y="585.0" id="svg-1414013111-3242022191449646316245-1852661033-1548946718-1768882706" tabindex="-1" fill="black" aria-label="1st Quartile 11" />

	<rect width="24.0" height="8.0" x="586.0" y="488.0" id="svg-1414013111-3242022191449646316245-1852661033-1548946718-472991420" tabindex="-1" fill="black" aria-label="3rd Quartile 13" />

	<rect width="8.0" height="89.0" x="594.0" y="407.0" id="svg-1414013111-3242022191449646316245-1852661033-1548946718-1455855843" tabindex="-1" fill="black" aria-label="Unnamed" />

	<rect width="8.0" height="8.0" x="594.0" y="399.0" id="svg-1414013111-3242022191449646316245-1852661033-1548946718-1202220987" tabindex="-1" fill="black" aria-label="Maximum 15" />

	<circle cx="598.5" cy="535.5" r="8.5" id="svg-1414013111-3242022191449646316245-1852661033-1548946718-1463022229" tabindex="-1" fill="white" stroke="black" stroke-width="1.0" aria-label="Median 12" />

	<rect width="870.0" height="677.0" x="1033.0" y="157.0" id="svg-1414013111-3242022191449646316245-256346753-425015667-2075568954" tabindex="-1" fill="rgba(0.0,0.0,0.0,0.0)" aria-label="Maximum Life Span, 2 of 2 box plots" />

	<polygon tabindex="-1" fill="rgba(239.0,201.0,31.0,255.0)" stroke="black" stroke-width="1.0" points="1436.0,155.0 1436.0,156.0 1436.0,157.0 1436.0,158.0 1436.0,159.0 1436.0,160.0 1436.0,161.0 1436.0,162.0 1436.0,163.0 1436.0,164.0 1436.0,165.0 1436.0,166.0 1436.0,167.0 1436.0,168.0 1437.0,169.0 1437.0,170.0 1437.0,171.0 1437.0,172.0 1438.0,173.0 1438.0,174.0 1438.0,175.0 1438.0,176.0 1439.0,177.0 1439.0,178.0 1439.0,179.0 1440.0,180.0 1440.0,181.0 1440.0,182.0 1440.0,183.0 1441.0,184.0 1441.0,185.0 1441.0,186.0 1441.0,187.0 1442.0,188.0 1442.0,189.0 1442.0,190.0 1442.0,191.0 1443.0,192.0 1443.0,193.0 1443.0,194.0 1443.0,195.0 1443.0,196.0 1443.0,197.0 1443.0,198.0 1443.0,199.0 1443.0,200.0 1443.0,201.0 1443.0,202.0 1443.0,203.0 1443.0,204.0 1443.0,205.0 1443.0,206.0 1443.0,207.0 1443.0,208.0 1443.0,209.0 1443.0,210.0 1443.0,211.0 1442.0,212.0 1442.0,213.0 1442.0,214.0 1442.0,215.0 1441.0,216.0 1441.0,217.0 1441.0,218.0 1440.0,219.0 1440.0,220.0 1440.0,221.0 1439.0,222.0 1439.0,223.0 1438.0,224.0 1438.0,225.0 1438.0,226.0 1437.0,227.0 1437.0,228.0 1436.0,229.0 1436.0,230.0 1435.0,231.0 1435.0,232.0 1434.0,233.0 1434.0,234.0 1433.0,235.0 1433.0,236.0 1432.0,237.0 1432.0,238.0 1431.0,239.0 1431.0,240.0 1430.0,241.0 1430.0,242.0 1429.0,243.0 1429.0,244.0 1428.0,245.0 1428.0,246.0 1427.0,247.0 1427.0,248.0 1426.0,249.0 1426.0,250.0 1425.0,251.0 1425.0,252.0 1425.0,253.0 1424.0,254.0 1424.0,255.0 1423.0,256.0 1423.0,257.0 1422.0,258.0 1422.0,259.0 1421.0,260.0 1421.0,261.0 1420.0,262.0 1420.0,263.0 1419.0,264.0 1419.0,265.0 1418.0,266.0 1418.0,267.0 1417.0,268.0 1416.0,269.0 1416.0,270.0 1415.0,271.0 1415.0,272.0 1414.0,273.0 1413.0,274.0 1413.0,275.0 1412.0,276.0 1411.0,277.0 1410.0,278.0 1410.0,279.0 1409.0,280.0 1408.0,281.0 1407.0,282.0 1406.0,283.0 1405.0,284.0 1404.0,285.0 1403.0,286.0 1402.0,287.0 1401.0,288.0 1400.0,289.0 1399.0,290.0 1397.0,291.0 1396.0,292.0 1395.0,293.0 1393.0,294.0 1392.0,295.0 1391.0,296.0 1389.0,297.0 1387.0,298.0 1386.0,299.0 1384.0,300.0 1382.0,301.0 1381.0,302.0 1379.0,303.0 1377.0,304.0 1375.0,305.0 1373.0,306.0 1371.0,307.0 1368.0,308.0 1366.0,309.0 1364.0,310.0 1362.0,311.0 1359.0,312.0 1357.0,313.0 1354.0,314.0 1352.0,315.0 1349.0,316.0 1347.0,317.0 1344.0,318.0 1341.0,319.0 1339.0,320.0 1336.0,321.0 1333.0,322.0 1330.0,323.0 1327.0,324.0 1324.0,325.0 1321.0,326.0 1318.0,327.0 1315.0,328.0 1312.0,329.0 1309.0,330.0 1306.0,331.0 1303.0,332.0 1300.0,333.0 1297.0,334.0 1294.0,335.0 1291.0,336.0 1288.0,337.0 1284.0,338.0 1281.0,339.0 1278.0,340.0 1275.0,341.0 1272.0,342.0 1268.0,343.0 1265.0,344.0 1262.0,345.0 1259.0,346.0 1256.0,347.0 1253.0,348.0 1249.0,349.0 1246.0,350.0 1243.0,351.0 1240.0,352.0 1237.0,353.0 1234.0,354.0 1230.0,355.0 1227.0,356.0 1224.0,357.0 1221.0,358.0 1218.0,359.0 1215.0,360.0 1211.0,361.0 1208.0,362.0 1205.0,363.0 1202.0,364.0 1199.0,365.0 1196.0,366.0 1193.0,367.0 1190.0,368.0 1187.0,369.0 1184.0,370.0 1182.0,371.0 1179.0,372.0 1176.0,373.0 1173.0,374.0 1171.0,375.0 1168.0,376.0 1166.0,377.0 1164.0,378.0 1161.0,379.0 1159.0,380.0 1157.0,381.0 1155.0,382.0 1153.0,383.0 1152.0,384.0 1150.0,385.0 1149.0,386.0 1147.0,387.0 1146.0,388.0 1145.0,389.0 1144.0,390.0 1144.0,391.0 1143.0,392.0 1143.0,393.0 1142.0,394.0 1142.0,395.0 1142.0,396.0 1143.0,397.0 1143.0,398.0 1144.0,399.0 1144.0,400.0 1145.0,401.0 1146.0,402.0 1148.0,403.0 1149.0,404.0 1150.0,405.0 1152.0,406.0 1154.0,407.0 1156.0,408.0 1158.0,409.0 1160.0,410.0 1162.0,411.0 1165.0,412.0 1167.0,413.0 1170.0,414.0 1173.0,415.0 1175.0,416.0 1178.0,417.0 1181.0,418.0 1184.0,419.0 1188.0,420.0 1191.0,421.0 1194.0,422.0 1197.0,423.0 1201.0,424.0 1204.0,425.0 1207.0,426.0 1211.0,427.0 1214.0,428.0 1218.0,429.0 1221.0,430.0 1225.0,431.0 1229.0,432.0 1232.0,433.0 1236.0,434.0 1239.0,435.0 1243.0,436.0 1247.0,437.0 1250.0,438.0 1254.0,439.0 1258.0,440.0 1261.0,441.0 1265.0,442.0 1269.0,443.0 1273.0,444.0 1276.0,445.0 1280.0,446.0 1284.0,447.0 1288.0,448.0 1292.0,449.0 1295.0,450.0 1299.0,451.0 1303.0,452.0 1307.0,453.0 1311.0,454.0 1314.0,455.0 1318.0,456.0 1322.0,457.0 1326.0,458.0 1330.0,459.0 1333.0,460.0 1337.0,461.0 1341.0,462.0 1345.0,463.0 1348.0,464.0 1352.0,465.0 1356.0,466.0 1359.0,467.0 1363.0,468.0 1366.0,469.0 1370.0,470.0 1373.0,471.0 1376.0,472.0 1380.0,473.0 1383.0,474.0 1386.0,475.0 1389.0,476.0 1392.0,477.0 1395.0,478.0 1398.0,479.0 1401.0,480.0 1403.0,481.0 1406.0,482.0 1408.0,483.0 1411.0,484.0 1413.0,485.0 1415.0,486.0 1418.0,487.0 1420.0,488.0 1422.0,489.0 1423.0,490.0 1425.0,491.0 1427.0,492.0 1428.0,493.0 1430.0,494.0 1431.0,495.0 1432.0,496.0 1434.0,497.0 1435.0,498.0 1436.0,499.0 1437.0,500.0 1437.0,501.0 1438.0,502.0 1439.0,503.0 1439.0,504.0 1440.0,505.0 1440.0,506.0 1441.0,507.0 1441.0,508.0 1441.0,509.0 1442.0,510.0 1442.0,511.0 1442.0,512.0 1442.0,513.0 1442.0,514.0 1442.0,515.0 1442.0,516.0 1442.0,517.0 1442.0,518.0 1441.0,519.0 1441.0,520.0 1441.0,521.0 1441.0,522.0 1441.0,523.0 1440.0,524.0 1440.0,525.0 1440.0,526.0 1440.0,527.0 1439.0,528.0 1439.0,529.0 1439.0,530.0 1439.0,531.0 1439.0,532.0 1439.0,533.0 1438.0,534.0 1438.0,535.0 1438.0,536.0 1438.0,537.0 1438.0,538.0 1438.0,539.0 1438.0,540.0 1438.0,541.0 1498.0,541.0 1498.0,540.0 1498.0,539.0 1498.0,538.0 1498.0,537.0 1498.0,536.0 1498.0,535.0 1498.0,534.0 1497.0,533.0 1497.0,532.0 1497.0,531.0 1497.0,530.0 1497.0,529.0 1497.0,528.0 1496.0,527.0 1496.0,526.0 1496.0,525.0 1496.0,524.0 1495.0,523.0 1495.0,522.0 1495.0,521.0 1495.0,520.0 1495.0,519.0 1494.0,518.0 1494.0,517.0 1494.0,516.0 1494.0,515.0 1494.0,514.0 1494.0,513.0 1494.0,512.0 1494.0,511.0 1494.0,510.0 1495.0,509.0 1495.0,508.0 1495.0,507.0 1496.0,506.0 1496.0,505.0 1497.0,504.0 1497.0,503.0 1498.0,502.0 1499.0,501.0 1499.0,500.0 1500.0,499.0 1501.0,498.0 1502.0,497.0 1504.0,496.0 1505.0,495.0 1506.0,494.0 1508.0,493.0 1509.0,492.0 1511.0,491.0 1513.0,490.0 1514.0,489.0 1516.0,488.0 1518.0,487.0 1521.0,486.0 1523.0,485.0 1525.0,484.0 1528.0,483.0 1530.0,482.0 1533.0,481.0 1535.0,480.0 1538.0,479.0 1541.0,478.0 1544.0,477.0 1547.0,476.0 1550.0,475.0 1553.0,474.0 1556.0,473.0 1560.0,472.0 1563.0,471.0 1566.0,470.0 1570.0,469.0 1573.0,468.0 1577.0,467.0 1580.0,466.0 1584.0,465.0 1588.0,464.0 1591.0,463.0 1595.0,462.0 1599.0,461.0 1603.0,460.0 1606.0,459.0 1610.0,458.0 1614.0,457.0 1618.0,456.0 1622.0,455.0 1625.0,454.0 1629.0,453.0 1633.0,452.0 1637.0,451.0 1641.0,450.0 1644.0,449.0 1648.0,448.0 1652.0,447.0 1656.0,446.0 1660.0,445.0 1663.0,444.0 1667.0,443.0 1671.0,442.0 1675.0,441.0 1678.0,440.0 1682.0,439.0 1686.0,438.0 1689.0,437.0 1693.0,436.0 1697.0,435.0 1700.0,434.0 1704.0,433.0 1707.0,432.0 1711.0,431.0 1715.0,430.0 1718.0,429.0 1722.0,428.0 1725.0,427.0 1729.0,426.0 1732.0,425.0 1735.0,424.0 1739.0,423.0 1742.0,422.0 1745.0,421.0 1748.0,420.0 1752.0,419.0 1755.0,418.0 1758.0,417.0 1761.0,416.0 1763.0,415.0 1766.0,414.0 1769.0,413.0 1771.0,412.0 1774.0,411.0 1776.0,410.0 1778.0,409.0 1780.0,408.0 1782.0,407.0 1784.0,406.0 1786.0,405.0 1787.0,404.0 1788.0,403.0 1790.0,402.0 1791.0,401.0 1792.0,400.0 1792.0,399.0 1793.0,398.0 1793.0,397.0 1794.0,396.0 1794.0,395.0 1794.0,394.0 1793.0,393.0 1793.0,392.0 1792.0,391.0 1792.0,390.0 1791.0,389.0 1790.0,388.0 1789.0,387.0 1787.0,386.0 1786.0,385.0 1784.0,384.0 1783.0,383.0 1781.0,382.0 1779.0,381.0 1777.0,380.0 1775.0,379.0 1772.0,378.0 1770.0,377.0 1768.0,376.0 1765.0,375.0 1763.0,374.0 1760.0,373.0 1757.0,372.0 1754.0,371.0 1752.0,370.0 1749.0,369.0 1746.0,368.0 1743.0,367.0 1740.0,366.0 1737.0,365.0 1734.0,364.0 1731.0,363.0 1728.0,362.0 1725.0,361.0 1721.0,360.0 1718.0,359.0 1715.0,358.0 1712.0,357.0 1709.0,356.0 1706.0,355.0 1702.0,354.0 1699.0,353.0 1696.0,352.0 1693.0,351.0 1690.0,350.0 1687.0,349.0 1683.0,348.0 1680.0,347.0 1677.0,346.0 1674.0,345.0 1671.0,344.0 1668.0,343.0 1664.0,342.0 1661.0,341.0 1658.0,340.0 1655.0,339.0 1652.0,338.0 1648.0,337.0 1645.0,336.0 1642.0,335.0 1639.0,334.0 1636.0,333.0 1633.0,332.0 1630.0,331.0 1627.0,330.0 1624.0,329.0 1621.0,328.0 1618.0,327.0 1615.0,326.0 1612.0,325.0 1609.0,324.0 1606.0,323.0 1603.0,322.0 1600.0,321.0 1597.0,320.0 1595.0,319.0 1592.0,318.0 1589.0,317.0 1587.0,316.0 1584.0,315.0 1582.0,314.0 1579.0,313.0 1577.0,312.0 1574.0,311.0 1572.0,310.0 1570.0,309.0 1568.0,308.0 1565.0,307.0 1563.0,306.0 1561.0,305.0 1559.0,304.0 1557.0,303.0 1555.0,302.0 1554.0,301.0 1552.0,300.0 1550.0,299.0 1549.0,298.0 1547.0,297.0 1545.0,296.0 1544.0,295.0 1543.0,294.0 1541.0,293.0 1540.0,292.0 1539.0,291.0 1537.0,290.0 1536.0,289.0 1535.0,288.0 1534.0,287.0 1533.0,286.0 1532.0,285.0 1531.0,284.0 1530.0,283.0 1529.0,282.0 1528.0,281.0 1527.0,280.0 1526.0,279.0 1526.0,278.0 1525.0,277.0 1524.0,276.0 1523.0,275.0 1523.0,274.0 1522.0,273.0 1521.0,272.0 1521.0,271.0 1520.0,270.0 1520.0,269.0 1519.0,268.0 1518.0,267.0 1518.0,266.0 1517.0,265.0 1517.0,264.0 1516.0,263.0 1516.0,262.0 1515.0,261.0 1515.0,260.0 1514.0,259.0 1514.0,258.0 1513.0,257.0 1513.0,256.0 1512.0,255.0 1512.0,254.0 1511.0,253.0 1511.0,252.0 1511.0,251.0 1510.0,250.0 1510.0,249.0 1509.0,248.0 1509.0,247.0 1508.0,246.0 1508.0,245.0 1507.0,244.0 1507.0,243.0 1506.0,242.0 1506.0,241.0 1505.0,240.0 1505.0,239.0 1504.0,238.0 1504.0,237.0 1503.0,236.0 1503.0,235.0 1502.0,234.0 1502.0,233.0 1501.0,232.0 1501.0,231.0 1500.0,230.0 1500.0,229.0 1499.0,228.0 1499.0,227.0 1498.0,226.0 1498.0,225.0 1498.0,224.0 1497.0,223.0 1497.0,222.0 1496.0,221.0 1496.0,220.0 1496.0,219.0 1495.0,218.0 1495.0,217.0 1495.0,216.0 1494.0,215.0 1494.0,214.0 1494.0,213.0 1494.0,212.0 1493.0,211.0 1493.0,210.0 1493.0,209.0 1493.0,208.0 1493.0,207.0 1493.0,206.0 1493.0,205.0 1493.0,204.0 1493.0,203.0 1493.0,202.0 1493.0,201.0 1493.0,200.0 1493.0,199.0 1493.0,198.0 1493.0,197.0 1493.0,196.0 1493.0,195.0 1493.0,194.0 1493.0,193.0 1493.0,192.0 1494.0,191.0 1494.0,190.0 1494.0,189.0 1494.0,188.0 1495.0,187.0 1495.0,186.0 1495.0,185.0 1495.0,184.0 1496.0,183.0 1496.0,182.0 1496.0,181.0 1496.0,180.0 1497.0,179.0 1497.0,178.0 1497.0,177.0 1498.0,176.0 1498.0,175.0 1498.0,174.0 1498.0,173.0 1499.0,172.0 1499.0,171.0 1499.0,170.0 1499.0,169.0 1500.0,168.0 1500.0,167.0 1500.0,166.0 1500.0,165.0 1500.0,164.0 1500.0,163.0 1500.0,162.0 1500.0,161.0 1500.0,160.0 1500.0,159.0 1500.0,158.0 1500.0,157.0 1500.0,156.0 1500.0,155.0 " />

	<rect width="8.0" height="8.0" x="1464.0" y="440.0" id="svg-1414013111-3242022191449646316245-256346753-425015667-2145896000" tabindex="-1" fill="black" aria-label="Minimum 14" />

	<rect width="8.0" height="49.0" x="1464.0" y="399.0" id="svg-1414013111-3242022191449646316245-256346753-425015667-1279740095" tabindex="-1" fill="black" aria-label="Unnamed" />

	<rect width="24.0" height="56.0" x="1456.0" y="343.0" id="svg-1414013111-3242022191449646316245-256346753-425015667-2095677157" tabindex="-1" fill="black" aria-label="Interquartile range 1" />

	<rect width="24.0" height="8.0" x="1456.0" y="391.0" id="svg-1414013111-3242022191449646316245-256346753-425015667-852026681" tabindex="-1" fill="black" aria-label="1st Quartile 15" />

	<rect width="24.0" height="8.0" x="1456.0" y="343.0" id="svg-1414013111-3242022191449646316245-256346753-425015667-94919826" tabindex="-1" fill="black" aria-label="3rd Quartile 16" />

	<rect width="8.0" height="40.0" x="1464.0" y="311.0" id="svg-1414013111-3242022191449646316245-256346753-425015667-847320212" tabindex="-1" fill="black" aria-label="Unnamed" />

	<rect width="8.0" height="8.0" x="1464.0" y="303.0" id="svg-1414013111-3242022191449646316245-256346753-425015667-1201004240" tabindex="-1" fill="black" aria-label="Maximum 17" />

	<circle cx="1468.5" cy="390.5" r="8.5" id="svg-1414013111-3242022191449646316245-256346753-425015667-1943855334" tabindex="-1" fill="white" stroke="black" stroke-width="1.0" aria-label="Median 15" />

	<rect width="1740.0" height="58.0" x="163.0" y="942.0" id="svg-1414013111-3242022191449646316245-1406848276" tabindex="-1" class="quorum-chart-element" fill="rgba(0.0,0.0,0.0,0.0)" aria-label="legend with 2 series" />

	<text x="175.0" y="985.0" font-size="37px" font-family="Arial" text-anchor="left" id="svg-1414013111-3242022191449646316245-349259569" tabindex="-1" class="quorum-chart-text" aria-label="Life Span">Life Span</text>

	<rect width="25.0" height="25.0" x="342.0" y="954.0" id="svg-1414013111-3242022191449646316245-785306763" tabindex="-1" class="quorum-chart-rect" fill="rgba(46.0,46.0,46.0,255.0)" />

	<text x="379.0" y="979.0" font-size="25px" font-family="Arial" text-anchor="left" id="svg-1414013111-3242022191449646316245-1548946718" tabindex="-1" class="quorum-chart-text" aria-label="Minimum Life Span">Minimum Life Span</text>

	<rect width="25.0" height="25.0" x="610.0" y="954.0" id="svg-1414013111-3242022191449646316245-1204088028" tabindex="-1" class="quorum-chart-rect" fill="rgba(239.0,201.0,31.0,255.0)" />

	<text x="647.0" y="979.0" font-size="25px" font-family="Arial" text-anchor="left" id="svg-1414013111-3242022191449646316245-425015667" tabindex="-1" class="quorum-chart-text" aria-label="Maximum Life Span">Maximum Life Span</text>

	<div id= "svg-1414013111-3242022191449646316245-nav" class= "svg-navigation" role= "application" ><ul role= "tree" class= "quorum-chart-tree" ><li id= "svg-1414013111-3242022191449646316245-243575009-nav" tabindex= "-1" role= "treeitem" class= "quorum-chart-treeitem" aria-labelledby= "svg-1414013111-3242022191449646316245-243575009" ></li><li id= "svg-1414013111-3242022191449646316245-1060703587-nav" aria-labelledby= "svg-1414013111-3242022191449646316245-1060703587" tabindex= "-1" role= "treeitem" class= "quorum-chart-treeitem" aria-expanded= "false" ><ul role= "group" class= "quorum-chart-group" ><li id= "svg-1414013111-3242022191449646316245-712627377-nav" tabindex= "-1" role= "treeitem" class= "quorum-chart-treeitem" aria-labelledby= "svg-1414013111-3242022191449646316245-712627377" ></li><li id= "svg-1414013111-3242022191449646316245-782228073-nav" tabindex= "-1" role= "treeitem" class= "quorum-chart-treeitem" aria-labelledby= "svg-1414013111-3242022191449646316245-782228073" ></li><li id= "svg-1414013111-3242022191449646316245-399373008-nav" tabindex= "-1" role= "treeitem" class= "quorum-chart-treeitem" aria-labelledby= "svg-1414013111-3242022191449646316245-399373008" ></li><li id= "svg-1414013111-3242022191449646316245-391506011-nav" tabindex= "-1" role= "treeitem" class= "quorum-chart-treeitem" aria-labelledby= "svg-1414013111-3242022191449646316245-391506011" ></li><li id= "svg-1414013111-3242022191449646316245-1936550492-nav" tabindex= "-1" role= "treeitem" class= "quorum-chart-treeitem" aria-labelledby= "svg-1414013111-3242022191449646316245-1936550492" ></li><li id= "svg-1414013111-3242022191449646316245-594651850-nav" tabindex= "-1" role= "treeitem" class= "quorum-chart-treeitem" aria-labelledby= "svg-1414013111-3242022191449646316245-594651850" ></li><li id= "svg-1414013111-3242022191449646316245-1532139270-nav" tabindex= "-1" role= "treeitem" class= "quorum-chart-treeitem" aria-labelledby= "svg-1414013111-3242022191449646316245-1532139270" ></li><li id= "svg-1414013111-3242022191449646316245-1677568775-nav" tabindex= "-1" role= "treeitem" class= "quorum-chart-treeitem" aria-labelledby= "svg-1414013111-3242022191449646316245-1677568775" ></li></ul></li><li id= "svg-1414013111-3242022191449646316245-777341499-nav" aria-labelledby= "svg-1414013111-3242022191449646316245-777341499" tabindex= "-1" role= "treeitem" class= "quorum-chart-treeitem" aria-expanded= "false" ><ul role= "group" ><li id= "svg-1414013111-3242022191449646316245-1852661033-1548946718-1814423236-nav" tabindex= "-1" role= "treeitem" aria-labelledby= "svg-1414013111-3242022191449646316245-1852661033-1548946718-1814423236" aria-expanded= "false" ><ul role= "group" ><li id= "svg-1414013111-3242022191449646316245-1852661033-1548946718-1130346421-nav" tabindex= "-1" role= "treeitem" aria-labelledby= "svg-1414013111-3242022191449646316245-1852661033-1548946718-1130346421" ></li><li id= "svg-1414013111-3242022191449646316245-1852661033-1548946718-192428201-nav" tabindex= "-1" role= "treeitem" aria-labelledby= "svg-1414013111-3242022191449646316245-1852661033-1548946718-192428201" ></li><li id= "svg-1414013111-3242022191449646316245-1852661033-1548946718-1768882706-nav" tabindex= "-1" role= "treeitem" aria-labelledby= "svg-1414013111-3242022191449646316245-1852661033-1548946718-1768882706" ></li><li id= "svg-1414013111-3242022191449646316245-1852661033-1548946718-1463022229-nav" tabindex= "-1" role= "treeitem" aria-labelledby= "svg-1414013111-3242022191449646316245-1852661033-1548946718-1463022229" ></li><li id= "svg-1414013111-3242022191449646316245-1852661033-1548946718-472991420-nav" tabindex= "-1" role= "treeitem" aria-labelledby= "svg-1414013111-3242022191449646316245-1852661033-1548946718-472991420" ></li><li id= "svg-1414013111-3242022191449646316245-1852661033-1548946718-1202220987-nav" tabindex= "-1" role= "treeitem" aria-labelledby= "svg-1414013111-3242022191449646316245-1852661033-1548946718-1202220987" ></li></ul></li><li id= "svg-1414013111-3242022191449646316245-256346753-425015667-2075568954-nav" tabindex= "-1" role= "treeitem" aria-labelledby= "svg-1414013111-3242022191449646316245-256346753-425015667-2075568954" aria-expanded= "false" ><ul role= "group" ><li id= "svg-1414013111-3242022191449646316245-256346753-425015667-2145896000-nav" tabindex= "-1" role= "treeitem" aria-labelledby= "svg-1414013111-3242022191449646316245-256346753-425015667-2145896000" ></li><li id= "svg-1414013111-3242022191449646316245-256346753-425015667-2095677157-nav" tabindex= "-1" role= "treeitem" aria-labelledby= "svg-1414013111-3242022191449646316245-256346753-425015667-2095677157" ></li><li id= "svg-1414013111-3242022191449646316245-256346753-425015667-852026681-nav" tabindex= "-1" role= "treeitem" aria-labelledby= "svg-1414013111-3242022191449646316245-256346753-425015667-852026681" ></li><li id= "svg-1414013111-3242022191449646316245-256346753-425015667-1943855334-nav" tabindex= "-1" role= "treeitem" aria-labelledby= "svg-1414013111-3242022191449646316245-256346753-425015667-1943855334" ></li><li id= "svg-1414013111-3242022191449646316245-256346753-425015667-94919826-nav" tabindex= "-1" role= "treeitem" aria-labelledby= "svg-1414013111-3242022191449646316245-256346753-425015667-94919826" ></li><li id= "svg-1414013111-3242022191449646316245-256346753-425015667-1201004240-nav" tabindex= "-1" role= "treeitem" aria-labelledby= "svg-1414013111-3242022191449646316245-256346753-425015667-1201004240" ></li></ul></li></ul></li><li id= "svg-1414013111-3242022191449646316245-1431556341-nav" aria-labelledby= "svg-1414013111-3242022191449646316245-1431556341" tabindex= "-1" role= "treeitem" class= "quorum-chart-treeitem" aria-expanded= "false" ><ul role= "group" class= "quorum-chart-group" ><li id= "svg-1414013111-3242022191449646316245-1492875057-nav" tabindex= "-1" role= "treeitem" class= "quorum-chart-treeitem" aria-labelledby= "svg-1414013111-3242022191449646316245-1492875057" ></li><li id= "svg-1414013111-3242022191449646316245-333793193-nav" tabindex= "-1" role= "treeitem" class= "quorum-chart-treeitem" aria-labelledby= "svg-1414013111-3242022191449646316245-333793193" ></li></ul></li><li id= "svg-1414013111-3242022191449646316245-1406848276-nav" aria-labelledby= "svg-1414013111-3242022191449646316245-1406848276" tabindex= "-1" role= "treeitem" class= "quorum-chart-treeitem" aria-expanded= "false" ><ul role= "group" class= "quorum-chart-group" ><li id= "svg-1414013111-3242022191449646316245-1548946718-nav" tabindex= "-1" role= "treeitem" class= "quorum-chart-treeitem" aria-labelledby= "svg-1414013111-3242022191449646316245-1548946718" ></li><li id= "svg-1414013111-3242022191449646316245-425015667-nav" tabindex= "-1" role= "treeitem" class= "quorum-chart-treeitem" aria-labelledby= "svg-1414013111-3242022191449646316245-425015667" ></li></ul></li></ul></div>
</svg>
