<svg width="746" height="481" viewBox="0 0 746 481" fill="none" xmlns="http://www.w3.org/2000/svg">
<rect width="746" height="481" fill="white"/>
<rect x="36" y="178" width="167" height="106" fill="#E1E3F0" stroke="black" stroke-width="2"/>
<rect x="205" y="178" width="167" height="106" fill="#C3C8E2" stroke="black" stroke-width="2"/>
<rect x="374" y="178" width="167" height="106" fill="#8892C6" stroke="black" stroke-width="2"/>
<rect x="543" y="178" width="167" height="106" fill="#12268E" stroke="black" stroke-width="2"/>
<line x1="201.5" y1="163.031" x2="201.5" y2="130.969" stroke="black" stroke-width="3"/>
<line x1="540.5" y1="163.062" x2="540.5" y2="131" stroke="black" stroke-width="3"/>
<line x1="201" y1="132.5" x2="542.006" y2="132.5" stroke="black" stroke-width="3"/>
<path d="M293.399 55.9091V69H290.631V55.9091H293.399ZM298.348 63.3239V69H295.625V59.1818H298.22V60.9141H298.335C298.552 60.343 298.917 59.8913 299.428 59.5589C299.939 59.2223 300.559 59.054 301.288 59.054C301.97 59.054 302.564 59.2031 303.071 59.5014C303.579 59.7997 303.973 60.2259 304.254 60.7798C304.535 61.3295 304.676 61.9858 304.676 62.7486V69H301.953V63.2344C301.957 62.6335 301.804 62.1648 301.493 61.8281C301.182 61.4872 300.753 61.3168 300.208 61.3168C299.841 61.3168 299.517 61.3956 299.236 61.5533C298.959 61.7109 298.742 61.9411 298.584 62.2436C298.431 62.5419 298.352 62.902 298.348 63.3239ZM312.044 59.1818V61.2273H306.132V59.1818H312.044ZM307.474 56.8295H310.197V65.983C310.197 66.2344 310.235 66.4304 310.312 66.571C310.389 66.7074 310.495 66.8033 310.632 66.8587C310.772 66.9141 310.934 66.9418 311.117 66.9418C311.245 66.9418 311.373 66.9311 311.501 66.9098C311.629 66.8842 311.727 66.8651 311.795 66.8523L312.223 68.8786C312.087 68.9212 311.895 68.9702 311.648 69.0256C311.401 69.0852 311.1 69.1214 310.747 69.1342C310.09 69.1598 309.515 69.0724 309.021 68.8722C308.531 68.6719 308.149 68.3608 307.877 67.9389C307.604 67.517 307.47 66.9844 307.474 66.3409V56.8295ZM318.187 69.1918C317.177 69.1918 316.308 68.9872 315.579 68.5781C314.855 68.1648 314.296 67.581 313.904 66.8267C313.512 66.0682 313.316 65.1712 313.316 64.1357C313.316 63.1257 313.512 62.2393 313.904 61.4766C314.296 60.7138 314.848 60.1193 315.56 59.6932C316.276 59.267 317.115 59.054 318.078 59.054C318.726 59.054 319.329 59.1584 319.887 59.3672C320.45 59.5717 320.94 59.8807 321.358 60.294C321.779 60.7074 322.108 61.2273 322.342 61.8537C322.576 62.4759 322.693 63.2045 322.693 64.0398V64.7876H314.403V63.1001H320.13C320.13 62.7081 320.045 62.3608 319.875 62.0582C319.704 61.7557 319.468 61.5192 319.165 61.3487C318.867 61.174 318.519 61.0866 318.123 61.0866C317.71 61.0866 317.343 61.1825 317.024 61.3743C316.708 61.5618 316.461 61.8153 316.282 62.1349C316.103 62.4503 316.012 62.8018 316.007 63.1896V64.794C316.007 65.2798 316.097 65.6996 316.276 66.0533C316.459 66.407 316.717 66.6797 317.049 66.8714C317.382 67.0632 317.776 67.1591 318.232 67.1591C318.534 67.1591 318.811 67.1165 319.063 67.0312C319.314 66.946 319.529 66.8182 319.708 66.6477C319.887 66.4773 320.024 66.2685 320.117 66.0213L322.636 66.1875C322.508 66.7926 322.246 67.321 321.85 67.7727C321.458 68.2202 320.951 68.5696 320.328 68.821C319.71 69.0682 318.997 69.1918 318.187 69.1918ZM324.47 69V59.1818H327.11V60.8949H327.213C327.392 60.2855 327.692 59.8253 328.114 59.5142C328.536 59.1989 329.022 59.0412 329.571 59.0412C329.708 59.0412 329.855 59.0497 330.012 59.0668C330.17 59.0838 330.309 59.1072 330.428 59.1371V61.5533C330.3 61.5149 330.123 61.4808 329.897 61.451C329.671 61.4212 329.465 61.4062 329.277 61.4062C328.877 61.4062 328.519 61.4936 328.203 61.6683C327.892 61.8388 327.645 62.0774 327.462 62.3842C327.283 62.6911 327.193 63.0447 327.193 63.4453V69H324.47ZM337.867 72.6818V67.4276H337.783C337.656 67.7003 337.475 67.9709 337.24 68.2393C337.01 68.5036 336.71 68.723 336.339 68.8977C335.972 69.0724 335.525 69.1598 334.997 69.1598C334.251 69.1598 333.575 68.968 332.97 68.5845C332.369 68.1967 331.892 67.6278 331.538 66.8778C331.189 66.1236 331.014 65.1989 331.014 64.1037C331.014 62.9787 331.195 62.0433 331.558 61.2976C331.92 60.5476 332.401 59.9872 333.002 59.6165C333.607 59.2415 334.27 59.054 334.99 59.054C335.54 59.054 335.998 59.1477 336.364 59.3352C336.735 59.5185 337.033 59.7486 337.259 60.0256C337.489 60.2983 337.664 60.5668 337.783 60.831H337.899V59.1818H340.583V72.6818H337.867ZM335.859 66.9929C336.298 66.9929 336.669 66.8736 336.972 66.6349C337.278 66.392 337.513 66.0533 337.675 65.6186C337.841 65.1839 337.924 64.6747 337.924 64.0909C337.924 63.5071 337.843 63 337.681 62.5696C337.519 62.1392 337.285 61.8068 336.978 61.5724C336.671 61.3381 336.298 61.2209 335.859 61.2209C335.412 61.2209 335.035 61.3423 334.728 61.5852C334.421 61.8281 334.189 62.1648 334.031 62.5952C333.874 63.0256 333.795 63.5241 333.795 64.0909C333.795 64.6619 333.874 65.1669 334.031 65.6058C334.193 66.0405 334.426 66.3814 334.728 66.6286C335.035 66.8714 335.412 66.9929 335.859 66.9929ZM349.065 64.8196V59.1818H351.788V69H349.174V67.2166H349.072C348.85 67.7919 348.482 68.2543 347.966 68.6037C347.455 68.9531 346.83 69.1278 346.093 69.1278C345.437 69.1278 344.859 68.9787 344.361 68.6804C343.862 68.3821 343.472 67.9581 343.191 67.4084C342.914 66.8587 342.774 66.2003 342.769 65.4332V59.1818H345.492V64.9474C345.497 65.527 345.652 65.9851 345.959 66.3217C346.266 66.6584 346.677 66.8267 347.193 66.8267C347.521 66.8267 347.828 66.7521 348.113 66.603C348.399 66.4496 348.629 66.2237 348.803 65.9254C348.982 65.6271 349.07 65.2585 349.065 64.8196ZM356.766 69.1854C356.14 69.1854 355.582 69.0767 355.092 68.8594C354.601 68.6378 354.214 68.3118 353.928 67.8814C353.647 67.4467 353.506 66.9055 353.506 66.2578C353.506 65.7124 353.606 65.2543 353.807 64.8835C354.007 64.5128 354.28 64.2145 354.625 63.9886C354.97 63.7628 355.362 63.5923 355.801 63.4773C356.244 63.3622 356.709 63.2812 357.195 63.2344C357.766 63.1747 358.226 63.1193 358.575 63.0682C358.925 63.0128 359.178 62.9318 359.336 62.8253C359.494 62.7187 359.572 62.5611 359.572 62.3523V62.3139C359.572 61.9091 359.445 61.5959 359.189 61.3743C358.937 61.1527 358.579 61.0419 358.115 61.0419C357.625 61.0419 357.235 61.1506 356.945 61.3679C356.655 61.581 356.464 61.8494 356.37 62.1733L353.851 61.9688C353.979 61.3722 354.231 60.8565 354.606 60.4219C354.981 59.983 355.464 59.6463 356.057 59.4119C356.653 59.1733 357.344 59.054 358.128 59.054C358.673 59.054 359.195 59.1179 359.694 59.2457C360.197 59.3736 360.642 59.5717 361.03 59.8402C361.422 60.1087 361.731 60.4538 361.957 60.8757C362.182 61.2933 362.295 61.794 362.295 62.3778V69H359.713V67.6385H359.636C359.479 67.9453 359.268 68.2159 359.003 68.4503C358.739 68.6804 358.422 68.8615 358.051 68.9936C357.68 69.1214 357.252 69.1854 356.766 69.1854ZM357.546 67.3061C357.947 67.3061 358.3 67.2273 358.607 67.0696C358.914 66.9077 359.155 66.6903 359.329 66.4176C359.504 66.1449 359.592 65.8359 359.592 65.4908V64.4489C359.506 64.5043 359.389 64.5554 359.24 64.6023C359.095 64.6449 358.931 64.6854 358.748 64.7237C358.565 64.7578 358.381 64.7898 358.198 64.8196C358.015 64.8452 357.849 64.8686 357.699 64.8899C357.38 64.9368 357.101 65.0114 356.862 65.1136C356.623 65.2159 356.438 65.3544 356.306 65.5291C356.174 65.6996 356.108 65.9126 356.108 66.1683C356.108 66.5391 356.242 66.8224 356.511 67.0185C356.783 67.2102 357.128 67.3061 357.546 67.3061ZM364.408 69V59.1818H367.048V60.8949H367.15C367.329 60.2855 367.63 59.8253 368.051 59.5142C368.473 59.1989 368.959 59.0412 369.509 59.0412C369.645 59.0412 369.792 59.0497 369.95 59.0668C370.108 59.0838 370.246 59.1072 370.365 59.1371V61.5533C370.237 61.5149 370.061 61.4808 369.835 61.451C369.609 61.4212 369.402 61.4062 369.215 61.4062C368.814 61.4062 368.456 61.4936 368.141 61.6683C367.83 61.8388 367.583 62.0774 367.399 62.3842C367.22 62.6911 367.131 63.0447 367.131 63.4453V69H364.408ZM377.488 59.1818V61.2273H371.575V59.1818H377.488ZM372.917 56.8295H375.64V65.983C375.64 66.2344 375.679 66.4304 375.755 66.571C375.832 66.7074 375.939 66.8033 376.075 66.8587C376.216 66.9141 376.378 66.9418 376.561 66.9418C376.689 66.9418 376.816 66.9311 376.944 66.9098C377.072 66.8842 377.17 66.8651 377.238 66.8523L377.667 68.8786C377.53 68.9212 377.339 68.9702 377.091 69.0256C376.844 69.0852 376.544 69.1214 376.19 69.1342C375.534 69.1598 374.959 69.0724 374.464 68.8722C373.974 68.6719 373.593 68.3608 373.32 67.9389C373.047 67.517 372.913 66.9844 372.917 66.3409V56.8295ZM379.261 69V59.1818H381.984V69H379.261ZM380.629 57.9162C380.225 57.9162 379.877 57.782 379.587 57.5135C379.302 57.2408 379.159 56.9148 379.159 56.5355C379.159 56.1605 379.302 55.8388 379.587 55.5703C379.877 55.2976 380.225 55.1612 380.629 55.1612C381.034 55.1612 381.379 55.2976 381.665 55.5703C381.955 55.8388 382.1 56.1605 382.1 56.5355C382.1 56.9148 381.955 57.2408 381.665 57.5135C381.379 57.782 381.034 57.9162 380.629 57.9162ZM386.889 55.9091V69H384.166V55.9091H386.889ZM393.544 69.1918C392.535 69.1918 391.665 68.9872 390.937 68.5781C390.212 68.1648 389.654 67.581 389.262 66.8267C388.87 66.0682 388.674 65.1712 388.674 64.1357C388.674 63.1257 388.87 62.2393 389.262 61.4766C389.654 60.7138 390.206 60.1193 390.917 59.6932C391.633 59.267 392.473 59.054 393.436 59.054C394.084 59.054 394.687 59.1584 395.245 59.3672C395.807 59.5717 396.297 59.8807 396.715 60.294C397.137 60.7074 397.465 61.2273 397.699 61.8537C397.934 62.4759 398.051 63.2045 398.051 64.0398V64.7876H389.76V63.1001H395.488C395.488 62.7081 395.402 62.3608 395.232 62.0582C395.062 61.7557 394.825 61.5192 394.522 61.3487C394.224 61.174 393.877 61.0866 393.481 61.0866C393.067 61.0866 392.701 61.1825 392.381 61.3743C392.066 61.5618 391.819 61.8153 391.64 62.1349C391.461 62.4503 391.369 62.8018 391.365 63.1896V64.794C391.365 65.2798 391.454 65.6996 391.633 66.0533C391.816 66.407 392.074 66.6797 392.407 66.8714C392.739 67.0632 393.133 67.1591 393.589 67.1591C393.892 67.1591 394.169 67.1165 394.42 67.0312C394.672 66.946 394.887 66.8182 395.066 66.6477C395.245 66.4773 395.381 66.2685 395.475 66.0213L397.993 66.1875C397.866 66.7926 397.603 67.321 397.207 67.7727C396.815 68.2202 396.308 68.5696 395.686 68.821C395.068 69.0682 394.354 69.1918 393.544 69.1918ZM404.045 69V55.9091H409.21C410.198 55.9091 411.042 56.0859 411.741 56.4396C412.444 56.7891 412.979 57.2855 413.345 57.929C413.716 58.5682 413.902 59.3203 413.902 60.1854C413.902 61.0547 413.714 61.8026 413.339 62.429C412.964 63.0511 412.421 63.5284 411.709 63.8608C411.002 64.1932 410.145 64.3594 409.139 64.3594H405.681V62.1349H408.692C409.22 62.1349 409.659 62.0625 410.009 61.9176C410.358 61.7727 410.618 61.5554 410.789 61.2656C410.963 60.9759 411.051 60.6158 411.051 60.1854C411.051 59.7507 410.963 59.3842 410.789 59.0859C410.618 58.7876 410.356 58.5618 410.002 58.4084C409.653 58.2507 409.212 58.1719 408.679 58.1719H406.813V69H404.045ZM411.115 63.0426L414.368 69H411.313L408.13 63.0426H411.115ZM418.606 69.1854C417.98 69.1854 417.421 69.0767 416.931 68.8594C416.441 68.6378 416.054 68.3118 415.768 67.8814C415.487 67.4467 415.346 66.9055 415.346 66.2578C415.346 65.7124 415.446 65.2543 415.647 64.8835C415.847 64.5128 416.12 64.2145 416.465 63.9886C416.81 63.7628 417.202 63.5923 417.641 63.4773C418.084 63.3622 418.549 63.2812 419.034 63.2344C419.605 63.1747 420.066 63.1193 420.415 63.0682C420.764 63.0128 421.018 62.9318 421.176 62.8253C421.333 62.7187 421.412 62.5611 421.412 62.3523V62.3139C421.412 61.9091 421.284 61.5959 421.029 61.3743C420.777 61.1527 420.419 61.0419 419.955 61.0419C419.465 61.0419 419.075 61.1506 418.785 61.3679C418.495 61.581 418.304 61.8494 418.21 62.1733L415.691 61.9688C415.819 61.3722 416.071 60.8565 416.446 60.4219C416.821 59.983 417.304 59.6463 417.897 59.4119C418.493 59.1733 419.184 59.054 419.968 59.054C420.513 59.054 421.035 59.1179 421.534 59.2457C422.036 59.3736 422.482 59.5717 422.87 59.8402C423.262 60.1087 423.571 60.4538 423.796 60.8757C424.022 61.2933 424.135 61.794 424.135 62.3778V69H421.553V67.6385H421.476C421.318 67.9453 421.108 68.2159 420.843 68.4503C420.579 68.6804 420.262 68.8615 419.891 68.9936C419.52 69.1214 419.092 69.1854 418.606 69.1854ZM419.386 67.3061C419.786 67.3061 420.14 67.2273 420.447 67.0696C420.754 66.9077 420.995 66.6903 421.169 66.4176C421.344 66.1449 421.431 65.8359 421.431 65.4908V64.4489C421.346 64.5043 421.229 64.5554 421.08 64.6023C420.935 64.6449 420.771 64.6854 420.588 64.7237C420.404 64.7578 420.221 64.7898 420.038 64.8196C419.855 64.8452 419.688 64.8686 419.539 64.8899C419.22 64.9368 418.941 65.0114 418.702 65.1136C418.463 65.2159 418.278 65.3544 418.146 65.5291C418.014 65.6996 417.948 65.9126 417.948 66.1683C417.948 66.5391 418.082 66.8224 418.35 67.0185C418.623 67.2102 418.968 67.3061 419.386 67.3061ZM428.971 63.3239V69H426.248V59.1818H428.843V60.9141H428.958C429.175 60.343 429.54 59.8913 430.051 59.5589C430.562 59.2223 431.182 59.054 431.911 59.054C432.593 59.054 433.187 59.2031 433.695 59.5014C434.202 59.7997 434.596 60.2259 434.877 60.7798C435.158 61.3295 435.299 61.9858 435.299 62.7486V69H432.576V63.2344C432.58 62.6335 432.427 62.1648 432.116 61.8281C431.805 61.4872 431.376 61.3168 430.831 61.3168C430.464 61.3168 430.141 61.3956 429.859 61.5533C429.582 61.7109 429.365 61.9411 429.207 62.2436C429.054 62.5419 428.975 62.902 428.971 63.3239ZM441.868 72.8864C440.986 72.8864 440.23 72.7649 439.599 72.522C438.973 72.2834 438.474 71.9574 438.103 71.544C437.733 71.1307 437.492 70.6662 437.381 70.1506L439.9 69.8118C439.976 70.0078 440.098 70.1911 440.264 70.3615C440.43 70.532 440.65 70.6683 440.922 70.7706C441.199 70.8771 441.536 70.9304 441.932 70.9304C442.525 70.9304 443.013 70.7855 443.396 70.4957C443.784 70.2102 443.978 69.7308 443.978 69.0575V67.2614H443.863C443.743 67.5341 443.564 67.7919 443.326 68.0348C443.087 68.2777 442.78 68.4759 442.405 68.6293C442.03 68.7827 441.583 68.8594 441.063 68.8594C440.326 68.8594 439.655 68.6889 439.049 68.348C438.449 68.0028 437.969 67.4766 437.611 66.7692C437.258 66.0575 437.081 65.1584 437.081 64.0717C437.081 62.9595 437.262 62.0305 437.624 61.2848C437.986 60.5391 438.468 59.9808 439.069 59.6101C439.674 59.2393 440.336 59.054 441.057 59.054C441.606 59.054 442.066 59.1477 442.437 59.3352C442.808 59.5185 443.106 59.7486 443.332 60.0256C443.562 60.2983 443.739 60.5668 443.863 60.831H443.965V59.1818H446.669V69.0959C446.669 69.9311 446.464 70.63 446.055 71.1925C445.646 71.755 445.079 72.1768 444.355 72.4581C443.635 72.7436 442.806 72.8864 441.868 72.8864ZM441.926 66.8139C442.365 66.8139 442.736 66.7053 443.038 66.4879C443.345 66.2663 443.579 65.951 443.741 65.5419C443.907 65.1286 443.991 64.6342 443.991 64.0589C443.991 63.4837 443.91 62.9851 443.748 62.5632C443.586 62.1371 443.351 61.8068 443.044 61.5724C442.738 61.3381 442.365 61.2209 441.926 61.2209C441.478 61.2209 441.101 61.3423 440.794 61.5852C440.488 61.8239 440.255 62.1562 440.098 62.5824C439.94 63.0085 439.861 63.5007 439.861 64.0589C439.861 64.6257 439.94 65.1158 440.098 65.5291C440.26 65.9382 440.492 66.2557 440.794 66.4815C441.101 66.7031 441.478 66.8139 441.926 66.8139ZM453.31 69.1918C452.3 69.1918 451.431 68.9872 450.702 68.5781C449.978 68.1648 449.419 67.581 449.027 66.8267C448.635 66.0682 448.439 65.1712 448.439 64.1357C448.439 63.1257 448.635 62.2393 449.027 61.4766C449.419 60.7138 449.971 60.1193 450.683 59.6932C451.399 59.267 452.238 59.054 453.201 59.054C453.849 59.054 454.452 59.1584 455.01 59.3672C455.573 59.5717 456.063 59.8807 456.481 60.294C456.902 60.7074 457.231 61.2273 457.465 61.8537C457.699 62.4759 457.816 63.2045 457.816 64.0398V64.7876H449.526V63.1001H455.253C455.253 62.7081 455.168 62.3608 454.998 62.0582C454.827 61.7557 454.591 61.5192 454.288 61.3487C453.99 61.174 453.642 61.0866 453.246 61.0866C452.833 61.0866 452.466 61.1825 452.147 61.3743C451.831 61.5618 451.584 61.8153 451.405 62.1349C451.226 62.4503 451.135 62.8018 451.13 63.1896V64.794C451.13 65.2798 451.22 65.6996 451.399 66.0533C451.582 66.407 451.84 66.6797 452.172 66.8714C452.505 67.0632 452.899 67.1591 453.355 67.1591C453.657 67.1591 453.934 67.1165 454.186 67.0312C454.437 66.946 454.652 66.8182 454.831 66.6477C455.01 66.4773 455.147 66.2685 455.241 66.0213L457.759 66.1875C457.631 66.7926 457.369 67.321 456.973 67.7727C456.581 68.2202 456.074 68.5696 455.451 68.821C454.834 69.0682 454.12 69.1918 453.31 69.1918Z" fill="black"/>
<path d="M344.03 342.909H347.444L351.049 351.705H351.202L354.807 342.909H358.221V356H355.536V347.479H355.427L352.04 355.936H350.211L346.824 347.447H346.715V356H344.03V342.909ZM364.924 356.192C363.914 356.192 363.045 355.987 362.316 355.578C361.592 355.165 361.034 354.581 360.642 353.827C360.25 353.068 360.054 352.171 360.054 351.136C360.054 350.126 360.25 349.239 360.642 348.477C361.034 347.714 361.586 347.119 362.297 346.693C363.013 346.267 363.853 346.054 364.816 346.054C365.463 346.054 366.066 346.158 366.625 346.367C367.187 346.572 367.677 346.881 368.095 347.294C368.517 347.707 368.845 348.227 369.079 348.854C369.314 349.476 369.431 350.205 369.431 351.04V351.788H361.14V350.1H366.868C366.868 349.708 366.782 349.361 366.612 349.058C366.441 348.756 366.205 348.519 365.902 348.349C365.604 348.174 365.257 348.087 364.86 348.087C364.447 348.087 364.081 348.183 363.761 348.374C363.446 348.562 363.199 348.815 363.02 349.135C362.841 349.45 362.749 349.802 362.745 350.19V351.794C362.745 352.28 362.834 352.7 363.013 353.053C363.196 353.407 363.454 353.68 363.787 353.871C364.119 354.063 364.513 354.159 364.969 354.159C365.272 354.159 365.549 354.116 365.8 354.031C366.051 353.946 366.267 353.818 366.446 353.648C366.625 353.477 366.761 353.268 366.855 353.021L369.373 353.188C369.245 353.793 368.983 354.321 368.587 354.773C368.195 355.22 367.688 355.57 367.066 355.821C366.448 356.068 365.734 356.192 364.924 356.192ZM374.826 356.16C374.08 356.16 373.404 355.968 372.799 355.585C372.199 355.197 371.721 354.628 371.368 353.878C371.018 353.124 370.843 352.199 370.843 351.104C370.843 349.979 371.025 349.043 371.387 348.298C371.749 347.548 372.23 346.987 372.831 346.616C373.436 346.241 374.099 346.054 374.819 346.054C375.369 346.054 375.827 346.148 376.194 346.335C376.564 346.518 376.863 346.749 377.088 347.026C377.319 347.298 377.493 347.567 377.613 347.831H377.696V342.909H380.412V356H377.728V354.428H377.613C377.485 354.7 377.304 354.971 377.069 355.239C376.839 355.504 376.539 355.723 376.168 355.898C375.801 356.072 375.354 356.16 374.826 356.16ZM375.689 353.993C376.127 353.993 376.498 353.874 376.801 353.635C377.108 353.392 377.342 353.053 377.504 352.619C377.67 352.184 377.753 351.675 377.753 351.091C377.753 350.507 377.672 350 377.51 349.57C377.348 349.139 377.114 348.807 376.807 348.572C376.5 348.338 376.127 348.221 375.689 348.221C375.241 348.221 374.864 348.342 374.557 348.585C374.25 348.828 374.018 349.165 373.86 349.595C373.703 350.026 373.624 350.524 373.624 351.091C373.624 351.662 373.703 352.167 373.86 352.606C374.022 353.04 374.255 353.381 374.557 353.629C374.864 353.871 375.241 353.993 375.689 353.993ZM382.651 356V346.182H385.374V356H382.651ZM384.019 344.916C383.614 344.916 383.267 344.782 382.977 344.513C382.692 344.241 382.549 343.915 382.549 343.536C382.549 343.161 382.692 342.839 382.977 342.57C383.267 342.298 383.614 342.161 384.019 342.161C384.424 342.161 384.769 342.298 385.055 342.57C385.344 342.839 385.489 343.161 385.489 343.536C385.489 343.915 385.344 344.241 385.055 344.513C384.769 344.782 384.424 344.916 384.019 344.916ZM390.355 356.185C389.729 356.185 389.17 356.077 388.68 355.859C388.19 355.638 387.803 355.312 387.517 354.881C387.236 354.447 387.095 353.906 387.095 353.258C387.095 352.712 387.195 352.254 387.396 351.884C387.596 351.513 387.869 351.214 388.214 350.989C388.559 350.763 388.951 350.592 389.39 350.477C389.833 350.362 390.298 350.281 390.783 350.234C391.354 350.175 391.815 350.119 392.164 350.068C392.513 350.013 392.767 349.932 392.925 349.825C393.082 349.719 393.161 349.561 393.161 349.352V349.314C393.161 348.909 393.033 348.596 392.778 348.374C392.526 348.153 392.168 348.042 391.704 348.042C391.214 348.042 390.824 348.151 390.534 348.368C390.244 348.581 390.053 348.849 389.959 349.173L387.44 348.969C387.568 348.372 387.82 347.857 388.195 347.422C388.57 346.983 389.053 346.646 389.646 346.412C390.242 346.173 390.933 346.054 391.717 346.054C392.262 346.054 392.784 346.118 393.283 346.246C393.786 346.374 394.231 346.572 394.619 346.84C395.011 347.109 395.32 347.454 395.545 347.876C395.771 348.293 395.884 348.794 395.884 349.378V356H393.302V354.638H393.225C393.067 354.945 392.857 355.216 392.592 355.45C392.328 355.68 392.011 355.862 391.64 355.994C391.269 356.121 390.841 356.185 390.355 356.185ZM391.135 354.306C391.536 354.306 391.889 354.227 392.196 354.07C392.503 353.908 392.744 353.69 392.918 353.418C393.093 353.145 393.18 352.836 393.18 352.491V351.449C393.095 351.504 392.978 351.555 392.829 351.602C392.684 351.645 392.52 351.685 392.337 351.724C392.153 351.758 391.97 351.79 391.787 351.82C391.604 351.845 391.438 351.869 391.288 351.89C390.969 351.937 390.69 352.011 390.451 352.114C390.212 352.216 390.027 352.354 389.895 352.529C389.763 352.7 389.697 352.913 389.697 353.168C389.697 353.539 389.831 353.822 390.099 354.018C390.372 354.21 390.717 354.306 391.135 354.306ZM400.72 350.324V356H397.997V346.182H400.592V347.914H400.707C400.924 347.343 401.289 346.891 401.8 346.559C402.311 346.222 402.931 346.054 403.66 346.054C404.342 346.054 404.936 346.203 405.444 346.501C405.951 346.8 406.345 347.226 406.626 347.78C406.907 348.33 407.048 348.986 407.048 349.749V356H404.325V350.234C404.329 349.634 404.176 349.165 403.865 348.828C403.554 348.487 403.125 348.317 402.58 348.317C402.213 348.317 401.89 348.396 401.608 348.553C401.331 348.711 401.114 348.941 400.956 349.244C400.803 349.542 400.724 349.902 400.72 350.324Z" fill="black"/>
<path d="M527.706 339.909H530.474V348.411C530.474 349.365 530.246 350.2 529.79 350.916C529.338 351.632 528.705 352.19 527.892 352.591C527.078 352.987 526.129 353.185 525.047 353.185C523.96 353.185 523.01 352.987 522.196 352.591C521.382 352.19 520.749 351.632 520.298 350.916C519.846 350.2 519.62 349.365 519.62 348.411V339.909H522.388V348.174C522.388 348.673 522.497 349.116 522.714 349.504C522.936 349.891 523.247 350.196 523.647 350.418C524.048 350.639 524.514 350.75 525.047 350.75C525.584 350.75 526.051 350.639 526.447 350.418C526.847 350.196 527.156 349.891 527.374 349.504C527.595 349.116 527.706 348.673 527.706 348.174V339.909ZM532.7 356.682V343.182H535.385V344.831H535.506C535.625 344.567 535.798 344.298 536.024 344.026C536.254 343.749 536.552 343.518 536.919 343.335C537.289 343.148 537.75 343.054 538.299 343.054C539.015 343.054 539.676 343.241 540.281 343.616C540.886 343.987 541.37 344.548 541.732 345.298C542.094 346.043 542.275 346.979 542.275 348.104C542.275 349.199 542.098 350.124 541.745 350.878C541.395 351.628 540.918 352.197 540.313 352.585C539.712 352.968 539.039 353.16 538.293 353.16C537.765 353.16 537.315 353.072 536.944 352.898C536.578 352.723 536.277 352.504 536.043 352.239C535.809 351.971 535.63 351.7 535.506 351.428H535.423V356.682H532.7ZM535.365 348.091C535.365 348.675 535.446 349.184 535.608 349.619C535.77 350.053 536.005 350.392 536.311 350.635C536.618 350.874 536.991 350.993 537.43 350.993C537.873 350.993 538.248 350.871 538.555 350.629C538.862 350.381 539.094 350.04 539.252 349.606C539.414 349.167 539.495 348.662 539.495 348.091C539.495 347.524 539.416 347.026 539.258 346.595C539.1 346.165 538.868 345.828 538.561 345.585C538.255 345.342 537.877 345.221 537.43 345.221C536.987 345.221 536.612 345.338 536.305 345.572C536.002 345.807 535.77 346.139 535.608 346.57C535.446 347 535.365 347.507 535.365 348.091ZM544.091 356.682V343.182H546.775V344.831H546.897C547.016 344.567 547.189 344.298 547.414 344.026C547.645 343.749 547.943 343.518 548.309 343.335C548.68 343.148 549.14 343.054 549.69 343.054C550.406 343.054 551.066 343.241 551.672 343.616C552.277 343.987 552.76 344.548 553.123 345.298C553.485 346.043 553.666 346.979 553.666 348.104C553.666 349.199 553.489 350.124 553.135 350.878C552.786 351.628 552.309 352.197 551.703 352.585C551.103 352.968 550.429 353.16 549.684 353.16C549.155 353.16 548.706 353.072 548.335 352.898C547.968 352.723 547.668 352.504 547.434 352.239C547.199 351.971 547.02 351.7 546.897 351.428H546.814V356.682H544.091ZM546.756 348.091C546.756 348.675 546.837 349.184 546.999 349.619C547.161 350.053 547.395 350.392 547.702 350.635C548.009 350.874 548.382 350.993 548.821 350.993C549.264 350.993 549.639 350.871 549.946 350.629C550.252 350.381 550.485 350.04 550.642 349.606C550.804 349.167 550.885 348.662 550.885 348.091C550.885 347.524 550.806 347.026 550.649 346.595C550.491 346.165 550.259 345.828 549.952 345.585C549.645 345.342 549.268 345.221 548.821 345.221C548.377 345.221 548.002 345.338 547.696 345.572C547.393 345.807 547.161 346.139 546.999 346.57C546.837 347 546.756 347.507 546.756 348.091ZM559.956 353.192C558.946 353.192 558.076 352.987 557.348 352.578C556.623 352.165 556.065 351.581 555.673 350.827C555.281 350.068 555.085 349.171 555.085 348.136C555.085 347.126 555.281 346.239 555.673 345.477C556.065 344.714 556.617 344.119 557.328 343.693C558.044 343.267 558.884 343.054 559.847 343.054C560.495 343.054 561.098 343.158 561.656 343.367C562.218 343.572 562.708 343.881 563.126 344.294C563.548 344.707 563.876 345.227 564.11 345.854C564.345 346.476 564.462 347.205 564.462 348.04V348.788H556.172V347.1H561.899C561.899 346.708 561.814 346.361 561.643 346.058C561.473 345.756 561.236 345.519 560.934 345.349C560.635 345.174 560.288 345.087 559.892 345.087C559.478 345.087 559.112 345.183 558.792 345.374C558.477 345.562 558.23 345.815 558.051 346.135C557.872 346.45 557.78 346.802 557.776 347.19V348.794C557.776 349.28 557.865 349.7 558.044 350.053C558.228 350.407 558.485 350.68 558.818 350.871C559.15 351.063 559.544 351.159 560 351.159C560.303 351.159 560.58 351.116 560.831 351.031C561.083 350.946 561.298 350.818 561.477 350.648C561.656 350.477 561.792 350.268 561.886 350.021L564.404 350.188C564.277 350.793 564.015 351.321 563.618 351.773C563.226 352.22 562.719 352.57 562.097 352.821C561.479 353.068 560.765 353.192 559.956 353.192ZM566.239 353V343.182H568.879V344.895H568.981C569.16 344.286 569.461 343.825 569.882 343.514C570.304 343.199 570.79 343.041 571.34 343.041C571.476 343.041 571.623 343.05 571.781 343.067C571.939 343.084 572.077 343.107 572.196 343.137V345.553C572.069 345.515 571.892 345.481 571.666 345.451C571.44 345.421 571.233 345.406 571.046 345.406C570.645 345.406 570.287 345.494 569.972 345.668C569.661 345.839 569.414 346.077 569.23 346.384C569.051 346.691 568.962 347.045 568.962 347.445V353H566.239ZM516.009 370.449H518.362L519.544 371.97L520.708 373.325L522.9 376.074H520.318L518.809 374.22L518.036 373.121L516.009 370.449ZM523.098 368.455C523.098 369.882 522.828 371.097 522.286 372.098C521.75 373.099 521.017 373.864 520.088 374.393C519.163 374.917 518.123 375.179 516.968 375.179C515.805 375.179 514.761 374.915 513.836 374.386C512.911 373.858 512.181 373.093 511.644 372.092C511.107 371.09 510.838 369.878 510.838 368.455C510.838 367.027 511.107 365.812 511.644 364.811C512.181 363.81 512.911 363.047 513.836 362.523C514.761 361.994 515.805 361.73 516.968 361.73C518.123 361.73 519.163 361.994 520.088 362.523C521.017 363.047 521.75 363.81 522.286 364.811C522.828 365.812 523.098 367.027 523.098 368.455ZM520.292 368.455C520.292 367.53 520.154 366.75 519.877 366.115C519.604 365.48 519.218 364.999 518.72 364.67C518.221 364.342 517.637 364.178 516.968 364.178C516.299 364.178 515.715 364.342 515.217 364.67C514.718 364.999 514.331 365.48 514.054 366.115C513.781 366.75 513.644 367.53 513.644 368.455C513.644 369.379 513.781 370.159 514.054 370.794C514.331 371.429 514.718 371.911 515.217 372.239C515.715 372.567 516.299 372.731 516.968 372.731C517.637 372.731 518.221 372.567 518.72 372.239C519.218 371.911 519.604 371.429 519.877 370.794C520.154 370.159 520.292 369.379 520.292 368.455ZM531.394 370.82V365.182H534.117V375H531.502V373.217H531.4C531.178 373.792 530.81 374.254 530.294 374.604C529.783 374.953 529.158 375.128 528.421 375.128C527.765 375.128 527.188 374.979 526.689 374.68C526.19 374.382 525.801 373.958 525.519 373.408C525.242 372.859 525.102 372.2 525.097 371.433V365.182H527.82V370.947C527.825 371.527 527.98 371.985 528.287 372.322C528.594 372.658 529.005 372.827 529.521 372.827C529.849 372.827 530.156 372.752 530.441 372.603C530.727 372.45 530.957 372.224 531.131 371.925C531.31 371.627 531.398 371.259 531.394 370.82ZM539.094 375.185C538.468 375.185 537.91 375.077 537.42 374.859C536.93 374.638 536.542 374.312 536.256 373.881C535.975 373.447 535.834 372.906 535.834 372.258C535.834 371.712 535.935 371.254 536.135 370.884C536.335 370.513 536.608 370.214 536.953 369.989C537.298 369.763 537.69 369.592 538.129 369.477C538.572 369.362 539.037 369.281 539.523 369.234C540.094 369.175 540.554 369.119 540.903 369.068C541.253 369.013 541.506 368.932 541.664 368.825C541.822 368.719 541.9 368.561 541.9 368.352V368.314C541.9 367.909 541.773 367.596 541.517 367.374C541.266 367.153 540.908 367.042 540.443 367.042C539.953 367.042 539.563 367.151 539.273 367.368C538.984 367.581 538.792 367.849 538.698 368.173L536.18 367.969C536.307 367.372 536.559 366.857 536.934 366.422C537.309 365.983 537.793 365.646 538.385 365.412C538.981 365.173 539.672 365.054 540.456 365.054C541.001 365.054 541.523 365.118 542.022 365.246C542.525 365.374 542.97 365.572 543.358 365.84C543.75 366.109 544.059 366.454 544.285 366.876C544.511 367.293 544.623 367.794 544.623 368.378V375H542.041V373.638H541.964C541.807 373.945 541.596 374.216 541.332 374.45C541.067 374.68 540.75 374.862 540.379 374.994C540.008 375.121 539.58 375.185 539.094 375.185ZM539.874 373.306C540.275 373.306 540.628 373.227 540.935 373.07C541.242 372.908 541.483 372.69 541.658 372.418C541.832 372.145 541.92 371.836 541.92 371.491V370.449C541.834 370.504 541.717 370.555 541.568 370.602C541.423 370.645 541.259 370.685 541.076 370.724C540.893 370.758 540.709 370.79 540.526 370.82C540.343 370.845 540.177 370.869 540.028 370.89C539.708 370.937 539.429 371.011 539.19 371.114C538.952 371.216 538.766 371.354 538.634 371.529C538.502 371.7 538.436 371.913 538.436 372.168C538.436 372.539 538.57 372.822 538.839 373.018C539.111 373.21 539.457 373.306 539.874 373.306ZM546.736 375V365.182H549.376V366.895H549.478C549.657 366.286 549.958 365.825 550.38 365.514C550.801 365.199 551.287 365.041 551.837 365.041C551.973 365.041 552.12 365.05 552.278 365.067C552.436 365.084 552.574 365.107 552.693 365.137V367.553C552.566 367.515 552.389 367.481 552.163 367.451C551.937 367.421 551.73 367.406 551.543 367.406C551.142 367.406 550.784 367.494 550.469 367.668C550.158 367.839 549.911 368.077 549.728 368.384C549.549 368.691 549.459 369.045 549.459 369.445V375H546.736ZM559.816 365.182V367.227H553.903V365.182H559.816ZM555.245 362.83H557.968V371.983C557.968 372.234 558.007 372.43 558.084 372.571C558.16 372.707 558.267 372.803 558.403 372.859C558.544 372.914 558.706 372.942 558.889 372.942C559.017 372.942 559.145 372.931 559.272 372.91C559.4 372.884 559.498 372.865 559.566 372.852L559.995 374.879C559.858 374.921 559.667 374.97 559.419 375.026C559.172 375.085 558.872 375.121 558.518 375.134C557.862 375.16 557.287 375.072 556.792 374.872C556.302 374.672 555.921 374.361 555.648 373.939C555.375 373.517 555.241 372.984 555.245 372.341V362.83ZM561.59 375V365.182H564.313V375H561.59ZM562.957 363.916C562.553 363.916 562.205 363.782 561.916 363.513C561.63 363.241 561.487 362.915 561.487 362.536C561.487 362.161 561.63 361.839 561.916 361.57C562.205 361.298 562.553 361.161 562.957 361.161C563.362 361.161 563.707 361.298 563.993 361.57C564.283 361.839 564.428 362.161 564.428 362.536C564.428 362.915 564.283 363.241 563.993 363.513C563.707 363.782 563.362 363.916 562.957 363.916ZM569.217 361.909V375H566.494V361.909H569.217ZM575.873 375.192C574.863 375.192 573.993 374.987 573.265 374.578C572.54 374.165 571.982 373.581 571.59 372.827C571.198 372.068 571.002 371.171 571.002 370.136C571.002 369.126 571.198 368.239 571.59 367.477C571.982 366.714 572.534 366.119 573.245 365.693C573.961 365.267 574.801 365.054 575.764 365.054C576.412 365.054 577.015 365.158 577.573 365.367C578.135 365.572 578.625 365.881 579.043 366.294C579.465 366.707 579.793 367.227 580.027 367.854C580.262 368.476 580.379 369.205 580.379 370.04V370.788H572.089V369.1H577.816C577.816 368.708 577.731 368.361 577.56 368.058C577.39 367.756 577.153 367.519 576.851 367.349C576.552 367.174 576.205 367.087 575.809 367.087C575.395 367.087 575.029 367.183 574.709 367.374C574.394 367.562 574.147 367.815 573.968 368.135C573.789 368.45 573.697 368.802 573.693 369.19V370.794C573.693 371.28 573.782 371.7 573.961 372.053C574.145 372.407 574.402 372.68 574.735 372.871C575.067 373.063 575.461 373.159 575.917 373.159C576.22 373.159 576.497 373.116 576.748 373.031C577 372.946 577.215 372.818 577.394 372.648C577.573 372.477 577.709 372.268 577.803 372.021L580.321 372.188C580.194 372.793 579.932 373.321 579.535 373.773C579.143 374.22 578.636 374.57 578.014 374.821C577.396 375.068 576.682 375.192 575.873 375.192Z" fill="black"/>
<path d="M179.541 353V339.909H182.309V350.718H187.921V353H179.541ZM194.139 353.192C193.146 353.192 192.287 352.981 191.563 352.559C190.843 352.133 190.287 351.54 189.895 350.782C189.503 350.019 189.307 349.135 189.307 348.129C189.307 347.115 189.503 346.229 189.895 345.47C190.287 344.707 190.843 344.115 191.563 343.693C192.287 343.267 193.146 343.054 194.139 343.054C195.132 343.054 195.988 343.267 196.709 343.693C197.433 344.115 197.991 344.707 198.383 345.47C198.775 346.229 198.971 347.115 198.971 348.129C198.971 349.135 198.775 350.019 198.383 350.782C197.991 351.54 197.433 352.133 196.709 352.559C195.988 352.981 195.132 353.192 194.139 353.192ZM194.152 351.082C194.603 351.082 194.981 350.955 195.283 350.699C195.586 350.439 195.814 350.085 195.967 349.638C196.125 349.19 196.204 348.681 196.204 348.11C196.204 347.539 196.125 347.03 195.967 346.582C195.814 346.135 195.586 345.781 195.283 345.521C194.981 345.261 194.603 345.131 194.152 345.131C193.696 345.131 193.312 345.261 193.001 345.521C192.694 345.781 192.462 346.135 192.304 346.582C192.151 347.03 192.074 347.539 192.074 348.11C192.074 348.681 192.151 349.19 192.304 349.638C192.462 350.085 192.694 350.439 193.001 350.699C193.312 350.955 193.696 351.082 194.152 351.082ZM202.433 353L199.761 343.182H202.516L204.037 349.778H204.127L205.712 343.182H208.416L210.026 349.74H210.109L211.605 343.182H214.354L211.688 353H208.805L207.118 346.825H206.997L205.309 353H202.433ZM220.035 353.192C219.025 353.192 218.155 352.987 217.427 352.578C216.702 352.165 216.144 351.581 215.752 350.827C215.36 350.068 215.164 349.171 215.164 348.136C215.164 347.126 215.36 346.239 215.752 345.477C216.144 344.714 216.696 344.119 217.408 343.693C218.123 343.267 218.963 343.054 219.926 343.054C220.574 343.054 221.177 343.158 221.735 343.367C222.297 343.572 222.788 343.881 223.205 344.294C223.627 344.707 223.955 345.227 224.19 345.854C224.424 346.476 224.541 347.205 224.541 348.04V348.788H216.251V347.1H221.978C221.978 346.708 221.893 346.361 221.722 346.058C221.552 345.756 221.315 345.519 221.013 345.349C220.714 345.174 220.367 345.087 219.971 345.087C219.557 345.087 219.191 345.183 218.871 345.374C218.556 345.562 218.309 345.815 218.13 346.135C217.951 346.45 217.859 346.802 217.855 347.19V348.794C217.855 349.28 217.945 349.7 218.123 350.053C218.307 350.407 218.565 350.68 218.897 350.871C219.229 351.063 219.623 351.159 220.079 351.159C220.382 351.159 220.659 351.116 220.91 351.031C221.162 350.946 221.377 350.818 221.556 350.648C221.735 350.477 221.871 350.268 221.965 350.021L224.484 350.188C224.356 350.793 224.094 351.321 223.697 351.773C223.305 352.22 222.798 352.57 222.176 352.821C221.558 353.068 220.844 353.192 220.035 353.192ZM226.318 353V343.182H228.958V344.895H229.06C229.239 344.286 229.54 343.825 229.962 343.514C230.383 343.199 230.869 343.041 231.419 343.041C231.555 343.041 231.702 343.05 231.86 343.067C232.018 343.084 232.156 343.107 232.275 343.137V345.553C232.148 345.515 231.971 345.481 231.745 345.451C231.519 345.421 231.312 345.406 231.125 345.406C230.724 345.406 230.366 345.494 230.051 345.668C229.74 345.839 229.493 346.077 229.31 346.384C229.131 346.691 229.041 347.045 229.041 347.445V353H226.318ZM176.009 370.449H178.362L179.544 371.97L180.708 373.325L182.9 376.074H180.318L178.809 374.22L178.036 373.121L176.009 370.449ZM183.098 368.455C183.098 369.882 182.828 371.097 182.286 372.098C181.75 373.099 181.017 373.864 180.088 374.393C179.163 374.917 178.123 375.179 176.968 375.179C175.805 375.179 174.761 374.915 173.836 374.386C172.911 373.858 172.181 373.093 171.644 372.092C171.107 371.09 170.838 369.878 170.838 368.455C170.838 367.027 171.107 365.812 171.644 364.811C172.181 363.81 172.911 363.047 173.836 362.523C174.761 361.994 175.805 361.73 176.968 361.73C178.123 361.73 179.163 361.994 180.088 362.523C181.017 363.047 181.75 363.81 182.286 364.811C182.828 365.812 183.098 367.027 183.098 368.455ZM180.292 368.455C180.292 367.53 180.154 366.75 179.877 366.115C179.604 365.48 179.218 364.999 178.72 364.67C178.221 364.342 177.637 364.178 176.968 364.178C176.299 364.178 175.715 364.342 175.217 364.67C174.718 364.999 174.331 365.48 174.054 366.115C173.781 366.75 173.644 367.53 173.644 368.455C173.644 369.379 173.781 370.159 174.054 370.794C174.331 371.429 174.718 371.911 175.217 372.239C175.715 372.567 176.299 372.731 176.968 372.731C177.637 372.731 178.221 372.567 178.72 372.239C179.218 371.911 179.604 371.429 179.877 370.794C180.154 370.159 180.292 369.379 180.292 368.455ZM191.394 370.82V365.182H194.117V375H191.502V373.217H191.4C191.178 373.792 190.81 374.254 190.294 374.604C189.783 374.953 189.158 375.128 188.421 375.128C187.765 375.128 187.188 374.979 186.689 374.68C186.19 374.382 185.801 373.958 185.519 373.408C185.242 372.859 185.102 372.2 185.097 371.433V365.182H187.82V370.947C187.825 371.527 187.98 371.985 188.287 372.322C188.594 372.658 189.005 372.827 189.521 372.827C189.849 372.827 190.156 372.752 190.441 372.603C190.727 372.45 190.957 372.224 191.131 371.925C191.31 371.627 191.398 371.259 191.394 370.82ZM199.094 375.185C198.468 375.185 197.91 375.077 197.42 374.859C196.93 374.638 196.542 374.312 196.256 373.881C195.975 373.447 195.834 372.906 195.834 372.258C195.834 371.712 195.935 371.254 196.135 370.884C196.335 370.513 196.608 370.214 196.953 369.989C197.298 369.763 197.69 369.592 198.129 369.477C198.572 369.362 199.037 369.281 199.523 369.234C200.094 369.175 200.554 369.119 200.903 369.068C201.253 369.013 201.506 368.932 201.664 368.825C201.822 368.719 201.9 368.561 201.9 368.352V368.314C201.9 367.909 201.773 367.596 201.517 367.374C201.266 367.153 200.908 367.042 200.443 367.042C199.953 367.042 199.563 367.151 199.273 367.368C198.984 367.581 198.792 367.849 198.698 368.173L196.18 367.969C196.307 367.372 196.559 366.857 196.934 366.422C197.309 365.983 197.793 365.646 198.385 365.412C198.981 365.173 199.672 365.054 200.456 365.054C201.001 365.054 201.523 365.118 202.022 365.246C202.525 365.374 202.97 365.572 203.358 365.84C203.75 366.109 204.059 366.454 204.285 366.876C204.511 367.293 204.623 367.794 204.623 368.378V375H202.041V373.638H201.964C201.807 373.945 201.596 374.216 201.332 374.45C201.067 374.68 200.75 374.862 200.379 374.994C200.008 375.121 199.58 375.185 199.094 375.185ZM199.874 373.306C200.275 373.306 200.628 373.227 200.935 373.07C201.242 372.908 201.483 372.69 201.658 372.418C201.832 372.145 201.92 371.836 201.92 371.491V370.449C201.834 370.504 201.717 370.555 201.568 370.602C201.423 370.645 201.259 370.685 201.076 370.724C200.893 370.758 200.709 370.79 200.526 370.82C200.343 370.845 200.177 370.869 200.028 370.89C199.708 370.937 199.429 371.011 199.19 371.114C198.952 371.216 198.766 371.354 198.634 371.529C198.502 371.7 198.436 371.913 198.436 372.168C198.436 372.539 198.57 372.822 198.839 373.018C199.111 373.21 199.457 373.306 199.874 373.306ZM206.736 375V365.182H209.376V366.895H209.478C209.657 366.286 209.958 365.825 210.38 365.514C210.801 365.199 211.287 365.041 211.837 365.041C211.973 365.041 212.12 365.05 212.278 365.067C212.436 365.084 212.574 365.107 212.693 365.137V367.553C212.566 367.515 212.389 367.481 212.163 367.451C211.937 367.421 211.73 367.406 211.543 367.406C211.142 367.406 210.784 367.494 210.469 367.668C210.158 367.839 209.911 368.077 209.728 368.384C209.549 368.691 209.459 369.045 209.459 369.445V375H206.736ZM219.816 365.182V367.227H213.903V365.182H219.816ZM215.245 362.83H217.968V371.983C217.968 372.234 218.007 372.43 218.084 372.571C218.16 372.707 218.267 372.803 218.403 372.859C218.544 372.914 218.706 372.942 218.889 372.942C219.017 372.942 219.145 372.931 219.272 372.91C219.4 372.884 219.498 372.865 219.566 372.852L219.995 374.879C219.858 374.921 219.667 374.97 219.419 375.026C219.172 375.085 218.872 375.121 218.518 375.134C217.862 375.16 217.287 375.072 216.792 374.872C216.302 374.672 215.921 374.361 215.648 373.939C215.375 373.517 215.241 372.984 215.245 372.341V362.83ZM221.59 375V365.182H224.313V375H221.59ZM222.957 363.916C222.553 363.916 222.205 363.782 221.916 363.513C221.63 363.241 221.487 362.915 221.487 362.536C221.487 362.161 221.63 361.839 221.916 361.57C222.205 361.298 222.553 361.161 222.957 361.161C223.362 361.161 223.707 361.298 223.993 361.57C224.283 361.839 224.428 362.161 224.428 362.536C224.428 362.915 224.283 363.241 223.993 363.513C223.707 363.782 223.362 363.916 222.957 363.916ZM229.217 361.909V375H226.494V361.909H229.217ZM235.873 375.192C234.863 375.192 233.993 374.987 233.265 374.578C232.54 374.165 231.982 373.581 231.59 372.827C231.198 372.068 231.002 371.171 231.002 370.136C231.002 369.126 231.198 368.239 231.59 367.477C231.982 366.714 232.534 366.119 233.245 365.693C233.961 365.267 234.801 365.054 235.764 365.054C236.412 365.054 237.015 365.158 237.573 365.367C238.135 365.572 238.625 365.881 239.043 366.294C239.465 366.707 239.793 367.227 240.027 367.854C240.262 368.476 240.379 369.205 240.379 370.04V370.788H232.089V369.1H237.816C237.816 368.708 237.731 368.361 237.56 368.058C237.39 367.756 237.153 367.519 236.851 367.349C236.552 367.174 236.205 367.087 235.809 367.087C235.395 367.087 235.029 367.183 234.709 367.374C234.394 367.562 234.147 367.815 233.968 368.135C233.789 368.45 233.697 368.802 233.693 369.19V370.794C233.693 371.28 233.782 371.7 233.961 372.053C234.145 372.407 234.402 372.68 234.735 372.871C235.067 373.063 235.461 373.159 235.917 373.159C236.22 373.159 236.497 373.116 236.748 373.031C237 372.946 237.215 372.818 237.394 372.648C237.573 372.477 237.709 372.268 237.803 372.021L240.321 372.188C240.194 372.793 239.932 373.321 239.535 373.773C239.143 374.22 238.636 374.57 238.014 374.821C237.396 375.068 236.682 375.192 235.873 375.192Z" fill="black"/>
<path d="M299.805 92.5455V110H297.692V92.5455H299.805ZM310.384 104.545H312.702L314.646 107.102L315.157 107.784L318.055 111.636H315.737L313.827 109.08L313.35 108.432L310.384 104.545ZM318.771 101.273C318.771 103.114 318.438 104.705 317.773 106.045C317.109 107.386 316.197 108.42 315.038 109.148C313.879 109.875 312.555 110.239 311.066 110.239C309.577 110.239 308.254 109.875 307.094 109.148C305.935 108.42 305.023 107.386 304.359 106.045C303.694 104.705 303.362 103.114 303.362 101.273C303.362 99.4318 303.694 97.8409 304.359 96.5C305.023 95.1591 305.935 94.125 307.094 93.3977C308.254 92.6705 309.577 92.3068 311.066 92.3068C312.555 92.3068 313.879 92.6705 315.038 93.3977C316.197 94.125 317.109 95.1591 317.773 96.5C318.438 97.8409 318.771 99.4318 318.771 101.273ZM316.725 101.273C316.725 99.7614 316.472 98.4858 315.967 97.446C315.467 96.4062 314.788 95.6193 313.93 95.0852C313.077 94.5511 312.123 94.2841 311.066 94.2841C310.009 94.2841 309.052 94.5511 308.194 95.0852C307.342 95.6193 306.663 96.4062 306.157 97.446C305.657 98.4858 305.407 99.7614 305.407 101.273C305.407 102.784 305.657 104.06 306.157 105.099C306.663 106.139 307.342 106.926 308.194 107.46C309.052 107.994 310.009 108.261 311.066 108.261C312.123 108.261 313.077 107.994 313.93 107.46C314.788 106.926 315.467 106.139 315.967 105.099C316.472 104.06 316.725 102.784 316.725 101.273ZM322.325 110V92.5455H328.222C329.586 92.5455 330.705 92.7784 331.58 93.2443C332.455 93.7045 333.103 94.3381 333.523 95.1449C333.944 95.9517 334.154 96.8693 334.154 97.8977C334.154 98.9261 333.944 99.8381 333.523 100.634C333.103 101.429 332.458 102.054 331.589 102.509C330.719 102.957 329.609 103.182 328.256 103.182H323.484V101.273H328.188C329.12 101.273 329.87 101.136 330.438 100.864C331.012 100.591 331.427 100.205 331.683 99.7045C331.944 99.1989 332.075 98.5966 332.075 97.8977C332.075 97.1989 331.944 96.5881 331.683 96.0653C331.421 95.5426 331.004 95.1392 330.43 94.8551C329.856 94.5653 329.097 94.4205 328.154 94.4205H324.438V110H322.325ZM330.54 102.159L334.836 110H332.381L328.154 102.159H330.54ZM344.972 99.6705V97.8295H355.472V99.6705H344.972ZM344.972 104.716V102.875H355.472V104.716H344.972ZM373.337 104.545H375.656L377.599 107.102L378.11 107.784L381.008 111.636H378.69L376.781 109.08L376.303 108.432L373.337 104.545ZM381.724 101.273C381.724 103.114 381.391 104.705 380.727 106.045C380.062 107.386 379.15 108.42 377.991 109.148C376.832 109.875 375.508 110.239 374.019 110.239C372.531 110.239 371.207 109.875 370.048 109.148C368.888 108.42 367.977 107.386 367.312 106.045C366.647 104.705 366.315 103.114 366.315 101.273C366.315 99.4318 366.647 97.8409 367.312 96.5C367.977 95.1591 368.888 94.125 370.048 93.3977C371.207 92.6705 372.531 92.3068 374.019 92.3068C375.508 92.3068 376.832 92.6705 377.991 93.3977C379.15 94.125 380.062 95.1591 380.727 96.5C381.391 97.8409 381.724 99.4318 381.724 101.273ZM379.678 101.273C379.678 99.7614 379.425 98.4858 378.92 97.446C378.42 96.4062 377.741 95.6193 376.883 95.0852C376.031 94.5511 375.076 94.2841 374.019 94.2841C372.962 94.2841 372.005 94.5511 371.147 95.0852C370.295 95.6193 369.616 96.4062 369.11 97.446C368.61 98.4858 368.36 99.7614 368.36 101.273C368.36 102.784 368.61 104.06 369.11 105.099C369.616 106.139 370.295 106.926 371.147 107.46C372.005 107.994 372.962 108.261 374.019 108.261C375.076 108.261 376.031 107.994 376.883 107.46C377.741 106.926 378.42 106.139 378.92 105.099C379.425 104.06 379.678 102.784 379.678 101.273ZM390.869 110.239C389.744 110.239 388.741 110.045 387.86 109.659C386.985 109.273 386.289 108.736 385.772 108.048C385.261 107.355 384.982 106.551 384.937 105.636H387.085C387.13 106.199 387.323 106.685 387.664 107.094C388.005 107.497 388.451 107.81 389.002 108.031C389.553 108.253 390.164 108.364 390.835 108.364C391.585 108.364 392.249 108.233 392.829 107.972C393.408 107.71 393.863 107.347 394.192 106.881C394.522 106.415 394.687 105.875 394.687 105.261C394.687 104.619 394.528 104.054 394.21 103.565C393.891 103.071 393.425 102.685 392.812 102.406C392.198 102.128 391.448 101.989 390.562 101.989H389.164V100.114H390.562C391.255 100.114 391.863 99.9886 392.386 99.7386C392.914 99.4886 393.326 99.1364 393.621 98.6818C393.923 98.2273 394.073 97.6932 394.073 97.0795C394.073 96.4886 393.942 95.9744 393.681 95.5369C393.42 95.0994 393.05 94.7585 392.573 94.5142C392.102 94.2699 391.545 94.1477 390.903 94.1477C390.3 94.1477 389.732 94.2585 389.198 94.4801C388.67 94.696 388.238 95.0114 387.903 95.4261C387.567 95.8352 387.386 96.3295 387.357 96.9091H385.312C385.346 95.9943 385.621 95.1932 386.138 94.5057C386.656 93.8125 387.332 93.2727 388.167 92.8864C389.008 92.5 389.931 92.3068 390.937 92.3068C392.016 92.3068 392.942 92.5256 393.715 92.9631C394.488 93.3949 395.082 93.9659 395.496 94.6761C395.911 95.3864 396.119 96.1534 396.119 96.9773C396.119 97.9602 395.86 98.7983 395.343 99.4915C394.832 100.185 394.136 100.665 393.255 100.932V101.068C394.357 101.25 395.218 101.719 395.837 102.474C396.457 103.224 396.766 104.153 396.766 105.261C396.766 106.21 396.508 107.062 395.991 107.818C395.479 108.568 394.781 109.159 393.894 109.591C393.008 110.023 391.999 110.239 390.869 110.239ZM414.536 100.335V102.21H406.9V100.335H414.536ZM431.439 104.545H433.757L435.7 107.102L436.212 107.784L439.109 111.636H436.791L434.882 109.08L434.405 108.432L431.439 104.545ZM439.825 101.273C439.825 103.114 439.493 104.705 438.828 106.045C438.163 107.386 437.251 108.42 436.092 109.148C434.933 109.875 433.609 110.239 432.121 110.239C430.632 110.239 429.308 109.875 428.149 109.148C426.99 108.42 426.078 107.386 425.413 106.045C424.749 104.705 424.416 103.114 424.416 101.273C424.416 99.4318 424.749 97.8409 425.413 96.5C426.078 95.1591 426.99 94.125 428.149 93.3977C429.308 92.6705 430.632 92.3068 432.121 92.3068C433.609 92.3068 434.933 92.6705 436.092 93.3977C437.251 94.125 438.163 95.1591 438.828 96.5C439.493 97.8409 439.825 99.4318 439.825 101.273ZM437.78 101.273C437.78 99.7614 437.527 98.4858 437.021 97.446C436.521 96.4062 435.842 95.6193 434.984 95.0852C434.132 94.5511 433.178 94.2841 432.121 94.2841C431.064 94.2841 430.107 94.5511 429.249 95.0852C428.396 95.6193 427.717 96.4062 427.212 97.446C426.712 98.4858 426.462 99.7614 426.462 101.273C426.462 102.784 426.712 104.06 427.212 105.099C427.717 106.139 428.396 106.926 429.249 107.46C430.107 107.994 431.064 108.261 432.121 108.261C433.178 108.261 434.132 107.994 434.984 107.46C435.842 106.926 436.521 106.139 437.021 105.099C437.527 104.06 437.78 102.784 437.78 101.273ZM449.209 92.5455V110H447.095V94.7614H446.993L442.732 97.5909V95.4432L447.095 92.5455H449.209Z" fill="black"/>
<path d="M83.214 245V241.011L92.5336 232.382C93.3262 231.615 93.9909 230.925 94.5279 230.311C95.0733 229.697 95.4867 229.097 95.7679 228.509C96.0492 227.912 96.1898 227.268 96.1898 226.578C96.1898 225.811 96.0151 225.151 95.6657 224.597C95.3162 224.034 94.839 223.604 94.2338 223.305C93.6287 222.999 92.9426 222.845 92.1756 222.845C91.3745 222.845 90.6756 223.007 90.079 223.331C89.4824 223.655 89.0222 224.119 88.6983 224.724C88.3745 225.33 88.2125 226.05 88.2125 226.885H82.9583C82.9583 225.172 83.3461 223.685 84.1216 222.423C84.8972 221.162 85.9838 220.186 87.3816 219.496C88.7793 218.805 90.3901 218.46 92.214 218.46C94.089 218.46 95.7211 218.793 97.1103 219.457C98.508 220.114 99.5946 221.026 100.37 222.193C101.146 223.361 101.534 224.699 101.534 226.207C101.534 227.196 101.338 228.172 100.945 229.135C100.562 230.098 99.8759 231.168 98.8873 232.344C97.8986 233.511 96.5051 234.913 94.7069 236.55L90.8844 240.295V240.474H101.879V245H83.214ZM115.452 245.358C113.645 245.358 112.035 245.026 110.62 244.361C109.214 243.696 108.097 242.78 107.27 241.612C106.444 240.445 106.013 239.107 105.979 237.598H111.349C111.408 238.612 111.834 239.435 112.627 240.065C113.42 240.696 114.361 241.011 115.452 241.011C116.322 241.011 117.089 240.82 117.753 240.436C118.427 240.044 118.951 239.503 119.326 238.812C119.709 238.114 119.901 237.312 119.901 236.409C119.901 235.489 119.705 234.679 119.313 233.98C118.93 233.281 118.397 232.736 117.715 232.344C117.033 231.952 116.253 231.751 115.376 231.743C114.608 231.743 113.863 231.901 113.138 232.216C112.422 232.531 111.864 232.962 111.464 233.507L106.542 232.625L107.782 218.818H123.787V223.344H112.346L111.668 229.902H111.822C112.282 229.254 112.976 228.717 113.905 228.291C114.834 227.865 115.874 227.652 117.025 227.652C118.601 227.652 120.008 228.023 121.243 228.764C122.479 229.506 123.455 230.524 124.171 231.82C124.887 233.107 125.241 234.589 125.232 236.268C125.241 238.033 124.831 239.601 124.005 240.973C123.187 242.337 122.04 243.411 120.566 244.195C119.1 244.97 117.395 245.358 115.452 245.358ZM143.424 240.091V238.71C143.424 237.662 143.645 236.699 144.089 235.821C144.54 234.935 145.192 234.227 146.045 233.699C146.905 233.162 147.954 232.893 149.189 232.893C150.442 232.893 151.495 233.158 152.347 233.686C153.208 234.214 153.856 234.922 154.29 235.808C154.733 236.686 154.955 237.653 154.955 238.71V240.091C154.955 241.139 154.733 242.107 154.29 242.993C153.847 243.871 153.195 244.574 152.334 245.102C151.474 245.639 150.425 245.908 149.189 245.908C147.937 245.908 146.884 245.639 146.032 245.102C145.18 244.574 144.532 243.871 144.089 242.993C143.645 242.107 143.424 241.139 143.424 240.091ZM147.144 238.71V240.091C147.144 240.696 147.289 241.267 147.579 241.804C147.877 242.341 148.414 242.609 149.189 242.609C149.965 242.609 150.493 242.345 150.775 241.817C151.064 241.288 151.209 240.713 151.209 240.091V238.71C151.209 238.088 151.073 237.509 150.8 236.972C150.528 236.435 149.991 236.166 149.189 236.166C148.422 236.166 147.89 236.435 147.591 236.972C147.293 237.509 147.144 238.088 147.144 238.71ZM129.988 225.108V223.727C129.988 222.67 130.214 221.703 130.665 220.825C131.117 219.939 131.769 219.232 132.621 218.703C133.482 218.175 134.522 217.911 135.741 217.911C137.002 217.911 138.059 218.175 138.911 218.703C139.763 219.232 140.411 219.939 140.854 220.825C141.297 221.703 141.519 222.67 141.519 223.727V225.108C141.519 226.165 141.293 227.132 140.841 228.01C140.398 228.888 139.746 229.591 138.885 230.119C138.033 230.639 136.985 230.899 135.741 230.899C134.496 230.899 133.444 230.635 132.583 230.107C131.731 229.57 131.083 228.866 130.64 227.997C130.205 227.119 129.988 226.156 129.988 225.108ZM133.733 223.727V225.108C133.733 225.73 133.878 226.305 134.168 226.834C134.466 227.362 134.991 227.626 135.741 227.626C136.525 227.626 137.057 227.362 137.339 226.834C137.628 226.305 137.773 225.73 137.773 225.108V223.727C137.773 223.105 137.637 222.526 137.364 221.989C137.091 221.452 136.55 221.183 135.741 221.183C134.982 221.183 134.458 221.456 134.168 222.001C133.878 222.547 133.733 223.122 133.733 223.727ZM131.675 245L149.675 218.818H153.025L135.025 245H131.675Z" fill="black"/>
<path d="M258.214 245V241.011L267.534 232.382C268.326 231.615 268.991 230.925 269.528 230.311C270.073 229.697 270.487 229.097 270.768 228.509C271.049 227.912 271.19 227.268 271.19 226.578C271.19 225.811 271.015 225.151 270.666 224.597C270.316 224.034 269.839 223.604 269.234 223.305C268.629 222.999 267.943 222.845 267.176 222.845C266.374 222.845 265.676 223.007 265.079 223.331C264.482 223.655 264.022 224.119 263.698 224.724C263.374 225.33 263.213 226.05 263.213 226.885H257.958C257.958 225.172 258.346 223.685 259.122 222.423C259.897 221.162 260.984 220.186 262.382 219.496C263.779 218.805 265.39 218.46 267.214 218.46C269.089 218.46 270.721 218.793 272.11 219.457C273.508 220.114 274.595 221.026 275.37 222.193C276.146 223.361 276.534 224.699 276.534 226.207C276.534 227.196 276.338 228.172 275.945 229.135C275.562 230.098 274.876 231.168 273.887 232.344C272.899 233.511 271.505 234.913 269.707 236.55L265.884 240.295V240.474H276.879V245H258.214ZM290.452 245.358C288.645 245.358 287.035 245.026 285.62 244.361C284.214 243.696 283.097 242.78 282.27 241.612C281.444 240.445 281.013 239.107 280.979 237.598H286.349C286.408 238.612 286.834 239.435 287.627 240.065C288.42 240.696 289.361 241.011 290.452 241.011C291.322 241.011 292.089 240.82 292.753 240.436C293.427 240.044 293.951 239.503 294.326 238.812C294.709 238.114 294.901 237.312 294.901 236.409C294.901 235.489 294.705 234.679 294.313 233.98C293.93 233.281 293.397 232.736 292.715 232.344C292.033 231.952 291.253 231.751 290.376 231.743C289.608 231.743 288.863 231.901 288.138 232.216C287.422 232.531 286.864 232.962 286.464 233.507L281.542 232.625L282.782 218.818H298.787V223.344H287.346L286.668 229.902H286.822C287.282 229.254 287.976 228.717 288.905 228.291C289.834 227.865 290.874 227.652 292.025 227.652C293.601 227.652 295.008 228.023 296.243 228.764C297.479 229.506 298.455 230.524 299.171 231.82C299.887 233.107 300.241 234.589 300.232 236.268C300.241 238.033 299.831 239.601 299.005 240.973C298.187 242.337 297.04 243.411 295.566 244.195C294.1 244.97 292.395 245.358 290.452 245.358ZM318.424 240.091V238.71C318.424 237.662 318.645 236.699 319.089 235.821C319.54 234.935 320.192 234.227 321.045 233.699C321.905 233.162 322.954 232.893 324.189 232.893C325.442 232.893 326.495 233.158 327.347 233.686C328.208 234.214 328.856 234.922 329.29 235.808C329.733 236.686 329.955 237.653 329.955 238.71V240.091C329.955 241.139 329.733 242.107 329.29 242.993C328.847 243.871 328.195 244.574 327.334 245.102C326.474 245.639 325.425 245.908 324.189 245.908C322.937 245.908 321.884 245.639 321.032 245.102C320.18 244.574 319.532 243.871 319.089 242.993C318.645 242.107 318.424 241.139 318.424 240.091ZM322.144 238.71V240.091C322.144 240.696 322.289 241.267 322.579 241.804C322.877 242.341 323.414 242.609 324.189 242.609C324.965 242.609 325.493 242.345 325.775 241.817C326.064 241.288 326.209 240.713 326.209 240.091V238.71C326.209 238.088 326.073 237.509 325.8 236.972C325.528 236.435 324.991 236.166 324.189 236.166C323.422 236.166 322.89 236.435 322.591 236.972C322.293 237.509 322.144 238.088 322.144 238.71ZM304.988 225.108V223.727C304.988 222.67 305.214 221.703 305.665 220.825C306.117 219.939 306.769 219.232 307.621 218.703C308.482 218.175 309.522 217.911 310.741 217.911C312.002 217.911 313.059 218.175 313.911 218.703C314.763 219.232 315.411 219.939 315.854 220.825C316.297 221.703 316.519 222.67 316.519 223.727V225.108C316.519 226.165 316.293 227.132 315.841 228.01C315.398 228.888 314.746 229.591 313.885 230.119C313.033 230.639 311.985 230.899 310.741 230.899C309.496 230.899 308.444 230.635 307.583 230.107C306.731 229.57 306.083 228.866 305.64 227.997C305.205 227.119 304.988 226.156 304.988 225.108ZM308.733 223.727V225.108C308.733 225.73 308.878 226.305 309.168 226.834C309.466 227.362 309.991 227.626 310.741 227.626C311.525 227.626 312.057 227.362 312.339 226.834C312.628 226.305 312.773 225.73 312.773 225.108V223.727C312.773 223.105 312.637 222.526 312.364 221.989C312.091 221.452 311.55 221.183 310.741 221.183C309.982 221.183 309.458 221.456 309.168 222.001C308.878 222.547 308.733 223.122 308.733 223.727ZM306.675 245L324.675 218.818H328.025L310.025 245H306.675Z" fill="black"/>
<path d="M421.214 248V244.011L430.534 235.382C431.326 234.615 431.991 233.925 432.528 233.311C433.073 232.697 433.487 232.097 433.768 231.509C434.049 230.912 434.19 230.268 434.19 229.578C434.19 228.811 434.015 228.151 433.666 227.597C433.316 227.034 432.839 226.604 432.234 226.305C431.629 225.999 430.943 225.845 430.176 225.845C429.374 225.845 428.676 226.007 428.079 226.331C427.482 226.655 427.022 227.119 426.698 227.724C426.374 228.33 426.213 229.05 426.213 229.885H420.958C420.958 228.172 421.346 226.685 422.122 225.423C422.897 224.162 423.984 223.186 425.382 222.496C426.779 221.805 428.39 221.46 430.214 221.46C432.089 221.46 433.721 221.793 435.11 222.457C436.508 223.114 437.595 224.026 438.37 225.193C439.146 226.361 439.534 227.699 439.534 229.207C439.534 230.196 439.338 231.172 438.945 232.135C438.562 233.098 437.876 234.168 436.887 235.344C435.899 236.511 434.505 237.913 432.707 239.55L428.884 243.295V243.474H439.879V248H421.214ZM453.452 248.358C451.645 248.358 450.035 248.026 448.62 247.361C447.214 246.696 446.097 245.78 445.27 244.612C444.444 243.445 444.013 242.107 443.979 240.598H449.349C449.408 241.612 449.834 242.435 450.627 243.065C451.42 243.696 452.361 244.011 453.452 244.011C454.322 244.011 455.089 243.82 455.753 243.436C456.427 243.044 456.951 242.503 457.326 241.812C457.709 241.114 457.901 240.312 457.901 239.409C457.901 238.489 457.705 237.679 457.313 236.98C456.93 236.281 456.397 235.736 455.715 235.344C455.033 234.952 454.253 234.751 453.376 234.743C452.608 234.743 451.863 234.901 451.138 235.216C450.422 235.531 449.864 235.962 449.464 236.507L444.542 235.625L445.782 221.818H461.787V226.344H450.346L449.668 232.902H449.822C450.282 232.254 450.976 231.717 451.905 231.291C452.834 230.865 453.874 230.652 455.025 230.652C456.601 230.652 458.008 231.023 459.243 231.764C460.479 232.506 461.455 233.524 462.171 234.82C462.887 236.107 463.241 237.589 463.232 239.268C463.241 241.033 462.831 242.601 462.005 243.973C461.187 245.337 460.04 246.411 458.566 247.195C457.1 247.97 455.395 248.358 453.452 248.358ZM481.424 243.091V241.71C481.424 240.662 481.645 239.699 482.089 238.821C482.54 237.935 483.192 237.227 484.045 236.699C484.905 236.162 485.954 235.893 487.189 235.893C488.442 235.893 489.495 236.158 490.347 236.686C491.208 237.214 491.856 237.922 492.29 238.808C492.733 239.686 492.955 240.653 492.955 241.71V243.091C492.955 244.139 492.733 245.107 492.29 245.993C491.847 246.871 491.195 247.574 490.334 248.102C489.474 248.639 488.425 248.908 487.189 248.908C485.937 248.908 484.884 248.639 484.032 248.102C483.18 247.574 482.532 246.871 482.089 245.993C481.645 245.107 481.424 244.139 481.424 243.091ZM485.144 241.71V243.091C485.144 243.696 485.289 244.267 485.579 244.804C485.877 245.341 486.414 245.609 487.189 245.609C487.965 245.609 488.493 245.345 488.775 244.817C489.064 244.288 489.209 243.713 489.209 243.091V241.71C489.209 241.088 489.073 240.509 488.8 239.972C488.528 239.435 487.991 239.166 487.189 239.166C486.422 239.166 485.89 239.435 485.591 239.972C485.293 240.509 485.144 241.088 485.144 241.71ZM467.988 228.108V226.727C467.988 225.67 468.214 224.703 468.665 223.825C469.117 222.939 469.769 222.232 470.621 221.703C471.482 221.175 472.522 220.911 473.741 220.911C475.002 220.911 476.059 221.175 476.911 221.703C477.763 222.232 478.411 222.939 478.854 223.825C479.297 224.703 479.519 225.67 479.519 226.727V228.108C479.519 229.165 479.293 230.132 478.841 231.01C478.398 231.888 477.746 232.591 476.885 233.119C476.033 233.639 474.985 233.899 473.741 233.899C472.496 233.899 471.444 233.635 470.583 233.107C469.731 232.57 469.083 231.866 468.64 230.997C468.205 230.119 467.988 229.156 467.988 228.108ZM471.733 226.727V228.108C471.733 228.73 471.878 229.305 472.168 229.834C472.466 230.362 472.991 230.626 473.741 230.626C474.525 230.626 475.057 230.362 475.339 229.834C475.628 229.305 475.773 228.73 475.773 228.108V226.727C475.773 226.105 475.637 225.526 475.364 224.989C475.091 224.452 474.55 224.183 473.741 224.183C472.982 224.183 472.458 224.456 472.168 225.001C471.878 225.547 471.733 226.122 471.733 226.727ZM469.675 248L487.675 221.818H491.025L473.025 248H469.675Z" fill="white"/>
<path d="M590.214 245V241.011L599.534 232.382C600.326 231.615 600.991 230.925 601.528 230.311C602.073 229.697 602.487 229.097 602.768 228.509C603.049 227.912 603.19 227.268 603.19 226.578C603.19 225.811 603.015 225.151 602.666 224.597C602.316 224.034 601.839 223.604 601.234 223.305C600.629 222.999 599.943 222.845 599.176 222.845C598.374 222.845 597.676 223.007 597.079 223.331C596.482 223.655 596.022 224.119 595.698 224.724C595.374 225.33 595.213 226.05 595.213 226.885H589.958C589.958 225.172 590.346 223.685 591.122 222.423C591.897 221.162 592.984 220.186 594.382 219.496C595.779 218.805 597.39 218.46 599.214 218.46C601.089 218.46 602.721 218.793 604.11 219.457C605.508 220.114 606.595 221.026 607.37 222.193C608.146 223.361 608.534 224.699 608.534 226.207C608.534 227.196 608.338 228.172 607.945 229.135C607.562 230.098 606.876 231.168 605.887 232.344C604.899 233.511 603.505 234.913 601.707 236.55L597.884 240.295V240.474H608.879V245H590.214ZM622.452 245.358C620.645 245.358 619.035 245.026 617.62 244.361C616.214 243.696 615.097 242.78 614.27 241.612C613.444 240.445 613.013 239.107 612.979 237.598H618.349C618.408 238.612 618.834 239.435 619.627 240.065C620.42 240.696 621.361 241.011 622.452 241.011C623.322 241.011 624.089 240.82 624.753 240.436C625.427 240.044 625.951 239.503 626.326 238.812C626.709 238.114 626.901 237.312 626.901 236.409C626.901 235.489 626.705 234.679 626.313 233.98C625.93 233.281 625.397 232.736 624.715 232.344C624.033 231.952 623.253 231.751 622.376 231.743C621.608 231.743 620.863 231.901 620.138 232.216C619.422 232.531 618.864 232.962 618.464 233.507L613.542 232.625L614.782 218.818H630.787V223.344H619.346L618.668 229.902H618.822C619.282 229.254 619.976 228.717 620.905 228.291C621.834 227.865 622.874 227.652 624.025 227.652C625.601 227.652 627.008 228.023 628.243 228.764C629.479 229.506 630.455 230.524 631.171 231.82C631.887 233.107 632.241 234.589 632.232 236.268C632.241 238.033 631.831 239.601 631.005 240.973C630.187 242.337 629.04 243.411 627.566 244.195C626.1 244.97 624.395 245.358 622.452 245.358ZM650.424 240.091V238.71C650.424 237.662 650.645 236.699 651.089 235.821C651.54 234.935 652.192 234.227 653.045 233.699C653.905 233.162 654.954 232.893 656.189 232.893C657.442 232.893 658.495 233.158 659.347 233.686C660.208 234.214 660.856 234.922 661.29 235.808C661.733 236.686 661.955 237.653 661.955 238.71V240.091C661.955 241.139 661.733 242.107 661.29 242.993C660.847 243.871 660.195 244.574 659.334 245.102C658.474 245.639 657.425 245.908 656.189 245.908C654.937 245.908 653.884 245.639 653.032 245.102C652.18 244.574 651.532 243.871 651.089 242.993C650.645 242.107 650.424 241.139 650.424 240.091ZM654.144 238.71V240.091C654.144 240.696 654.289 241.267 654.579 241.804C654.877 242.341 655.414 242.609 656.189 242.609C656.965 242.609 657.493 242.345 657.775 241.817C658.064 241.288 658.209 240.713 658.209 240.091V238.71C658.209 238.088 658.073 237.509 657.8 236.972C657.528 236.435 656.991 236.166 656.189 236.166C655.422 236.166 654.89 236.435 654.591 236.972C654.293 237.509 654.144 238.088 654.144 238.71ZM636.988 225.108V223.727C636.988 222.67 637.214 221.703 637.665 220.825C638.117 219.939 638.769 219.232 639.621 218.703C640.482 218.175 641.522 217.911 642.741 217.911C644.002 217.911 645.059 218.175 645.911 218.703C646.763 219.232 647.411 219.939 647.854 220.825C648.297 221.703 648.519 222.67 648.519 223.727V225.108C648.519 226.165 648.293 227.132 647.841 228.01C647.398 228.888 646.746 229.591 645.885 230.119C645.033 230.639 643.985 230.899 642.741 230.899C641.496 230.899 640.444 230.635 639.583 230.107C638.731 229.57 638.083 228.866 637.64 227.997C637.205 227.119 636.988 226.156 636.988 225.108ZM640.733 223.727V225.108C640.733 225.73 640.878 226.305 641.168 226.834C641.466 227.362 641.991 227.626 642.741 227.626C643.525 227.626 644.057 227.362 644.339 226.834C644.628 226.305 644.773 225.73 644.773 225.108V223.727C644.773 223.105 644.637 222.526 644.364 221.989C644.091 221.452 643.55 221.183 642.741 221.183C641.982 221.183 641.458 221.456 641.168 222.001C640.878 222.547 640.733 223.122 640.733 223.727ZM638.675 245L656.675 218.818H660.025L642.025 245H638.675Z" fill="white"/>
<path d="M196.347 315.932H199.484L201.06 317.96L202.612 319.767L205.535 323.432H202.092L200.08 320.96L199.049 319.494L196.347 315.932ZM205.799 313.273C205.799 315.176 205.438 316.795 204.717 318.131C204.001 319.466 203.023 320.486 201.785 321.19C200.552 321.889 199.165 322.239 197.626 322.239C196.075 322.239 194.683 321.886 193.45 321.182C192.217 320.477 191.242 319.457 190.526 318.122C189.81 316.787 189.452 315.17 189.452 313.273C189.452 311.369 189.81 309.75 190.526 308.415C191.242 307.08 192.217 306.062 193.45 305.364C194.683 304.659 196.075 304.307 197.626 304.307C199.165 304.307 200.552 304.659 201.785 305.364C203.023 306.062 204.001 307.08 204.717 308.415C205.438 309.75 205.799 311.369 205.799 313.273ZM202.058 313.273C202.058 312.04 201.873 311 201.504 310.153C201.14 309.307 200.626 308.665 199.961 308.227C199.296 307.79 198.518 307.571 197.626 307.571C196.734 307.571 195.955 307.79 195.29 308.227C194.626 308.665 194.109 309.307 193.739 310.153C193.376 311 193.194 312.04 193.194 313.273C193.194 314.506 193.376 315.545 193.739 316.392C194.109 317.239 194.626 317.881 195.29 318.318C195.955 318.756 196.734 318.974 197.626 318.974C198.518 318.974 199.296 318.756 199.961 318.318C200.626 317.881 201.14 317.239 201.504 316.392C201.873 315.545 202.058 314.506 202.058 313.273ZM216.024 304.545V322H212.334V308.048H212.232L208.234 310.554V307.281L212.555 304.545H216.024Z" fill="black"/>
<path d="M364.66 315.932H367.796L369.373 317.96L370.924 319.767L373.847 323.432H370.404L368.393 320.96L367.362 319.494L364.66 315.932ZM374.112 313.273C374.112 315.176 373.751 316.795 373.029 318.131C372.313 319.466 371.336 320.486 370.097 321.19C368.864 321.889 367.478 322.239 365.938 322.239C364.387 322.239 362.995 321.886 361.762 321.182C360.529 320.477 359.555 319.457 358.839 318.122C358.123 316.787 357.765 315.17 357.765 313.273C357.765 311.369 358.123 309.75 358.839 308.415C359.555 307.08 360.529 306.062 361.762 305.364C362.995 304.659 364.387 304.307 365.938 304.307C367.478 304.307 368.864 304.659 370.097 305.364C371.336 306.062 372.313 307.08 373.029 308.415C373.751 309.75 374.112 311.369 374.112 313.273ZM370.37 313.273C370.37 312.04 370.185 311 369.816 310.153C369.452 309.307 368.938 308.665 368.273 308.227C367.609 307.79 366.83 307.571 365.938 307.571C365.046 307.571 364.268 307.79 363.603 308.227C362.938 308.665 362.421 309.307 362.052 310.153C361.688 311 361.506 312.04 361.506 313.273C361.506 314.506 361.688 315.545 362.052 316.392C362.421 317.239 362.938 317.881 363.603 318.318C364.268 318.756 365.046 318.974 365.938 318.974C366.83 318.974 367.609 318.756 368.273 318.318C368.938 317.881 369.452 317.239 369.816 316.392C370.185 315.545 370.37 314.506 370.37 313.273ZM376.743 322V319.341L382.956 313.588C383.484 313.077 383.928 312.616 384.286 312.207C384.649 311.798 384.925 311.398 385.112 311.006C385.3 310.608 385.393 310.179 385.393 309.719C385.393 309.207 385.277 308.767 385.044 308.398C384.811 308.023 384.493 307.736 384.089 307.537C383.686 307.332 383.229 307.23 382.717 307.23C382.183 307.23 381.717 307.338 381.32 307.554C380.922 307.77 380.615 308.08 380.399 308.483C380.183 308.886 380.075 309.366 380.075 309.923H376.572C376.572 308.781 376.831 307.79 377.348 306.949C377.865 306.108 378.589 305.457 379.521 304.997C380.453 304.537 381.527 304.307 382.743 304.307C383.993 304.307 385.081 304.528 386.007 304.972C386.939 305.409 387.663 306.017 388.18 306.795C388.697 307.574 388.956 308.466 388.956 309.472C388.956 310.131 388.825 310.781 388.564 311.423C388.308 312.065 387.851 312.778 387.192 313.562C386.533 314.341 385.604 315.276 384.405 316.366L381.857 318.864V318.983H389.186V322H376.743Z" fill="black"/>
<path d="M534.308 315.932H537.445L539.021 317.96L540.572 319.767L543.496 323.432H540.053L538.041 320.96L537.01 319.494L534.308 315.932ZM543.76 313.273C543.76 315.176 543.399 316.795 542.678 318.131C541.962 319.466 540.984 320.486 539.746 321.19C538.513 321.889 537.126 322.239 535.587 322.239C534.036 322.239 532.643 321.886 531.411 321.182C530.178 320.477 529.203 319.457 528.487 318.122C527.771 316.787 527.413 315.17 527.413 313.273C527.413 311.369 527.771 309.75 528.487 308.415C529.203 307.08 530.178 306.062 531.411 305.364C532.643 304.659 534.036 304.307 535.587 304.307C537.126 304.307 538.513 304.659 539.746 305.364C540.984 306.062 541.962 307.08 542.678 308.415C543.399 309.75 543.76 311.369 543.76 313.273ZM540.018 313.273C540.018 312.04 539.834 311 539.464 310.153C539.101 309.307 538.587 308.665 537.922 308.227C537.257 307.79 536.479 307.571 535.587 307.571C534.695 307.571 533.916 307.79 533.251 308.227C532.587 308.665 532.07 309.307 531.7 310.153C531.337 311 531.155 312.04 531.155 313.273C531.155 314.506 531.337 315.545 531.7 316.392C532.07 317.239 532.587 317.881 533.251 318.318C533.916 318.756 534.695 318.974 535.587 318.974C536.479 318.974 537.257 318.756 537.922 318.318C538.587 317.881 539.101 317.239 539.464 316.392C539.834 315.545 540.018 314.506 540.018 313.273ZM552.843 322.239C551.57 322.239 550.437 322.02 549.442 321.582C548.454 321.139 547.673 320.531 547.099 319.759C546.531 318.98 546.238 318.082 546.221 317.065H549.937C549.96 317.491 550.099 317.866 550.354 318.19C550.616 318.509 550.962 318.756 551.394 318.932C551.826 319.108 552.312 319.196 552.852 319.196C553.414 319.196 553.911 319.097 554.343 318.898C554.775 318.699 555.113 318.423 555.357 318.071C555.602 317.719 555.724 317.312 555.724 316.852C555.724 316.386 555.593 315.974 555.332 315.616C555.076 315.253 554.707 314.969 554.224 314.764C553.746 314.56 553.178 314.457 552.519 314.457H550.891V311.747H552.519C553.076 311.747 553.567 311.651 553.994 311.457C554.425 311.264 554.761 310.997 554.999 310.656C555.238 310.31 555.357 309.906 555.357 309.446C555.357 309.009 555.252 308.625 555.042 308.295C554.837 307.96 554.548 307.699 554.173 307.511C553.803 307.324 553.371 307.23 552.877 307.23C552.377 307.23 551.92 307.321 551.505 307.503C551.09 307.679 550.758 307.932 550.508 308.261C550.258 308.591 550.124 308.977 550.107 309.42H546.57C546.587 308.415 546.874 307.528 547.431 306.761C547.988 305.994 548.738 305.395 549.681 304.963C550.63 304.526 551.701 304.307 552.894 304.307C554.099 304.307 555.153 304.526 556.056 304.963C556.96 305.401 557.661 305.991 558.161 306.736C558.667 307.474 558.917 308.304 558.911 309.224C558.917 310.202 558.613 311.017 557.999 311.67C557.391 312.324 556.599 312.739 555.621 312.915V313.051C556.906 313.216 557.883 313.662 558.553 314.389C559.229 315.111 559.565 316.014 559.559 317.099C559.565 318.094 559.278 318.977 558.698 319.75C558.124 320.523 557.332 321.131 556.32 321.574C555.309 322.017 554.15 322.239 552.843 322.239Z" fill="black"/>
</svg>
